<?xml version="1.0" encoding="utf-8"?>
<!-- Generator: Adobe Illustrator 22.1.0, SVG Export Plug-In . SVG Version: 6.00 Build 0)  -->
<svg version="1.1" id="Capa_1" xmlns="http://www.w3.org/2000/svg" xmlns:xlink="http://www.w3.org/1999/xlink" x="0px" y="0px"
	 viewBox="0 0 100 100" style="enable-background:new 0 0 100 100;" xml:space="preserve">
<style type="text/css">
	.st0{fill:#327A43;}
</style>
<path id="compras_inernet" class="st0" d="M63.6,51.2c0.2,0.5,0.2,1.2,0.2,2.2c0,0.9-0.1,1.7-0.2,2.2c-0.2,0.5-0.4,0.9-0.6,1.2
	c-0.3,0.2-0.6,0.4-1,0.5c-0.3,0.1-0.8,0.1-1.5,0.1h-1.8v-8h1.1c1,0,1.7,0,2,0.1c0.5,0.1,0.8,0.3,1.1,0.6
	C63.2,50.3,63.4,50.7,63.6,51.2z M50.4,52.3c0.3-0.1,0.5-0.3,0.7-0.5c0.2-0.2,0.2-0.5,0.2-0.9c0-0.4-0.1-0.7-0.3-1
	c-0.2-0.3-0.5-0.4-0.9-0.5c-0.2,0-0.8,0-1.8,0h-1.9v3.1h1.8C49.4,52.4,50.1,52.4,50.4,52.3z M34.8,54.6h3.3l-1.7-4.5L34.8,54.6z
	 M77.6,42.7V81c0,1.7-1.4,3-3,3H10.5c-1.7,0-3-1.4-3-3V42.7c0-1.7,1.4-3,3-3h64.1C76.3,39.7,77.6,41.1,77.6,42.7z M29.6,55.7
	L27.2,55c-0.2,0.9-0.5,1.5-1,2c-0.5,0.4-1,0.6-1.7,0.6c-0.9,0-1.6-0.3-2.2-1c-0.6-0.7-0.8-1.7-0.8-3.3c0-1.4,0.3-2.5,0.8-3.1
	c0.6-0.6,1.3-1,2.2-1c0.7,0,1.2,0.2,1.7,0.5c0.5,0.4,0.8,0.9,0.9,1.5l2.4-0.6c-0.3-1-0.7-1.7-1.2-2.2c-0.9-0.9-2.1-1.3-3.6-1.3
	c-1.7,0-3.1,0.6-4.1,1.7c-1,1.1-1.6,2.7-1.6,4.7c0,1.9,0.5,3.4,1.6,4.5c1,1.1,2.4,1.7,4,1.7c1.3,0,2.4-0.3,3.2-1
	C28.6,58,29.2,57.1,29.6,55.7z M42.6,59.4l-4.9-12.1h-2.6l-4.7,12.1h2.6l1-2.8h4.9l1.1,2.8H42.6z M46.9,54.4c0.6,0,1,0,1.2,0.1
	c0.3,0.1,0.5,0.3,0.7,0.5c0.2,0.2,0.7,0.8,1.3,1.8l1.8,2.6h2.9l-1.5-2.4c-0.6-0.9-1.1-1.6-1.4-2c-0.3-0.4-0.8-0.7-1.3-1
	c1.1-0.2,1.9-0.5,2.4-1.1c0.5-0.6,0.8-1.3,0.8-2.3c0-0.7-0.2-1.4-0.5-1.9c-0.4-0.6-0.8-0.9-1.4-1.2c-0.6-0.2-1.5-0.3-2.8-0.3h-5.2
	v12.1h2.5v-5.1H46.9z M58.1,71.9c0-3.1-2.5-5.6-5.6-5.6c-3.1,0-5.6,2.5-5.6,5.6c0,3.1,2.5,5.6,5.6,5.6C55.6,77.5,58.1,75,58.1,71.9z
	 M68.4,71.9c0-3.1-2.5-5.6-5.6-5.6c-1.7,0-3.2,0.8-4.3,2c0.6,1.1,1,2.3,1,3.6c0,1.3-0.4,2.6-1,3.6c1,1.2,2.6,2,4.3,2
	C65.9,77.5,68.4,75,68.4,71.9z M66.4,53.5c0-1.1-0.1-2.1-0.4-2.9c-0.3-0.8-0.7-1.4-1.2-2c-0.5-0.5-1.1-0.9-1.8-1.1
	c-0.5-0.2-1.3-0.2-2.3-0.2h-4.5v12.1h4.6c0.9,0,1.6-0.1,2.2-0.3c0.7-0.2,1.3-0.6,1.7-1c0.6-0.5,1-1.3,1.3-2.1
	C66.2,55.4,66.4,54.5,66.4,53.5z M92.4,55.1l-6.8-24.8l-27.5,7.5h16.6c2.7,0,4.9,2.2,4.9,4.9v19l10.7-2.9
	C91.9,58.4,92.8,56.7,92.4,55.1z M15,37.8h6l62.1-17l-0.7-2.6c-0.4-1.6-2.1-2.6-3.7-2.1L16.8,33c-1.6,0.4-2.6,2.1-2.1,3.7L15,37.8z"
	/>
</svg>
