<?xml version="1.0" encoding="utf-8"?>
<!-- Generator: Adobe Illustrator 22.1.0, SVG Export Plug-In . SVG Version: 6.00 Build 0)  -->
<svg version="1.1" id="Capa_1" xmlns="http://www.w3.org/2000/svg" xmlns:xlink="http://www.w3.org/1999/xlink" x="0px" y="0px"
	 viewBox="0 0 100 100" style="enable-background:new 0 0 100 100;" xml:space="preserve">
<style type="text/css">
	.st0{fill:#327A43;}
</style>
<path id="gobierno_internet" class="st0" d="M85.9,91.7c-4.3,0.6-8.3,0.9-13.2,1.3c0-5-0.1-12.8-0.1-14.6c0-2.4-0.7-4.1-1.5-5.5
	v20.4C64.8,93.8,57,94,50,94s-15-0.2-21.3-0.7V72.9c-0.6,1.5-1.8,3.3-1.8,5.7c0,1.7,0,9.6-0.1,14.6c-4.9-0.4-8.4-0.9-12.7-1.5
	c0.1-7,0.1-16.2,0.2-17.2c0.9-10.9,4.2-14.1,6-15.9c4.9-2.7,14.5-5.8,18.2-6.9c0.1,0,0.2-0.1,0.3-0.1c0.1,0,0.1,0,0.2-0.1
	c0.3,3.7,5.7,27,5.7,27l3.1-18.3l-1.9-4.3l3-2.9h0.9h0.2h0.9l3,2.9c0,0-1.9,4.3-1.9,4.3c0.1,0,3.1,18.3,3.1,18.3s5.3-23.3,5.7-27
	c0.1,0,0.1,0,0.2,0.1c0.1,0,0.2,0.1,0.3,0.1c3.7,1.1,13.4,4.2,18.2,6.9c1.8,1.8,5,5,6,15.9C85.8,75.5,85.9,84.7,85.9,91.7z
	 M35.7,33.8c2,8,6.8,15.2,14.6,15.2c7.8,0,12.6-7.3,14.6-15.3c2.2-1,3.6-4.4,3.3-7c-0.2-1.7-1-2.6-2.2-3C65.4,13.8,59.3,6,50.2,6
	c-9.1,0-15.1,7.7-15.6,17.6c-1.4,0.3-2.4,1.3-2.6,3.1C31.6,29.4,33.2,33.1,35.7,33.8z"/>
</svg>
