<?xml version="1.0" encoding="utf-8"?>
<!-- Generator: Adobe Illustrator 22.1.0, SVG Export Plug-In . SVG Version: 6.00 Build 0)  -->
<svg version="1.1" id="Capa_1" xmlns="http://www.w3.org/2000/svg" xmlns:xlink="http://www.w3.org/1999/xlink" x="0px" y="0px"
	 viewBox="0 0 200.5 38" enable-background="new 0 0 200.5 38" xml:space="preserve">
<metadata><?xpacket begin="﻿" id="W5M0MpCehiHzreSzNTczkc9d"?>
<x:xmpmeta xmlns:x="adobe:ns:meta/" x:xmptk="Adobe XMP Core 5.6-c143 79.161356, 2017/09/07-01:11:22        ">
   <rdf:RDF xmlns:rdf="http://www.w3.org/1999/02/22-rdf-syntax-ns#">
      <rdf:Description rdf:about=""
            xmlns:dc="http://purl.org/dc/elements/1.1/"
            xmlns:xmp="http://ns.adobe.com/xap/1.0/"
            xmlns:xmpGImg="http://ns.adobe.com/xap/1.0/g/img/"
            xmlns:xmpMM="http://ns.adobe.com/xap/1.0/mm/"
            xmlns:stRef="http://ns.adobe.com/xap/1.0/sType/ResourceRef#"
            xmlns:stEvt="http://ns.adobe.com/xap/1.0/sType/ResourceEvent#"
            xmlns:illustrator="http://ns.adobe.com/illustrator/1.0/"
            xmlns:xmpTPg="http://ns.adobe.com/xap/1.0/t/pg/"
            xmlns:stDim="http://ns.adobe.com/xap/1.0/sType/Dimensions#"
            xmlns:xmpG="http://ns.adobe.com/xap/1.0/g/"
            xmlns:pdf="http://ns.adobe.com/pdf/1.3/"
            xmlns:pdfx="http://ns.adobe.com/pdfx/1.3/">
         <dc:format>image/svg+xml</dc:format>
         <dc:title>
            <rdf:Alt>
               <rdf:li xml:lang="x-default">Web</rdf:li>
            </rdf:Alt>
         </dc:title>
         <xmp:CreatorTool>Adobe Illustrator CC 22.1 (Macintosh)</xmp:CreatorTool>
         <xmp:CreateDate>2018-05-22T16:37:50-05:00</xmp:CreateDate>
         <xmp:ModifyDate>2018-05-22T16:37:50-05:00</xmp:ModifyDate>
         <xmp:MetadataDate>2018-05-22T16:37:50-05:00</xmp:MetadataDate>
         <xmp:Thumbnails>
            <rdf:Alt>
               <rdf:li rdf:parseType="Resource">
                  <xmpGImg:width>256</xmpGImg:width>
                  <xmpGImg:height>48</xmpGImg:height>
                  <xmpGImg:format>JPEG</xmpGImg:format>
                  <xmpGImg:image>/9j/4AAQSkZJRgABAgEASABIAAD/7QAsUGhvdG9zaG9wIDMuMAA4QklNA+0AAAAAABAASAAAAAEA&#xA;AQBIAAAAAQAB/+4ADkFkb2JlAGTAAAAAAf/bAIQABgQEBAUEBgUFBgkGBQYJCwgGBggLDAoKCwoK&#xA;DBAMDAwMDAwQDA4PEA8ODBMTFBQTExwbGxscHx8fHx8fHx8fHwEHBwcNDA0YEBAYGhURFRofHx8f&#xA;Hx8fHx8fHx8fHx8fHx8fHx8fHx8fHx8fHx8fHx8fHx8fHx8fHx8fHx8fHx8f/8AAEQgAMAEAAwER&#xA;AAIRAQMRAf/EAaIAAAAHAQEBAQEAAAAAAAAAAAQFAwIGAQAHCAkKCwEAAgIDAQEBAQEAAAAAAAAA&#xA;AQACAwQFBgcICQoLEAACAQMDAgQCBgcDBAIGAnMBAgMRBAAFIRIxQVEGE2EicYEUMpGhBxWxQiPB&#xA;UtHhMxZi8CRygvElQzRTkqKyY3PCNUQnk6OzNhdUZHTD0uIIJoMJChgZhJRFRqS0VtNVKBry4/PE&#xA;1OT0ZXWFlaW1xdXl9WZ2hpamtsbW5vY3R1dnd4eXp7fH1+f3OEhYaHiImKi4yNjo+Ck5SVlpeYmZ&#xA;qbnJ2en5KjpKWmp6ipqqusra6voRAAICAQIDBQUEBQYECAMDbQEAAhEDBCESMUEFURNhIgZxgZEy&#xA;obHwFMHR4SNCFVJicvEzJDRDghaSUyWiY7LCB3PSNeJEgxdUkwgJChgZJjZFGidkdFU38qOzwygp&#xA;0+PzhJSktMTU5PRldYWVpbXF1eX1RlZmdoaWprbG1ub2R1dnd4eXp7fH1+f3OEhYaHiImKi4yNjo&#xA;+DlJWWl5iZmpucnZ6fkqOkpaanqKmqq6ytrq+v/aAAwDAQACEQMRAD8A9TySrGKnr2GKqJu/Bflv&#xA;iq6NYpBU/E3euKuZHi+KM1UdVOKqiOrryGKrsVdirsVdirsVdirsVdirsVdirsVdirsVdirsVdir&#xA;sVdirsVdirsVdirsVdirsVdirsVQMrl5Cfu+WKtIjOeK9cVbKSxEHp4HFUXDKJF9x1GKqMZ9O4Kf&#xA;sn/MYqiGNFJ8BXFULHcSmQVNQTSmKoskAEnoMVQjXUhPw/CMVVbaV35cjWlKYqsnmkWQhTQfIYqr&#xA;xMWjUnqRviq7FXYq7FXYq7FXYq7FXYq7FXYq7FXYq7FXYq7FXYq7FXYq7FXYql2KoiMBLgL7U/Cu&#xA;KokgEUO4OKoVlMEoI+wf1YqtVudwCO7YqiJZhGQKVriqlHLF6gpHQk9a4qunm48kp1HX54qh42Cu&#xA;GIrTtiqJS4DK7cacafTiqHlfm5alK9sVVY7kKqpx9q1xVE4qtZwtdugrirvUHEHxNPpxVoSEn7Jp&#xA;UgH3GKu9U0YlaBeu+Ktl258eP017Yq71BwLU6V2+Rpirubc+PH6a9sVa9Qn7Kkgd/wCmKrlYMKjp&#xA;irSuT+z8O+9fDFXK7MK8aAita4q0JDQFlIU9+uKt825EBa06muKtGQgt8JIXqRirbyBVDda9KYq2&#xA;WA4/5Rp+FcVbxVYJTxDFSFPfFWy55EKtadd/HFULcRlXr+y2+KukevBx1pQ/MYqqrdrT4lNfbFVG&#xA;WdpNqUUdsVVLWM15noOmKq8kaPuwqR0xVBxf3q/MYqiZo0Ks5HxAdcVQ0Kq0oVtwa/qxVFiGMAgD&#xA;ZuvXFULOqrIQooMVV4oYiisRv41OKq2Kqcik86DqtB+OKudG5gr0JBYfLvirQB5iilTX4j2IxVtl&#xA;bhKKbk7fcMVXEH1Ae1D+sYqsIbiY+J3J37UJriq+h9Svan8cVWqWRQpUmmwI74quRSF36kkn6cVa&#xA;RKKSa1qdqnx8MVajFFAowNKGtaYq18TRhApFRQk9BirdKOxIbcilK06DFWmRvipWnLcDuKDFWyhZ&#xA;+vEKKDp369cVaoyhQQTwbr7UOKqoNRWlPniqkvL0ggU1pQk9MVdxo5qGIoKEV7fLFVRlVhQioxVD&#xA;vat+wajwOKrPq0vh+OKqkdrvVz9AxVEAACg6Yq49DiqBi/vV+YxVGS/3TfI4qhLf++X6f1YqjcVQ&#xA;dz/fH6MVREBHpLviqpiqxpGDhQta9DXwxVySM2/Gi7718MVd6v7sOBuabV8cVcZGA+JfiJoqg1ri&#xA;rg7A/GtBStRuMVa9V6cuHwfPenyxV3rD1AtNmFQ3zxVxm+Nlp9kE1+WKtiT7G32xX5bVxVaJwYy9&#xA;Nx1XFVzSgFtuhAHuTirg71AZKA9wa/firllDOy+Hf9eKtCRyKqlV8a7nFWzKBWooAAfvxVr1HG7p&#xA;RfGvT54q2soMhSlCOnvirQmZuPFakivX3pirjKwbiFqQAW38fDFVTFXYq7FXYq7FXHpiqEjglDqS&#xA;uwO+4xVEyAlGA6kbYqoQwyrKGYUAr3HhiqJxVRngLkMvXuMVU4oJVkBIoAfEYqisVWMpMiEdBWv0&#xA;4qsjjIO6b7/FXFWuMhiCFOlO433xVdwNAVXiVNQCa1xVd+8eoK8VIIO9T+GKrf3vDhx3pTlXbFWj&#xA;C29OyjifcYq2Im2r1Knkfc4q5FeqVFAgpWvXamKrWhf0hQfHShHiMVXNGxZiOtQy/QMVXcpT+xT5&#xA;nFVghZQpBJYdRt364q2vqovALyp0av68Vc0bMWr1IFD7jFXN6rrxK8a9TX9WKuMZPIjY1qh+jFVg&#xA;iYBKpyoCCKgb1xVc6Odgnhxau4+eKv8A/9k=</xmpGImg:image>
               </rdf:li>
            </rdf:Alt>
         </xmp:Thumbnails>
         <xmpMM:RenditionClass>proof:pdf</xmpMM:RenditionClass>
         <xmpMM:OriginalDocumentID>uuid:65E6390686CF11DBA6E2D887CEACB407</xmpMM:OriginalDocumentID>
         <xmpMM:DocumentID>xmp.did:f940425b-ee3f-4eca-aedd-77643f75556a</xmpMM:DocumentID>
         <xmpMM:InstanceID>xmp.iid:f940425b-ee3f-4eca-aedd-77643f75556a</xmpMM:InstanceID>
         <xmpMM:DerivedFrom rdf:parseType="Resource">
            <stRef:instanceID>uuid:8b8a92ba-1aca-9141-a412-947819237bfc</stRef:instanceID>
            <stRef:documentID>xmp.did:56270b68-e1b1-4d69-8b01-d5705cc58df6</stRef:documentID>
            <stRef:originalDocumentID>uuid:65E6390686CF11DBA6E2D887CEACB407</stRef:originalDocumentID>
            <stRef:renditionClass>proof:pdf</stRef:renditionClass>
         </xmpMM:DerivedFrom>
         <xmpMM:History>
            <rdf:Seq>
               <rdf:li rdf:parseType="Resource">
                  <stEvt:action>saved</stEvt:action>
                  <stEvt:instanceID>xmp.iid:f940425b-ee3f-4eca-aedd-77643f75556a</stEvt:instanceID>
                  <stEvt:when>2018-05-22T16:37:50-05:00</stEvt:when>
                  <stEvt:softwareAgent>Adobe Illustrator CC 22.1 (Macintosh)</stEvt:softwareAgent>
                  <stEvt:changed>/</stEvt:changed>
               </rdf:li>
            </rdf:Seq>
         </xmpMM:History>
         <illustrator:StartupProfile>Web</illustrator:StartupProfile>
         <xmpTPg:NPages>1</xmpTPg:NPages>
         <xmpTPg:HasVisibleTransparency>False</xmpTPg:HasVisibleTransparency>
         <xmpTPg:HasVisibleOverprint>False</xmpTPg:HasVisibleOverprint>
         <xmpTPg:MaxPageSize rdf:parseType="Resource">
            <stDim:w>200.509635</stDim:w>
            <stDim:h>38.029691</stDim:h>
            <stDim:unit>Pixels</stDim:unit>
         </xmpTPg:MaxPageSize>
         <xmpTPg:PlateNames>
            <rdf:Seq>
               <rdf:li>Cyan</rdf:li>
               <rdf:li>Magenta</rdf:li>
               <rdf:li>Yellow</rdf:li>
            </rdf:Seq>
         </xmpTPg:PlateNames>
         <xmpTPg:SwatchGroups>
            <rdf:Seq>
               <rdf:li rdf:parseType="Resource">
                  <xmpG:groupName>Grupo de muestras por defecto</xmpG:groupName>
                  <xmpG:groupType>0</xmpG:groupType>
                  <xmpG:Colorants>
                     <rdf:Seq>
                        <rdf:li rdf:parseType="Resource">
                           <xmpG:swatchName>Blanco</xmpG:swatchName>
                           <xmpG:mode>RGB</xmpG:mode>
                           <xmpG:type>PROCESS</xmpG:type>
                           <xmpG:red>255</xmpG:red>
                           <xmpG:green>255</xmpG:green>
                           <xmpG:blue>255</xmpG:blue>
                        </rdf:li>
                        <rdf:li rdf:parseType="Resource">
                           <xmpG:swatchName>Negro</xmpG:swatchName>
                           <xmpG:mode>RGB</xmpG:mode>
                           <xmpG:type>PROCESS</xmpG:type>
                           <xmpG:red>0</xmpG:red>
                           <xmpG:green>0</xmpG:green>
                           <xmpG:blue>0</xmpG:blue>
                        </rdf:li>
                        <rdf:li rdf:parseType="Resource">
                           <xmpG:swatchName>Rojo RGB</xmpG:swatchName>
                           <xmpG:mode>RGB</xmpG:mode>
                           <xmpG:type>PROCESS</xmpG:type>
                           <xmpG:red>255</xmpG:red>
                           <xmpG:green>0</xmpG:green>
                           <xmpG:blue>0</xmpG:blue>
                        </rdf:li>
                        <rdf:li rdf:parseType="Resource">
                           <xmpG:swatchName>Amarillo RGB</xmpG:swatchName>
                           <xmpG:mode>RGB</xmpG:mode>
                           <xmpG:type>PROCESS</xmpG:type>
                           <xmpG:red>255</xmpG:red>
                           <xmpG:green>255</xmpG:green>
                           <xmpG:blue>0</xmpG:blue>
                        </rdf:li>
                        <rdf:li rdf:parseType="Resource">
                           <xmpG:swatchName>Verde RGB</xmpG:swatchName>
                           <xmpG:mode>RGB</xmpG:mode>
                           <xmpG:type>PROCESS</xmpG:type>
                           <xmpG:red>0</xmpG:red>
                           <xmpG:green>255</xmpG:green>
                           <xmpG:blue>0</xmpG:blue>
                        </rdf:li>
                        <rdf:li rdf:parseType="Resource">
                           <xmpG:swatchName>Cian RGB</xmpG:swatchName>
                           <xmpG:mode>RGB</xmpG:mode>
                           <xmpG:type>PROCESS</xmpG:type>
                           <xmpG:red>0</xmpG:red>
                           <xmpG:green>255</xmpG:green>
                           <xmpG:blue>255</xmpG:blue>
                        </rdf:li>
                        <rdf:li rdf:parseType="Resource">
                           <xmpG:swatchName>Azul RGB</xmpG:swatchName>
                           <xmpG:mode>RGB</xmpG:mode>
                           <xmpG:type>PROCESS</xmpG:type>
                           <xmpG:red>0</xmpG:red>
                           <xmpG:green>0</xmpG:green>
                           <xmpG:blue>255</xmpG:blue>
                        </rdf:li>
                        <rdf:li rdf:parseType="Resource">
                           <xmpG:swatchName>Magenta RGB</xmpG:swatchName>
                           <xmpG:mode>RGB</xmpG:mode>
                           <xmpG:type>PROCESS</xmpG:type>
                           <xmpG:red>255</xmpG:red>
                           <xmpG:green>0</xmpG:green>
                           <xmpG:blue>255</xmpG:blue>
                        </rdf:li>
                        <rdf:li rdf:parseType="Resource">
                           <xmpG:swatchName>R=193 G=39 B=45</xmpG:swatchName>
                           <xmpG:mode>RGB</xmpG:mode>
                           <xmpG:type>PROCESS</xmpG:type>
                           <xmpG:red>193</xmpG:red>
                           <xmpG:green>39</xmpG:green>
                           <xmpG:blue>45</xmpG:blue>
                        </rdf:li>
                        <rdf:li rdf:parseType="Resource">
                           <xmpG:swatchName>R=237 G=28 B=36</xmpG:swatchName>
                           <xmpG:mode>RGB</xmpG:mode>
                           <xmpG:type>PROCESS</xmpG:type>
                           <xmpG:red>237</xmpG:red>
                           <xmpG:green>28</xmpG:green>
                           <xmpG:blue>36</xmpG:blue>
                        </rdf:li>
                        <rdf:li rdf:parseType="Resource">
                           <xmpG:swatchName>R=241 G=90 B=36</xmpG:swatchName>
                           <xmpG:mode>RGB</xmpG:mode>
                           <xmpG:type>PROCESS</xmpG:type>
                           <xmpG:red>241</xmpG:red>
                           <xmpG:green>90</xmpG:green>
                           <xmpG:blue>36</xmpG:blue>
                        </rdf:li>
                        <rdf:li rdf:parseType="Resource">
                           <xmpG:swatchName>R=247 G=147 B=30</xmpG:swatchName>
                           <xmpG:mode>RGB</xmpG:mode>
                           <xmpG:type>PROCESS</xmpG:type>
                           <xmpG:red>247</xmpG:red>
                           <xmpG:green>147</xmpG:green>
                           <xmpG:blue>30</xmpG:blue>
                        </rdf:li>
                        <rdf:li rdf:parseType="Resource">
                           <xmpG:swatchName>R=251 G=176 B=59</xmpG:swatchName>
                           <xmpG:mode>RGB</xmpG:mode>
                           <xmpG:type>PROCESS</xmpG:type>
                           <xmpG:red>251</xmpG:red>
                           <xmpG:green>176</xmpG:green>
                           <xmpG:blue>59</xmpG:blue>
                        </rdf:li>
                        <rdf:li rdf:parseType="Resource">
                           <xmpG:swatchName>R=252 G=238 B=33</xmpG:swatchName>
                           <xmpG:mode>RGB</xmpG:mode>
                           <xmpG:type>PROCESS</xmpG:type>
                           <xmpG:red>252</xmpG:red>
                           <xmpG:green>238</xmpG:green>
                           <xmpG:blue>33</xmpG:blue>
                        </rdf:li>
                        <rdf:li rdf:parseType="Resource">
                           <xmpG:swatchName>R=217 G=224 B=33</xmpG:swatchName>
                           <xmpG:mode>RGB</xmpG:mode>
                           <xmpG:type>PROCESS</xmpG:type>
                           <xmpG:red>217</xmpG:red>
                           <xmpG:green>224</xmpG:green>
                           <xmpG:blue>33</xmpG:blue>
                        </rdf:li>
                        <rdf:li rdf:parseType="Resource">
                           <xmpG:swatchName>R=140 G=198 B=63</xmpG:swatchName>
                           <xmpG:mode>RGB</xmpG:mode>
                           <xmpG:type>PROCESS</xmpG:type>
                           <xmpG:red>140</xmpG:red>
                           <xmpG:green>198</xmpG:green>
                           <xmpG:blue>63</xmpG:blue>
                        </rdf:li>
                        <rdf:li rdf:parseType="Resource">
                           <xmpG:swatchName>R=57 G=181 B=74</xmpG:swatchName>
                           <xmpG:mode>RGB</xmpG:mode>
                           <xmpG:type>PROCESS</xmpG:type>
                           <xmpG:red>57</xmpG:red>
                           <xmpG:green>181</xmpG:green>
                           <xmpG:blue>74</xmpG:blue>
                        </rdf:li>
                        <rdf:li rdf:parseType="Resource">
                           <xmpG:swatchName>R=0 G=146 B=69</xmpG:swatchName>
                           <xmpG:mode>RGB</xmpG:mode>
                           <xmpG:type>PROCESS</xmpG:type>
                           <xmpG:red>0</xmpG:red>
                           <xmpG:green>146</xmpG:green>
                           <xmpG:blue>69</xmpG:blue>
                        </rdf:li>
                        <rdf:li rdf:parseType="Resource">
                           <xmpG:swatchName>R=0 G=104 B=55</xmpG:swatchName>
                           <xmpG:mode>RGB</xmpG:mode>
                           <xmpG:type>PROCESS</xmpG:type>
                           <xmpG:red>0</xmpG:red>
                           <xmpG:green>104</xmpG:green>
                           <xmpG:blue>55</xmpG:blue>
                        </rdf:li>
                        <rdf:li rdf:parseType="Resource">
                           <xmpG:swatchName>R=34 G=181 B=115</xmpG:swatchName>
                           <xmpG:mode>RGB</xmpG:mode>
                           <xmpG:type>PROCESS</xmpG:type>
                           <xmpG:red>34</xmpG:red>
                           <xmpG:green>181</xmpG:green>
                           <xmpG:blue>115</xmpG:blue>
                        </rdf:li>
                        <rdf:li rdf:parseType="Resource">
                           <xmpG:swatchName>R=0 G=169 B=157</xmpG:swatchName>
                           <xmpG:mode>RGB</xmpG:mode>
                           <xmpG:type>PROCESS</xmpG:type>
                           <xmpG:red>0</xmpG:red>
                           <xmpG:green>169</xmpG:green>
                           <xmpG:blue>157</xmpG:blue>
                        </rdf:li>
                        <rdf:li rdf:parseType="Resource">
                           <xmpG:swatchName>R=41 G=171 B=226</xmpG:swatchName>
                           <xmpG:mode>RGB</xmpG:mode>
                           <xmpG:type>PROCESS</xmpG:type>
                           <xmpG:red>41</xmpG:red>
                           <xmpG:green>171</xmpG:green>
                           <xmpG:blue>226</xmpG:blue>
                        </rdf:li>
                        <rdf:li rdf:parseType="Resource">
                           <xmpG:swatchName>R=0 G=113 B=188</xmpG:swatchName>
                           <xmpG:mode>RGB</xmpG:mode>
                           <xmpG:type>PROCESS</xmpG:type>
                           <xmpG:red>0</xmpG:red>
                           <xmpG:green>113</xmpG:green>
                           <xmpG:blue>188</xmpG:blue>
                        </rdf:li>
                        <rdf:li rdf:parseType="Resource">
                           <xmpG:swatchName>R=46 G=49 B=146</xmpG:swatchName>
                           <xmpG:mode>RGB</xmpG:mode>
                           <xmpG:type>PROCESS</xmpG:type>
                           <xmpG:red>46</xmpG:red>
                           <xmpG:green>49</xmpG:green>
                           <xmpG:blue>146</xmpG:blue>
                        </rdf:li>
                        <rdf:li rdf:parseType="Resource">
                           <xmpG:swatchName>R=27 G=20 B=100</xmpG:swatchName>
                           <xmpG:mode>RGB</xmpG:mode>
                           <xmpG:type>PROCESS</xmpG:type>
                           <xmpG:red>27</xmpG:red>
                           <xmpG:green>20</xmpG:green>
                           <xmpG:blue>100</xmpG:blue>
                        </rdf:li>
                        <rdf:li rdf:parseType="Resource">
                           <xmpG:swatchName>R=102 G=45 B=145</xmpG:swatchName>
                           <xmpG:mode>RGB</xmpG:mode>
                           <xmpG:type>PROCESS</xmpG:type>
                           <xmpG:red>102</xmpG:red>
                           <xmpG:green>45</xmpG:green>
                           <xmpG:blue>145</xmpG:blue>
                        </rdf:li>
                        <rdf:li rdf:parseType="Resource">
                           <xmpG:swatchName>R=147 G=39 B=143</xmpG:swatchName>
                           <xmpG:mode>RGB</xmpG:mode>
                           <xmpG:type>PROCESS</xmpG:type>
                           <xmpG:red>147</xmpG:red>
                           <xmpG:green>39</xmpG:green>
                           <xmpG:blue>143</xmpG:blue>
                        </rdf:li>
                        <rdf:li rdf:parseType="Resource">
                           <xmpG:swatchName>R=158 G=0 B=93</xmpG:swatchName>
                           <xmpG:mode>RGB</xmpG:mode>
                           <xmpG:type>PROCESS</xmpG:type>
                           <xmpG:red>158</xmpG:red>
                           <xmpG:green>0</xmpG:green>
                           <xmpG:blue>93</xmpG:blue>
                        </rdf:li>
                        <rdf:li rdf:parseType="Resource">
                           <xmpG:swatchName>R=212 G=20 B=90</xmpG:swatchName>
                           <xmpG:mode>RGB</xmpG:mode>
                           <xmpG:type>PROCESS</xmpG:type>
                           <xmpG:red>212</xmpG:red>
                           <xmpG:green>20</xmpG:green>
                           <xmpG:blue>90</xmpG:blue>
                        </rdf:li>
                        <rdf:li rdf:parseType="Resource">
                           <xmpG:swatchName>R=237 G=30 B=121</xmpG:swatchName>
                           <xmpG:mode>RGB</xmpG:mode>
                           <xmpG:type>PROCESS</xmpG:type>
                           <xmpG:red>237</xmpG:red>
                           <xmpG:green>30</xmpG:green>
                           <xmpG:blue>121</xmpG:blue>
                        </rdf:li>
                        <rdf:li rdf:parseType="Resource">
                           <xmpG:swatchName>R=199 G=178 B=153</xmpG:swatchName>
                           <xmpG:mode>RGB</xmpG:mode>
                           <xmpG:type>PROCESS</xmpG:type>
                           <xmpG:red>199</xmpG:red>
                           <xmpG:green>178</xmpG:green>
                           <xmpG:blue>153</xmpG:blue>
                        </rdf:li>
                        <rdf:li rdf:parseType="Resource">
                           <xmpG:swatchName>R=153 G=134 B=117</xmpG:swatchName>
                           <xmpG:mode>RGB</xmpG:mode>
                           <xmpG:type>PROCESS</xmpG:type>
                           <xmpG:red>153</xmpG:red>
                           <xmpG:green>134</xmpG:green>
                           <xmpG:blue>117</xmpG:blue>
                        </rdf:li>
                        <rdf:li rdf:parseType="Resource">
                           <xmpG:swatchName>R=115 G=99 B=87</xmpG:swatchName>
                           <xmpG:mode>RGB</xmpG:mode>
                           <xmpG:type>PROCESS</xmpG:type>
                           <xmpG:red>115</xmpG:red>
                           <xmpG:green>99</xmpG:green>
                           <xmpG:blue>87</xmpG:blue>
                        </rdf:li>
                        <rdf:li rdf:parseType="Resource">
                           <xmpG:swatchName>R=83 G=71 B=65</xmpG:swatchName>
                           <xmpG:mode>RGB</xmpG:mode>
                           <xmpG:type>PROCESS</xmpG:type>
                           <xmpG:red>83</xmpG:red>
                           <xmpG:green>71</xmpG:green>
                           <xmpG:blue>65</xmpG:blue>
                        </rdf:li>
                        <rdf:li rdf:parseType="Resource">
                           <xmpG:swatchName>R=198 G=156 B=109</xmpG:swatchName>
                           <xmpG:mode>RGB</xmpG:mode>
                           <xmpG:type>PROCESS</xmpG:type>
                           <xmpG:red>198</xmpG:red>
                           <xmpG:green>156</xmpG:green>
                           <xmpG:blue>109</xmpG:blue>
                        </rdf:li>
                        <rdf:li rdf:parseType="Resource">
                           <xmpG:swatchName>R=166 G=124 B=82</xmpG:swatchName>
                           <xmpG:mode>RGB</xmpG:mode>
                           <xmpG:type>PROCESS</xmpG:type>
                           <xmpG:red>166</xmpG:red>
                           <xmpG:green>124</xmpG:green>
                           <xmpG:blue>82</xmpG:blue>
                        </rdf:li>
                        <rdf:li rdf:parseType="Resource">
                           <xmpG:swatchName>R=140 G=98 B=57</xmpG:swatchName>
                           <xmpG:mode>RGB</xmpG:mode>
                           <xmpG:type>PROCESS</xmpG:type>
                           <xmpG:red>140</xmpG:red>
                           <xmpG:green>98</xmpG:green>
                           <xmpG:blue>57</xmpG:blue>
                        </rdf:li>
                        <rdf:li rdf:parseType="Resource">
                           <xmpG:swatchName>R=117 G=76 B=36</xmpG:swatchName>
                           <xmpG:mode>RGB</xmpG:mode>
                           <xmpG:type>PROCESS</xmpG:type>
                           <xmpG:red>117</xmpG:red>
                           <xmpG:green>76</xmpG:green>
                           <xmpG:blue>36</xmpG:blue>
                        </rdf:li>
                        <rdf:li rdf:parseType="Resource">
                           <xmpG:swatchName>R=96 G=56 B=19</xmpG:swatchName>
                           <xmpG:mode>RGB</xmpG:mode>
                           <xmpG:type>PROCESS</xmpG:type>
                           <xmpG:red>96</xmpG:red>
                           <xmpG:green>56</xmpG:green>
                           <xmpG:blue>19</xmpG:blue>
                        </rdf:li>
                        <rdf:li rdf:parseType="Resource">
                           <xmpG:swatchName>R=66 G=33 B=11</xmpG:swatchName>
                           <xmpG:mode>RGB</xmpG:mode>
                           <xmpG:type>PROCESS</xmpG:type>
                           <xmpG:red>66</xmpG:red>
                           <xmpG:green>33</xmpG:green>
                           <xmpG:blue>11</xmpG:blue>
                        </rdf:li>
                     </rdf:Seq>
                  </xmpG:Colorants>
               </rdf:li>
               <rdf:li rdf:parseType="Resource">
                  <xmpG:groupName>Grises</xmpG:groupName>
                  <xmpG:groupType>1</xmpG:groupType>
                  <xmpG:Colorants>
                     <rdf:Seq>
                        <rdf:li rdf:parseType="Resource">
                           <xmpG:swatchName>R=0 G=0 B=0</xmpG:swatchName>
                           <xmpG:mode>RGB</xmpG:mode>
                           <xmpG:type>PROCESS</xmpG:type>
                           <xmpG:red>0</xmpG:red>
                           <xmpG:green>0</xmpG:green>
                           <xmpG:blue>0</xmpG:blue>
                        </rdf:li>
                        <rdf:li rdf:parseType="Resource">
                           <xmpG:swatchName>R=26 G=26 B=26</xmpG:swatchName>
                           <xmpG:mode>RGB</xmpG:mode>
                           <xmpG:type>PROCESS</xmpG:type>
                           <xmpG:red>26</xmpG:red>
                           <xmpG:green>26</xmpG:green>
                           <xmpG:blue>26</xmpG:blue>
                        </rdf:li>
                        <rdf:li rdf:parseType="Resource">
                           <xmpG:swatchName>R=51 G=51 B=51</xmpG:swatchName>
                           <xmpG:mode>RGB</xmpG:mode>
                           <xmpG:type>PROCESS</xmpG:type>
                           <xmpG:red>51</xmpG:red>
                           <xmpG:green>51</xmpG:green>
                           <xmpG:blue>51</xmpG:blue>
                        </rdf:li>
                        <rdf:li rdf:parseType="Resource">
                           <xmpG:swatchName>R=77 G=77 B=77</xmpG:swatchName>
                           <xmpG:mode>RGB</xmpG:mode>
                           <xmpG:type>PROCESS</xmpG:type>
                           <xmpG:red>77</xmpG:red>
                           <xmpG:green>77</xmpG:green>
                           <xmpG:blue>77</xmpG:blue>
                        </rdf:li>
                        <rdf:li rdf:parseType="Resource">
                           <xmpG:swatchName>R=102 G=102 B=102</xmpG:swatchName>
                           <xmpG:mode>RGB</xmpG:mode>
                           <xmpG:type>PROCESS</xmpG:type>
                           <xmpG:red>102</xmpG:red>
                           <xmpG:green>102</xmpG:green>
                           <xmpG:blue>102</xmpG:blue>
                        </rdf:li>
                        <rdf:li rdf:parseType="Resource">
                           <xmpG:swatchName>R=128 G=128 B=128</xmpG:swatchName>
                           <xmpG:mode>RGB</xmpG:mode>
                           <xmpG:type>PROCESS</xmpG:type>
                           <xmpG:red>128</xmpG:red>
                           <xmpG:green>128</xmpG:green>
                           <xmpG:blue>128</xmpG:blue>
                        </rdf:li>
                        <rdf:li rdf:parseType="Resource">
                           <xmpG:swatchName>R=153 G=153 B=153</xmpG:swatchName>
                           <xmpG:mode>RGB</xmpG:mode>
                           <xmpG:type>PROCESS</xmpG:type>
                           <xmpG:red>153</xmpG:red>
                           <xmpG:green>153</xmpG:green>
                           <xmpG:blue>153</xmpG:blue>
                        </rdf:li>
                        <rdf:li rdf:parseType="Resource">
                           <xmpG:swatchName>R=179 G=179 B=179</xmpG:swatchName>
                           <xmpG:mode>RGB</xmpG:mode>
                           <xmpG:type>PROCESS</xmpG:type>
                           <xmpG:red>179</xmpG:red>
                           <xmpG:green>179</xmpG:green>
                           <xmpG:blue>179</xmpG:blue>
                        </rdf:li>
                        <rdf:li rdf:parseType="Resource">
                           <xmpG:swatchName>R=204 G=204 B=204</xmpG:swatchName>
                           <xmpG:mode>RGB</xmpG:mode>
                           <xmpG:type>PROCESS</xmpG:type>
                           <xmpG:red>204</xmpG:red>
                           <xmpG:green>204</xmpG:green>
                           <xmpG:blue>204</xmpG:blue>
                        </rdf:li>
                        <rdf:li rdf:parseType="Resource">
                           <xmpG:swatchName>R=230 G=230 B=230</xmpG:swatchName>
                           <xmpG:mode>RGB</xmpG:mode>
                           <xmpG:type>PROCESS</xmpG:type>
                           <xmpG:red>230</xmpG:red>
                           <xmpG:green>230</xmpG:green>
                           <xmpG:blue>230</xmpG:blue>
                        </rdf:li>
                        <rdf:li rdf:parseType="Resource">
                           <xmpG:swatchName>R=242 G=242 B=242</xmpG:swatchName>
                           <xmpG:mode>RGB</xmpG:mode>
                           <xmpG:type>PROCESS</xmpG:type>
                           <xmpG:red>242</xmpG:red>
                           <xmpG:green>242</xmpG:green>
                           <xmpG:blue>242</xmpG:blue>
                        </rdf:li>
                     </rdf:Seq>
                  </xmpG:Colorants>
               </rdf:li>
               <rdf:li rdf:parseType="Resource">
                  <xmpG:groupName>Grupo de colores Web</xmpG:groupName>
                  <xmpG:groupType>1</xmpG:groupType>
                  <xmpG:Colorants>
                     <rdf:Seq>
                        <rdf:li rdf:parseType="Resource">
                           <xmpG:swatchName>R=63 G=169 B=245</xmpG:swatchName>
                           <xmpG:mode>RGB</xmpG:mode>
                           <xmpG:type>PROCESS</xmpG:type>
                           <xmpG:red>63</xmpG:red>
                           <xmpG:green>169</xmpG:green>
                           <xmpG:blue>245</xmpG:blue>
                        </rdf:li>
                        <rdf:li rdf:parseType="Resource">
                           <xmpG:swatchName>R=122 G=201 B=67</xmpG:swatchName>
                           <xmpG:mode>RGB</xmpG:mode>
                           <xmpG:type>PROCESS</xmpG:type>
                           <xmpG:red>122</xmpG:red>
                           <xmpG:green>201</xmpG:green>
                           <xmpG:blue>67</xmpG:blue>
                        </rdf:li>
                        <rdf:li rdf:parseType="Resource">
                           <xmpG:swatchName>R=255 G=147 B=30</xmpG:swatchName>
                           <xmpG:mode>RGB</xmpG:mode>
                           <xmpG:type>PROCESS</xmpG:type>
                           <xmpG:red>255</xmpG:red>
                           <xmpG:green>147</xmpG:green>
                           <xmpG:blue>30</xmpG:blue>
                        </rdf:li>
                        <rdf:li rdf:parseType="Resource">
                           <xmpG:swatchName>R=255 G=29 B=37</xmpG:swatchName>
                           <xmpG:mode>RGB</xmpG:mode>
                           <xmpG:type>PROCESS</xmpG:type>
                           <xmpG:red>255</xmpG:red>
                           <xmpG:green>29</xmpG:green>
                           <xmpG:blue>37</xmpG:blue>
                        </rdf:li>
                        <rdf:li rdf:parseType="Resource">
                           <xmpG:swatchName>R=255 G=123 B=172</xmpG:swatchName>
                           <xmpG:mode>RGB</xmpG:mode>
                           <xmpG:type>PROCESS</xmpG:type>
                           <xmpG:red>255</xmpG:red>
                           <xmpG:green>123</xmpG:green>
                           <xmpG:blue>172</xmpG:blue>
                        </rdf:li>
                        <rdf:li rdf:parseType="Resource">
                           <xmpG:swatchName>R=189 G=204 B=212</xmpG:swatchName>
                           <xmpG:mode>RGB</xmpG:mode>
                           <xmpG:type>PROCESS</xmpG:type>
                           <xmpG:red>189</xmpG:red>
                           <xmpG:green>204</xmpG:green>
                           <xmpG:blue>212</xmpG:blue>
                        </rdf:li>
                     </rdf:Seq>
                  </xmpG:Colorants>
               </rdf:li>
            </rdf:Seq>
         </xmpTPg:SwatchGroups>
         <pdf:Producer>Adobe PDF library 15.00</pdf:Producer>
         <pdfx:CreatorVersion>21.0.0</pdfx:CreatorVersion>
      </rdf:Description>
   </rdf:RDF>
</x:xmpmeta>
                                                                                                    
                                                                                                    
                                                                                                    
                                                                                                    
                                                                                                    
                                                                                                    
                                                                                                    
                                                                                                    
                                                                                                    
                                                                                                    
                                                                                                    
                                                                                                    
                                                                                                    
                                                                                                    
                                                                                                    
                                                                                                    
                                                                                                    
                                                                                                    
                                                                                                    
                                                                                                    
                           
<?xpacket end="w"?>
	</metadata>
<g id="Logo_1_">
	<rect x="84.4" y="17.2" fill="#F2F2F2" width="0.7" height="7.5"/>
	<polygon fill="#F2F2F2" points="87.2,17.2 88.2,17.2 92.3,23.4 92.4,23.4 92.4,17.2 93.1,17.2 93.1,24.7 92.4,24.7 87.9,18.1 
		87.9,18.1 87.9,24.7 87.2,24.7 	"/>
	<g>
		<path fill="#F2F2F2" d="M95.4,22.6c0,0.9,0.6,1.5,1.6,1.5c0.8,0,1.5-0.6,1.5-1.5c0-1.1-1.2-1.4-1.7-1.6c-0.7-0.2-1.9-0.5-1.9-2
			c0-1.2,0.9-2,2.1-2c1.2,0,2.1,0.9,2.1,2h-0.7c0-0.8-0.6-1.3-1.3-1.3c-0.9,0-1.3,0.7-1.3,1.3c0,0.9,0.8,1.1,1.8,1.4
			c1.8,0.5,1.8,1.9,1.8,2.2c0,1.1-0.9,2.2-2.2,2.2c-1,0-2.3-0.6-2.3-2.2H95.4z"/>
		<polygon fill="#F2F2F2" points="101.7,17.9 100,17.9 100,17.2 104.2,17.2 104.2,17.9 102.5,17.9 102.5,24.7 101.7,24.7 		"/>
		<rect x="105.5" y="17.2" fill="#F2F2F2" width="0.7" height="7.5"/>
		<polygon fill="#F2F2F2" points="109.4,17.9 107.7,17.9 107.7,17.2 111.8,17.2 111.8,17.9 110.1,17.9 110.1,24.7 109.4,24.7 		"/>
		<path fill="#F2F2F2" d="M113.9,17.2v4.6c0,0.5,0.1,1,0.3,1.4c0.5,0.8,1.2,0.9,1.5,0.9c0.4,0,1.1-0.1,1.5-0.9
			c0.2-0.3,0.3-0.8,0.3-1.4v-4.6h0.7v4.6c0,0.6-0.1,1.2-0.3,1.6c-0.5,1.1-1.6,1.4-2.3,1.4c-0.7,0-1.7-0.3-2.3-1.4
			c-0.2-0.4-0.3-0.9-0.3-1.6v-4.6H113.9z"/>
		<polygon fill="#F2F2F2" points="121.3,17.9 119.6,17.9 119.6,17.2 123.8,17.2 123.8,17.9 122.1,17.9 122.1,24.7 121.3,24.7 		"/>
		<path fill="#F2F2F2" d="M128.7,17.1c2.1,0,3.9,1.7,3.9,3.9c0,2.2-1.9,3.9-3.9,3.9c-2.1,0-3.9-1.7-3.9-3.8
			C124.8,18.6,126.8,17.1,128.7,17.1 M128.7,24.1c1.7,0,3.2-1.4,3.2-3.2c0-1.7-1.4-3.2-3.2-3.2c-1.7,0-3.2,1.4-3.2,3.2
			C125.6,22.7,127,24.1,128.7,24.1"/>
		<polygon fill="#F2F2F2" points="137.7,17.2 141.5,17.2 141.5,17.9 138.4,17.9 138.4,20.6 141.4,20.6 141.4,21.3 138.4,21.3 
			138.4,24.7 137.7,24.7 		"/>
		<polygon fill="#F2F2F2" points="143.1,17.2 147.2,17.2 147.2,17.9 143.9,17.9 143.9,20.6 147.1,20.6 147.1,21.3 143.9,21.3 
			143.9,24 147.2,24 147.2,24.7 143.1,24.7 		"/>
		<path fill="#F2F2F2" d="M149.1,17.2h2.2c0.9,0,1.8,0.2,2.4,0.6c1.3,0.8,1.7,2.2,1.7,3.1c0,0.7-0.3,2.2-1.7,3.1
			c-0.6,0.4-1.5,0.6-2.4,0.6h-2.2V17.2z M149.8,24h1.1c0.7,0,1.7,0,2.6-0.6c0.5-0.4,1.2-1.2,1.2-2.5c0-1-0.5-1.9-1.3-2.5
			c-0.7-0.4-1.4-0.6-2.5-0.6h-1.1V24z"/>
		<polygon fill="#F2F2F2" points="157.1,17.2 161.2,17.2 161.2,17.9 157.8,17.9 157.8,20.6 161,20.6 161,21.3 157.8,21.3 157.8,24 
			161.2,24 161.2,24.7 157.1,24.7 		"/>
		<path fill="#F2F2F2" d="M163,17.2h1.9c1,0,1.5,0.1,1.8,0.3c0.8,0.4,1.3,1.2,1.3,2.1c0,1.1-0.8,2.2-2.2,2.3l2.1,2.8H167l-2.5-3.4
			c0.9,0,1.3,0,1.6-0.1c0.8-0.2,1.2-0.9,1.2-1.6c0-0.6-0.3-1.2-0.8-1.4c-0.4-0.2-0.8-0.3-1.5-0.3h-1.3v6.8H163V17.2z"/>
		<path fill="#F2F2F2" d="M172.3,17.2h0.8l3.2,7.5h-0.8l-1.1-2.5h-3.5l-1.1,2.5h-0.8L172.3,17.2z M171.2,21.5h2.9l-1.4-3.4
			L171.2,21.5z"/>
		<polygon fill="#F2F2F2" points="177.8,17.2 178.5,17.2 178.5,24 181.6,24 181.6,24.7 177.8,24.7 		"/>
		<path fill="#F2F2F2" d="M186.2,17.2h2.2c0.9,0,1.8,0.2,2.4,0.6c1.3,0.8,1.7,2.2,1.7,3.1c0,0.7-0.3,2.2-1.7,3.1
			c-0.6,0.4-1.5,0.6-2.4,0.6h-2.2V17.2z M186.9,24h1.1c0.7,0,1.7,0,2.6-0.6c0.5-0.4,1.2-1.2,1.2-2.5c0-1-0.5-1.9-1.3-2.5
			c-0.7-0.4-1.4-0.6-2.5-0.6h-1.1V24z"/>
		<polygon fill="#F2F2F2" points="194.2,17.2 198.3,17.2 198.3,17.9 194.9,17.9 194.9,20.6 198.2,20.6 198.2,21.3 194.9,21.3 
			194.9,24 198.3,24 198.3,24.7 194.2,24.7 		"/>
		<polygon fill="#F2F2F2" points="85.1,36.5 85.1,30 83.7,30 83.7,29 87.6,29 87.6,30 86.2,30 86.2,36.5 		"/>
		<polygon fill="#F2F2F2" points="88.5,36.5 88.5,29 92.6,29 92.6,30 89.6,30 89.6,32.2 92.6,32.2 92.6,33.2 89.6,33.2 89.6,35.5 
			92.6,35.5 92.6,36.5 		"/>
		<polygon fill="#F2F2F2" points="94.1,36.5 94.1,29 95.2,29 95.2,35.5 97.8,35.5 97.8,36.5 		"/>
		<polygon fill="#F2F2F2" points="98.6,36.5 98.6,29 102.6,29 102.6,30 99.7,30 99.7,32.2 102.6,32.2 102.6,33.2 99.7,33.2 
			99.7,35.5 102.6,35.5 102.6,36.5 		"/>
		<path fill="#F2F2F2" d="M109.7,30.9c-0.2-0.3-0.9-1-2.1-1c-1.6,0-2.8,1.3-2.8,2.9c0,1.6,1.3,2.9,2.7,2.9c0.8,0,1.5-0.4,2-1h1.3
			c-0.8,1.5-2.2,2-3.4,2c-2.1,0-3.8-1.8-3.8-3.9c0-2.2,1.8-3.8,3.8-3.8c0.6,0,1.5,0.1,2.3,0.7c0.7,0.5,1,1,1.1,1.3H109.7z"/>
		<path fill="#F2F2F2" d="M115.7,36.6c-2.2,0-3.9-1.8-3.9-3.9c0-2,1.6-3.9,3.9-3.9c2.2,0,3.9,1.8,3.9,3.9
			C119.5,34.8,117.9,36.6,115.7,36.6 M115.7,29.9c-1.9,0-2.8,1.7-2.8,2.9c0,1.2,0.9,2.9,2.8,2.9c1.9,0,2.8-1.7,2.8-2.8
			C118.4,31.5,117.5,29.9,115.7,29.9"/>
		<polygon fill="#F2F2F2" points="127.7,36.5 127.7,30.2 127.6,30.2 125.1,36.5 124.5,36.5 121.9,30.2 121.9,30.2 121.9,36.5 
			120.8,36.5 120.8,29 122.6,29 124.8,34.7 127,29 128.7,29 128.7,36.5 		"/>
		<path fill="#F2F2F2" d="M135.4,34.1c0,0.8-0.3,1.5-0.8,1.9c-0.5,0.4-1.1,0.6-1.7,0.6c-0.7,0-1.3-0.3-1.7-0.6
			c-0.5-0.5-0.8-1.1-0.8-1.9v-5h1.1v5c0,1.4,1,1.6,1.4,1.6c0.4,0,1.4-0.2,1.4-1.6v-5h1.1V34.1z"/>
		<polygon fill="#F2F2F2" points="141.9,36.5 138.2,30.7 138.2,30.7 138.2,36.5 137.1,36.5 137.1,29 138.3,29 141.9,34.7 
			141.9,34.7 141.9,29 143,29 143,36.5 		"/>
		<rect x="144.7" y="29" fill="#F2F2F2" width="1.1" height="7.5"/>
		<path fill="#F2F2F2" d="M153,30.9c-0.2-0.3-0.9-1-2.1-1c-1.6,0-2.8,1.3-2.8,2.9c0,1.6,1.3,2.9,2.7,2.9c0.8,0,1.5-0.4,2-1h1.3
			c-0.8,1.5-2.2,2-3.4,2c-2.1,0-3.8-1.8-3.8-3.9c0-2.2,1.8-3.8,3.8-3.8c0.6,0,1.5,0.1,2.3,0.7c0.7,0.5,1,1,1.1,1.3H153z"/>
		<path fill="#F2F2F2" d="M159.9,36.5l-0.8-2.2h-2.7l-0.8,2.2h-1.1l2.8-7.5h1l2.8,7.5H159.9z M158.7,33.3l-0.9-2.9h0l-1,2.9H158.7z"
			/>
		<path fill="#F2F2F2" d="M167.3,30.9c-0.2-0.3-0.9-1-2.1-1c-1.6,0-2.8,1.3-2.8,2.9c0,1.6,1.3,2.9,2.8,2.9c0.8,0,1.5-0.4,2-1h1.3
			c-0.8,1.5-2.2,2-3.4,2c-2.1,0-3.8-1.8-3.8-3.9c0-2.2,1.8-3.8,3.8-3.8c0.6,0,1.5,0.1,2.3,0.7c0.7,0.5,1,1,1.1,1.3H167.3z"/>
		<rect x="169.8" y="29" fill="#F2F2F2" width="1.1" height="7.5"/>
		<path fill="#F2F2F2" d="M176.1,36.6c-2.2,0-3.9-1.8-3.9-3.9c0-2,1.6-3.9,3.9-3.9c2.2,0,3.9,1.8,3.9,3.9
			C179.9,34.8,178.3,36.6,176.1,36.6 M176.1,29.9c-1.9,0-2.8,1.7-2.8,2.9c0,1.2,0.9,2.9,2.8,2.9c1.9,0,2.8-1.7,2.8-2.8
			C178.9,31.5,177.9,29.9,176.1,29.9"/>
		<polygon fill="#F2F2F2" points="186,36.5 182.4,30.7 182.3,30.7 182.3,36.5 181.3,36.5 181.3,29 182.4,29 186.1,34.7 186.1,34.7 
			186.1,29 187.2,29 187.2,36.5 		"/>
		<polygon fill="#F2F2F2" points="188.8,36.5 188.8,29 192.8,29 192.8,30 189.8,30 189.8,32.2 192.8,32.2 192.8,33.2 189.8,33.2 
			189.8,35.5 192.8,35.5 192.8,36.5 		"/>
		<path fill="#F2F2F2" d="M194.8,34.3c0,0.3,0.1,1.3,1.2,1.3c0.7,0,1.2-0.5,1.2-1.3c0-0.8-0.7-1-1.2-1.2c-1-0.4-1.2-0.5-1.6-0.8
			c-0.3-0.3-0.5-0.9-0.5-1.4c0-0.9,0.7-2,2.1-2c1.2,0,2.1,0.8,2.1,2.1H197c0-0.8-0.6-1.1-1-1.1c-0.6,0-1,0.6-1,1c0,0.7,0.7,0.9,1,1
			c0.9,0.4,2.3,0.6,2.3,2.4c0,1.3-0.9,2.3-2.3,2.3c-1,0-2.3-0.7-2.3-2.3H194.8z"/>
		<path fill="#F2F2F2" d="M60.3,16.9h-4.6V16c0-1.6,0.8-2.4,2.3-2.4c0.8,0,1.5,0.1,2.4,0.4V9.7c-1.1-0.3-2.3-0.5-3.9-0.5
			c-2,0-3.5,0.5-4.5,1.5c-1,1-1.6,2.6-1.6,4.7v1.5h-3.2v4.3h3.2v15.3h5.3V21.2h4.5V16.9z"/>
		<polygon fill="#F2F2F2" points="44.1,36.5 44.1,16.9 35.6,16.9 35.6,21.2 38.9,21.2 38.9,36.5 		"/>
		<path fill="#F2F2F2" d="M44.5,12c0,1.7-1.4,3.1-3.1,3.1c-1.7,0-3.1-1.4-3.1-3.1c0-1.7,1.4-3.1,3.1-3.1C43.1,8.9,44.5,10.2,44.5,12
			"/>
		<path fill="#F2F2F2" d="M66.9,35c1,1,2.5,1.5,4.5,1.5c1.2,0,2.2-0.1,3.1-0.3v-4.3c-0.6,0.1-1.1,0.2-1.7,0.2
			c-1.5,0-2.3-0.8-2.3-2.4v-8.5h4.6v-4.3h-4.6V9.2h-5.3v7.7h-3v4.3h3v9C65.4,32.3,65.9,33.9,66.9,35"/>
		<path fill="#F2F2F2" d="M13.4,27.8c-3.1-1.7-5.1-5.1-5-8.8l0.1-1c0.3-2.1,1-3.8,2.1-4.9c0.4-3.2,1.4-6.1,2.8-8.3
			C8,3.2,3.3,6.9,2.3,14l-0.1,1.4C2,22.7,7.4,29.1,14.7,30.1c1.6,0.2,3.1,0.2,4.5,0C16.9,30.2,14.9,29.4,13.4,27.8"/>
		<path fill="#F2F2F2" d="M28.9,7.1c-4.8-6.3-11.5-7.6-15-3c-0.2,0.2-0.4,0.5-0.5,0.8C13.7,5,14,5.1,14.4,5.2
			c0.2-0.3,0.3-0.5,0.5-0.7c2.6-3.4,7.5-2.4,11.1,2.2c2.7,3.6,2.9,8.3,0.7,11.9c0.4,1,0.6,2,0.8,2.9c0.6,4.5-2.9,7.9-8.3,8.5
			c2.3-0.1,4.7-1,7.2-2.9l1.1-0.9C32.7,21.3,33.5,13,28.9,7.1"/>
		<path fill="#F2F2F2" d="M12.3,12c0.2-2.6,1-5,2-6.8C14,5.1,13.7,5,13.4,4.9c-1.4,2.2-2.3,5.2-2.8,8.3C11.1,12.7,11.7,12.3,12.3,12
			"/>
		<path fill="#F2F2F2" d="M27.5,21.6c-0.1-0.9-0.4-1.9-0.8-2.9c-0.5,0.8-1.1,1.6-1.8,2.3c0.3,0.8,0.5,1.5,0.6,2.3
			c0.5,3.8-3.3,6.4-8.6,5.7c-1.3-0.2-2.4-0.6-3.5-1.1c1.5,1.6,3.5,2.4,5.8,2.3C24.6,29.5,28.1,26.1,27.5,21.6"/>
		<path fill="#F2F2F2" d="M24.1,21.6c-4.6,3.6-9.6,2.6-11.1-2.2c-0.7-2.2-0.9-4.8-0.6-7.4c-0.6,0.3-1.2,0.7-1.7,1.2
			c-0.5,3.7-0.3,7.7,0.7,11c0.5,1.5,1.2,2.7,2.1,3.6c1,0.6,2.2,1,3.5,1.1c5.3,0.7,9.2-1.9,8.6-5.7c-0.1-0.7-0.3-1.5-0.6-2.3
			c0,0,0,0,0,0L24.1,21.6z"/>
		<path fill="#F2F2F2" d="M24.1,21.6c-4.6,3.6-9.6,2.6-11.1-2.2c-0.7-2.2-0.9-4.8-0.6-7.4c-0.6,0.3-1.2,0.7-1.7,1.2
			c-0.5,3.7-0.3,7.7,0.7,11c0.5,1.5,1.2,2.7,2.1,3.6c1,0.6,2.2,1,3.5,1.1c5.3,0.7,9.2-1.9,8.6-5.7c-0.1-0.7-0.3-1.5-0.6-2.3
			c0,0,0,0,0,0L24.1,21.6z"/>
		<path fill="#F2F2F2" d="M17.1,12.4c3.3,1.7,6.4,5.3,7.7,8.6c0.7-0.7,1.3-1.4,1.8-2.3c-1.9-5-6.6-10.5-11.6-13.1
			c-0.2-0.1-0.5-0.2-0.7-0.3c-1.1,1.8-1.8,4.2-2,6.8C13.7,11.4,15.4,11.5,17.1,12.4"/>
	</g>
</g>
</svg>
