<?xml version="1.0" encoding="utf-8"?>
<!-- Generator: Adobe Illustrator 22.1.0, SVG Export Plug-In . SVG Version: 6.00 Build 0)  -->
<svg version="1.1" id="Capa_1" xmlns="http://www.w3.org/2000/svg" xmlns:xlink="http://www.w3.org/1999/xlink" x="0px" y="0px"
	 viewBox="0 0 420.4 76" enable-background="new 0 0 420.4 76" xml:space="preserve">
<metadata><?xpacket begin="﻿" id="W5M0MpCehiHzreSzNTczkc9d"?>
<x:xmpmeta xmlns:x="adobe:ns:meta/" x:xmptk="Adobe XMP Core 5.6-c143 79.161356, 2017/09/07-01:11:22        ">
   <rdf:RDF xmlns:rdf="http://www.w3.org/1999/02/22-rdf-syntax-ns#">
      <rdf:Description rdf:about=""
            xmlns:dc="http://purl.org/dc/elements/1.1/"
            xmlns:xmp="http://ns.adobe.com/xap/1.0/"
            xmlns:xmpGImg="http://ns.adobe.com/xap/1.0/g/img/"
            xmlns:xmpMM="http://ns.adobe.com/xap/1.0/mm/"
            xmlns:stRef="http://ns.adobe.com/xap/1.0/sType/ResourceRef#"
            xmlns:stEvt="http://ns.adobe.com/xap/1.0/sType/ResourceEvent#"
            xmlns:illustrator="http://ns.adobe.com/illustrator/1.0/"
            xmlns:xmpTPg="http://ns.adobe.com/xap/1.0/t/pg/"
            xmlns:stDim="http://ns.adobe.com/xap/1.0/sType/Dimensions#"
            xmlns:xmpG="http://ns.adobe.com/xap/1.0/g/"
            xmlns:pdf="http://ns.adobe.com/pdf/1.3/"
            xmlns:pdfx="http://ns.adobe.com/pdfx/1.3/">
         <dc:format>image/svg+xml</dc:format>
         <dc:title>
            <rdf:Alt>
               <rdf:li xml:lang="x-default">Web</rdf:li>
            </rdf:Alt>
         </dc:title>
         <xmp:CreatorTool>Adobe Illustrator CC 22.1 (Macintosh)</xmp:CreatorTool>
         <xmp:CreateDate>2018-05-20T23:18-05:00</xmp:CreateDate>
         <xmp:ModifyDate>2018-05-20T23:18-05:00</xmp:ModifyDate>
         <xmp:MetadataDate>2018-05-20T23:18-05:00</xmp:MetadataDate>
         <xmp:Thumbnails>
            <rdf:Alt>
               <rdf:li rdf:parseType="Resource">
                  <xmpGImg:width>256</xmpGImg:width>
                  <xmpGImg:height>48</xmpGImg:height>
                  <xmpGImg:format>JPEG</xmpGImg:format>
                  <xmpGImg:image>/9j/4AAQSkZJRgABAgEASABIAAD/7QAsUGhvdG9zaG9wIDMuMAA4QklNA+0AAAAAABAASAAAAAEA&#xA;AQBIAAAAAQAB/+4ADkFkb2JlAGTAAAAAAf/bAIQABgQEBAUEBgUFBgkGBQYJCwgGBggLDAoKCwoK&#xA;DBAMDAwMDAwQDA4PEA8ODBMTFBQTExwbGxscHx8fHx8fHx8fHwEHBwcNDA0YEBAYGhURFRofHx8f&#xA;Hx8fHx8fHx8fHx8fHx8fHx8fHx8fHx8fHx8fHx8fHx8fHx8fHx8fHx8fHx8f/8AAEQgAMAEAAwER&#xA;AAIRAQMRAf/EAaIAAAAHAQEBAQEAAAAAAAAAAAQFAwIGAQAHCAkKCwEAAgIDAQEBAQEAAAAAAAAA&#xA;AQACAwQFBgcICQoLEAACAQMDAgQCBgcDBAIGAnMBAgMRBAAFIRIxQVEGE2EicYEUMpGhBxWxQiPB&#xA;UtHhMxZi8CRygvElQzRTkqKyY3PCNUQnk6OzNhdUZHTD0uIIJoMJChgZhJRFRqS0VtNVKBry4/PE&#xA;1OT0ZXWFlaW1xdXl9WZ2hpamtsbW5vY3R1dnd4eXp7fH1+f3OEhYaHiImKi4yNjo+Ck5SVlpeYmZ&#xA;qbnJ2en5KjpKWmp6ipqqusra6voRAAICAQIDBQUEBQYECAMDbQEAAhEDBCESMUEFURNhIgZxgZEy&#xA;obHwFMHR4SNCFVJicvEzJDRDghaSUyWiY7LCB3PSNeJEgxdUkwgJChgZJjZFGidkdFU38qOzwygp&#xA;0+PzhJSktMTU5PRldYWVpbXF1eX1RlZmdoaWprbG1ub2R1dnd4eXp7fH1+f3OEhYaHiImKi4yNjo&#xA;+DlJWWl5iZmpucnZ6fkqOkpaanqKmqq6ytrq+v/aAAwDAQACEQMRAD8A9Ka/5l03Q7dZLti0j19K&#xA;BKF2p8+g9zlGfURxCy1Zc0YDdiMn5sO59KDTKTSn04GM3L4j0LLwGw6nfMA9qbE8PLzcUawk0BuU&#xA;60rRPL+rW/rXjHUr5h/pEk7MGUnqFQEBF8OOT0pw543fFLrfP5OQNPE/VuVDUdL1by2hv9DlefT4&#xA;/iudMmYuAg6tGTUinf8Ajk8mKeH1QNx6hrnCWPePLuZFous2WsWCXlq3wts6H7SMOqtmXhzRyRsN&#xA;+PIJiwjstbHYq7FXYq7FXYq7FXYq7FXYq7FXYq7FXYq7FXYq7FXYq7FXYq7FXYq7FXYq7FXYq7FX&#xA;iHmfVZNU1y6umNUDmOAdhGhotPn1zmdTl45kulzT4pEt+WNDv9S1iNoI6pDG7K7EKOZovfr8JOVH&#xA;FLJHgh9R+4N2jxkz4ugZVNY6vo86TsrRMD8Eqmqn2qPHwOYc8GfSyEiK83asy0TWItUtSxAWdNpo&#xA;u2/cexzqNBrRqIX/ABDmEMK8vT/oTz5d6UhpZ3MjIE7Akc4vurx+nMbTy8POYdD+A67EeDKY9Czz&#xA;V717HSb29jT1ZLW3lmSP+YxoWC7eNM3DsXi3ln8z/OE3mazS6ufrNveXCQyWvBAoWVwvwcQCCtdt&#xA;/nhV7fd3UFpaTXc7cYLeNpZW8EQFmP3DArw3WPzj82XV27adImn2oJ9KNY0kfj25tIHqfkBhVm/5&#xA;Teb9d8wpqa6rMsxtPQ9Jwiof3nqcq8AB+wO2BWPfmN5+826P5rubDTr/ANC0jSIpH6UL0LRhju6M&#xA;3U+OFXpHk3ULzUfK+nX15J6t1PCHlkoq1ap3ooAH0DAqc4q7FXYq7FXYq7FXYq7FXYq7FXYq7FXY&#xA;q7FXYq7FXYq7FXYq7FXz66MjsjCjKSGHgRtnJkU6B6noVrFputWdkooBZqlfFyvNz9LVzMwgY9YI&#xA;/wBD9rvMUOGIDLZYopo2ilUPG4oysKgjN9OAkKIsFmw26gfy5rEdzGT9SkrUn+T9pT/q9RnMZMR0&#xA;WoEo/RL7uoViVjetqvnqC8jqBNerInj6asCK/wCwXMiE+POD/SdRGXFlvzZj54/MKDytc21tLYtd&#xA;/Wo2eokCAAHjQgq1c6F27DPKvm7yXJ5otPqPlhbS9u5ljS49YusZc05JGV4r1/ZAwqnf5mfmBFp4&#xA;v/LZsmke5teIuRIAB6ykfZ49vngV5T5W1e00fXLbUrq0F7Fb8iLckAFipVTuGHwk16YVexaH+Z1n&#xA;qWk61q0emGFtLjieVfUUtKHLgDkFFOPE/fgV5F5x8xJ5h1+fVUgNusyooiLcyOCBeoA8MKs48o/m&#xA;1b2Gm6Zoh015Gi4QeuJQASzU5ceJ8fHFXsOBUp1fzDDpq37PC0n1CzF6/EgclLOvEV7/ALvFVsfm&#xA;a0k06xvo43K3lxHaNEaK8UrvwZZAe8bAgjFUNB5slnvVjh0y4eylmmtoL5SpQzW5ZWDqDyRWZCqs&#xA;34YqpL5xu1tdVurnSZIIdJDi5b1onrIkaS8AFPdZBv0xVFT+YNRj11NKXSnf1FaVLgTRBTCjojyc&#xA;Sa7GQbdcVVG8ywDQJ9Z9FvSgeaMxVHImGdoCa9NylcVa/Tuo/pz9Gfop+FPU+tetFx9Hlw9TjXl9&#xA;HXFVMeZbu4MsumaVNfWULFDdLJFGJCho/orIQXCkUqaA9sVTPTNStdSsYr21YmGWuzAqyspKsrKe&#xA;jKwIIxVLNO8xX18zyppbpp6PPGbwzREVt2dCfTrz3eOmKt6P5g1HULaK8fSntrGeAXEVw00T1Vk5&#xA;r8CnluDiqjb+bphb215qGlzWWn3QjKXvOKWNPVpwMoRuaBuQFeNB3piqtJ5g1FtUvLKy0p7pLKSO&#xA;KacTRRjlJEkuyuQdlkGKqN35tuLebUGXSZ7ix0yQxXd1E8RI4xrKxETMrMFWQdMVROu+abHSdMg1&#xA;Ao91HckGFIRVmj4GV5AP5UjUscVRd5q0Ns+ngL6q6jOIInUig5RPKG9xSPFUdirGbPznNJp0OqXe&#xA;kz22lTosn10PFKqI/R5EVuaqO5CmnfFUVc+Yb/8ASdxY2GlvfG1SJ5ZVmijX98CVpzIr9nFXn/n7&#xA;QJNN1iS6Rf8AQ71jJGwGyud3Q/TuPbNBrsBhO+hdTqsXDK+hTeXVvrltpmq270nSNYZqdVmhO9f9&#xA;YNUe2YPaGQ8UMsedV8Q7HBk4ogsgg872hiH1iCRZu4j4lSfmSDmfj7ehw+qJ4vLk2sX88a9Jq2jX&#xA;cJH1a2SNnUA/EWVSQC3+V0oPHMOfaUtRkiKqILRqR+7l7nflV5fndk1i5UqkKenb1/acijN8lFR8&#xA;/lm00OC5mZ5dHE0WI/UWYeZvKPl7W0+s6pafWJreJxC3qSpxHXojKDv45tnZPBfI/wDymGjf8xcX&#xA;/EhhV7H+YflHy9d6RqmtXFpz1OG1cxXHqSihjU8fgDBNvlgV5D+X2k6fq3m+w0/UIvWs5vW9WLky&#xA;V4Qu6/EhVvtKO+FXudj5E8qWNle2NrY+na6iqpeR+rM3NUrxFWclacj9kjArxD8xtH07R/NdzYad&#xA;D6FpGkRSPkz0LRhju5Zup8cKvS/I/wCX3lC78u6VqdxYc7541lab1phVw1QeIcL28MCvQ8VYt5q0&#xA;y/uo9bFvA0puNKWCDj+1KHlPAe/xDFVPXtB1GPW7K602P1LG7vrefU4Bt6ckLClwo/ykHF/kD44q&#xA;oxWt9+noZLXTLjT9QN2z6nPGxFjNb/EC5HLg7uvEj4eQbriqtqGlajJofm+BIGaa+mla0QdZA1pC&#xA;gK/7JSMVTaa1uD5ttLsRk2yWFzE8vYO80DKvzIQ4qkEtrqn6IuvLI0+cyz3kpjvAF+r/AFae7M5k&#xA;MldiqORxpWv34qyT6vP/AIk+s8D6H1P0/U7c/V5U+7FUo0i71DQdNi0afS7q6ezX0rSe1VXinjH2&#xA;GLFl9NqbNzoK9KjFU08t6fd2Wnv9cCrd3c813cRoaqjTuX4A9+INK9ziqXeXtANtps00wuEvXmvi&#xA;IWuJ/S4yXEpQiDn6PxIwP2ffriqG8qWQttKtbVrTUor5LFYZvrEtw1uJFiAYIjyvEvxD4eKj2xVY&#xA;/wCldQ8sQeXodMuIZJrWK0u7u5VEhhTgElYVYs7AfZAXr3GKrzZCLzJq9xdWmpOs9xBJbSWktxHC&#xA;yrbRISyxSxq1HUg8hiqH1TQ9alTV5ITcC2k1IyXFjCyo13ZvbQRuEfqGBQ0oRXcd8VR1zoN9qetG&#xA;WOeXTLDTrdbWwCRxP6nrKDMeM6SAKFCJ0rscVQUVlq9hYaTZy2092mh6nxjlRQzyWYtplikAB/Z9&#xA;VUPuMVZhZ3P1mBZvSkh5VHpzLwcUNNxvirD9PbWW8nW3l6HSrhL17MWk09wFjt4uScHdmLcm4g1A&#xA;Vd8VXyaUlrrl4bi21KW3MFpFbTWUs8Qb0UZW5+hJFU9OuKssv7C0v7V7W7iEsEg+JG/WD2PvkJwE&#xA;hR5MZREhRYPdfl5qVlLI+jXSSW77tbXFVO3TdRQkdjtmoz9lEionZxBp5QNwPzQp8uebKsP0Yu32&#xA;CLiMg/OvEj7s1/8AIeTv/Hzb/EyfzftR9l+X91eMja5KiWqlWNhbsz8yKGkspCbAj7Kr9ObHSdkR&#xA;xm5GyxljlP6th3D9JZxDDFDEkUSCOKMBURRQADYAAZuAABQbwKWXn+8k/wDxjb/iJwpfNvkf/lMN&#xA;G/5i4v8AiQwq9788/wDKHaz/AMwkv/ETgV4r+VP/ACn2l/8APf8A6hpMKvobAr5//N5WHnm7JFA0&#xA;cJHuPTA/hhV6x+W95aS+TNKWOZGZIvTdQwqHVjVSPHArKMVY5rHmXWbHX7PSbfSUulvxI1tO10Iq&#xA;iFVaWqem9OPLbffFVmh+adZ1UNcjSEi0xHnRrr60GesBZf7r0l+0y0+1irbecJT5Ss9ehsQ8t40K&#xA;R2Zl4gNPKIwDLwPQn+XFV935n1PT7BJNQ0rhqVzOLfT9Pt5xMZmYVqX4IEAoeRI2GKrrTzBrMNw0&#xA;euaV9StxE84vYJfrECiNeTLKQqFCB7UOKoEecteaw/TKaCzaHx9UP66i6MA39YQ8aU478edaYqq/&#xA;4+sj5nsNHSDla6jbxz2+oh/hrKrNGhQr+0E2+L6MVauPPccev6jpUVmZY9OtZrhrr1KK8kCK7whe&#xA;J6CRamu3hiqLg81erJ5cT6rT/EELTV9Svo8bcT0+z8fXj28cVSqy/Mu2uvKV9rq2RS60/gZ9OaSh&#xA;4yMBGwk4fZZWqDx7HFUy1Dznb2MuqRy2zvJYT29rbRxHk9xNdRLIiqpA4/ap1PSvtiq+w1rzH9eh&#xA;g1XRTbQXNfTuLeb6yI27LMAq8f8AWFRiq3SvONpqHmTUdFSIp9RB9O5LVWUx0WYAUFPTZgOpriqE&#xA;h83a7fQvqGkaGbvSEZhHM86xTTqhozwxFW2qDSrfFiqKuPOllavfNdwSQW1jZwXjs4IlJuGZFiMR&#xA;Ao3JQPtdTiqGk83a5YRx32taL9S0mRlWS4S4WWSAOQqtNGFXYkivEmmKovT/ADha3Xmi/wDL8sJg&#xA;ntSPq8paqz0RXkC7CjIHG1TtviqXWHnrVNTj079G6Ok09/ayXjRPdemI0imEJHIxNy3IPQYqvvPO&#xA;uqw6udNg0c3E1rBDPqUccwMq+tSogTjWYR13O30Yqy7FXYq7FXYq7FVO5Rnt5UUVZkYKPcjFXiXl&#xA;X8tvOtj5k0y8utO9O2t7iOSaT1oG4qrAk0WQk/RhV655rsbq/wDLep2dqnqXNxbyRwx1C8mZaAVY&#xA;gD6cCvL/AMvvy+836T5vsNQ1Cw9Gzh9b1ZfWhenOF0X4Udm+0w7YVey4Fef/AJl/lzdeYZ4tS0x0&#xA;W/iT0poZDxEiA1Uq3QMKnr1+jFWKeTfy2846d5osL29slitbaYPJJ60TfCAdwFZm/DCr2vAqRatp&#xA;l9cea9Av4o+VpZJei6k5KOBmjRY9ieRqVPQYqxvyt5ZvbG6f63oDpdmS7ZdV+sxFAsvqcP3SyHqr&#xA;cfs964qpLpHmebyRb6BcaFIHszbs3+k29JhHOrOilZPh+Cu5OFUcnly+Wztr3SdI/RV/pl2bmKwu&#xA;LhZluFaP05F9RXlCFlNAT3GBUz5+ZtcS5sL7TF0nTLi2lgnklmSadmlQoPTER4gLWtWO+KoFW88x&#xA;6KNCGkxvOsX1NdW+sRi3MYXgJjH/AHteO/Hj1xVA3fkTUVknitFqLTTLSPS7tmQE3lnIZF2rVa+J&#xA;FN8VV7HydqifVRMoE1zp9+NTuSyml5fMjGoBJam4qOwxVfoujeZHv/Li31ilnb+XYJIXn9ZJfrDN&#xA;biBTGq7qP2jyxVJ9W8g67L5LsEsYRHrcVsLO/tOcYE0BfnxLcuHKNwGB5eOFU71bytrF3f6te2wS&#xA;K4S/stQ0ppCDHK1tbLGyuFJZQfiXfAqO/S/nifl6WhR2YiidnE9xHK0soX93HF6bBRVurOcVSO18&#xA;g6rpkOjahBcXF5qNvLXULR5IhEI7sUu/TNE3BNd2NaYqj9MHnPQdNXRLbSU1FbasdjqPrxxRmMmq&#xA;GaMnmCoO/Eb4q1q3lXWNVudTMxjhmuLKyFvdIf3X1u2leUgKSz8akdR0OKt6qvnHzBp36FudJTTY&#xA;7nimoagZ45UEasC/oopLkvTbkNsVdc+Ur+Y6xPCotb5L1L3Q7iqn4o7eNKGhJCPxKMG7YqkVn5P1&#xA;eC10RdQ0J9SW0sZoJ7dLmKIxzPceop5eonL4K9CeuFUZ5i8u67fenFa6HHHLHFarpGopOkc1jwVf&#xA;USZw5aTga041H04Ff//Z</xmpGImg:image>
               </rdf:li>
            </rdf:Alt>
         </xmp:Thumbnails>
         <xmpMM:RenditionClass>proof:pdf</xmpMM:RenditionClass>
         <xmpMM:OriginalDocumentID>uuid:65E6390686CF11DBA6E2D887CEACB407</xmpMM:OriginalDocumentID>
         <xmpMM:DocumentID>xmp.did:eadc6955-dbc3-4e78-b164-f6494b0c55cc</xmpMM:DocumentID>
         <xmpMM:InstanceID>xmp.iid:eadc6955-dbc3-4e78-b164-f6494b0c55cc</xmpMM:InstanceID>
         <xmpMM:DerivedFrom rdf:parseType="Resource">
            <stRef:instanceID>uuid:8b8a92ba-1aca-9141-a412-947819237bfc</stRef:instanceID>
            <stRef:documentID>xmp.did:56270b68-e1b1-4d69-8b01-d5705cc58df6</stRef:documentID>
            <stRef:originalDocumentID>uuid:65E6390686CF11DBA6E2D887CEACB407</stRef:originalDocumentID>
            <stRef:renditionClass>proof:pdf</stRef:renditionClass>
         </xmpMM:DerivedFrom>
         <xmpMM:History>
            <rdf:Seq>
               <rdf:li rdf:parseType="Resource">
                  <stEvt:action>saved</stEvt:action>
                  <stEvt:instanceID>xmp.iid:eadc6955-dbc3-4e78-b164-f6494b0c55cc</stEvt:instanceID>
                  <stEvt:when>2018-05-20T23:18-05:00</stEvt:when>
                  <stEvt:softwareAgent>Adobe Illustrator CC 22.1 (Macintosh)</stEvt:softwareAgent>
                  <stEvt:changed>/</stEvt:changed>
               </rdf:li>
            </rdf:Seq>
         </xmpMM:History>
         <illustrator:StartupProfile>Web</illustrator:StartupProfile>
         <xmpTPg:NPages>1</xmpTPg:NPages>
         <xmpTPg:HasVisibleTransparency>False</xmpTPg:HasVisibleTransparency>
         <xmpTPg:HasVisibleOverprint>False</xmpTPg:HasVisibleOverprint>
         <xmpTPg:MaxPageSize rdf:parseType="Resource">
            <stDim:w>420.431513</stDim:w>
            <stDim:h>76.000000</stDim:h>
            <stDim:unit>Pixels</stDim:unit>
         </xmpTPg:MaxPageSize>
         <xmpTPg:PlateNames>
            <rdf:Seq>
               <rdf:li>Cyan</rdf:li>
               <rdf:li>Magenta</rdf:li>
               <rdf:li>Yellow</rdf:li>
               <rdf:li>Black</rdf:li>
            </rdf:Seq>
         </xmpTPg:PlateNames>
         <xmpTPg:SwatchGroups>
            <rdf:Seq>
               <rdf:li rdf:parseType="Resource">
                  <xmpG:groupName>Grupo de muestras por defecto</xmpG:groupName>
                  <xmpG:groupType>0</xmpG:groupType>
                  <xmpG:Colorants>
                     <rdf:Seq>
                        <rdf:li rdf:parseType="Resource">
                           <xmpG:swatchName>Blanco</xmpG:swatchName>
                           <xmpG:mode>RGB</xmpG:mode>
                           <xmpG:type>PROCESS</xmpG:type>
                           <xmpG:red>255</xmpG:red>
                           <xmpG:green>255</xmpG:green>
                           <xmpG:blue>255</xmpG:blue>
                        </rdf:li>
                        <rdf:li rdf:parseType="Resource">
                           <xmpG:swatchName>Negro</xmpG:swatchName>
                           <xmpG:mode>RGB</xmpG:mode>
                           <xmpG:type>PROCESS</xmpG:type>
                           <xmpG:red>0</xmpG:red>
                           <xmpG:green>0</xmpG:green>
                           <xmpG:blue>0</xmpG:blue>
                        </rdf:li>
                        <rdf:li rdf:parseType="Resource">
                           <xmpG:swatchName>Rojo RGB</xmpG:swatchName>
                           <xmpG:mode>RGB</xmpG:mode>
                           <xmpG:type>PROCESS</xmpG:type>
                           <xmpG:red>255</xmpG:red>
                           <xmpG:green>0</xmpG:green>
                           <xmpG:blue>0</xmpG:blue>
                        </rdf:li>
                        <rdf:li rdf:parseType="Resource">
                           <xmpG:swatchName>Amarillo RGB</xmpG:swatchName>
                           <xmpG:mode>RGB</xmpG:mode>
                           <xmpG:type>PROCESS</xmpG:type>
                           <xmpG:red>255</xmpG:red>
                           <xmpG:green>255</xmpG:green>
                           <xmpG:blue>0</xmpG:blue>
                        </rdf:li>
                        <rdf:li rdf:parseType="Resource">
                           <xmpG:swatchName>Verde RGB</xmpG:swatchName>
                           <xmpG:mode>RGB</xmpG:mode>
                           <xmpG:type>PROCESS</xmpG:type>
                           <xmpG:red>0</xmpG:red>
                           <xmpG:green>255</xmpG:green>
                           <xmpG:blue>0</xmpG:blue>
                        </rdf:li>
                        <rdf:li rdf:parseType="Resource">
                           <xmpG:swatchName>Cian RGB</xmpG:swatchName>
                           <xmpG:mode>RGB</xmpG:mode>
                           <xmpG:type>PROCESS</xmpG:type>
                           <xmpG:red>0</xmpG:red>
                           <xmpG:green>255</xmpG:green>
                           <xmpG:blue>255</xmpG:blue>
                        </rdf:li>
                        <rdf:li rdf:parseType="Resource">
                           <xmpG:swatchName>Azul RGB</xmpG:swatchName>
                           <xmpG:mode>RGB</xmpG:mode>
                           <xmpG:type>PROCESS</xmpG:type>
                           <xmpG:red>0</xmpG:red>
                           <xmpG:green>0</xmpG:green>
                           <xmpG:blue>255</xmpG:blue>
                        </rdf:li>
                        <rdf:li rdf:parseType="Resource">
                           <xmpG:swatchName>Magenta RGB</xmpG:swatchName>
                           <xmpG:mode>RGB</xmpG:mode>
                           <xmpG:type>PROCESS</xmpG:type>
                           <xmpG:red>255</xmpG:red>
                           <xmpG:green>0</xmpG:green>
                           <xmpG:blue>255</xmpG:blue>
                        </rdf:li>
                        <rdf:li rdf:parseType="Resource">
                           <xmpG:swatchName>R=193 G=39 B=45</xmpG:swatchName>
                           <xmpG:mode>RGB</xmpG:mode>
                           <xmpG:type>PROCESS</xmpG:type>
                           <xmpG:red>193</xmpG:red>
                           <xmpG:green>39</xmpG:green>
                           <xmpG:blue>45</xmpG:blue>
                        </rdf:li>
                        <rdf:li rdf:parseType="Resource">
                           <xmpG:swatchName>R=237 G=28 B=36</xmpG:swatchName>
                           <xmpG:mode>RGB</xmpG:mode>
                           <xmpG:type>PROCESS</xmpG:type>
                           <xmpG:red>237</xmpG:red>
                           <xmpG:green>28</xmpG:green>
                           <xmpG:blue>36</xmpG:blue>
                        </rdf:li>
                        <rdf:li rdf:parseType="Resource">
                           <xmpG:swatchName>R=241 G=90 B=36</xmpG:swatchName>
                           <xmpG:mode>RGB</xmpG:mode>
                           <xmpG:type>PROCESS</xmpG:type>
                           <xmpG:red>241</xmpG:red>
                           <xmpG:green>90</xmpG:green>
                           <xmpG:blue>36</xmpG:blue>
                        </rdf:li>
                        <rdf:li rdf:parseType="Resource">
                           <xmpG:swatchName>R=247 G=147 B=30</xmpG:swatchName>
                           <xmpG:mode>RGB</xmpG:mode>
                           <xmpG:type>PROCESS</xmpG:type>
                           <xmpG:red>247</xmpG:red>
                           <xmpG:green>147</xmpG:green>
                           <xmpG:blue>30</xmpG:blue>
                        </rdf:li>
                        <rdf:li rdf:parseType="Resource">
                           <xmpG:swatchName>R=251 G=176 B=59</xmpG:swatchName>
                           <xmpG:mode>RGB</xmpG:mode>
                           <xmpG:type>PROCESS</xmpG:type>
                           <xmpG:red>251</xmpG:red>
                           <xmpG:green>176</xmpG:green>
                           <xmpG:blue>59</xmpG:blue>
                        </rdf:li>
                        <rdf:li rdf:parseType="Resource">
                           <xmpG:swatchName>R=252 G=238 B=33</xmpG:swatchName>
                           <xmpG:mode>RGB</xmpG:mode>
                           <xmpG:type>PROCESS</xmpG:type>
                           <xmpG:red>252</xmpG:red>
                           <xmpG:green>238</xmpG:green>
                           <xmpG:blue>33</xmpG:blue>
                        </rdf:li>
                        <rdf:li rdf:parseType="Resource">
                           <xmpG:swatchName>R=217 G=224 B=33</xmpG:swatchName>
                           <xmpG:mode>RGB</xmpG:mode>
                           <xmpG:type>PROCESS</xmpG:type>
                           <xmpG:red>217</xmpG:red>
                           <xmpG:green>224</xmpG:green>
                           <xmpG:blue>33</xmpG:blue>
                        </rdf:li>
                        <rdf:li rdf:parseType="Resource">
                           <xmpG:swatchName>R=140 G=198 B=63</xmpG:swatchName>
                           <xmpG:mode>RGB</xmpG:mode>
                           <xmpG:type>PROCESS</xmpG:type>
                           <xmpG:red>140</xmpG:red>
                           <xmpG:green>198</xmpG:green>
                           <xmpG:blue>63</xmpG:blue>
                        </rdf:li>
                        <rdf:li rdf:parseType="Resource">
                           <xmpG:swatchName>R=57 G=181 B=74</xmpG:swatchName>
                           <xmpG:mode>RGB</xmpG:mode>
                           <xmpG:type>PROCESS</xmpG:type>
                           <xmpG:red>57</xmpG:red>
                           <xmpG:green>181</xmpG:green>
                           <xmpG:blue>74</xmpG:blue>
                        </rdf:li>
                        <rdf:li rdf:parseType="Resource">
                           <xmpG:swatchName>R=0 G=146 B=69</xmpG:swatchName>
                           <xmpG:mode>RGB</xmpG:mode>
                           <xmpG:type>PROCESS</xmpG:type>
                           <xmpG:red>0</xmpG:red>
                           <xmpG:green>146</xmpG:green>
                           <xmpG:blue>69</xmpG:blue>
                        </rdf:li>
                        <rdf:li rdf:parseType="Resource">
                           <xmpG:swatchName>R=0 G=104 B=55</xmpG:swatchName>
                           <xmpG:mode>RGB</xmpG:mode>
                           <xmpG:type>PROCESS</xmpG:type>
                           <xmpG:red>0</xmpG:red>
                           <xmpG:green>104</xmpG:green>
                           <xmpG:blue>55</xmpG:blue>
                        </rdf:li>
                        <rdf:li rdf:parseType="Resource">
                           <xmpG:swatchName>R=34 G=181 B=115</xmpG:swatchName>
                           <xmpG:mode>RGB</xmpG:mode>
                           <xmpG:type>PROCESS</xmpG:type>
                           <xmpG:red>34</xmpG:red>
                           <xmpG:green>181</xmpG:green>
                           <xmpG:blue>115</xmpG:blue>
                        </rdf:li>
                        <rdf:li rdf:parseType="Resource">
                           <xmpG:swatchName>R=0 G=169 B=157</xmpG:swatchName>
                           <xmpG:mode>RGB</xmpG:mode>
                           <xmpG:type>PROCESS</xmpG:type>
                           <xmpG:red>0</xmpG:red>
                           <xmpG:green>169</xmpG:green>
                           <xmpG:blue>157</xmpG:blue>
                        </rdf:li>
                        <rdf:li rdf:parseType="Resource">
                           <xmpG:swatchName>R=41 G=171 B=226</xmpG:swatchName>
                           <xmpG:mode>RGB</xmpG:mode>
                           <xmpG:type>PROCESS</xmpG:type>
                           <xmpG:red>41</xmpG:red>
                           <xmpG:green>171</xmpG:green>
                           <xmpG:blue>226</xmpG:blue>
                        </rdf:li>
                        <rdf:li rdf:parseType="Resource">
                           <xmpG:swatchName>R=0 G=113 B=188</xmpG:swatchName>
                           <xmpG:mode>RGB</xmpG:mode>
                           <xmpG:type>PROCESS</xmpG:type>
                           <xmpG:red>0</xmpG:red>
                           <xmpG:green>113</xmpG:green>
                           <xmpG:blue>188</xmpG:blue>
                        </rdf:li>
                        <rdf:li rdf:parseType="Resource">
                           <xmpG:swatchName>R=46 G=49 B=146</xmpG:swatchName>
                           <xmpG:mode>RGB</xmpG:mode>
                           <xmpG:type>PROCESS</xmpG:type>
                           <xmpG:red>46</xmpG:red>
                           <xmpG:green>49</xmpG:green>
                           <xmpG:blue>146</xmpG:blue>
                        </rdf:li>
                        <rdf:li rdf:parseType="Resource">
                           <xmpG:swatchName>R=27 G=20 B=100</xmpG:swatchName>
                           <xmpG:mode>RGB</xmpG:mode>
                           <xmpG:type>PROCESS</xmpG:type>
                           <xmpG:red>27</xmpG:red>
                           <xmpG:green>20</xmpG:green>
                           <xmpG:blue>100</xmpG:blue>
                        </rdf:li>
                        <rdf:li rdf:parseType="Resource">
                           <xmpG:swatchName>R=102 G=45 B=145</xmpG:swatchName>
                           <xmpG:mode>RGB</xmpG:mode>
                           <xmpG:type>PROCESS</xmpG:type>
                           <xmpG:red>102</xmpG:red>
                           <xmpG:green>45</xmpG:green>
                           <xmpG:blue>145</xmpG:blue>
                        </rdf:li>
                        <rdf:li rdf:parseType="Resource">
                           <xmpG:swatchName>R=147 G=39 B=143</xmpG:swatchName>
                           <xmpG:mode>RGB</xmpG:mode>
                           <xmpG:type>PROCESS</xmpG:type>
                           <xmpG:red>147</xmpG:red>
                           <xmpG:green>39</xmpG:green>
                           <xmpG:blue>143</xmpG:blue>
                        </rdf:li>
                        <rdf:li rdf:parseType="Resource">
                           <xmpG:swatchName>R=158 G=0 B=93</xmpG:swatchName>
                           <xmpG:mode>RGB</xmpG:mode>
                           <xmpG:type>PROCESS</xmpG:type>
                           <xmpG:red>158</xmpG:red>
                           <xmpG:green>0</xmpG:green>
                           <xmpG:blue>93</xmpG:blue>
                        </rdf:li>
                        <rdf:li rdf:parseType="Resource">
                           <xmpG:swatchName>R=212 G=20 B=90</xmpG:swatchName>
                           <xmpG:mode>RGB</xmpG:mode>
                           <xmpG:type>PROCESS</xmpG:type>
                           <xmpG:red>212</xmpG:red>
                           <xmpG:green>20</xmpG:green>
                           <xmpG:blue>90</xmpG:blue>
                        </rdf:li>
                        <rdf:li rdf:parseType="Resource">
                           <xmpG:swatchName>R=237 G=30 B=121</xmpG:swatchName>
                           <xmpG:mode>RGB</xmpG:mode>
                           <xmpG:type>PROCESS</xmpG:type>
                           <xmpG:red>237</xmpG:red>
                           <xmpG:green>30</xmpG:green>
                           <xmpG:blue>121</xmpG:blue>
                        </rdf:li>
                        <rdf:li rdf:parseType="Resource">
                           <xmpG:swatchName>R=199 G=178 B=153</xmpG:swatchName>
                           <xmpG:mode>RGB</xmpG:mode>
                           <xmpG:type>PROCESS</xmpG:type>
                           <xmpG:red>199</xmpG:red>
                           <xmpG:green>178</xmpG:green>
                           <xmpG:blue>153</xmpG:blue>
                        </rdf:li>
                        <rdf:li rdf:parseType="Resource">
                           <xmpG:swatchName>R=153 G=134 B=117</xmpG:swatchName>
                           <xmpG:mode>RGB</xmpG:mode>
                           <xmpG:type>PROCESS</xmpG:type>
                           <xmpG:red>153</xmpG:red>
                           <xmpG:green>134</xmpG:green>
                           <xmpG:blue>117</xmpG:blue>
                        </rdf:li>
                        <rdf:li rdf:parseType="Resource">
                           <xmpG:swatchName>R=115 G=99 B=87</xmpG:swatchName>
                           <xmpG:mode>RGB</xmpG:mode>
                           <xmpG:type>PROCESS</xmpG:type>
                           <xmpG:red>115</xmpG:red>
                           <xmpG:green>99</xmpG:green>
                           <xmpG:blue>87</xmpG:blue>
                        </rdf:li>
                        <rdf:li rdf:parseType="Resource">
                           <xmpG:swatchName>R=83 G=71 B=65</xmpG:swatchName>
                           <xmpG:mode>RGB</xmpG:mode>
                           <xmpG:type>PROCESS</xmpG:type>
                           <xmpG:red>83</xmpG:red>
                           <xmpG:green>71</xmpG:green>
                           <xmpG:blue>65</xmpG:blue>
                        </rdf:li>
                        <rdf:li rdf:parseType="Resource">
                           <xmpG:swatchName>R=198 G=156 B=109</xmpG:swatchName>
                           <xmpG:mode>RGB</xmpG:mode>
                           <xmpG:type>PROCESS</xmpG:type>
                           <xmpG:red>198</xmpG:red>
                           <xmpG:green>156</xmpG:green>
                           <xmpG:blue>109</xmpG:blue>
                        </rdf:li>
                        <rdf:li rdf:parseType="Resource">
                           <xmpG:swatchName>R=166 G=124 B=82</xmpG:swatchName>
                           <xmpG:mode>RGB</xmpG:mode>
                           <xmpG:type>PROCESS</xmpG:type>
                           <xmpG:red>166</xmpG:red>
                           <xmpG:green>124</xmpG:green>
                           <xmpG:blue>82</xmpG:blue>
                        </rdf:li>
                        <rdf:li rdf:parseType="Resource">
                           <xmpG:swatchName>R=140 G=98 B=57</xmpG:swatchName>
                           <xmpG:mode>RGB</xmpG:mode>
                           <xmpG:type>PROCESS</xmpG:type>
                           <xmpG:red>140</xmpG:red>
                           <xmpG:green>98</xmpG:green>
                           <xmpG:blue>57</xmpG:blue>
                        </rdf:li>
                        <rdf:li rdf:parseType="Resource">
                           <xmpG:swatchName>R=117 G=76 B=36</xmpG:swatchName>
                           <xmpG:mode>RGB</xmpG:mode>
                           <xmpG:type>PROCESS</xmpG:type>
                           <xmpG:red>117</xmpG:red>
                           <xmpG:green>76</xmpG:green>
                           <xmpG:blue>36</xmpG:blue>
                        </rdf:li>
                        <rdf:li rdf:parseType="Resource">
                           <xmpG:swatchName>R=96 G=56 B=19</xmpG:swatchName>
                           <xmpG:mode>RGB</xmpG:mode>
                           <xmpG:type>PROCESS</xmpG:type>
                           <xmpG:red>96</xmpG:red>
                           <xmpG:green>56</xmpG:green>
                           <xmpG:blue>19</xmpG:blue>
                        </rdf:li>
                        <rdf:li rdf:parseType="Resource">
                           <xmpG:swatchName>R=66 G=33 B=11</xmpG:swatchName>
                           <xmpG:mode>RGB</xmpG:mode>
                           <xmpG:type>PROCESS</xmpG:type>
                           <xmpG:red>66</xmpG:red>
                           <xmpG:green>33</xmpG:green>
                           <xmpG:blue>11</xmpG:blue>
                        </rdf:li>
                     </rdf:Seq>
                  </xmpG:Colorants>
               </rdf:li>
               <rdf:li rdf:parseType="Resource">
                  <xmpG:groupName>Grises</xmpG:groupName>
                  <xmpG:groupType>1</xmpG:groupType>
                  <xmpG:Colorants>
                     <rdf:Seq>
                        <rdf:li rdf:parseType="Resource">
                           <xmpG:swatchName>R=0 G=0 B=0</xmpG:swatchName>
                           <xmpG:mode>RGB</xmpG:mode>
                           <xmpG:type>PROCESS</xmpG:type>
                           <xmpG:red>0</xmpG:red>
                           <xmpG:green>0</xmpG:green>
                           <xmpG:blue>0</xmpG:blue>
                        </rdf:li>
                        <rdf:li rdf:parseType="Resource">
                           <xmpG:swatchName>R=26 G=26 B=26</xmpG:swatchName>
                           <xmpG:mode>RGB</xmpG:mode>
                           <xmpG:type>PROCESS</xmpG:type>
                           <xmpG:red>26</xmpG:red>
                           <xmpG:green>26</xmpG:green>
                           <xmpG:blue>26</xmpG:blue>
                        </rdf:li>
                        <rdf:li rdf:parseType="Resource">
                           <xmpG:swatchName>R=51 G=51 B=51</xmpG:swatchName>
                           <xmpG:mode>RGB</xmpG:mode>
                           <xmpG:type>PROCESS</xmpG:type>
                           <xmpG:red>51</xmpG:red>
                           <xmpG:green>51</xmpG:green>
                           <xmpG:blue>51</xmpG:blue>
                        </rdf:li>
                        <rdf:li rdf:parseType="Resource">
                           <xmpG:swatchName>R=77 G=77 B=77</xmpG:swatchName>
                           <xmpG:mode>RGB</xmpG:mode>
                           <xmpG:type>PROCESS</xmpG:type>
                           <xmpG:red>77</xmpG:red>
                           <xmpG:green>77</xmpG:green>
                           <xmpG:blue>77</xmpG:blue>
                        </rdf:li>
                        <rdf:li rdf:parseType="Resource">
                           <xmpG:swatchName>R=102 G=102 B=102</xmpG:swatchName>
                           <xmpG:mode>RGB</xmpG:mode>
                           <xmpG:type>PROCESS</xmpG:type>
                           <xmpG:red>102</xmpG:red>
                           <xmpG:green>102</xmpG:green>
                           <xmpG:blue>102</xmpG:blue>
                        </rdf:li>
                        <rdf:li rdf:parseType="Resource">
                           <xmpG:swatchName>R=128 G=128 B=128</xmpG:swatchName>
                           <xmpG:mode>RGB</xmpG:mode>
                           <xmpG:type>PROCESS</xmpG:type>
                           <xmpG:red>128</xmpG:red>
                           <xmpG:green>128</xmpG:green>
                           <xmpG:blue>128</xmpG:blue>
                        </rdf:li>
                        <rdf:li rdf:parseType="Resource">
                           <xmpG:swatchName>R=153 G=153 B=153</xmpG:swatchName>
                           <xmpG:mode>RGB</xmpG:mode>
                           <xmpG:type>PROCESS</xmpG:type>
                           <xmpG:red>153</xmpG:red>
                           <xmpG:green>153</xmpG:green>
                           <xmpG:blue>153</xmpG:blue>
                        </rdf:li>
                        <rdf:li rdf:parseType="Resource">
                           <xmpG:swatchName>R=179 G=179 B=179</xmpG:swatchName>
                           <xmpG:mode>RGB</xmpG:mode>
                           <xmpG:type>PROCESS</xmpG:type>
                           <xmpG:red>179</xmpG:red>
                           <xmpG:green>179</xmpG:green>
                           <xmpG:blue>179</xmpG:blue>
                        </rdf:li>
                        <rdf:li rdf:parseType="Resource">
                           <xmpG:swatchName>R=204 G=204 B=204</xmpG:swatchName>
                           <xmpG:mode>RGB</xmpG:mode>
                           <xmpG:type>PROCESS</xmpG:type>
                           <xmpG:red>204</xmpG:red>
                           <xmpG:green>204</xmpG:green>
                           <xmpG:blue>204</xmpG:blue>
                        </rdf:li>
                        <rdf:li rdf:parseType="Resource">
                           <xmpG:swatchName>R=230 G=230 B=230</xmpG:swatchName>
                           <xmpG:mode>RGB</xmpG:mode>
                           <xmpG:type>PROCESS</xmpG:type>
                           <xmpG:red>230</xmpG:red>
                           <xmpG:green>230</xmpG:green>
                           <xmpG:blue>230</xmpG:blue>
                        </rdf:li>
                        <rdf:li rdf:parseType="Resource">
                           <xmpG:swatchName>R=242 G=242 B=242</xmpG:swatchName>
                           <xmpG:mode>RGB</xmpG:mode>
                           <xmpG:type>PROCESS</xmpG:type>
                           <xmpG:red>242</xmpG:red>
                           <xmpG:green>242</xmpG:green>
                           <xmpG:blue>242</xmpG:blue>
                        </rdf:li>
                     </rdf:Seq>
                  </xmpG:Colorants>
               </rdf:li>
               <rdf:li rdf:parseType="Resource">
                  <xmpG:groupName>Grupo de colores Web</xmpG:groupName>
                  <xmpG:groupType>1</xmpG:groupType>
                  <xmpG:Colorants>
                     <rdf:Seq>
                        <rdf:li rdf:parseType="Resource">
                           <xmpG:swatchName>R=63 G=169 B=245</xmpG:swatchName>
                           <xmpG:mode>RGB</xmpG:mode>
                           <xmpG:type>PROCESS</xmpG:type>
                           <xmpG:red>63</xmpG:red>
                           <xmpG:green>169</xmpG:green>
                           <xmpG:blue>245</xmpG:blue>
                        </rdf:li>
                        <rdf:li rdf:parseType="Resource">
                           <xmpG:swatchName>R=122 G=201 B=67</xmpG:swatchName>
                           <xmpG:mode>RGB</xmpG:mode>
                           <xmpG:type>PROCESS</xmpG:type>
                           <xmpG:red>122</xmpG:red>
                           <xmpG:green>201</xmpG:green>
                           <xmpG:blue>67</xmpG:blue>
                        </rdf:li>
                        <rdf:li rdf:parseType="Resource">
                           <xmpG:swatchName>R=255 G=147 B=30</xmpG:swatchName>
                           <xmpG:mode>RGB</xmpG:mode>
                           <xmpG:type>PROCESS</xmpG:type>
                           <xmpG:red>255</xmpG:red>
                           <xmpG:green>147</xmpG:green>
                           <xmpG:blue>30</xmpG:blue>
                        </rdf:li>
                        <rdf:li rdf:parseType="Resource">
                           <xmpG:swatchName>R=255 G=29 B=37</xmpG:swatchName>
                           <xmpG:mode>RGB</xmpG:mode>
                           <xmpG:type>PROCESS</xmpG:type>
                           <xmpG:red>255</xmpG:red>
                           <xmpG:green>29</xmpG:green>
                           <xmpG:blue>37</xmpG:blue>
                        </rdf:li>
                        <rdf:li rdf:parseType="Resource">
                           <xmpG:swatchName>R=255 G=123 B=172</xmpG:swatchName>
                           <xmpG:mode>RGB</xmpG:mode>
                           <xmpG:type>PROCESS</xmpG:type>
                           <xmpG:red>255</xmpG:red>
                           <xmpG:green>123</xmpG:green>
                           <xmpG:blue>172</xmpG:blue>
                        </rdf:li>
                        <rdf:li rdf:parseType="Resource">
                           <xmpG:swatchName>R=189 G=204 B=212</xmpG:swatchName>
                           <xmpG:mode>RGB</xmpG:mode>
                           <xmpG:type>PROCESS</xmpG:type>
                           <xmpG:red>189</xmpG:red>
                           <xmpG:green>204</xmpG:green>
                           <xmpG:blue>212</xmpG:blue>
                        </rdf:li>
                     </rdf:Seq>
                  </xmpG:Colorants>
               </rdf:li>
            </rdf:Seq>
         </xmpTPg:SwatchGroups>
         <pdf:Producer>Adobe PDF library 15.00</pdf:Producer>
         <pdfx:CreatorVersion>21.0.0</pdfx:CreatorVersion>
      </rdf:Description>
   </rdf:RDF>
</x:xmpmeta>
                                                                                                    
                                                                                                    
                                                                                                    
                                                                                                    
                                                                                                    
                                                                                                    
                                                                                                    
                                                                                                    
                                                                                                    
                                                                                                    
                                                                                                    
                                                                                                    
                                                                                                    
                                                                                                    
                                                                                                    
                                                                                                    
                                                                                                    
                                                                                                    
                                                                                                    
                                                                                                    
                           
<?xpacket end="w"?>
	</metadata>
<g id="Logo">
	<rect x="176.2" y="34.2" fill="#78787A" width="1.6" height="16"/>
	<polygon fill="#78787A" points="182.2,34.2 184.3,34.2 193.2,47.4 193.3,47.4 193.3,34.2 194.9,34.2 194.9,50.1 193.3,50.1 
		183.8,36.1 183.8,36.1 183.8,50.1 182.2,50.1 	"/>
	<g>
		<path fill="#78787A" d="M199.7,45.7c0.1,2,1.4,3.3,3.3,3.3c1.7,0,3.2-1.3,3.2-3.2c0-2.5-2.5-3.1-3.6-3.4c-1.4-0.4-4.1-1-4.1-4.2
			c0-2.5,2-4.3,4.5-4.3c2.6,0,4.4,2,4.4,4.3h-1.6c0-1.6-1.3-2.9-2.8-2.9c-1.8,0-2.9,1.4-2.9,2.8c0,1.9,1.7,2.4,3.8,3
			c3.9,1.1,3.9,4.1,3.9,4.6c0,2.5-2,4.7-4.8,4.7c-2.1,0-4.9-1.2-4.9-4.8H199.7z"/>
		<polygon fill="#78787A" points="213.4,35.6 209.7,35.6 209.7,34.2 218.6,34.2 218.6,35.6 215,35.6 215,50.1 213.4,50.1 		"/>
		<rect x="221.6" y="34.2" fill="#78787A" width="1.6" height="16"/>
		<polygon fill="#78787A" points="229.8,35.6 226.1,35.6 226.1,34.2 235,34.2 235,35.6 231.4,35.6 231.4,50.1 229.8,50.1 		"/>
		<path fill="#78787A" d="M239.5,34.2v10c0,1.2,0.2,2.2,0.5,2.9c1,1.8,2.5,2,3.3,2c0.8,0,2.3-0.2,3.3-2c0.4-0.7,0.5-1.7,0.5-2.9v-10
			h1.6v10c0,1.3-0.2,2.5-0.6,3.3c-1.1,2.4-3.3,3-4.8,3c-1.5,0-3.7-0.6-4.8-3c-0.4-0.8-0.6-2-0.6-3.3v-10H239.5z"/>
		<polygon fill="#78787A" points="255.4,35.6 251.7,35.6 251.7,34.2 260.6,34.2 260.6,35.6 257,35.6 257,50.1 255.4,50.1 		"/>
		<path fill="#78787A" d="M271.3,33.9c4.5,0,8.5,3.6,8.5,8.3c0,4.7-4,8.3-8.5,8.3c-4.5,0-8.4-3.7-8.4-8.2
			C262.9,37.2,267.1,33.9,271.3,33.9 M271.3,49c3.7,0,6.9-3,6.9-6.8c0-3.7-3.1-6.8-6.9-6.8c-3.6,0-6.8,2.9-6.8,6.9
			C264.5,45.9,267.6,49,271.3,49"/>
		<polygon fill="#78787A" points="290.5,34.2 298.6,34.2 298.6,35.6 292.1,35.6 292.1,41.4 298.4,41.4 298.4,42.8 292.1,42.8 
			292.1,50.1 290.5,50.1 		"/>
		<polygon fill="#78787A" points="302.1,34.2 310.9,34.2 310.9,35.6 303.7,35.6 303.7,41.4 310.6,41.4 310.6,42.8 303.7,42.8 
			303.7,48.7 310.9,48.7 310.9,50.1 302.1,50.1 		"/>
		<path fill="#78787A" d="M314.9,34.2h4.7c2,0,3.9,0.5,5.2,1.3c2.8,1.8,3.6,4.8,3.6,6.7c0,1.5-0.6,4.7-3.6,6.6
			c-1.3,0.8-3.2,1.3-5.2,1.3h-4.7V34.2z M316.5,48.7h2.3c1.4,0,3.7,0,5.5-1.3c1-0.8,2.5-2.5,2.5-5.3c0-2.1-1.1-4.1-2.7-5.3
			c-1.4-0.9-2.9-1.2-5.3-1.2h-2.3V48.7z"/>
		<polygon fill="#78787A" points="332.1,34.2 340.8,34.2 340.8,35.6 333.7,35.6 333.7,41.4 340.6,41.4 340.6,42.8 333.7,42.8 
			333.7,48.7 340.8,48.7 340.8,50.1 332.1,50.1 		"/>
		<path fill="#78787A" d="M344.8,34.2h4.1c2.1,0,3.2,0.3,3.9,0.6c1.8,0.8,2.9,2.6,2.9,4.6c0,2.3-1.7,4.7-4.8,4.9l4.5,6h-2l-5.4-7.2
			c2,0,2.7,0,3.4-0.2c1.7-0.5,2.6-2,2.6-3.4c0-1.3-0.7-2.6-1.7-3.1c-1-0.5-1.8-0.6-3.1-0.6h-2.8v14.5h-1.6V34.2z"/>
		<path fill="#78787A" d="M364.6,34.2h1.8l6.9,16h-1.7l-2.3-5.4h-7.4l-2.3,5.4h-1.7L364.6,34.2z M362.4,43.3h6.2l-3.1-7.3
			L362.4,43.3z"/>
		<polygon fill="#78787A" points="376.5,34.2 378.1,34.2 378.1,48.7 384.7,48.7 384.7,50.1 376.5,50.1 		"/>
		<path fill="#78787A" d="M394.5,34.2h4.7c2,0,3.9,0.5,5.2,1.3c2.8,1.8,3.6,4.8,3.6,6.7c0,1.5-0.6,4.7-3.6,6.6
			c-1.3,0.8-3.2,1.3-5.2,1.3h-4.7V34.2z M396.1,48.7h2.3c1.4,0,3.7,0,5.5-1.3c1-0.8,2.5-2.5,2.5-5.3c0-2.1-1.1-4.1-2.7-5.3
			c-1.4-0.9-2.9-1.2-5.3-1.2h-2.3V48.7z"/>
		<polygon fill="#78787A" points="411.7,34.2 420.4,34.2 420.4,35.6 413.3,35.6 413.3,41.4 420.2,41.4 420.2,42.8 413.3,42.8 
			413.3,48.7 420.4,48.7 420.4,50.1 411.7,50.1 		"/>
		<polygon fill="#78787A" points="177.7,75.5 177.7,61.6 174.7,61.6 174.7,59.5 183.1,59.5 183.1,61.6 180.1,61.6 180.1,75.5 		"/>
		<polygon fill="#78787A" points="185.1,75.5 185.1,59.5 193.7,59.5 193.7,61.6 187.4,61.6 187.4,66.3 193.7,66.3 193.7,68.5 
			187.4,68.5 187.4,73.3 193.7,73.3 193.7,75.5 		"/>
		<polygon fill="#78787A" points="197,75.5 197,59.5 199.3,59.5 199.3,73.3 204.9,73.3 204.9,75.5 		"/>
		<polygon fill="#78787A" points="206.6,75.5 206.6,59.5 215.3,59.5 215.3,61.6 209,61.6 209,66.3 215.3,66.3 215.3,68.5 209,68.5 
			209,73.3 215.3,73.3 215.3,75.5 		"/>
		<path fill="#78787A" d="M230.4,63.6c-0.5-0.5-1.9-2.2-4.5-2.2c-3.3,0-5.9,2.7-5.9,6.1c0,3.4,2.8,6.2,5.9,6.2
			c1.7,0,3.3-0.8,4.4-2.1h2.9c-1.8,3.1-4.8,4.3-7.3,4.3c-4.5,0-8.2-3.8-8.2-8.4c0-4.7,3.8-8.2,8.2-8.2c1.2,0,3.2,0.3,4.9,1.6
			c1.4,1,2.1,2.1,2.5,2.8H230.4z"/>
		<path fill="#78787A" d="M243.2,75.8c-4.8,0-8.3-3.9-8.3-8.3c0-4.3,3.4-8.3,8.3-8.3c4.8,0,8.3,3.8,8.3,8.3
			C251.6,71.9,248,75.8,243.2,75.8 M243.2,61.3c-4.1,0-6,3.6-6,6.2c0,2.6,1.9,6.2,6,6.2c4.1,0,6-3.6,6-6.1
			C249.2,64.7,247.2,61.3,243.2,61.3"/>
		<polygon fill="#78787A" points="269,75.5 269,62 268.9,62 263.5,75.5 262.1,75.5 256.7,62 256.7,62 256.7,75.5 254.4,75.5 
			254.4,59.5 258,59.5 262.8,71.7 267.7,59.5 271.3,59.5 271.3,75.5 		"/>
		<path fill="#78787A" d="M285.6,70.3c0,1.8-0.6,3.1-1.6,4.1c-1,0.8-2.3,1.4-3.7,1.4c-1.5,0-2.7-0.5-3.7-1.4c-1-1-1.6-2.3-1.6-4.1
			V59.5h2.3v10.8c0,3,2.2,3.4,3,3.4c0.9,0,3-0.4,3-3.4V59.5h2.3V70.3z"/>
		<polygon fill="#78787A" points="299.5,75.5 291.5,63.1 291.5,63.1 291.5,75.5 289.2,75.5 289.2,59.5 291.7,59.5 299.5,71.6 
			299.5,71.6 299.5,59.5 301.9,59.5 301.9,75.5 		"/>
		<rect x="305.5" y="59.5" fill="#78787A" width="2.3" height="16"/>
		<path fill="#78787A" d="M323.4,63.6c-0.5-0.5-1.9-2.2-4.5-2.2c-3.3,0-5.9,2.7-5.9,6.1c0,3.4,2.8,6.2,5.9,6.2
			c1.7,0,3.3-0.8,4.4-2.1h2.9c-1.8,3.1-4.8,4.3-7.3,4.3c-4.5,0-8.2-3.8-8.2-8.4c0-4.7,3.8-8.2,8.2-8.2c1.2,0,3.2,0.3,4.9,1.6
			c1.4,1,2.1,2.1,2.5,2.8H323.4z"/>
		<path fill="#78787A" d="M338.2,75.5l-1.8-4.7h-5.7l-1.8,4.7h-2.5l6.1-16h2.1l6.1,16H338.2z M335.7,68.6l-2-6.1h0l-2.1,6.1H335.7z"
			/>
		<path fill="#78787A" d="M354.1,63.6c-0.5-0.5-1.9-2.2-4.5-2.2c-3.3,0-5.9,2.7-5.9,6.1c0,3.4,2.8,6.2,5.9,6.2
			c1.7,0,3.3-0.8,4.4-2.1h2.9c-1.8,3.1-4.8,4.3-7.3,4.3c-4.5,0-8.2-3.8-8.2-8.4c0-4.7,3.8-8.2,8.2-8.2c1.2,0,3.2,0.3,4.9,1.6
			c1.5,1,2.1,2.1,2.5,2.8H354.1z"/>
		<rect x="359.4" y="59.5" fill="#78787A" width="2.3" height="16"/>
		<path fill="#78787A" d="M372.8,75.8c-4.8,0-8.3-3.9-8.3-8.3c0-4.3,3.4-8.3,8.3-8.3c4.8,0,8.3,3.8,8.3,8.3
			C381.1,71.9,377.5,75.8,372.8,75.8 M372.8,61.3c-4.1,0-6,3.6-6,6.2c0,2.6,1.9,6.2,6,6.2c4.1,0,6-3.6,6-6.1
			C378.8,64.7,376.8,61.3,372.8,61.3"/>
		<polygon fill="#78787A" points="394.2,75.5 386.3,63.1 386.3,63.1 386.3,75.5 383.9,75.5 383.9,59.5 386.5,59.5 394.2,71.6 
			394.3,71.6 394.3,59.5 396.6,59.5 396.6,75.5 		"/>
		<polygon fill="#78787A" points="400,75.5 400,59.5 408.6,59.5 408.6,61.6 402.3,61.6 402.3,66.3 408.6,66.3 408.6,68.5 
			402.3,68.5 402.3,73.3 408.6,73.3 408.6,75.5 		"/>
		<path fill="#78787A" d="M412.9,70.7c0,0.5,0.2,2.9,2.6,2.9c1.5,0,2.6-1,2.6-2.7c0-1.8-1.5-2.2-2.6-2.6c-2.1-0.8-2.7-1.1-3.4-1.8
			c-0.7-0.7-1.1-1.9-1.1-3c0-1.9,1.4-4.3,4.5-4.3c2.7,0,4.6,1.7,4.6,4.5h-2.3c0-1.8-1.3-2.3-2.2-2.3c-1.4,0-2.1,1.3-2.1,2.2
			c0,1.5,1.4,1.9,2.1,2.2c2,0.8,4.9,1.4,4.9,5.2c0,2.8-2,4.8-4.9,4.8c-2.2,0-4.9-1.5-4.9-5H412.9z"/>
		<path fill="#78787A" d="M124.4,33.5h-9.9v-2c0-3.3,1.7-5.1,4.9-5.1c1.7,0,3.3,0.3,5.1,0.9V18c-2.5-0.7-5-1.1-8.3-1.1
			c-4.2,0-7.5,1.1-9.6,3.3c-2.2,2.2-3.3,5.6-3.3,10.2v3.1h-6.8v9.1h6.8v32.8h11.4V42.6h9.8V33.5z"/>
		<polygon fill="#78787A" points="89.8,75.5 89.8,33.5 71.6,33.5 71.6,42.7 78.6,42.7 78.6,75.5 		"/>
		<path fill="#78787A" d="M90.6,22.9c0,3.7-3,6.7-6.7,6.7c-3.7,0-6.7-3-6.7-6.7c0-3.7,3-6.7,6.7-6.7C87.6,16.2,90.6,19.2,90.6,22.9"
			/>
		<path fill="#78787A" d="M138.8,72.2c2.2,2.2,5.4,3.3,9.6,3.3c2.6,0,4.7-0.2,6.7-0.7v-9.2c-1.2,0.3-2.3,0.4-3.6,0.4
			c-3.2,0-4.9-1.8-4.9-5.1V42.6h9.9v-9.1h-9.8V16.9h-11.4v16.6h-6.4v9.1h6.4V62C135.4,66.6,136.6,70,138.8,72.2"/>
		<path fill="#77BD43" d="M24,56.9C17.3,53.2,13,46,13.3,38.1l0.2-2C14,31.5,15.7,28,18,25.6c0.9-6.8,3-13.1,6-17.8
			C12.5,4,2.2,12.1,0.2,27.3l-0.2,3C-0.5,46,11,59.7,26.8,61.7c3.4,0.4,6.6,0.4,9.6,0.1C31.5,62,27.2,60.3,24,56.9"/>
		<path fill="#77BD43" d="M57.3,12.5C46.9-0.9,32.5-3.8,25.1,6.1c-0.4,0.5-0.8,1.1-1.1,1.7c0.7,0.2,1.3,0.5,2,0.8
			c0.3-0.6,0.7-1.1,1.1-1.6c5.5-7.3,16.2-5.1,23.9,4.8c5.9,7.6,6.2,17.8,1.5,25.6c0.8,2.1,1.4,4.3,1.7,6.3
			c1.4,9.7-6.1,16.8-17.8,18.2c4.8-0.2,10.2-2.2,15.4-6.2l2.3-2C65.4,43,67,25.2,57.3,12.5"/>
		<path fill="#4E9D45" d="M21.6,23c0.5-5.5,2-10.7,4.4-14.5c-0.7-0.3-1.3-0.5-2-0.8c-3,4.7-5,11.1-6,17.8
			C19.1,24.5,20.3,23.6,21.6,23"/>
		<path fill="#4E9D45" d="M54.1,43.6c-0.3-2-0.9-4.1-1.7-6.3c-1.1,1.8-2.4,3.4-3.9,4.9c0.7,1.7,1.2,3.3,1.4,4.9
			c1.2,8.3-7.1,13.8-18.5,12.3c-2.7-0.3-5.2-1.2-7.4-2.4c3.2,3.4,7.5,5.1,12.4,4.9C48,60.4,55.5,53.3,54.1,43.6"/>
		<path fill="#FFFFFF" d="M46.8,43.6c-10,7.7-20.6,5.5-23.8-4.8C21.5,34,21.1,28.4,21.6,23c-1.3,0.6-2.5,1.4-3.6,2.5
			c-1.1,7.9-0.7,16.5,1.6,23.6c1,3.2,2.5,5.7,4.4,7.7c2.2,1.2,4.7,2.1,7.4,2.4c11.4,1.5,19.7-4,18.5-12.3c-0.2-1.6-0.7-3.2-1.4-4.9
			c0,0,0,0,0,0L46.8,43.6z"/>
		<path fill="#C1D42F" d="M46.8,43.6c-10,7.7-20.6,5.5-23.8-4.8C21.5,34,21.1,28.4,21.6,23c-1.3,0.6-2.5,1.4-3.6,2.5
			c-1.1,7.9-0.7,16.5,1.6,23.6c1,3.2,2.5,5.7,4.4,7.7c2.2,1.2,4.7,2.1,7.4,2.4c11.4,1.5,19.7-4,18.5-12.3c-0.2-1.6-0.7-3.2-1.4-4.9
			c0,0,0,0,0,0L46.8,43.6z"/>
		<path fill="#C1D42F" d="M31.9,23.7C39,27.5,45.6,35,48.5,42.1c1.5-1.5,2.8-3.1,3.9-4.9c-4-10.8-14.1-22.4-24.9-28.1
			c-0.5-0.3-1-0.5-1.6-0.7c-2.3,3.8-3.8,9.1-4.4,14.5C24.7,21.7,28.3,21.8,31.9,23.7"/>
	</g>
</g>
</svg>
