<?xml version="1.0" encoding="utf-8"?>
<!-- Generator: Adobe Illustrator 22.1.0, SVG Export Plug-In . SVG Version: 6.00 Build 0)  -->
<svg version="1.1" id="Capa_1" xmlns="http://www.w3.org/2000/svg" xmlns:xlink="http://www.w3.org/1999/xlink" x="0px" y="0px"
	 viewBox="0 0 100 100" style="enable-background:new 0 0 100 100;" xml:space="preserve">
<style type="text/css">
	.st0{fill:#327A43;}
</style>
<path id="internet_smartphone" class="st0" d="M66,5H34c-4.6,0-8.2,3.7-8.2,8.2v73.5c0,4.6,3.7,8.2,8.2,8.2H66
	c4.6,0,8.2-3.7,8.2-8.2V13.2C74.2,8.7,70.5,5,66,5z M50,9.7c0.4,0,0.8,0.4,0.8,0.8c0,0.4-0.4,0.8-0.8,0.8c-0.5,0-0.8-0.4-0.8-0.8
	C49.2,10.1,49.6,9.7,50,9.7z M45.1,12.4h9.8c0.1,0,0.2,0.3,0.2,0.6c0,0.3-0.1,0.6-0.2,0.6h-9.8c-0.1,0-0.2-0.3-0.2-0.6
	C44.9,12.7,45,12.4,45.1,12.4z M50,92.5c-1.9,0-3.5-1.6-3.5-3.5c0-1.9,1.6-3.5,3.5-3.5c1.9,0,3.5,1.6,3.5,3.5
	C53.5,91,51.9,92.5,50,92.5z M70.8,82.5H29.2V17.5h41.6V82.5z M50,91.8c-1.5,0-2.8-1.2-2.8-2.8c0-1.5,1.2-2.8,2.8-2.8
	c1.5,0,2.8,1.2,2.8,2.8C52.8,90.6,51.5,91.8,50,91.8 M37.2,38.1c-1.1,0-1.1,0-1.1,0c-1.3,0.1-2.3-0.9-2.2-2.1v0
	c0-1.3,1.1-2.4,2.4-2.5c0,0,0.1,0,1.3,0c9.4,0.2,18.6,4.9,24.2,13.4c3.3,5,4.9,10.6,4.9,16.2c0,1.1,0,1.1,0,1.1
	c-0.1,1.2-1.2,2.1-2.5,2.2l0,0c-1.3,0-2.3-0.8-2.2-1.8c0,0,0,0,0-1c0-4.8-1.3-9.7-4.1-14C53,42.2,45.2,38.2,37.2,38.1z M36.8,47.5
	c-1.1,0-1.1,0-1.1,0c-1.2,0.2-2.1-0.7-2.1-2l0-0.1c0-1.3,1.1-2.5,2.4-2.6c0,0,0.2,0,1.4,0c6.4,0.2,12.7,3.4,16.5,9.1
	c2.3,3.4,3.3,7.3,3.4,11.1c0,1.1,0,1.1,0,1.1c-0.1,1.2-1.3,2.2-2.6,2.3l-0.1,0c-1.3,0-2.2-0.9-2-2c0,0,0,0,0-1.1
	c0-3-0.8-6.1-2.6-8.8C46.9,49.9,41.9,47.4,36.8,47.5z M33.4,55c-0.1-2.3,2.4-2.9,3.6-2.9c3.5,0,7,1.8,9.1,4.9c1.2,1.9,1.8,4,1.8,6.1
	c0,1.2-0.8,3.6-2.9,3.5c-1.5-0.1-1.9-1.9-1.8-3c0.1-1.4-0.2-2.7-1-4c-1.4-2.1-3.8-3.1-6.2-2.8C35,57,33.4,56.2,33.4,55z"/>
</svg>
