<?xml version="1.0" encoding="utf-8"?>
<!-- Generator: Adobe Illustrator 22.1.0, SVG Export Plug-In . SVG Version: 6.00 Build 0)  -->
<svg version="1.1" id="Capa_1" xmlns="http://www.w3.org/2000/svg" xmlns:xlink="http://www.w3.org/1999/xlink" x="0px" y="0px"
	 viewBox="0 0 100 100" style="enable-background:new 0 0 100 100;" xml:space="preserve">
<style type="text/css">
	.st0{fill-rule:evenodd;clip-rule:evenodd;fill:#327A43;}
</style>
<path id="pagos_internet" class="st0" d="M6.5,18.5c19.5-6.3,39.3-3.7,59-1.2c2.5,0.3,5,0.6,8.5,1.1l2,0.2v2v33.5v2.5l-2.5-0.3
	c-1.1-0.1-2.3-0.3-3.4-0.4c-20.7-2.5-41.4-5.1-62.4,0.4L5,56.9v-2.8V20.5V19L6.5,18.5L6.5,18.5z M86.8,35.2l3,31.5l-5.8-0.2
	c-0.9,0-1.7,0-2.6-0.1c-0.1,0.7-0.1,1.4,0.1,2.1c0,0.1,0,0.1,0,0.2c-15.7,1-31.3,2.5-46.5,7.8c0-0.1,0-0.2-0.1-0.3
	c-0.7-3.7-4-6.3-7.7-6.2c-1.5,0.4-3.1,0.9-4.6,1.3l2,11.2l0.5,2.8l2.6-1.2C47.4,75.2,68.3,74,89.1,72.8c1.1-0.1,2.3-0.1,3.4-0.2
	l2.5-0.1L94.6,70l-6-33l-0.3-1.9L86.8,35.2L86.8,35.2z M79,25.8v11.8c0.2,0,0.4,0,0.6,0l1.2,12.9c-0.2,0-0.4,0-0.6,0
	c-0.4,0-0.9,0.1-1.3,0.2v9.2l-5.8-0.7c-0.8-0.1-1.6-0.2-2.4-0.3C56,58.6,41.2,59,26.4,62.8c0-0.1,0-0.2,0-0.3
	c-0.2-2.6-1.8-4.7-3.9-5.9c-2.6,0.3-5.2,0.6-7.9,1.1l1,10.2l0.3,2.8l2.7-1c20.4-7.4,41.3-6.8,62.1-6.3c1.1,0,2.3,0.1,3.4,0.1
	l2.5,0.1l-0.2-2.5l-3.2-33.4l-0.2-1.9l-2,0C80.3,25.8,79.6,25.8,79,25.8L79,25.8z M47.4,19.6c3.7,3.1,6.1,8.4,6.1,14.5
	c0,6.3-2.6,11.9-6.5,14.9c5.5,0.4,11,0.9,16.4,1.6c0-0.1,0-0.1,0-0.2c0-4.2,3.4-7.5,7.6-7.5c0.2,0,0.4,0,0.6,0V29.9
	c-4.2-0.1-7.5-3.4-7.5-7.5c0-0.3,0-0.5,0-0.8C58.5,20.8,53,20.1,47.4,19.6L47.4,19.6z M33.1,48.6c-3.6-3.1-6-8.4-6-14.4
	c0-6.6,2.8-12.3,7-15.2c-6.2,0-12.4,0.5-18.5,1.7c0,0.3,0.1,0.6,0.1,1c0,3.7-2.6,6.7-6.2,7.4v13.1c3.8,0.4,6.8,3.6,6.8,7.5
	c0,0.1,0,0.2,0,0.3C21.9,49.1,27.5,48.7,33.1,48.6L33.1,48.6z M45.2,30.4c0-0.4,0-0.6,0-0.8c0-1.2-0.3-2.2-1-2.9
	c-0.7-0.7-1.6-1.1-2.9-1.3V24h-2v1.4c-1.4,0.2-2.5,0.6-3.2,1.3c-0.7,0.7-1.1,1.7-1.1,3c0,0.9,0.2,1.7,0.5,2.3
	c0.3,0.7,0.7,1.2,1.2,1.6c0.5,0.4,1.3,1,2.6,1.8c0.8,0.5,1.2,0.9,1.4,1.3c0.1,0.4,0.2,1.1,0.2,2c0,0.4-0.1,0.7-0.2,0.9
	c-0.1,0.2-0.4,0.3-0.6,0.3c-0.3,0-0.5-0.1-0.6-0.4c-0.1-0.3-0.1-1-0.1-2.1v-1h-4.2v0.8c0,1.9,0.4,3.2,1.3,4c0.8,0.8,1.8,1.2,3,1.3
	V44h2v-1.6c1.5-0.2,2.5-0.7,3.3-1.6c0.7-0.9,1.1-2,1.1-3.5c0-0.9-0.1-1.7-0.4-2.4c-0.3-0.6-0.6-1.1-1-1.5c-0.4-0.3-1.1-0.8-2.2-1.5
	c-1.3-0.8-2-1.3-2.3-1.5c-0.3-0.3-0.4-0.7-0.4-1.4c0-0.4,0.1-0.7,0.2-0.9c0.1-0.2,0.3-0.3,0.6-0.3c0.3,0,0.5,0.1,0.6,0.3
	c0.1,0.2,0.1,0.7,0.1,1.5v0.7H45.2z"/>
</svg>
