<?xml version="1.0" encoding="utf-8"?>
<!-- Generator: Adobe Illustrator 22.1.0, SVG Export Plug-In . SVG Version: 6.00 Build 0)  -->
<svg version="1.1" id="Capa_1" xmlns="http://www.w3.org/2000/svg" xmlns:xlink="http://www.w3.org/1999/xlink" x="0px" y="0px"
	 viewBox="0 0 92.2 160" style="enable-background:new 0 0 92.2 160;" xml:space="preserve">
<style type="text/css">
	.st0{fill:#1D1E1C;}
	.st1{fill:#405DA7;}
	.st2{fill:#2E79BB;}
	.st3{fill:#C4C3C3;}
	.st4{fill:#F7B480;}
	.st5{fill:#E6E5E5;}
	.st6{opacity:0.2;enable-background:new    ;}
	.st7{fill:#404040;}
	.st8{fill:#261113;}
	.st9{opacity:0.3;enable-background:new    ;}
	.st10{fill:#EB8841;}
</style>
<g>
	<path class="st0" d="M24.5,27.1c2-0.8,4-0.1,5.6,0.4c1.6,0.5,2.9,2.1,3.9,5.5s-0.3,6.5,0.1,8.6c0.4,2,1.3,5.2,2,5.8
		c-0.8,0.2-1.9-1.1-2.3-1.4c0.6,1.2,0.9,1.8,1.2,2.3c-5.3,2.7-9.6,3.4-14.8,2.4c-3.6-0.7-4.1-1.3-4.7-1.6c1.2-0.8,1.3-1.8,1.3-2.6
		c-1.6,1.7-2.4,2.1-3.1,2.3c-0.9-0.1-1.2-0.5-1.6-0.8c1.3-0.6,3.9-3.3,4.4-5.9c0.6-2.6,0.5-8.8,1.3-11.2
		C18.8,28.7,21.5,26.4,24.5,27.1z"/>
	<path class="st1" d="M31.8,74.9H19.6c-2.3,0-4.2-1.8-4.2-4.2V51.5c0-2.3,1.8-4.2,4.2-4.2h12.2c2.3,0,4.2,1.8,4.2,4.2v19.2
		C36,73,34.1,74.9,31.8,74.9z"/>
	<path class="st2" d="M31.8,47.3H19.6c-2.3,0-4.2,1.8-4.2,4.2v0.8c0-2.3,1.8-4.2,4.2-4.2h12.2c2.3,0,4.2,1.8,4.2,4.2v-0.8
		C36,49.1,34.1,47.3,31.8,47.3z"/>
	<polygon class="st3" points="29.8,47.5 25.7,47.5 25.7,49.7 30.8,49.7 	"/>
	<polygon class="st3" points="21.6,47.5 25.7,47.5 25.7,49.7 20.5,49.7 	"/>
	<path class="st4" d="M34.9,117.2c-0.7,2.6-0.4,5.3-0.3,8.4c0.1,3.1-2.4,14.7-2.9,16.7c-0.4,2-0.6,7-0.6,8.5c0,1.4,1.1,3.4,1.6,5.1
		c0.4,1.7-3.4,3.3-4.4,3c-1-0.3-1.3-0.8-1.6-2.3c-0.3-1.4,0.1-7.6,0.3-8.8c0.3-1.3,0.6-3.7,0.4-4.8c-0.1-1.1-1.6-15.5,0.3-19.5
		c-0.7-5-1-27.5-0.3-29.1c-0.9-0.1-1.7,0-1.7,0s-0.8-0.1-1.7,0c0.7,1.6,0.3,24.1-0.3,29.1c1.9,3.9,0.4,18.4,0.3,19.5
		c-0.1,1.1,0.3,3.6,0.4,4.8c0.3,1.3,0.6,7.4,0.3,8.8c-0.3,1.4-0.6,2.1-1.6,2.3c-1,0.3-5-1.3-4.4-3c0.4-1.7,1.6-3.7,1.6-5.1
		s-0.1-6.5-0.6-8.5c-0.4-2-3-13.5-2.9-16.7c0.1-3.1,0.3-5.8-0.3-8.4c-0.7-2.6-3.3-18.5-2.6-26.1c0.7-7.6,2.8-15.1,3.1-18.4
		s0-8.7-0.7-11.7c0.1-2.6,0-5-1.4-9.4c1-0.3,2.9-0.9,5.3-1.6c1.8-0.5,2.2-2.3,2.4-3.9c0,0,0,0,0-0.1c0.1-0.5-0.2-1.3-0.2-1.7h6.2
		c0.1,0.3-0.2,1.2-0.2,1.7c0,0,0,0,0,0.1c0.3,1.7,0.7,3.4,2.4,3.9c2.3,0.7,4.3,1.3,5.3,1.6c-1.4,4.4-1.6,6.8-1.4,9.4
		c-0.7,2.9-1,8.4-0.7,11.7s2.4,10.7,3.1,18.4C38.2,98.7,35.6,114.7,34.9,117.2z"/>
	<path class="st5" d="M24.5,147.7c0.3,1.3,0.6,7.4,0.3,8.8c-0.3,1.4-0.6,2.1-1.6,2.3c-1,0.3-5-1.3-4.4-3c0.4-1.7,1.6-3.7,1.6-5.1
		s-0.1-6.5-0.6-8.5c-0.4-2-3-13.5-2.9-16.7c0-0.2,0-0.4,0-0.6c2.3,1.2,4.9,0.8,7.2-0.3c1.3,5,0,17.2-0.1,18.2
		C23.9,144,24.2,146.5,24.5,147.7z"/>
	<path class="st5" d="M32.6,155.9c0.4,1.7-3.4,3.3-4.4,3c-1-0.3-1.3-0.8-1.6-2.3c-0.3-1.4,0.1-7.6,0.3-8.8c0.3-1.3,0.6-3.7,0.4-4.8
		c-0.1-1-1.3-13.2-0.1-18.2c2.3,1.2,5,1.4,7.2,0.3c0,0.2,0,0.4,0,0.6c0.1,3.1-2.4,14.7-2.9,16.7c-0.4,2-0.6,7-0.6,8.5
		C31.1,152.3,32.2,154.3,32.6,155.9z"/>
	<path class="st6" d="M28.7,46.2c-1.1,0.9-2,1.6-3,1.7c-0.9-0.1-1.9-0.8-3-1.7c0.1-0.5-0.2-1.3-0.2-1.7h6.2
		C28.9,44.8,28.7,45.7,28.7,46.2z"/>
	<path class="st4" d="M25.5,27.8c-2,0-6.8,0.8-6.8,6.8c0,2.9,1.3,8.6,2.5,9.9c1.3,1.3,3.2,2.5,4.4,2.6c1.3-0.2,3.2-1.3,4.4-2.6
		c1.3-1.3,2.5-7.2,2.5-10.1C32.7,28.9,27.5,27.8,25.5,27.8z"/>
	<g>
		<path class="st7" d="M33,156.6c-0.4,0.8-1,1.2-1.6,1.3c-0.6,0.2-3.6,0.2-4,0c-0.3-0.1-0.8-0.3-1.3-0.9c0-1.1,0.3-2.6,0.5-3.8
			c1,1.7,4.6,0.8,5.1,0C32,154.2,32.8,155.7,33,156.6z"/>
		<path class="st8" d="M31.9,159.1c-0.4,0.2-3.4,0.2-3.9,0.2s-1.4-0.6-1.7-1.3c-0.1-0.2-0.1-0.6-0.1-1c0.5,0.6,1,0.8,1.3,0.9
			c0.4,0.2,3.4,0.2,4,0c0.6-0.2,1.2-0.5,1.6-1.3c0,0.1,0.1,0.2,0.1,0.3C33.2,157.6,32.3,159,31.9,159.1z"/>
	</g>
	<g>
		<path class="st7" d="M18.4,156.6c0.4,0.8,1,1.2,1.6,1.3c0.6,0.2,3.6,0.2,4,0c0.3-0.1,0.8-0.3,1.3-0.9c0-1.1-0.3-2.6-0.5-3.8
			c-1,1.7-4.6,0.8-5.1,0C19.5,154.2,18.6,155.7,18.4,156.6z"/>
		<path class="st8" d="M19.6,159.1c0.4,0.2,3.4,0.2,3.9,0.2c0.5,0,1.4-0.6,1.7-1.3c0.1-0.2,0.1-0.6,0.1-1c-0.5,0.6-1,0.8-1.3,0.9
			c-0.4,0.2-3.4,0.2-4,0c-0.6-0.2-1.2-0.5-1.6-1.3c0,0.1,0,0.2-0.1,0.3C18.2,157.6,19.2,159,19.6,159.1z"/>
	</g>
	<path class="st4" d="M16.6,62.1c1-2.3,0.5-10.5-1.7-10.4c-2.9,1.1-4.7,14.2-5.5,17.9c-0.3,1.2-0.8,3.4-0.7,6c0,1.1,0.6,3.8,1.6,4.2
		c1,0.3,3.1-1.3,3.5-2.3c0.5-1.2,0.1-2.7,0.1-3.9C14.2,71,15.6,64.5,16.6,62.1z"/>
	<path class="st0" d="M22.8,31.9C21,32.7,19,36.5,19.3,42c-2.7-3-1.8-8.4-0.3-11.2c1.1-1.9,3.7-3.5,4.8-2.9
		C24.9,28.5,23.7,31.5,22.8,31.9z"/>
	<path class="st7" d="M35.3,78.2c-3.3,0.5-9.6,0.3-9.6,0.3s-6.4,0.3-9.6-0.3c-1.1,2.3-4.8,32.1-5.1,37.3c3.4,2.1,11.1,2.7,14.8,2.7
		s11.4-0.6,14.8-2.7C40.1,110.2,36.4,80.4,35.3,78.2z"/>
	<path class="st9" d="M35.3,78.2c-0.3,0-0.5,0.1-0.8,0.1c1.3,5.4,5.3,30.5,3,34.9c-1.8,3.5-9.2,4.3-12.9,4.3c-3.4,0-10-0.5-13.7-2.1
		c0,0.1,0,0.1,0,0.2c3.4,2.1,11.1,2.7,14.8,2.7s11.4-0.6,14.8-2.7C40.1,110.2,36.4,80.4,35.3,78.2z"/>
	<g>
		<path class="st4" d="M19.7,37.9c-0.2-0.3-0.7-0.8-1-0.3c-0.3,0.3-0.7,1.7-0.3,2.6c0.5,1.1,1,1.2,1.3,1
			C20,40.9,19.7,37.9,19.7,37.9z"/>
		<path class="st10" d="M18.9,38.6c0.1-0.2,0.3-0.3,0.4-0.3c0.2,0.1,0.3,0.2,0.3,0.4c0,0.2,0,0.4-0.1,0.6c-0.1,0.2-0.3,0.3-0.4,0.3
			v-0.1c0,0.1,0,0.3,0.1,0.4c0.1,0.1,0.1,0.3,0.2,0.3c-0.1-0.1-0.2-0.2-0.3-0.3C19,39.9,19,39.7,19,39.6l0,0l0,0
			c0.2-0.1,0.3-0.2,0.3-0.3c0.1-0.2,0.1-0.3,0.1-0.5c0-0.2-0.1-0.3-0.3-0.3C19.1,38.3,19,38.3,18.9,38.6z"/>
	</g>
	<g>
		<path class="st4" d="M31.7,37.9c0.2-0.3,0.7-0.8,1-0.3c0.3,0.3,0.7,1.7,0.3,2.6c-0.5,1.1-1,1.2-1.3,1
			C31.4,40.9,31.7,37.9,31.7,37.9z"/>
		<path class="st10" d="M32.5,38.6c-0.1-0.3-0.3-0.3-0.4-0.3c-0.2,0.1-0.3,0.2-0.3,0.4c0,0.2,0,0.4,0.1,0.6c0.1,0.2,0.3,0.3,0.4,0.3
			v-0.1c0,0.1,0,0.3-0.1,0.4c-0.1,0.1-0.1,0.3-0.2,0.3c0.1-0.1,0.2-0.2,0.3-0.3c0.1-0.1,0.2-0.3,0.2-0.4l0,0l0,0
			c-0.2-0.1-0.3-0.2-0.3-0.3C32,39.1,32,38.9,32,38.7c0-0.2,0.1-0.3,0.3-0.3C32.3,38.3,32.5,38.3,32.5,38.6z"/>
	</g>
	<path class="st0" d="M23.7,28c-0.9,0.5-2.1,2.6-0.4,4c1.7,1.4,5,0.8,6,1.8c2.6,2.3,2.9,7.4,3.2,8.1c1.2-1.7,1.5-5.6,1-8.6
		c-0.4-2.7-2.6-5.2-5.5-5.5C25.1,27.5,24.7,27.5,23.7,28z"/>
	<g>
		<polygon class="st1" points="25.3,94.6 28.3,80.8 30.2,81.3 		"/>
		<polygon class="st2" points="43.5,98.7 47,85 29.6,80.4 25.2,95.2 		"/>
	</g>
	<path class="st4" d="M36.5,51.7c2.9,1.1,4.7,14.2,5.5,17.9c0.8,3.6-1.4,16.7-1.8,19.7s0,6.3-0.6,7.3c-0.6,1-1.6,1.8-3.9,1.3
		c-1.4-0.3,1.8-3.1-0.1-2.7c-1,1.1-0.9,2.4-1.5,1.7c-0.3-0.4,0.2-2.4,0.6-3.2c0.8-1.3,1.8-2.3,2.1-3.4c0.3-1,0.7-6.8,0.8-9.8
		c0.1-1.8-0.2-4.6-0.3-7.1c-0.1-2.4-1.5-9-2.5-11.3C33.8,59.8,34.3,51.6,36.5,51.7z"/>
	<path class="st5" d="M36.7,51.8c1.9,1.7,3.8,6,4.2,9.8c-1.5,1.2-4.7,2.4-5.5,2.7c-0.3-0.4-1.5-2.9-1.6-3.7
		c-0.1-0.5,0.4-5.1,1.3-6.3C35.8,53.1,36.2,52.2,36.7,51.8z"/>
	<path class="st5" d="M34.8,62.1c-0.4-2.2,1.3-9.6,1.9-10.3c-0.5-0.3-2.9-1.2-4.7-1.8c-0.8-0.3-1.4-0.4-1.8-0.3
		c-0.2,0.3-1.1,1.6-2.1,2.8l0,0c-0.8,0.9-1.7,1.8-2.3,2c-0.7-0.3-1.5-1.2-2.3-2l0,0c-1.1-1.2-2-2.4-2.1-2.8c-0.3-0.1-1,0.1-1.8,0.3
		c-1.8,0.5-4.2,1.5-4.7,1.8c0.7,0.8,2.3,8.2,1.9,10.3c0,2.8,0.8,10-0.5,16c4.4,0.8,8.4,0.7,9.6,0.7s5.3,0.2,9.6-0.7
		C34.1,72.1,34.8,64.9,34.8,62.1z"/>
	<path class="st1" d="M16.8,72.5l-1.3-1.9c4.6-4.7,2.2-19.4,1.3-20.7l1.8-1C20,51.1,22.2,67.1,16.8,72.5z"/>
	<path class="st1" d="M34.7,72.5l1.3-1.9c-4.6-4.7-2.2-19.4-1.3-20.7l-1.8-1C31.5,51.1,29.3,67.1,34.7,72.5z"/>
	<path class="st3" d="M25.7,54.6c0.1,2,0.1,4,0.2,6c0,2,0,4,0,6c0,2,0,4,0,6l-0.1,3.1c0,1-0.1,2-0.1,3c0-1-0.1-2-0.1-3l-0.1-3
		c0-2,0-4,0-6c0-2,0-4,0-6C25.6,58.6,25.6,56.6,25.7,54.6z"/>
	<path class="st6" d="M25.7,54.6c-2.2-0.8-3.2-2-3.9-2.5c-0.6,0.8-1.4,1.5-2.5,2.2c0.8-1.3,0.3-3.4,0.1-4.2c0.8-0.3,1.4-0.4,1.8-0.3
		c0.2,0.3,1.1,1.6,2.1,2.8l0,0C24.5,53.9,25.7,54.6,25.7,54.6z"/>
	<path class="st6" d="M32,54.2c-1.1-0.7-1.9-1.4-2.5-2.2c-0.7,0.5-1.6,1.8-3.9,2.5c0,0,1.2-0.6,2.3-2l0,0c1.1-1.2,2-2.4,2.1-2.8
		c0.3-0.1,1,0.1,1.8,0.3C31.8,50.7,31.3,53,32,54.2z"/>
	<path class="st5" d="M25.7,54.6c0,0-4.7-4-4-7c-0.8,0.8-1.9,2.2-1.9,2.2s0.8,2.8,0,4.2c1-0.6,1.6-1.3,2.1-2.1
		C22.5,52.2,23.7,54,25.7,54.6z"/>
	<path class="st5" d="M25.7,54.6c0,0,4.7-4,4-7c0.8,0.8,1.9,2.2,1.9,2.2s-0.8,2.8,0,4.2c-1-0.6-1.6-1.3-2.1-2.1
		C28.9,52.2,27.8,54,25.7,54.6z"/>
	<path class="st5" d="M14.7,51.8c-2.9,2.5-4.1,9.2-4.3,10.3c0.9,1.5,4.1,2.5,5.5,2.4c1-1.9,1.7-6.4,1.5-7.2
		C17.4,56.5,16.6,52.6,14.7,51.8z"/>
	<path class="st6" d="M13.7,63.2c1.3-2.3,1.8-5.1,2.2-6c0.5-1.2,2.9-2.6,4.3-2.1c1.3,0.5,1.8,1.3,2.1,2.1c0.2,0.5-1.8,2.7-2.3,3.2
		c-1.1,0.8-1.8,1.8-2.3,2.5c-1.3,2.1-2.1,9.4-2.9,11.2c-0.3,0.7-0.5,1-0.8,2l-4.7-0.3C10.6,70.4,12.8,64.8,13.7,63.2z"/>
	<path class="st4" d="M13.7,63.4c1.3-2.3,1.9-5,2.3-5.9c0.5-1.1,2.9-2.6,4-2.3c1.2,0.4,1.6,1.2,1.8,1.9c0.2,0.4-1.8,2.7-2.3,3.1
		c-1,0.8-1.8,1.8-2.3,2.6c-1.3,2.1-2.2,9.3-2.7,10.8c-0.3,0.7-0.3,2-0.6,2.9L9,76.1C10.6,71.3,12.9,65,13.7,63.4z"/>
</g>
</svg>
