<?xml version="1.0" encoding="utf-8"?>
<!-- Generator: Adobe Illustrator 22.1.0, SVG Export Plug-In . SVG Version: 6.00 Build 0)  -->
<svg version="1.1" id="Capa_1" xmlns="http://www.w3.org/2000/svg" xmlns:xlink="http://www.w3.org/1999/xlink" x="0px" y="0px"
	 viewBox="0 0 92.2 160" style="enable-background:new 0 0 92.2 160;" xml:space="preserve">
<style type="text/css">
	.st0{fill:#261113;}
	.st1{fill:#404040;}
	.st2{fill:#E6E5E5;}
	.st3{fill:#F7B480;}
	.st4{opacity:0.2;}
	.st5{fill:#EB8841;}
	.st6{fill:#405DA7;}
	.st7{fill:#264696;}
	.st8{fill:#82AADA;}
	.st9{fill:#568BC2;}
	.st10{fill:#1D1E1C;}
</style>
<g>
	<g>
		<path class="st0" d="M44.5,156.8c-0.2,0.6-1.7,1.5-3.1,1.6c-1.4,0.2-4.8-0.2-5.5-0.7c-0.8-0.5-3-2.2-3.6-2.3c-0.6,0-3-0.7-3.3-1.2
			c-0.3-0.5-0.3-1.7,0.1-2.2c0.5,0.6,2.3,1.3,3.1,1.4c0.9,0.1,2.1,1.2,3.2,2c1.1,0.9,4.3,1.2,5.7,0.9c1.4-0.3,2.9-0.7,3.2-1.4
			C44.7,155.5,44.7,156.3,44.5,156.8z"/>
		<path class="st1" d="M44.5,155.1c-0.3,0.7-1.9,1.1-3.2,1.4c-1.4,0.3-4.6,0-5.7-0.9c-1.1-0.9-2.3-2-3.2-2c-0.9-0.1-2.6-0.8-3.1-1.4
			c0-0.5-0.6-3.1,0.2-4.1c0.5,0.9,1.5,1.1,1.7,0.8c0.3-0.3,0.8-1.7,1.3-2.1c0.4-0.4,1.6-0.8,2.3-0.7c0.7,0.1,1.3,0.7,1.7,1.4
			c0.4,0.7,2.2,2.8,3.1,3.6c1,0.8,4.4,3.6,4.8,3.9C44.4,154.9,44.4,155,44.5,155.1z"/>
		<path class="st2" d="M34.9,151.4c-0.1,0-0.2-0.1-0.2-0.2c0-0.8,0.3-1.3,1-1.5c0.6-0.2,2.3-0.4,2.3-0.4c0.1,0,0.2,0.1,0.2,0.1
			c0,0.1-0.1,0.2-0.1,0.2c0,0-1.7,0.2-2.3,0.4c-0.5,0.2-0.8,0.6-0.8,1.2C35,151.3,35,151.4,34.9,151.4z"/>
		<path class="st2" d="M36,152.5c-0.1,0-0.2-0.1-0.2-0.2c0-0.8,0.3-1.3,1-1.5c0.6-0.2,2.3-0.4,2.3-0.4c0.1,0,0.2,0.1,0.2,0.1
			c0,0.1-0.1,0.2-0.1,0.2c0,0-1.7,0.2-2.3,0.4c-0.5,0.2-0.8,0.6-0.8,1.2C36.1,152.5,36.1,152.5,36,152.5z"/>
		<path class="st2" d="M37.3,153.4c-0.1,0-0.2-0.1-0.2-0.2c0-0.8,0.3-1.3,1-1.5c0.6-0.2,2.3-0.4,2.3-0.4c0.1,0,0.2,0.1,0.2,0.1
			c0,0.1-0.1,0.2-0.1,0.2c0,0-1.7,0.2-2.3,0.4c-0.5,0.2-0.8,0.6-0.8,1.2C37.5,153.3,37.4,153.4,37.3,153.4z"/>
	</g>
	<g>
		<path class="st0" d="M7.6,156.8c0.2,0.6,1.7,1.5,3.1,1.6c1.4,0.2,4.8-0.2,5.5-0.7c0.8-0.5,3-2.2,3.6-2.3c0.6,0,3-0.7,3.3-1.2
			c0.3-0.5,0.3-1.7-0.1-2.2c-0.5,0.6-2.3,1.3-3.1,1.4c-0.9,0.1-2.1,1.2-3.2,2c-1.1,0.9-4.3,1.2-5.7,0.9c-1.4-0.3-2.9-0.7-3.2-1.4
			C7.4,155.5,7.5,156.3,7.6,156.8z"/>
		<path class="st1" d="M7.7,155.1c0.3,0.7,1.9,1.1,3.2,1.4c1.4,0.3,4.6,0,5.7-0.9c1.1-0.9,2.3-2,3.2-2c0.9-0.1,2.6-0.8,3.1-1.4
			c0-0.5,0.6-3.1-0.2-4.1c-0.5,0.9-1.5,1.1-1.7,0.8c-0.3-0.3-0.8-1.7-1.3-2.1c-0.4-0.4-1.6-0.8-2.3-0.7c-0.7,0.1-1.3,0.7-1.7,1.4
			c-0.4,0.7-2.2,2.8-3.1,3.6c-1,0.8-4.4,3.6-4.8,3.9C7.8,154.9,7.7,155,7.7,155.1z"/>
		<path class="st2" d="M17.3,151.4c-0.1,0-0.2-0.1-0.2-0.2c0-0.6-0.2-1-0.8-1.2c-0.6-0.2-2.3-0.4-2.3-0.4c-0.1,0-0.2-0.1-0.1-0.2
			c0-0.1,0.1-0.2,0.2-0.1c0.1,0,1.8,0.2,2.3,0.4c0.7,0.2,1,0.7,1,1.5C17.5,151.3,17.4,151.4,17.3,151.4z"/>
		<path class="st2" d="M16.2,152.5c-0.1,0-0.2-0.1-0.2-0.2c0-0.6-0.2-1-0.8-1.2c-0.6-0.2-2.3-0.4-2.3-0.4c-0.1,0-0.2-0.1-0.1-0.2
			c0-0.1,0.1-0.2,0.2-0.1c0.1,0,1.8,0.2,2.3,0.4c0.7,0.2,1,0.7,1,1.5C16.3,152.5,16.3,152.5,16.2,152.5z"/>
		<path class="st2" d="M14.9,153.4c-0.1,0-0.2-0.1-0.2-0.2c0-0.6-0.2-1-0.8-1.2c-0.6-0.2-2.3-0.4-2.3-0.4c-0.1,0-0.2-0.1-0.1-0.2
			c0-0.1,0.1-0.2,0.2-0.1c0.1,0,1.8,0.2,2.3,0.4c0.7,0.2,1,0.7,1,1.5C15,153.3,15,153.4,14.9,153.4z"/>
	</g>
	<path class="st3" d="M47.7,55c0.8,3.1-0.5,10.6-0.9,12.2c-0.4,1.6-0.4,6.2-0.4,7.9c-1-0.9-3.4-3.7-4-4.9c0.2-1.2-1-6.3-1.3-7.6
		c-0.3-1.3,0.5-6.3,0.5-7.5c0.1-1.2-0.2-4.8-0.7-7.5c-0.8,2.4-1.7,5.8-1.9,8.4c-0.2,2.6,1.6,10.3,2.3,12.3c0.7,2,1.6,5.4,1.7,8.2
		c-2.5,0-23.9,0.2-27.2,0.2c0.4-2,0.7-4.9,1.1-7.7c0.4-2.8,0.7-16.8,0.7-18.8c0-2-0.2-2.5-0.6-8.9c0.1,4.8-3.3,11.7-4.5,13.1
		c0.1,1.1,1,3.8,1.3,5.4c0.4,1.6,0.1,6.4,0.3,7.6c0.2,1.2,1.4,4.8,1.7,6.1c0.3,1.3-1.7,2.9-3.3,3.1c-0.5-2.8-3-8.5-4.3-11.3
		C6.9,62.6,6.4,55,6.8,53.1c0.4-1.9,1.9-10.4,3.4-14.4C10,34.2,12.1,31,14,29c2-2,7.9-2.9,10.2-3.3c2.1-0.3,3-3.1,3.3-5.1
		c0-0.1,0-0.3,0-0.4c1.6,1.3,5.9,2.4,5.9,2.4s2.7,0.4,3.5,0.4c-0.1,0.5-0.1,1,0.1,1.4c0.3,1,1.1,1.8,2.1,2.6
		c1.4,1.1,6.6,3.1,9.4,6.6c2.9,3.5-0.6,9.8-1,11.7C47.2,47.2,47,51.8,47.7,55z"/>
	<path class="st4" d="M37,24.5c-1.2,0.9-2.7,1.5-3.6,1.5c-1.2,0-3.6-1-4.8-2.7c-0.4-0.5-0.7-1.5-1.1-2.6c0-0.1,0-0.3,0-0.4
		c1.6,1.3,5.9,2.4,5.9,2.4s2.7,0.4,3.5,0.4C36.9,23.6,36.9,24.1,37,24.5z"/>
	<path class="st3" d="M40.7,12.9c-0.3-1.7-0.5-5.7-2.3-7.2c-1.8-1.5-3.7-1.9-5-1.9c-1.3,0-3.2,0.4-5,1.9c-1.8,1.5-2,5.5-2.3,7.2
		c-0.3,1.7,1.3,8.2,2.5,9.8c1.2,1.6,3.6,2.6,4.8,2.6c1.2,0,3.6-1,4.8-2.6C39.4,21.1,41,14.6,40.7,12.9z"/>
	<g>
		<path class="st3" d="M40,13.2c0.5-0.6,1.4-1.2,1.8-0.7c0.4,0.5,0,3.4-0.6,4.5c-0.7,1.3-1.2,0.9-1.4,0.2
			C39.7,16.5,39.7,13.6,40,13.2z"/>
		<path class="st5" d="M40.4,14.4c0-0.2,0-0.5,0-0.7c0.1-0.2,0.2-0.5,0.4-0.6c0.1-0.1,0.3,0,0.4,0c0.1,0,0.2,0.2,0.3,0.3
			c0.1,0.2,0.1,0.5,0.1,0.7c0,0.2-0.1,0.5-0.2,0.7c0,0.1-0.1,0.2-0.2,0.3c-0.1,0.1-0.2,0.2-0.3,0.3c-0.2,0.1-0.4,0.2-0.6,0.3
			c-0.2,0.1-0.2,0.4-0.2,0.6c-0.1-0.2,0-0.5,0.1-0.7c0.2-0.2,0.4-0.2,0.6-0.4c0.1-0.1,0.1-0.1,0.2-0.2c0-0.1,0.1-0.2,0.1-0.3
			c0.1-0.2,0.1-0.4,0.1-0.6c0-0.2,0-0.4-0.1-0.6c0-0.1-0.1-0.1-0.2-0.2c-0.1,0-0.2-0.1-0.2,0c-0.2,0.1-0.3,0.3-0.4,0.5
			C40.5,14,40.4,14.2,40.4,14.4z"/>
	</g>
	<g>
		<path class="st3" d="M26.6,13.2c-0.5-0.6-1.4-1.2-1.8-0.7c-0.4,0.5,0,3.4,0.6,4.5c0.7,1.3,1.2,0.9,1.4,0.2
			C27,16.5,26.9,13.6,26.6,13.2z"/>
		<path class="st5" d="M26.2,14.4c0-0.2-0.1-0.4-0.2-0.6c-0.1-0.2-0.2-0.4-0.4-0.5c-0.1,0-0.2,0-0.2,0c-0.1,0.1-0.1,0.1-0.2,0.2
			c-0.1,0.2-0.1,0.4-0.1,0.6c0,0.2,0.1,0.4,0.1,0.6c0,0.1,0.1,0.2,0.1,0.3c0,0.1,0.1,0.2,0.2,0.2c0.2,0.1,0.4,0.2,0.6,0.4
			c0.2,0.2,0.2,0.4,0.1,0.7c0-0.2,0-0.5-0.2-0.6c-0.2-0.1-0.4-0.2-0.6-0.3c-0.1-0.1-0.2-0.2-0.3-0.3c-0.1-0.1-0.1-0.2-0.2-0.3
			C25,14.6,25,14.4,25,14.1c0-0.2,0-0.5,0.1-0.7c0.1-0.1,0.2-0.2,0.3-0.3c0.1-0.1,0.3-0.1,0.4,0c0.2,0.1,0.3,0.4,0.4,0.6
			C26.2,13.9,26.3,14.2,26.2,14.4z"/>
	</g>
	<path class="st6" d="M28.9,70.8c-2.4-0.1-10.4-0.5-12.4-1.4c-0.3,1.2-0.4,2.1-0.8,3.6c-0.8,1.9-1.9,2.6-3.6,3.6
		c0.2,2.8,1,8.8,1.8,13c0.8,4.2,1.1,12.5,1.1,15.5c0.1,3-1.7,40.6-1.7,43.5c4.4,1.7,8.8,0.9,10.9,0.8c0.1-3.5,0.6-31.8,1.6-42.8
		c0.3-3.5,1.3-10.3,1.6-14.2c0.1-1.7,0.7-4.9,0.7-4.9s1.4,0.1,2.1,0.1c-0.3,1.7-1.2,11.8-0.9,17.2c0.3,5.4-1.2,42.3-1.5,44.2
		c2.7,1,9.8,1,10.9,0c0.1-3.1,1.1-31.9,1.3-36.1c0.2-4.2,2.2-25,3.3-28.1c1.1-3.1,3.4-9.1,3.4-10c-1.3-1.9-4.3-4.1-4.4-4.8
		c-0.5-0.9-0.5-1.4-1-2.7C40.4,68.1,31.9,70.9,28.9,70.8z"/>
	<path class="st7" d="M28.2,87.6c0,0,0.5,0,1,0c0-0.3-2-0.7-2-0.7s-0.6,3.1-0.7,4.9c-0.3,3.9-1.3,10.7-1.6,14.2
		c-1,11-0.4,38.9-2.9,41.4c-1.4,1.4-4.6,2.1-8.7,0.9c0,0.1,0,0.3,0,0.3c4.4,1.7,8.8,0.9,10.9,0.8c0.1-3.5,0.6-31.8,1.6-42.8
		c0.3-3.5,1.3-10.3,1.6-14.2C27.6,90.7,28.2,87.6,28.2,87.6z"/>
	<path class="st7" d="M42.4,84.2c-1.1,3.1-3,23.8-3.3,28.1c-0.2,4.2-0.6,32.3-1.9,35.1c-0.5,1.2-6.1,2-9.3,1.3c0,0.2,0,0.3,0,0.4
		c2.7,1,9.8,1,10.9,0c0.1-3.1,1.1-31.9,1.3-36.1c0.2-4.2,2.2-25,3.3-28.1c1.1-3.1,3.4-9.1,3.4-10C44.9,78.9,43.5,81.1,42.4,84.2z"/>
	<path class="st8" d="M48.5,43.7C48.3,44.4,48,45,48,45.4c-0.2,0.9-0.3,2.4-0.4,4.1c-1.8,2.1-5.1,2.3-6.6,1.2
		c-0.1-0.6-0.1-1.2-0.2-1.8c-0.6,1.9-1.3,4.7-1.5,7c-0.2,2.5,2.4,12.1,3.1,14.2c-3.2,3.9-21.2,4.2-26.5,2c0.1-1,0.5-2.2,0.6-3.2
		c0.4-2.7,0.7-16.5,0.7-18.7c0-0.9-0.1-1.5-0.1-2.6C17,46.9,17,46.1,16.9,45c0,0.2-0.1,0.4-0.1,0.6c0,0,0,0.1,0,0.1
		c0,0.2-0.1,0.3-0.1,0.5c-0.1,0.2-0.1,0.4-0.2,0.6c-0.1,0.2-0.1,0.4-0.2,0.5c0,0.1-0.1,0.3-0.1,0.4c-0.1,0.1-0.1,0.3-0.2,0.4
		c0,0.1-0.1,0.2-0.1,0.3c-0.1,0.2-0.1,0.3-0.2,0.5c-0.1,0.2-0.2,0.4-0.3,0.7c-3.1,0-5.7-2.4-7.3-4.3c0.5-2.5,1.2-5,1.8-6.7
		c-0.2-4.7,2-8,3.9-9.9c1.9-1.9,6.7-2.7,10.2-3.2c0.1,0,1-0.1,1.1-0.1c2.2,4.3,9.1,6.8,13.4,1.1c0.2,0.1,2,0.9,2.8,1.4
		c2.2,1.2,5.5,3,7.6,5.5C51.2,36.3,49.5,40.9,48.5,43.7z"/>
	<path class="st9" d="M39.3,55.9c0.1-1.6,0.5-3.5,0.9-5.1c-0.4-0.1-1.7,3.8-1.8,6.1c-0.2,2.5,1.7,10,1.3,12.3
		c-0.8,4.2-14.9,4.6-22.1,3.5c6.6,1.6,22,1,24.8-2.5C41.7,67.9,39.2,58.4,39.3,55.9z"/>
	<path class="st9" d="M38.4,48.4c0.4-0.2,0.7-0.4,1.1-0.6c0.3-0.2,0.7-0.5,1-0.8c0.6-0.5,1.2-1.1,1.7-1.7c0.5-0.6,1-1.3,1.4-2
		c0.2-0.3,0.4-0.7,0.6-1.1c0.2-0.4,0.4-0.7,0.5-1.1c-0.1,0.4-0.2,0.8-0.4,1.2c-0.2,0.4-0.3,0.8-0.5,1.1c-0.4,0.7-0.9,1.4-1.4,2.1
		c-0.5,0.6-1.1,1.2-1.8,1.7C39.9,47.8,39.2,48.2,38.4,48.4z"/>
	<path class="st9" d="M19.6,37.9c-0.2,0.6-0.4,1.3-0.8,1.8c-0.2,0.3-0.4,0.5-0.6,0.8c-0.2,0.2-0.5,0.5-0.6,0.7
		c-0.1,0.1-0.2,0.3-0.2,0.4c-0.1,0.2-0.1,0.3-0.1,0.5c-0.1,0.3-0.1,0.6-0.2,0.9c-0.1,0.6-0.1,1.3-0.1,2c-0.1-0.7-0.2-1.3-0.1-2
		c0-0.3,0.1-0.7,0.2-1c0-0.2,0.1-0.3,0.1-0.5c0.1-0.2,0.1-0.3,0.2-0.5c0.4-0.6,0.9-0.9,1.3-1.5C19,39.1,19.4,38.5,19.6,37.9z"/>
	<path class="st9" d="M40.8,48.9c0-0.2,0.1-0.4,0.1-0.7c0-0.2,0-0.4,0.1-0.7c0-0.2,0.1-0.4,0.1-0.7c0.1-0.2,0.2-0.4,0.4-0.6
		c-0.1,0.2-0.2,0.4-0.2,0.6c0,0.2-0.1,0.4-0.1,0.6c0,0.2-0.1,0.4-0.1,0.7C40.9,48.5,40.9,48.7,40.8,48.9z"/>
	<path class="st10" d="M39.4,4.5c-0.9-2.3-5.6-2.6-6.6-2.6c-1,0-6.1,1.1-7.1,4.4c-1,3.3-0.4,5.4,0,6.9c0.4,1.5,0.7,3.5,1.2,4.1
		c0-3.1-0.1-5.3,0.1-5.7c0.3-0.4,1.3-1.5,2.9-1.8c-0.2,0.8-0.7,1.3-1.1,1.4c1.4,0,4.1-1.4,5.1-2.3c0.1,1-1.5,1.9-2.1,2.2
		c1.6,0.2,6.2-1.5,7.1-2.4c1,1.3,1.4,6.8,1.4,8.2c0.4-0.5,0.3-2.4,0.7-3.4c0.3-0.7,0.6-2,0.9-3.6C41.9,8.7,42,5.4,39.4,4.5z"/>
</g>
</svg>
