<?xml version="1.0" encoding="utf-8"?>
<!-- Generator: Adobe Illustrator 22.1.0, SVG Export Plug-In . SVG Version: 6.00 Build 0)  -->
<svg version="1.1" id="Capa_1" xmlns="http://www.w3.org/2000/svg" xmlns:xlink="http://www.w3.org/1999/xlink" x="0px" y="0px"
	 viewBox="0 0 92.2 160" style="enable-background:new 0 0 92.2 160;" xml:space="preserve">
<style type="text/css">
	.st0{fill:#F7B480;}
	.st1{fill:#404040;}
	.st2{opacity:0.2;}
	.st3{fill:#568BC2;}
	.st4{fill:#2E79BB;}
	.st5{fill:#C4C3C3;}
	.st6{fill:#1E6AAB;}
	.st7{fill:#1D1E1C;}
	.st8{fill:#261113;}
	.st9{fill:#363636;}
	.st10{fill:#F1F1F1;}
	.st11{fill:#E6E5E5;}
	.st12{fill:#2E2E2E;}
</style>
<g>
	<path class="st0" d="M70.2,46.8C68.1,43.5,59.1,35.6,58.3,35c-0.8-0.7-4.4-4.8-5.5-6c-1.1-1.2-7.5-2-9-2.3c-1.2-0.3-2.7-2.1-3-4.3
		c-0.1-0.5-0.1-1,0-1.5c-1.5,0-3.2,0-3.2,0s-1.9-0.1-3,0c0,0.5-0.1,1-0.2,1.6c-0.3,1.5-1.1,2.9-1.8,3.7c-0.9,1.1-5.1,2.3-6.4,2.5
		c-0.6,1-1.2,10.8,0.1,19.3c0.7,0.9,0,7.6-0.9,11.3c-0.9,3.7-8.8,8.8-8.2,22.2c1,19,6.3,31.4,6.3,34.2c0,2.9-0.4,7.5,0,10.1
		c2,11.8,6.3,18.8,6.3,21.6c0,1.7-0.3,3.8-0.6,5.5c-0.1,2.8,5.3,3.3,5.2,0c-0.7-2.9-1.5-7.5-1.6-12.8c-0.2-7.2-0.2-17.2-0.9-19.8
		c-0.7-2.5-0.1-7.2-0.1-11c0-3.8-1.4-24.6-1.1-27c0.6-0.1,0.9-0.3,1.8,0.1c-0.8,5.4,0.7,20.1,0.1,23.8c-0.6,3.7,1,8.4,1.1,10.1
		c0.1,1.7-0.6,5.5,0,9.1c0.6,3.6,2.5,20.3,2.1,23.3c-0.2,1.2-0.3,2.6-0.2,3.9c1.5,1.9,5.7,1.5,6.1-0.6c-1.1-2.4-2-4.7-2-6.5
		c0-2.5,3.2-14.4,3.2-25.8c0-1.3-1.3-5.7-1.3-7.4c0-1.6,4.1-16.5,4.7-21.7c0.6-5.2,0.7-14.6-0.5-20.9c-0.2-1.3-0.6-2.6-1-3.9
		c0.8,0.6,2.5,1,3.5,0.9c1.9-1.5,3.7-2.9,4.8-4c1.1-1,10.5-6.1,14.2-8.4C71.3,52,72.4,50.1,70.2,46.8z M50.6,58.7
		c-1.8,0-4.2,0-5.6,0.6c-0.7,0.3-0.8,1.4-0.8,2.6c-0.1-0.9,0-1.7,0.1-2.4c0.7-2.9,6.3-14.5,7.3-18.5c1.8,1.1,8.5,6.5,10.7,7.8
		C61,50.1,52.4,58.7,50.6,58.7z"/>
	<path class="st1" d="M33.3,158c-1.3,0-3,0-4,0c-0.9,0-1.6-1-0.9-2.7c0.2-0.5,0.6-1.3,0.9-2.3c-0.1,2.8,5.3,3.3,5.2,0
		c0.3,1.1,0.5,1.9,0.7,2.4C35.9,157.1,34.6,158,33.3,158z"/>
	<path class="st1" d="M42.3,155.9c-1.2,0.9-3.7,0.9-5,0.5c-1-0.3-1.9-2-1.6-4.8c1.5,2.9,5.7,2.5,6.1,0.4c0.3,0.6,0.6,1.3,0.9,1.9
		C42.9,154.4,42.8,155.6,42.3,155.9z"/>
	<path class="st2" d="M40.8,22.4c-1.3,1.1-2.6,2-3.3,2c-0.6,0-1.9-0.9-3.1-1.9c0.1-0.5,0.2-1,0.2-1.6c1-0.1,3,0,3,0s1.7,0,3.2,0
		C40.8,21.4,40.8,21.9,40.8,22.4z"/>
	<path class="st0" d="M44.3,10.3c-0.2-1.9-1.9-5.1-6.7-5.1c-4.8,0-6.5,3.2-6.7,5.1c-0.2,1.9,0.1,7.6,1.1,9.1c1,1.6,4.5,4.4,5.6,4.4
		c1.1,0,4.5-2.8,5.6-4.4C44.2,17.9,44.5,12.2,44.3,10.3z"/>
	<path class="st1" d="M42.3,113.7c-4.7,1.9-15,2.4-19.8,1c-0.6-6-8.1-28.3-5.5-41.6c0,0,0,0,0,0c0.3-1.4,0.7-2.7,1.2-3.9
		c0.6-0.9,1.3-1.8,2-2.6c6.6,3.1,22.6,3.1,25.4,1.6c0.9,2.3,1.5,4.7,1.9,7.2c0,0.1,0,0.3,0.1,0.4C49.3,89.4,44,105.3,42.3,113.7z"/>
	<g>
		<polygon class="st3" points="20.7,95.9 22.8,94.6 4.5,91.5 2,92.3 		"/>
		<polygon class="st3" points="20.7,115.5 20.7,95.9 2,92.3 1.4,111.3 		"/>
		<path class="st4" d="M0.9,103c-0.1,0.9,0.6,1.9,1.5,2l16.1,2.9c0.9,0.2,1.7-0.5,1.8-1.4l0.4-10.6L2,92.3L0.9,103z"/>
		<path class="st5" d="M9.1,104.8l2.1,0.4c0.4,0.1,0.6,0.4,0.6,0.8l-0.2,0.9c-0.1,0.4-0.4,0.6-0.8,0.5l-2-0.4
			c-0.4-0.1-0.6-0.5-0.6-0.8l0.1-0.9C8.3,105,8.7,104.8,9.1,104.8z"/>
		<polygon class="st6" points="20.7,95.9 22.8,94.6 22.8,113.8 20.7,115.5 		"/>
	</g>
	<g>
		<path class="st7" d="M46.4,15.1c-0.3,1.4-1.4,2.7-2.3,3.7c-0.4,0.4-0.8,0.7-1.1,1c-0.1,0.1-0.2,0.2-0.4,0.3
			c0.1-0.6,0.2-1.2,0.3-1.8c0.8-6.2-1.4-10.6-5.3-10.6c0,0,0-0.6,0-1c0-1.8,0-4,0-4c1.9-0.9,5.7,1.4,7.2,4.1
			C46.3,9.6,46.9,12.9,46.4,15.1z"/>
		<path class="st2" d="M44,18.8c-0.4,0.4-0.8,0.7-1.1,1c0-0.5,0-1,0-1.5c0-0.5-0.1-1.1-0.1-1.7c-0.5-5.8-4-8.6-5.2-9c0,0,0-0.6,0-1
			c3.9,1,6.2,6.2,6.4,8.9C44.1,16.5,44.1,17.6,44,18.8z"/>
		<path class="st7" d="M37.6,7.7c1.2,0.4,4.9,3.1,5.4,9c0.5,5.5-0.3,8.7-0.7,9.7c1.3-1,2.1-7.7,1.7-11c-0.3-2.5-2.5-7.6-6.3-8.6
			C37.6,7.1,37.6,7.7,37.6,7.7z"/>
	</g>
	<g>
		<path class="st7" d="M28.8,15.1c0.3,1.4,1.4,2.7,2.3,3.7c0.4,0.4,0.8,0.7,1.1,1c0.1,0.1,0.2,0.2,0.4,0.3c-0.1-0.6-0.2-1.2-0.3-1.8
			c-0.8-6.2,1.4-10.6,5.3-10.6c0,0,0-0.6,0-1c0-1.8,0-4,0-4c-1.9-0.9-5.7,1.4-7.2,4.1C28.8,9.6,28.3,12.9,28.8,15.1z"/>
		<path class="st2" d="M31.1,18.8c0.4,0.4,0.8,0.7,1.1,1c0-0.5,0-1,0-1.5c0-0.5,0.1-1.1,0.1-1.7c0.5-5.8,4-8.6,5.2-9c0,0,0-0.6,0-1
			c-3.9,1-6.2,6.2-6.4,8.9C31.1,16.5,31.1,17.6,31.1,18.8z"/>
		<path class="st7" d="M37.6,7.7c-1.2,0.4-4.9,3.1-5.4,9c-0.5,5.5,0.3,8.7,0.7,9.7c-1.3-1-2.1-7.7-1.7-11c0.3-2.5,2.5-7.6,6.3-8.6
			C37.6,7.1,37.6,7.7,37.6,7.7z"/>
	</g>
	<path class="st8" d="M15.5,94.3c-0.3,0-0.5-0.2-0.5-0.5c0-2.2-1.1-3.1-3.8-3.4c-0.9-0.1-1.6,0-2,0.4c-0.4,0.4-0.5,1.1-0.5,1.8
		c0,0.3-0.2,0.5-0.5,0.5c-0.3,0-0.5-0.2-0.5-0.5c0-0.9,0.1-1.9,0.8-2.5c0.6-0.6,1.5-0.8,2.8-0.6c2.2,0.2,4.7,0.9,4.7,4.4
		C16,94.1,15.8,94.3,15.5,94.3z"/>
	<path class="st0" d="M26.2,28.8c-2-0.1-5.7,2.4-5.3,7.3c0.4,4.9,0.2,11.6-0.6,14.8c-0.8,3.2-2.3,8.3-3.6,10.7
		c-1.3,2.4-3.7,13.4-4.5,15.4c-0.8,2.1-0.9,7.5-1.4,8.7c-0.6,1.3-1.5,4.7,0,6.1c1.5,1.4,2.6,1.2,3.2,1c0.5-0.2,1-1,0-1.5
		c-1.1-0.6-1.2-2.3-0.8-3.3c0.6,0.5,0.8,2.4,1.3,2.9c0.5,0.5,1-0.6,0.7-1.5c-0.2-0.8-0.4-1.7,0-2.5c0.4-0.7,0.9-2.5,1-3.4
		c0.1-1-0.7-2.9-0.7-3.9c0-1,3.4-11.1,6-14.5c2.6-3.3,4.8-7.1,5.3-17.8C27.2,38.4,26.9,31.5,26.2,28.8z"/>
	<path class="st9" d="M26.6,28.7l-0.1-0.3l-0.3,0c0,0,0,0,0,0h0c-1.2,0-2.7,0.7-3.7,1.9c-1,1-2.1,2.9-1.8,5.8
		c0.4,5.1,0.1,11.7-0.6,14.6c-0.9,3.7-2.4,8.4-3.5,10.6c-0.8,1.5-2,6-3,10c-0.6,2.5-1.2,4.7-1.5,5.5c-0.1,0.4-0.3,0.8-0.4,1.3
		c1.3,0.5,2.7,0.8,4.3,0.8c0.2-0.9,0.8-2.7,1.5-4.7c0,0,0,0,0,0c1.2-3.2,2.8-7.1,4.2-8.9c2.5-3.3,4.9-7.1,5.4-18
		C27.6,37.9,27.2,31.2,26.6,28.7z"/>
	<path class="st2" d="M47.5,75.4c-5.2,1.2-15.6,3.4-15-1.4c-1.4,3.6-9.7,2-15.5-0.9c0.1-0.6,0.3-1.2,0.4-1.7c0,0,0-0.1,0-0.1
		c0.4-1.1,0.8-2,1.3-2.9c0,0,0,0,0,0c0.5-0.6,1-1.2,1.4-1.8c6.6,3.1,22.6,3.1,25.4,1.6c0.8,1.9,1.3,3.9,1.7,6
		C47.4,74.6,47.4,75,47.5,75.4z"/>
	<path class="st1" d="M71.6,50.5c-0.3,1.4-1.5,2.6-3.9,4.1c-1.4,0.9-3.3,2.6-5.6,4c-3.5,2-8.5,5.9-8.8,6.2c-1.1-1.6-2.3-4.6-2.5-6.4
		c1.3-0.4,5.5-4,11-9.4c-1.3-0.8-3.6-2.6-5.9-4.3c-1.6-1.2-3.2-2.4-4.1-3c-0.7,2.3-2.4,6.3-4.1,10.2c-1.3,3-2.5,5.8-3,7.3
		c-0.5,1-0.7,2.1-0.7,3.2c0,1.3,0.4,2.7,1.4,4.2c0.3,1,1.8,6.1,2,7.8c-0.1,0-0.1,0-0.2,0c-4.5,1.2-15,3.8-14.5-1.2
		c-1.4,3.9-10.4,1.7-15.6-1.7c0,0,0.9-2.3,1.3-3c0.9-1.5,3.4-3.9,4.5-5.4c1.1-1.5,2.1-3.6,2.4-4.6c1-3.9,1-9.1,0.8-10
		c-2.4-10-0.8-18.5-0.1-19.7l0.1-0.1l0.2,0c0,0,0,0,0,0c0,0,0,0,0,0c1.1-0.2,3.8-0.9,5.3-1.7c1.7,3.8,4.8,10.1,12.5-0.2
		c0.3,0.1,1,0,1.6,0.1c3.4,0.6,6.6,1.2,7.4,2.1c0.5,0.5,1.5,1.6,2.5,2.7c1.3,1.4,2.5,2.8,3,3.2c0.1,0.1,9.7,8.4,12,11.9
		C71.5,48.1,71.9,49.3,71.6,50.5z"/>
	<g>
		<path class="st10" d="M45.3,28.4l-7.3,19.2l-0.4,1l-0.3-0.8l0,0l-7.4-19.4c0,0,0.2-0.4,0.6-1c0.1-0.1,0.2-0.3,0.3-0.4
			c0.1-0.1,0.2-0.3,0.4-0.5l0.6-0.2l0.1,0l0.1,0h0l0.7-0.2c0.3-0.3,0.6-0.5,0.8-0.8c0.2,0.2,0.5,0.4,0.8,0.6c1,0.7,2.2,1.5,3.4,1.9
			c1.2-0.5,2.5-1.2,3.4-1.9c0.3-0.2,0.6-0.4,0.8-0.6c0.2,0.3,0.4,0.6,0.8,0.8l0.7,0.2h0l0.1,0l0,0l0.6,0.2c0.1,0.1,0.2,0.3,0.4,0.5
			c0.1,0.1,0.2,0.3,0.3,0.4C45,28,45.3,28.4,45.3,28.4z"/>
		<path class="st2" d="M43.4,26.3c0,0.1,0,0.1,0,0.2c-0.1,0.4-0.3,0.9-0.4,1.4l-0.1,0.3c0,0.1-0.1,0.2-0.1,0.3
			c-0.2,0.6-0.4,1.3-0.6,1.9l-0.1,0.1c-0.6,2-1.3,3.7-1.3,3.7L40,32.6l-1.3-2.6l-1.1-2.3l3-1.9l1.2-0.7c0,0,0,0.1,0.1,0.1
			c0.2,0.3,0.4,0.6,0.8,0.8l0.7,0.2h0L43.4,26.3L43.4,26.3z"/>
		<path class="st11" d="M43.2,26.3L43.2,26.3c0,0.1,0,0.1,0,0.2h0l0,0.1c-0.2,0.6-0.4,1.3-0.7,2.1c-0.8,2.2-1.7,4.7-1.7,4.7l-2-3.4
			l-1.3-2.2l3-1.9l1.2-1C41.7,24.9,43.2,26.3,43.2,26.3z"/>
		<polygon class="st2" points="47.6,27 47.5,31.2 44.8,31.9 46.5,34.2 40.1,44.8 37.6,49.1 37.8,48.3 37.9,47.6 42.3,30.4 
			42.4,30.2 42.9,28.3 42.9,28 43.4,26.3 43.4,26.3 		"/>
		<polygon class="st2" points="37.6,49 35,44.8 28.6,34.2 30.3,31.9 27.7,31.4 27.7,28.1 31.7,26.3 31.8,26.3 37.2,47.8 37.3,47.8 
			37.4,48.3 		"/>
		<polygon class="st12" points="47.4,27 47,31.1 44.8,31.9 44.5,32 46.2,34.3 40,44.5 37.8,48.3 37.6,48.6 42.1,30.6 42.2,30.5 
			42.6,28.6 43.2,26.6 43.2,26.5 43.2,26.3 43.3,26.3 		"/>
		<path class="st2" d="M37.6,27.8l-1.1,2.3l-1.3,2.6l-0.9,1.8c0,0-0.6-1.8-1.3-3.7l-0.1-0.1c-0.2-0.6-0.4-1.3-0.6-1.9
			c0,0,0-0.1,0-0.1c-0.2-0.8-0.4-1.5-0.6-2c0-0.1,0-0.2,0-0.2l0.1,0l0.1,0h0l0.7-0.2c0.3-0.3,0.6-0.5,0.8-0.8c0,0,0.1-0.1,0.1-0.1
			l1.2,0.7L37.6,27.8z"/>
		<path class="st11" d="M31.9,26.3L31.9,26.3c0,0.1,0,0.1,0,0.2h0l0,0.1c0.2,0.6,0.4,1.3,0.7,2.1c0.8,2.2,1.7,4.7,1.7,4.7l2-3.4
			l1.3-2.2l-3-1.9l-1.2-0.7c0,0,0,0.1-0.1,0.1c-0.2,0.3-0.4,0.6-0.8,0.8L31.9,26.3z"/>
		<polygon class="st12" points="37.6,48.6 37.4,48.3 35.1,44.5 29,34.3 30.7,32 30.3,31.9 28.1,31.1 28.1,27.9 31.7,26.3 31.8,26.3 
			31.8,26.3 31.9,26.3 31.9,26.3 31.9,26.5 32,26.6 32.5,28.6 32.9,30.5 33,30.6 		"/>
	</g>
	<path class="st12" d="M37.6,49c-0.1,2-0.4,4.1-0.7,6.1c-0.3,2-0.6,4-1,6.1c-0.4,2-0.8,4-1.3,6c-0.5,2-1,4-1.8,5.9
		c0.3-1,0.6-1.9,0.9-2.9c0.2-1,0.5-2,0.7-3c0.4-2,0.8-4,1.2-6c0.4-2,0.7-4,1.1-6c0.2-1,0.3-2,0.5-3C37.3,51,37.4,50,37.6,49z"/>
</g>
</svg>
