<?xml version="1.0" encoding="utf-8"?>
<!-- Generator: Adobe Illustrator 22.1.0, SVG Export Plug-In . SVG Version: 6.00 Build 0)  -->
<svg version="1.1" id="Capa_1" xmlns="http://www.w3.org/2000/svg" xmlns:xlink="http://www.w3.org/1999/xlink" x="0px" y="0px"
	 viewBox="0 0 92.2 160" style="enable-background:new 0 0 92.2 160;" xml:space="preserve">
<style type="text/css">
	.st0{display:none;}
	.st1{display:inline;fill:#6D6C6C;}
	.st2{display:inline;fill:#EAA678;}
	.st3{display:inline;fill:#2E79BB;}
	.st4{display:inline;fill:#2972A8;}
	.st5{display:inline;fill:#E092E8;}
	.st6{display:inline;fill:#C886D1;}
	.st7{display:inline;fill:#E6E5E5;}
	.st8{display:inline;fill:#404040;}
	.st9{display:inline;opacity:0.2;}
	.st10{display:inline;fill:#686565;}
	.st11{display:inline;}
	.st12{fill:#803223;}
	.st13{fill:#601310;}
	.st14{fill:#F7B480;}
	.st15{fill:#EB8841;}
	.st16{fill:#575756;}
	.st17{fill:#59190C;}
	.st18{fill:#6B2616;}
	.st19{fill:#404040;}
	.st20{fill:#2E2E2E;}
	.st21{fill:#993300;}
	.st22{fill:#7A2905;}
	.st23{fill:#3F403F;}
</style>
<g class="st0">
	<path class="st1" d="M16.2,15.8c-1.9,0.6-2.6,4.2-2.1,6.5c0.5,2.3,2.4,7,4.2,6.2c-1.1,1.8-1.3,3.9-1.2,4.8c0.1,1.1,1.6,3.7,5.7,3.5
		c2.1-0.1,3.9-0.5,5.1-1.9c0.7-0.8,0.8-1.7,0.8-2.9c0-0.7-1.1-2.7-1.4-3.1c1.4-0.8,2.9-2,3.8-4.4c0.4-1.2,0.9-6.7-0.9-9
		C26.9,11.4,17.8,10.9,16.2,15.8z"/>
	<path class="st2" d="M41,92.5c-0.9-2.4-1.5-5-1.3-8.5c0.2-3.5,1.3-15.9,0.7-20.1c-0.7-4.2-3.8-23.5-4.6-24.7
		c-0.8-1.2-4.4-3.1-5.5-3.5c-0.8-0.3-2.4-0.8-3.9-2c-0.3-0.3-0.5-0.7-0.5-1.3c0-0.3,0-0.6,0.1-1c-1.3,0-3.2,0-3.2,0v0l0,0
		c0,0-1.9,0-3.2,0c0.1,0.3,0.1,0.6,0.1,0.8c0,0.7-0.2,1.2-0.5,1.4c-1.6,1.2-3.2,1.7-3.9,2c-1.1,0.4-4.7,2.3-5.5,3.5
		c-0.8,1.2-8,20.1-8.6,24.3c-0.1,0.6-0.1,1.2-0.2,2l6.1-0.1c0-2.4,5.6-10.6,6-12.5c0.4,3.4-0.6,14.4-1,17.2
		c-0.4,2.8-1,16.7-0.8,18.4c0.2,1.7,1.3,14,1.7,17.2c0.4,3.2,0.8,8.7,0.6,11.4c-0.2,2.6-0.7,12.2-0.5,14.3c0.4,5,3.4,11.2,3.3,13.9
		c-0.1,2.7,0.8,6.1-0.2,7.9c-1.1,1.8-3,2.6-2.7,3.5c0.3,0.9,7.5,1.1,8.3,0.7c0.8-0.3,0.7-1.4,0.3-2.5c-0.4-1.1-0.6-3.8-0.6-5.8
		c0-2,0.3-7,0.5-8.7c0.2-1.6,0.2-6,0.3-8c0.1-2-0.7-6.2-0.6-7.3c0.1-1.1,1.1-5,0.8-6.5c-0.3-1.5,0-10.7,0-13.2
		c0-2.5-0.3-13.7-0.2-14.5c0.5-0.1,0.7-0.1,1.2,0c0.1,0.8-0.2,11.9-0.2,14.5c0,2.5,0.3,11.8,0,13.2c-0.3,1.5,0.7,5.3,0.8,6.5
		c0.1,1.1-0.7,5.4-0.6,7.3c0.1,2,0,6.3,0.3,8c0.3,1.6,0.5,6.6,0.5,8.7c0,2-0.2,4.7-0.6,5.8c-0.4,1.1-0.5,2.2,0.3,2.5
		c0.8,0.3,8,0.2,8.3-0.7c0.3-0.9-1.6-1.7-2.7-3.5c-1.1-1.8-0.2-5.2-0.2-7.9c-0.1-2.7,2.9-8.9,3.3-13.9c0.2-2.1-0.3-11.7-0.5-14.3
		c-0.2-2.6,0.2-8.2,0.6-11.4c0.4-3.2,1.5-15.5,1.7-17.2c0.2-1.7-0.4-15.7-0.8-18.4c-0.4-2.8-1.4-13.8-1-17.2c0.4,2,2,11.3,2,13.2
		c-0.1,1.9,0.9,9.6,1,11.3c0.1,1.6,0.6,11.4-0.1,12.7c-0.7,1.2-0.5,2.4-0.7,4.5c-0.2,1.8,0.8,1.8,1.1,1.4c0.3-0.4-0.1-1.8,0.6-2.2
		c0.7-0.4,1.4,1.6,1.8,3c0.4,1.4,0.2,2.7,0.5,3c0.9,0.8,1.2-0.4,1.9-1.4C41.5,96.9,41.9,94.8,41,92.5z"/>
	<path class="st3" d="M34.6,90.1c0.1-2.1,0.2-7.9-0.5-10.3c-2.9,0-19.9,0-22.9,0c-0.6,2.4-0.5,8.2-0.5,10.3
		c0.1,2.1,2.3,22.3,2.4,25.3c0.1,3-1.2,13.8-1.1,16.3c0.1,2.6,1.6,11,2,13.2c0.4,2.2,0.5,7.1,0.5,8.6c1-0.8,5.6-0.7,7.9,0
		c0-1.5,0-20,0.2-20.7c0.2-0.7-0.6-6.4-0.6-7.3c0.1-0.9,0.7-6.7,0.6-7.8c-0.1-1.1-0.6-26.7-0.6-26.7h1.2c0,0-0.4,25.6-0.6,26.7
		c-0.1,1.1,0.5,6.9,0.6,7.8c0.1,0.9-0.8,6.6-0.6,7.3c0.2,0.7,0.1,19.3,0.2,20.7c2.3-0.7,6.9-0.8,7.9,0c0-1.6,0.1-6.5,0.5-8.6
		c0.4-2.2,1.9-10.6,2-13.2c0.1-2.6-1.2-13.3-1.1-16.3C32.3,112.4,34.6,92.2,34.6,90.1z"/>
	<path class="st4" d="M22.6,131.2c-0.2-2-0.6-5-0.5-5.7c0.1-0.9,0.7-6.7,0.6-7.8c-0.1-1.1-0.6-26.7-0.6-26.7l1.2,0
		c0-0.5,0-0.7,0-0.7l-1.9,0c0,0,0.4,25.6,0.6,26.7c0.1,1.1-0.5,6.9-0.6,7.8c-0.1,0.9,0.8,6.6,0.6,7.3c-0.2,0.7,0.2,18.5-0.9,19.4
		c-1.6,1.2-4.7,0.6-6.4,1c0,0.4,0,0.8,0,1c1-0.8,5.6-0.7,7.9,0c0-1.5,0-20,0.2-20.7c0-0.1,0-0.4,0-0.7
		C22.7,131.9,22.6,131.6,22.6,131.2z"/>
	<path class="st5" d="M40.3,87.1c-1.2,1.5-4.6,1.1-5,0.9c0-1.6-1.5-21.1-1.2-22.2c-0.4-1.8-1.6-11.2-1.6-11.2s0.7,10.5,1,12.4
		c0.2,1.9,1,11.4,1.1,12.9C33,80.9,24,80.4,22.7,80.4c-1.3,0-10.3,0.5-11.8-0.6c0-1.1,0.4-5.9,0.7-9.4c0.2-1.6,0.3-3,0.4-3.6
		c0.1-0.5,0.2-1.7,0.3-3.2c0.3-3.7,0.7-9.2,0.7-9.2s-3.1,5.3-4.7,8.6c-0.5,1-0.9,1.8-0.9,2.3c0,0,0,0,0,0.1l-6.6,0.1
		c0-0.8,0-1.6,0.1-2.2c0-0.2,0.1-0.5,0.2-1c1.4-4.8,8-23,8.6-23.6c0.7-0.7,6.2-3.5,8-4c0.4,1.5,2.4,3.2,5.1,3.2
		c2.7-0.1,4.7-1.7,5.1-3.2c1.9,0.5,7.4,3.2,8,4c0.7,0.7,4.7,23.4,4.8,25.1C41,69.5,40.1,85.4,40.3,87.1z"/>
	<path class="st4" d="M34.6,90.1c0.1-2.1,0.2-7.9-0.5-10.3c-0.2,0-0.4,0-0.6,0c0.5,2.7,0.4,7.7,0.3,9.6c-0.1,2.1-2.3,22.3-2.4,25.3
		c-0.1,3,1.2,13.8,1.1,16.3c-0.1,2.6-1.6,11-2,13.2c-0.4,2.2-0.4,6.7-1.9,7.4c-1.1,0.5-3.5,0.4-5.8,1c0,0,0,0,0-0.1c0,0.5,0,0.8,0,1
		c2.3-0.7,6.9-0.8,7.9,0c0-1.6,0.1-6.5,0.5-8.6c0.4-2.2,1.9-10.6,2-13.2c0.1-2.6-1.2-13.3-1.1-16.3C32.3,112.4,34.6,92.2,34.6,90.1z
		"/>
	<path class="st6" d="M33.2,64.6c-0.4-5.6-0.8-10.1-0.8-10.1s0.9,22.2,0.2,23.6c-0.8,1.7-10.1,1.6-11.4,1.6c-1.1,0-7.3,0.3-10.4-0.2
		c0,0.1,0,0.2,0,0.3c1.6,1.1,10.5,0.6,11.8,0.6c1.3,0,10.3,0.5,11.8-0.6c-0.1-1.5-0.8-11.1-1.1-12.9C33.4,66.5,33.3,65.7,33.2,64.6z
		"/>
	<path class="st7" d="M22.7,37.9c2.7-0.1,4.7-1.7,5.1-3.2C29.3,39.9,22.8,41.3,22.7,37.9z"/>
	<path class="st6" d="M22.6,157.1c0-1.9-0.5-3.5-3.3-3.5c-2.8,0-6.2,1-6.2,3.5C15.8,157.1,22.6,157.1,22.6,157.1z"/>
	<path class="st5" d="M19.3,154.3c-2.5,0-5.5,0.8-6.1,2.8c0,0-0.1,0-0.1,0c0-2.5,3.4-3.5,6.2-3.5c2.8,0,3.3,1.6,3.3,3.5c0,0,0,0,0,0
		C22.4,155.5,21.7,154.3,19.3,154.3z"/>
	<path class="st8" d="M13.7,157.6h8.2c0.4,0,0.8-0.2,0.8-0.4c0-0.2-0.3-0.4-0.8-0.4h-8.2c-0.4,0-0.8,0.2-0.8,0.4
		C12.9,157.4,13.3,157.6,13.7,157.6z"/>
	<path class="st7" d="M22.7,37.9c-2.7-0.1-4.7-1.7-5.1-3.2C16.1,39.9,22.6,41.3,22.7,37.9z"/>
	<path class="st6" d="M22.9,157.1c0-1.9,0.5-3.5,3.3-3.5c2.8,0,6.2,1,6.2,3.5C29.6,157.1,22.9,157.1,22.9,157.1z"/>
	<path class="st5" d="M26.1,154.3c2.5,0,5.5,0.8,6.1,2.8c0,0,0.1,0,0.1,0c0-2.5-3.4-3.5-6.2-3.5c-2.8,0-3.3,1.6-3.3,3.5c0,0,0,0,0,0
		C23.1,155.5,23.8,154.3,26.1,154.3z"/>
	<path class="st8" d="M31.7,157.6h-8.2c-0.4,0-0.8-0.2-0.8-0.4c0-0.2,0.3-0.4,0.8-0.4h8.2c0.4,0,0.8,0.2,0.8,0.4
		C32.5,157.4,32.2,157.6,31.7,157.6z"/>
	<path class="st9" d="M25.9,31.5c-0.1,0.3-0.1,0.7-0.1,1c-0.8,0.6-1.8,1.1-3,1.1c-1.3,0-2.3-0.5-3.2-1.2c0-0.3,0-0.5-0.1-0.8
		c1.3,0,3.2,0,3.2,0l0,0v0C22.7,31.5,24.6,31.5,25.9,31.5z"/>
	<path class="st2" d="M29.2,17.9c-0.1-2.2-3.8-4.7-6.4-4.7s-6.3,2.5-6.4,4.7c-0.1,2.2-0.5,9.6,0.7,11c1.2,1.4,2.9,3.9,5.7,3.9
		c2.9,0,4.5-2.5,5.7-3.9C29.7,27.5,29.3,20.2,29.2,17.9z"/>
	<path class="st10" d="M15.5,18.9c0.2,1.6,1.2,4,1.3,4.7c0-2.2-0.1-4.9,0.9-6.5c1.4,1.6,5.9,3,7.7,3c1.8,0.1,3.5,0,3.8,0
		c0,0.7,0.2,3.7,0.1,4.2c0.4-0.2,0.9-3.9,0.5-5.4c-0.4-1.5-0.1-4.7-3.9-5.9c-3.8-1.3-6.6-0.9-8.4,1.1C15.8,16.1,15.4,17.8,15.5,18.9
		z"/>
	<path class="st6" d="M12.4,48.7c0.9,2.3,2,6.2,3.4,6.9c1.4,0.7,12.4,0.7,14.2,0c1.7-0.7,2.1-3.9,2.4-6.9c0.2,4.2,0.1,6.6,0.4,8.9
		c0.2,2.2,0.4,4,0.4,4.8c-0.5-1.7-1.3-2.5-2.6-2.9c-0.8-0.2-13-0.4-15,0.6c-2.1,1.1-2.8,6.3-3.6,8.1C12.1,65.1,12.9,54.5,12.4,48.7z
		"/>
	<path class="st9" d="M31.7,71.2c-0.2,0.9-4.5,4.2-5.1,4.6c-0.6,0.4-5.3,3.1-6.1,2.9c-0.8-0.2-2.9-4.1-3.4-5.2
		c-0.3-0.8-1-2.5-1.1-3.5c-0.7,0-2.4,0.2-4.4,0.3c0.2-1.6,0.3-3,0.4-3.6c0.1-0.5,0.2-1.7,0.3-3.2c2.6,0.4,4.8,0.7,5.2,0.7
		c0,0.1,0.1,0.2,0.1,0.4c1.9,0,3.5,0,3.9-0.2c0.4-0.3,2-1.2,2.6-0.3c0.6-0.4,1.1-0.7,1.2-0.8c0.3-0.2,1.2,0.7,2,1.5
		c0.4,0.4,0.7,0.8,1,1.1C29,66.8,31.9,70.3,31.7,71.2z"/>
	<g class="st11">
		<path class="st12" d="M31.2,71.1c-0.2,0.8-4.5,3.9-5,4.3c-0.6,0.4-5.2,2.8-6,2.7c-0.8-0.1-2.5-4.1-2.9-5c-0.4-1-1.2-3.4-0.8-3.7
			c0.4-0.3,3.1-1.9,4.3-2.7c1.2-0.7,3.8-2.5,4.3-2.7c0.3-0.1,1.2,0.6,2,1.4c0.4,0.4,0.7,0.7,0.9,1C28.6,67.1,31.5,70.3,31.2,71.1z"
			/>
		<path class="st13" d="M27,65.3c-0.8-0.8-1.7-1.5-2-1.4c-0.5,0.2-3.1,1.9-4.3,2.7c-1.2,0.7-3.9,2.4-4.3,2.7c-0.3,0.2,0,1.4,0.4,2.4
			c0.2,0.4,0.5,0.8,0.7,1.1c0.6,0.8,4.6-1.4,5.7-2.2c1.2-0.7,4.9-3.3,4.4-4.2C27.5,66.1,27.3,65.7,27,65.3z"/>
	</g>
	<path class="st2" d="M17.3,65.2c1.9,0,3.4,0,3.9-0.2c0.4-0.2,2.1-1.2,2.7-0.2c0.5,1,1.1,2.2,1,2.4c-0.1,0.2-0.3,0.5-0.5,0.4
		c0.5,0.8-0.4,1.8-1,1.4c0.2,0.5-1,1.4-1.5,0.6c-0.2,1-1.2-0.2-2.2-0.8c-0.7-0.4-1.9-0.1-2.7,0.5c-0.8,0.6-1.8-0.3-2.1-0.1
		C14,67.9,13.8,65.3,17.3,65.2z"/>
	<path class="st6" d="M16.6,69.8c1.1-1.2,0.8-4.6,0.7-5c-1.1,0-15.2-2.2-16.4-1.9c0,0-1.3,6.3,0.3,7.3C3.5,71.6,15.5,69.6,16.6,69.8
		z"/>
</g>
<g>
	<path class="st14" d="M48.7,153.7c-1-0.7-8-6.8-8.4-8.2c-0.4-1.4,0.8-17.3,0.9-19c0.1-1.7,1.3-11.7,1.8-14.7
		c0.5-3-0.3-12.1-0.6-15.9c-0.2-3.9,0.1-12.6-0.5-17c-0.6-4.4-0.5-25.6-0.2-29.3c0.3-3.8,1.4-10.1,2.7-12.4c-1.4-1.3-8-4.1-8.3-4.3
		c-0.3-0.2-3.9-2.4-3.7-4c-1.9,0-3.7,0-3.7,0s-1.8,0-3.7,0c0.2,1.7-3.4,3.8-3.7,4c-0.3,0.2-6.9,3-8.3,4.3c1.3,2.3,2.4,8.7,2.7,12.4
		c0.3,3.8,0.4,24.9-0.2,29.3c-0.6,4.4-0.3,13.2-0.5,17c-0.2,3.9-1.1,12.9-0.6,15.9c0.5,3,1.7,13,1.8,14.7c0.1,1.7,1.3,17.6,0.9,19
		c-0.4,1.4-7.4,7.6-8.4,8.2c-1,0.7,2.5,3.4,4.7,2.6c2.2-0.7,7.5-3.3,8.4-3.4c0.9-0.1,2.6-1,2.2-3.4c-0.5-2.3-0.7-5.3-0.5-7.1
		c0.2-1.8,3.1-13,3-14.9c-0.1-1.8-0.6-8.7-2-11.6c-0.6-1.1-0.1-5.7,0.6-7.3c0.7-1.6,2.7-18.9,2.7-20.9c0.5,0,1,0,1,0s0.5,0,1,0
		c0,2,2.1,19.3,2.7,20.9c0.7,1.6,1.1,6.2,0.6,7.3c-1.5,2.9-1.9,9.8-2,11.6c-0.1,1.8,2.8,13.1,3,14.9c0.2,1.8,0,4.7-0.5,7.1
		c-0.5,2.3,1.2,3.3,2.2,3.4c0.9,0.1,6.3,2.7,8.4,3.4C46.1,157.1,49.6,154.4,48.7,153.7z"/>
	<path class="st14" d="M35.1,14.7c-1.2-2.6-3.4-4-6.5-4c-3,0-5.2,1.4-6.5,4c-1.2,2.6-1,7.8-0.2,10.1c0.8,2.3,2,7.4,6.7,7.4
		c5,0,5.9-5.1,6.7-7.4C36.1,22.5,36.3,17.2,35.1,14.7z"/>
	<path class="st14" d="M44.3,37.1c1.9,2.4,10.9,18.5,11.8,21.9c0.9,3.4,0.6,12.4-0.3,14.6c0,2.7,0.7,4.2-0.1,5
		c-0.9,0.9-5.3,2-6.3,0.7c-1-1.3-2-3.4-1.4-5.2c0.6-1.7,1.4-2.2,2.3-2.5c0-1.2,0.3-7.4,0.2-8.4c-0.1-1-7.4-10-8.9-12.3
		c-1.5-2.3-1.1-7.1-0.6-10.1C41.4,37.8,43.5,36,44.3,37.1z"/>
	<path class="st14" d="M13,37.1C10.6,40.2,3.4,48.8,2,51.4c-1.4,2.5-3.3,5.4-0.5,8.7c2.8,3.3,9,9.2,9.8,10.4
		c0.9,1.2,0.7,3.4,0.1,4.3c-0.6,0.9-2.8,1-3.4,0.9c-0.6-0.1,0.2,1.5,0.9,2.2c0.7,0.7,3.8,0.9,4.4,0.9c0.7,0,2.3-0.8,2.2-3.6
		c-0.1-2.8,0-3.2,0.2-4.4c-0.4-1.2-6.4-12.8-7.4-14c1-0.9,5.5-6.8,7.1-8.2c1.6-1.4,1.7-5.6,1-8.1C15.9,37.8,14.4,36.2,13,37.1z"/>
	<g>
		<g>
			<path class="st14" d="M35.3,21.1c0.2-0.8,1.1-1.4,1.6-0.9c0.5,0.4,0.7,1.5,0.3,2.3c-0.5,1-1.3,2.9-2.2,2.4
				C34.8,24.7,35,22.1,35.3,21.1z"/>
			<path class="st15" d="M36.7,22.3c0.1-0.2,0.2-0.4,0.2-0.6c0-0.2,0-0.4-0.1-0.5c-0.3-0.1-0.7,0.1-0.9,0.4c-0.1,0.3,0,0.7,0.1,1.1
				c0,0.2,0.1,0.4,0.1,0.7c-0.1,0.2-0.2,0.4-0.4,0.5c0.2-0.1,0.2-0.3,0.2-0.5c0-0.2-0.1-0.4-0.1-0.6c-0.1-0.2-0.1-0.4-0.2-0.6
				c0-0.2-0.1-0.5,0-0.7c0.1-0.2,0.3-0.4,0.5-0.5c0.2-0.1,0.5-0.1,0.7,0c0.1,0.1,0.2,0.2,0.2,0.4c0,0.1,0,0.2,0,0.3
				C37,21.9,36.9,22.2,36.7,22.3z"/>
		</g>
		<g>
			<path class="st14" d="M22,21.1c-0.2-0.8-1.1-1.4-1.6-0.9c-0.5,0.4-0.7,1.5-0.3,2.3c0.5,1,1.3,2.9,2.2,2.4
				C22.5,24.7,22.3,22.1,22,21.1z"/>
			<path class="st15" d="M20.5,22.3c-0.2-0.1-0.3-0.3-0.3-0.5c0-0.1,0-0.2,0-0.3c0-0.1,0-0.3,0.2-0.4c0.3-0.2,0.5-0.1,0.7,0
				c0.2,0.1,0.4,0.2,0.5,0.5c0.1,0.3,0.1,0.5,0,0.7c-0.1,0.2-0.1,0.4-0.2,0.6c-0.1,0.2-0.2,0.4-0.1,0.6c0,0.2,0.1,0.4,0.2,0.5
				c-0.2-0.1-0.3-0.3-0.4-0.5c-0.1-0.2,0-0.5,0.1-0.7c0.1-0.4,0.3-0.8,0.1-1.1c-0.1-0.3-0.6-0.5-0.9-0.4c-0.1,0.1-0.1,0.3-0.1,0.5
				C20.3,21.9,20.4,22.1,20.5,22.3z"/>
		</g>
	</g>
	<path class="st16" d="M35.4,15.4c-0.2,1.6-0.7,6.5-0.4,7.3c0.2-1.3,0.4-2.2,1-2.5c0-0.2,0.1-0.7,0.1-1.1c0.2,0.1,0.4,0.2,0.6,0.5
		c0.1-0.8-0.1-1.8-0.2-2.1c0.3,0.3,0.4,0.4,0.5,0.6C37,16.7,36,15.8,35.4,15.4z"/>
	<path class="st16" d="M21.9,15.4c0.2,1.6,0.7,6.5,0.4,7.3c-0.2-1.3-0.4-2.2-1-2.5c0-0.2-0.1-0.7-0.1-1.1c-0.2,0.1-0.4,0.2-0.6,0.5
		c-0.1-0.8,0.1-1.8,0.2-2.1c-0.3,0.3-0.4,0.4-0.5,0.6C20.2,16.7,21.3,15.8,21.9,15.4z"/>
	<g>
		<path class="st17" d="M37.6,154.7l-1.2,0.1c0,0-2.1-0.7-2.8-1.2c-0.1-0.6,0-1.9-0.2-2.8c1.3,0.7,2.5,1.7,3.2,2.1
			C37.1,153.3,37.6,154.7,37.6,154.7z"/>
		<path class="st17" d="M49.4,156.4c-0.1,0.4-0.2,0.7-0.4,0.9c-0.8,0.1-6.8,1-7.7,0.8c-0.9-0.2-3.3-1.1-3.5-1.4
			c-0.1-0.1-0.2-0.5-0.2-0.9c1.1,0.7,3.1,1.6,3.8,1.6C42.1,157.4,47.2,156.8,49.4,156.4z"/>
		<path class="st18" d="M49.4,156.4c-2.2,0.5-7.3,1-8,0.9c-0.7-0.1-2.7-1-3.8-1.6c0-0.5,0-1,0-1s-0.5-1.4-1.1-1.8
			c-0.6-0.4-1.9-1.4-3.2-2.1h0c0-0.1-0.1-0.2-0.1-0.3c-0.3-0.9-0.1-4.1,0.3-4.8c0,0,6.2-0.5,7.4-0.6c0.1,1.1,2.3,3.5,3.1,4.5
			c0.8,0.9,4.6,3.4,5.2,4.1C49.5,154.1,49.7,155.3,49.4,156.4z"/>
	</g>
	<g>
		<path class="st17" d="M19.6,154.7l1.2,0.1c0,0,2.1-0.7,2.8-1.2c0.1-0.6,0-1.9,0.2-2.8c-1.3,0.7-2.5,1.7-3.2,2.1
			C20.1,153.3,19.6,154.7,19.6,154.7z"/>
		<path class="st17" d="M7.8,156.4c0.1,0.4,0.2,0.7,0.4,0.9c0.8,0.1,6.8,1,7.7,0.8c0.9-0.2,3.3-1.1,3.5-1.4c0.1-0.1,0.2-0.5,0.2-0.9
			c-1.1,0.7-3.1,1.6-3.8,1.6C15,157.4,10,156.8,7.8,156.4z"/>
		<path class="st18" d="M7.8,156.4c2.2,0.5,7.3,1,8,0.9c0.7-0.1,2.7-1,3.8-1.6c0-0.5,0-1,0-1s0.5-1.4,1.1-1.8
			c0.6-0.4,1.9-1.4,3.2-2.1h0c0-0.1,0.1-0.2,0.1-0.3c0.3-0.9,0.1-4.1-0.3-4.8c0,0-6.2-0.5-7.4-0.6c-0.1,1.1-2.3,3.5-3.1,4.5
			c-0.8,0.9-4.6,3.4-5.2,4.1C7.7,154.1,7.5,155.3,7.8,156.4z"/>
	</g>
	<path class="st19" d="M42,75.9c-4-0.1-22.7-0.1-26.7,0c-0.5,1.8-2.4,31.7-1.7,35.3c0.7,3.6,1.4,30.1,1.7,34.2
		c1.4,1.9,6.7,4.6,9.2,2.1c0.7-6.4,4.1-20.9,1.4-32.5c-0.6-2.7-0.1-4.5,1-10.2c1.1-5.7,0.8-17,0.8-17h1h1c0,0-0.3,11.3,0.8,17
		c1.1,5.7,1.6,7.5,1,10.2c-2.7,11.6,0.7,26.1,1.4,32.5c2.5,2.5,8.4,1.1,9.8-0.8c0.3-4.2,0.5-31.9,1.2-35.5
		C44.4,107.6,42.5,77.8,42,75.9z"/>
	<path class="st20" d="M27.7,87.8l-0.4,1.7c0,0-1,7.8-2.1,13.5c-1.1,5.7-1.6,7.5-1,10.2c2.7,11.6,1.4,26.7-1.4,32.5
		c-1.1,2.4-5.3,0.9-7.5-0.5c0,0.1,0,0.1,0,0.2c1.4,1.9,6.7,4.6,9.2,2.1c0.7-6.4,4.1-20.9,1.4-32.5c-0.6-2.7-0.1-4.5,1-10.2
		C28,99,27.7,87.8,27.7,87.8z"/>
	<path class="st20" d="M42,75.9c-0.4,0,0.5,30.3-0.1,33.5c-0.7,3.6,0.2,31.5-1.2,35.5c-0.6,1.8-5.3,2.8-8.1,1.8
		c0,0.3,0.1,0.5,0.1,0.7c2.5,2.5,8.4,1.1,9.8-0.8c0.3-4.2,0.5-31.9,1.2-35.5C44.4,107.6,42.5,77.8,42,75.9z"/>
	<path class="st21" d="M28.7,36.3c1.9-0.1,4.9-1.9,6.2-4.2c2.1-0.3,9.2,4.2,9.8,4.7c2,1.9,10.4,16.3,11.3,18.8
		c0.9,2.4,1.4,15.1,0.6,17.4c-2.3,0.9-6.8-1.3-7.5-2c0.3-1.7,0.5-6.8,0.3-7.5c-0.2-0.7-7.1-10.9-7.9-11.7
		c-0.1,2.3,0.8,26.4,0.9,28.2c-2.6,1.4-26.1,1.2-27.6,0.6c0.2-2.8,0.7-29.9,0.7-31.3c-1.9,2.4-5.7,7.1-6.2,7.5
		c1.8,2.3,5.3,10.2,5.8,11.3c-0.4,1.9-2.1,3-4,3.5c-1.3-1.1-11.7-11.8-11.9-15c-0.3-3.1,2-5.5,2.9-6.9C3,48.3,12.5,36.5,13.8,35.6
		c1.3-0.9,7.6-3,8.6-3.5C23,33.7,26.5,36.4,28.7,36.3z"/>
	<path class="st22" d="M39.3,76.8c-1.2,2.1-18,3.2-24.4,2.8c0,0.4,0,0.7-0.1,0.9c1.5,0.6,25,0.7,27.6-0.6
		c-0.1-1.5-0.8-21.6-0.9-28.2C40.4,62.1,40.1,75.3,39.3,76.8z"/>
	<g>
		<path class="st23" d="M35.5,15.5c0,0.2,0,0.4,0,0.6c0,1.5,0,3.8-0.4,5.7c-0.2-1.8-0.3-4.5-1.2-4.8c1-6.6-5.9-6.2-5.9-6.2
			s-6.3,0.3-4.8,6.2h0c-0.1,0-0.1,0.1-0.2,0.1c-0.6,0.6-0.8,3-0.9,4.6c0,0,0,0,0,0l0-0.1c-0.3-1.8-0.4-3.9-0.4-5.5
			c0-0.1,0-0.1,0-0.2v-0.6c0-1.5,1.5-2.8,2.6-3.7c0.6-0.5,1.9-1.1,3.8-1.1c1.9,0,4.6,0.8,5.1,1.2C34.5,12.8,35.5,14,35.5,15.5z"/>
		<path class="st16" d="M35.5,16.1c0,1.5,0,3.8-0.4,5.7c-0.2-1.8-0.3-4.5-1.2-4.8C34.3,16.7,34.8,16.3,35.5,16.1z"/>
		<path class="st16" d="M23.3,17.1c-0.1,0-0.1,0.1-0.2,0.1c-0.6,0.6-0.8,3-0.9,4.6l0-0.1c-0.3-1.8-0.4-3.9-0.4-5.5v-0.2h0
			C22.4,16.3,22.9,16.7,23.3,17.1z"/>
	</g>
</g>
</svg>
