<?xml version="1.0" encoding="utf-8"?>
<!-- Generator: Adobe Illustrator 22.1.0, SVG Export Plug-In . SVG Version: 6.00 Build 0)  -->
<svg version="1.1" id="Capa_1" xmlns="http://www.w3.org/2000/svg" xmlns:xlink="http://www.w3.org/1999/xlink" x="0px" y="0px"
	 viewBox="0 0 92.2 160" style="enable-background:new 0 0 92.2 160;" xml:space="preserve">
<style type="text/css">
	.st0{fill:#F7B480;}
	.st1{fill:#E6E5E5;}
	.st2{opacity:0.2;enable-background:new    ;}
	.st3{fill:#EB8841;}
	.st4{fill:#405DA7;}
	.st5{fill:#82AADA;}
	.st6{fill:#261113;}
	.st7{fill:#53A2DA;}
	.st8{opacity:0.3;fill:#FFFFFF;enable-background:new    ;}
	.st9{fill:#1D1E1C;}
</style>
<g>
	<path class="st0" d="M16.5,95c-0.2,2-0.4,9.7,0,13.4c0.3,3.8,2.3,11.6,2.7,12.8c0.4,1.2,0.3,9,0.2,10.7c-0.1,1.8,1.9,17.4,2.6,18.9
		c1.3,0,3,0.1,4.1,0c-0.1-1.8,0.5-10.4,0.4-12.9c-0.1-2.5-0.7-6.6-0.6-7.6c0.1-1,0.7-6.1,0.4-8.3c-0.3-2.1,0.6-16.1,0.6-17.9
		c0,1.8,1,15.7,0.6,17.9c-0.3,2.1,0.3,7.5,0.4,8.3c0.1,1-0.4,5.1-0.6,7.6c-0.1,2.5,0.4,11,0.4,12.9c1.1,0.1,2.7,0,4.1,0
		c0.6-1.5,2.7-17,2.6-18.9c-0.1-1.8-0.2-9.5,0.2-10.7c0.4-1.2,2.5-9,2.7-12.8c0.4-3.8,0.2-11.5,0-13.4c-0.2-2-0.4-6.2-0.7-8
		s-0.2-9,0.1-12.5c0.3-3.5,1.4-7.8,2.7-9.4c-1.3-2-6.4-3.7-7.6-4.3c-0.7-0.4-1.3-1.6-1.4-2.7c-0.1-0.5,0-1,0.1-1.5
		c-1,0.7-2,0.7-3.6,0.7c-1.7,0-2.7-0.1-3.6-0.7c0.1,0.4,0.1,1,0.1,1.5c-0.1,1.2-0.6,2.3-1.4,2.7c-1.2,0.5-6.4,2.2-7.6,4.3
		c1.3,1.6,2.5,5.9,2.7,9.4c0.2,3.5,0.3,10.7,0.1,12.5C17.1,88.8,16.9,93,16.5,95z"/>
	<path class="st1" d="M26.1,150.9c-1.1,0.1-2.7,0-4.1,0c-0.4-1.1-1.8-10.3-2.3-15.5c0-0.3-0.1-0.6-0.1-0.9c-0.1-0.7-0.1-1.3-0.1-1.7
		c0-0.3,0-0.6,0-0.7V132c0-0.4,0.1-1.2,0.1-2.1c1.8,0.3,4.9,0.1,6.5-0.4c-0.1,0.4-0.1,0.9-0.1,1.1s0,0.5,0,1.1
		c0,0.2,0.1,0.5,0.1,0.9c0.1,0.4,0.1,1,0.1,1.6c0,0.3,0.1,0.5,0.1,0.9c0.1,1.2,0.2,2.3,0.3,3.2C26.8,140.4,26.1,149,26.1,150.9z"/>
	<path class="st1" d="M34.5,132.8c0,0.4-0.1,1-0.1,1.7c0,0.2-0.1,0.5-0.1,0.9c-0.5,5.2-1.8,14.4-2.3,15.5c-1.3,0-3,0.1-4.1,0
		c0.1-1.8-0.5-10.4-0.4-12.9c0.1-1,0.1-2.1,0.3-3.2c0-0.3,0.1-0.5,0.1-0.9c0.1-0.5,0.1-1.1,0.1-1.6c0-0.3,0.1-0.6,0.1-0.9
		c0-0.4,0-0.9,0-1.1c0-0.1-0.1-0.5-0.1-1.1c1.6,0.5,4.7,0.7,6.5,0.4c0,0.9,0.1,1.6,0.1,2.1c0,0.1,0,0.1,0,0.1
		C34.5,132.2,34.5,132.4,34.5,132.8z"/>
	<path class="st0" d="M38.8,64.5c1.3,0.7,2.2,4.6,2.7,7.8c0.4,3.1,1.7,10.8,1.7,13.9c0,3.1-1,12.2-1.1,13c0.3,1.5,0.7,5.4,0.6,6.1
		s-1.6,3.2-2.1,3.5s-2.3,0.3-2.7,0.4c-0.3-0.1-0.3-0.7,0.1-1c0.4-0.1,1.1-0.2,1.3-0.3c0.1-0.3,1-2.3,1-2.6c0-0.3-0.7-0.9-1.2-0.4
		s-0.1,2.1-0.4,2.2c-0.4,0.1-0.7,0.1-1-0.7c-0.1-0.7,0-2.5,0.4-3.9c0.1-0.4,0.4-2,0.9-2.7c-0.1-1-0.6-12-1-15.5
		c-0.3-3.3-2.1-6.8-2-9C36.2,73.6,36.8,66.8,38.8,64.5z"/>
	<path class="st2" d="M23.5,58.3c1.5,0.7,2.7,0.9,3.5,0.9c0.9,0,2-0.1,3.5-0.9c-0.1-0.5,0-1,0.1-1.5c-1,0.7-2,0.7-3.6,0.7
		c-1.7,0-2.7-0.1-3.6-0.7C23.5,57.3,23.6,57.7,23.5,58.3z"/>
	<path class="st0" d="M20.2,42.4c0.7-1.5,3.7-3.7,6.8-3.7s6.1,2.2,6.8,3.7c0.7,1.5,0.5,4.9,0,7.6c-0.5,2.6-1.6,6.9-3.2,7.8
		c-1.6,0.9-2.8,1-3.6,1c-0.9,0-2.1-0.1-3.6-1c-1.6-0.9-2.7-5.2-3.2-7.8C19.6,47.3,19.5,43.8,20.2,42.4z"/>
	<g>
		<g>
			<path class="st0" d="M20.3,48.4c-0.3-0.4-0.7-1.3-1.1-1.2c-0.6,0.1-0.7,1.5-0.5,2.5c0.2,0.9,0.6,1.4,1,1.8c0.3,0.3,1,0.7,1.1,0.5
				C21,51.6,20.7,48.9,20.3,48.4z"/>
			<path class="st3" d="M19.4,49.6c-0.1-0.1-0.2-0.3-0.4-0.4c-0.1-0.1-0.1-0.1-0.1-0.3c0-0.1,0-0.2,0.1-0.3s0.1-0.2,0.2-0.2
				c0.1-0.1,0.2-0.1,0.4,0c0.2,0.1,0.4,0.2,0.4,0.4c0.1,0.1,0.1,0.4,0.1,0.6s-0.1,0.4-0.1,0.5S20,50,20,50.1s0.1,0.1,0.1,0.2
				c0.1,0.1,0.2,0.3,0.4,0.4c-0.1-0.1-0.3-0.2-0.4-0.4C20,50.2,20,50.2,20,50c0-0.1,0-0.2,0-0.3c0.1-0.2,0.1-0.4,0.1-0.5
				s0-0.3-0.1-0.4c-0.1-0.1-0.2-0.3-0.4-0.4c-0.1-0.1-0.3,0-0.4,0.1S19,48.5,19,48.6c0,0.1,0,0.1,0.1,0.3
				C19.2,49.3,19.3,49.5,19.4,49.6z"/>
		</g>
		<g>
			<path class="st0" d="M33.7,48.4c0.3-0.4,0.7-1.3,1.1-1.2c0.6,0.1,0.7,1.5,0.5,2.5c-0.2,0.9-0.6,1.4-1,1.8c-0.3,0.3-1,0.7-1.1,0.5
				C33,51.6,33.4,48.9,33.7,48.4z"/>
			<path class="st3" d="M34.6,49.6c0.1-0.1,0.2-0.3,0.3-0.5c0-0.1,0.1-0.1,0.1-0.3c0-0.1,0-0.1-0.1-0.2c-0.1-0.1-0.2-0.2-0.4-0.1
				c-0.1,0.1-0.3,0.2-0.4,0.4s-0.1,0.3-0.1,0.4c0,0.1,0.1,0.4,0.1,0.5s0.1,0.2,0,0.3c0,0.1-0.1,0.2-0.1,0.3
				c-0.1,0.1-0.3,0.2-0.4,0.4c0.1-0.1,0.2-0.3,0.4-0.4c0.1-0.1,0.1-0.1,0.1-0.2s0-0.1-0.1-0.2c-0.1-0.1-0.1-0.4-0.1-0.5
				c0-0.2,0-0.4,0.1-0.6c0.1-0.1,0.2-0.3,0.4-0.4c0.1-0.1,0.2-0.1,0.4,0c0.1,0.1,0.1,0.1,0.2,0.2c0.1,0.1,0.1,0.2,0.1,0.3
				S35,49.2,35,49.3C34.8,49.3,34.7,49.5,34.6,49.6z"/>
		</g>
	</g>
	<path class="st4" d="M38.1,109.5c0,0.4,0,1,0,1.4c0,0.1,0,0.3,0,0.4c0,0.4,0,1-0.1,1.3c-0.1,1.9-0.1,3.8-0.3,5.7
		c0,0.3,0,0.5-0.1,0.9c0,0.1,0,0.1,0,0.2c0,0.3-0.1,0.5-0.1,0.9c-0.1,0.5-0.1,1.1-0.1,1.6c-0.1,0.1-0.2,0.1-0.3,0.1
		s-0.1,0.1-0.1,0.1c-0.1,0-0.1,0.1-0.1,0.1c-2.2,1-6.1,1.1-9.2-0.4c0.3-2.8-0.3-12.8-0.4-13.8c0-0.1,0-0.1,0-0.1s0,0,0,0.1
		c0,0.4-0.3,4.4-0.4,8.1l0,0c0,0.2,0,0.4,0,0.6c0,0.1,0,0.2,0,0.3c-0.1,2-0.1,3.8,0,4.8c-3.3,1.6-7.3,1.3-9.4,0.4
		c-0.1,0-0.1-0.1-0.2-0.1c-0.1-0.1-0.2-0.1-0.3-0.1c-0.5-5-0.7-12.8-0.7-18.8c0-1,0-2,0-3c0-0.1,0-0.3,0-0.4c0-1.1,0.1-2.1,0.1-3
		c0-0.1,0-0.2,0-0.3s0-0.1,0-0.2s0-0.1,0-0.1c0-0.1,0-0.1,0-0.1c0-0.1,0-0.3,0-0.4l0,0c0-0.1,0-0.1,0-0.2v-0.1h9.7
		c0.7,0,1.1,0,1.1,0s6.4,0,9.6,0h1.3c0,0.1,0,0.1,0,0.2s0,0.3,0.1,0.5c0,0.1,0,0.3,0,0.4v0.1c0,0.1,0,0.2,0,0.3V97
		c0,0.1,0,0.2,0,0.4c0,0.2,0,0.3,0,0.4c0,0.6,0,1.3,0.1,1.9c0,0.4,0,1,0,1.5c0,0.4,0,0.9,0,1.3C38.1,104.7,38.1,107.2,38.1,109.5z"
		/>
	<path class="st5" d="M37.9,95.2c-0.3,0-0.7,0-1.3,0c0.4,3.9,0.4,18.6-0.4,27.2c0.4-0.1,0.9-0.3,1.2-0.5
		C38.2,113.8,38.3,99.1,37.9,95.2z"/>
	<path class="st5" d="M17.9,122.4c-0.2-0.1-0.4-0.1-0.6-0.2c-0.1,0-0.1-0.1-0.2-0.1c-0.1-0.1-0.2-0.1-0.3-0.1
		c-0.5-5-0.7-12.8-0.7-18.8c0-1,0-2,0-3c0-0.1,0-0.3,0-0.4c0-1.1,0.1-2.1,0.1-3c0-0.1,0-0.2,0-0.3s0-0.1,0-0.2s0-0.1,0-0.1
		c0-0.1,0-0.1,0-0.1c0-0.1,0-0.3,0-0.4l0,0c0-0.1,0-0.1,0-0.2v-0.1h1.3c-0.1,1-0.1,2.5-0.2,4.2c0,1.1-0.1,2.5-0.1,3.7
		C17.1,109.2,17.4,117,17.9,122.4z"/>
	<g>
		<path class="st6" d="M15.3,156.3c0.1,0.4,1.2,1.1,2.2,1.2c1,0.1,3.4-0.1,3.9-0.4c0.5-0.3,2.1-1.6,2.6-1.6s2.1-0.4,2.5-0.9
			c0.2-0.3,0.2-1.3-0.1-1.6c-0.4,0.4-1.6,1-2.2,1c-0.6,0.1-1.6,0.9-2.3,1.5c-0.7,0.6-3.1,0.9-4.1,0.6c-1-0.1-2.1-0.4-2.3-1
			C15.2,155.4,15.2,156,15.3,156.3z"/>
		<path class="st4" d="M15.3,155.2c0.2,0.5,1.3,0.7,2.3,1c1,0.1,3.3,0,4.1-0.6s1.7-1.4,2.3-1.5c0.6-0.1,1.8-0.6,2.2-1
			c0-0.3,0.4-2.2-0.1-3c-0.4,0.6-1.1,0.7-1.3,0.5c-0.2-0.2-0.6-1.3-1-1.6c-0.3-0.3-1.2-0.5-1.6-0.4c-0.4,0.1-1,0.5-1.3,1
			c-0.3,0.4-1.6,2-2.2,2.7c-0.7,0.5-3.2,2.6-3.4,2.8C15.4,155,15.4,155,15.3,155.2z"/>
		<path class="st1" d="M22.2,152.6c-0.1,0-0.2-0.1-0.2-0.2c0-0.4-0.1-0.6-0.4-0.7c-0.4-0.1-1.6-0.3-1.6-0.3c-0.1,0-0.2-0.1-0.1-0.2
			c0-0.1,0.1-0.2,0.2-0.1c0.1,0,1.3,0.1,1.7,0.3c0.5,0.1,0.7,0.5,0.7,1.2C22.5,152.5,22.3,152.6,22.2,152.6z"/>
		<path class="st1" d="M21.4,153.4c-0.1,0-0.2-0.1-0.2-0.2c0-0.4-0.1-0.6-0.4-0.7c-0.4-0.1-1.6-0.3-1.6-0.3c-0.1,0-0.2-0.1-0.1-0.2
			c0-0.1,0.1-0.2,0.2-0.1c0.1,0,1.3,0.1,1.7,0.3c0.5,0.1,0.7,0.5,0.7,1.2C21.7,153.2,21.6,153.4,21.4,153.4z"/>
		<path class="st1" d="M20.5,154c-0.1,0-0.2-0.1-0.2-0.2c0-0.4-0.1-0.6-0.4-0.7c-0.4-0.1-1.6-0.3-1.6-0.3c-0.1,0-0.2-0.1-0.1-0.2
			c0-0.1,0.1-0.2,0.2-0.1c0.1,0,1.3,0.1,1.7,0.3c0.5,0.1,0.7,0.5,0.7,1.2C20.7,154,20.6,154,20.5,154z"/>
	</g>
	<g>
		<path class="st6" d="M38.7,156.3c-0.1,0.4-1.2,1.1-2.2,1.2c-1,0.1-3.4-0.1-3.9-0.4c-0.5-0.3-2.1-1.6-2.6-1.6s-2.1-0.4-2.5-0.9
			c-0.2-0.3-0.2-1.3,0.1-1.6c0.4,0.4,1.6,1,2.2,1c0.6,0.1,1.6,0.9,2.3,1.5c0.7,0.6,3.1,0.9,4.1,0.6c1-0.1,2.1-0.4,2.3-1
			C38.9,155.4,38.9,156,38.7,156.3z"/>
		<path class="st4" d="M38.7,155.2c-0.2,0.5-1.3,0.7-2.3,1c-1,0.1-3.3,0-4.1-0.6c-0.7-0.6-1.7-1.4-2.3-1.5c-0.6-0.1-1.8-0.6-2.2-1
			c0-0.3-0.4-2.2,0.1-3c0.4,0.6,1.1,0.7,1.3,0.5c0.1-0.2,0.6-1.3,1-1.6c0.3-0.3,1.2-0.5,1.6-0.4c0.4,0.1,1,0.5,1.3,1s1.6,2,2.2,2.7
			c0.7,0.5,3.2,2.6,3.4,2.8C38.6,155,38.6,155,38.7,155.2z"/>
		<path class="st1" d="M31.8,152.6c-0.1,0-0.2-0.1-0.2-0.2c0-0.6,0.2-1,0.7-1.2c0.4-0.1,1.6-0.3,1.7-0.3s0.2,0.1,0.2,0.1
			c0,0.1-0.1,0.2-0.1,0.2s-1.3,0.1-1.6,0.3c-0.3,0.1-0.4,0.4-0.4,0.7C32,152.5,31.9,152.6,31.8,152.6z"/>
		<path class="st1" d="M32.6,153.4c-0.1,0-0.2-0.1-0.2-0.2c0-0.6,0.2-1,0.7-1.2c0.4-0.1,1.6-0.3,1.7-0.3s0.2,0.1,0.2,0.1
			c0,0.1-0.1,0.2-0.1,0.2s-1.3,0.1-1.6,0.3c-0.3,0.1-0.4,0.4-0.4,0.7C32.8,153.2,32.6,153.4,32.6,153.4z"/>
		<path class="st1" d="M33.5,154c-0.1,0-0.2-0.1-0.2-0.2c0-0.6,0.2-1,0.7-1.2c0.4-0.1,1.6-0.3,1.7-0.3s0.2,0.1,0.2,0.1
			c0,0.1-0.1,0.2-0.1,0.2s-1.3,0.1-1.6,0.3c-0.3,0.1-0.4,0.4-0.4,0.7C33.7,154,33.6,154,33.5,154z"/>
	</g>
	<path class="st4" d="M38.6,64.3c3.5,2.2,3.7,12.4,4.1,15.1c-0.7,1.6-3.1,2.7-5.4,2.7c-0.3-1.1-0.9-4.3-1.4-6.2
		C35.5,74,35.7,65.1,38.6,64.3z"/>
	<path class="st2" d="M38.1,100.8c-5.3,4.1-19.7-0.9-22.1-1.2c0-0.4,0.1-2,0.1-4.4l0,0v-0.1c2,0,10.9,0,10.9,0s8.9,0,10.9,0
		C38,96.4,38.1,98.3,38.1,100.8z"/>
	<path class="st2" d="M38.1,102.5c0-0.4,0-0.9,0-1.3c0-0.5,0-1,0-1.5c0-0.7-0.9,0.1-0.9,0.7c0,0.4,0,0.9,0,1.3c0,2.1,0,4.6-0.1,7
		c0,0.4,0,1,0,1.4c0,0.1,0,0.3,0,0.4c0,0.4,0,1-0.1,1.3c-0.1,1.9-0.7,8-1,8.4c-1.6,2.7-8.6,1.3-8.6,1.4c3.2,1.6,7,1.4,9.2,0.4
		c0.1,0,0.1-0.1,0.1-0.1c0.1,0,0.1-0.1,0.1-0.1c0.1-0.1,0.2-0.1,0.3-0.1c0.1-0.4,0.1-1,0.1-1.6c0-0.2,0.1-0.5,0.1-0.9
		c0-0.1,0-0.1,0-0.2c0-0.2,0.1-0.5,0.1-0.9c0.1-1.8,0.2-3.7,0.3-5.7c0-0.4,0-0.9,0.1-1.3c0-0.1,0-0.3,0-0.4c0-0.4,0-1,0-1.4
		C38.1,107.2,38.1,104.7,38.1,102.5z"/>
	<path class="st7" d="M36.6,78.4c0.2,3.2,1.7,19.6,1.7,21.1c-0.1,0.1-0.2,0.1-0.3,0.2c-0.4,0.3-0.7,0.5-1.3,0.7
		c-3.5,1.6-9.3,1-14,0.1c-2.3-0.4-4.4-1-5.7-1.2c-0.5-0.1-1-0.1-1.2-0.2c0-0.4,0-1.7,0.1-3.6l0,0c0.1-2.5,0.2-5.8,0.3-9.2
		c0.1-4.9,0.4-9.8,0.4-11.2c-0.3-0.7-0.4-1.7-0.4-2.7c-0.1-1.6,0-3.4-0.2-5.1c-0.1-1.1-0.4-2.1-1-3c1-1.3,5.5-2.9,6.7-3.3
		c0.5,0.7,3,2.1,4.9,2.1s4.4-1.5,4.9-2.1c1.3,0.4,5.8,2.1,6.7,3.3C36.9,67.7,36.1,76.5,36.6,78.4z"/>
	<path class="st2" d="M36.4,98.7c-2.5,3-9.7,1.8-14.3,1c-2.3-0.4-4.4-1-5.7-1.2c-0.1,0-0.2-0.1-0.3-0.1c0,0.3,0,0.5,0,0.7
		c0.2,0,0.7,0.1,1.2,0.2c1.3,0.3,3.3,0.7,5.7,1.2c4.7,0.9,10.4,1.5,14-0.1c0.4-0.2,0.9-0.4,1.3-0.7c0.1-0.1,0.2-0.1,0.3-0.2
		c0-1.5-1.5-17.8-1.7-21.1C35.8,85.1,37.9,96.9,36.4,98.7z"/>
	<path class="st4" d="M22.1,62.6c0.5,0.7,3,2.1,4.9,2.1s4.4-1.5,4.9-2.1c1.1,0.4,6.4,1.3,5.8,6.1c0.1-0.4,0.7-4.1,1-4.4
		c-1-1.3-5.5-2.9-6.7-3.3c-0.5,0.7-3,2.1-4.9,2.1s-4.4-1.5-4.9-2.1c-1.3,0.4-5.8,2.1-6.7,3.3c0.2,0.4,1,2.9,1.2,3.3
		C17.2,63.1,21,63.1,22.1,62.6z"/>
	<path class="st2" d="M25.9,94.3c0,0.3,0,0.6-0.1,1c-0.1,1.6-0.9,3.1-1.9,4.4c-0.1,0.1-0.1,0.1-0.2,0.3c-0.3,0.3-0.5,0.5-1,0.7
		c-0.5,0.4-1.1,0.7-1.6,1c-0.1,0.1-0.1,0.1-0.3,0.1c-0.6,0.2-1.3,0.4-2,0.4c-0.4,0.3-1.3,0.7-1.8,1c-0.1,0-0.1,0.1-0.2,0.1
		c-0.2,0-0.5,0-1-0.1c0-1,0-2,0-3c0-0.1,0-0.3,0-0.4c0-1.1,0.1-2.1,0.1-3c0-0.1,0-0.2,0-0.3s0-0.1,0-0.2s0-0.1,0-0.1
		c0-0.1,0-0.1,0-0.1c0-0.1,0-0.3,0-0.4l0,0c0.1-2.5,0.2-5.8,0.3-9.2c0.4-0.1,1-0.1,1.5-0.1c0.6,0,1.3,0.1,1.8,0.2
		c2.2,0.4,4.1,1.9,5.2,3.8c0.4,0.7,0.7,1.6,1,2.5c0,0.1,0.1,0.3,0.1,0.4l0,0l0,0C25.9,93.6,25.9,93.9,25.9,94.3z"/>
	<g>
		<g>
			<path class="st1" d="M25.3,92.5L25.3,92.5L25.3,92.5c0-0.1-0.1-0.3-0.1-0.4v0.1V92c-0.1-0.9-0.4-1.7-0.9-2.5
				c-1.1-1.8-2.9-3.3-5-3.7c-0.5-0.1-1.2-0.1-1.7-0.1s-1,0.1-1.6,0.1c-2,0.4-3.7,1.6-4.9,3.2c-0.7,1-1.2,2.2-1.3,3.5
				c0,0.1,0,0.2,0,0.3c0,0.1,0,0.4,0,0.5c0,1.8,0.6,3.5,1.7,4.9l0,0c0.1,0.1,0.1,0.2,0.3,0.3c0.7,0.7,1.5,1.3,2.5,1.8
				c0.1,0.1,0.2,0.1,0.3,0.1c1,0.4,1.9,0.6,3.1,0.6c1,0,2-0.2,2.9-0.5c0.1,0,0.1-0.1,0.3-0.1c1-0.4,1.8-1,2.5-1.7
				c0.1-0.1,0.1-0.1,0.2-0.3c1.2-1.4,1.8-3.2,1.8-5.1C25.3,93.1,25.3,92.8,25.3,92.5z"/>
			<path class="st6" d="M10.6,93.4c0.1,0.1,0.1,0.2,0.1,0.3c0,1.3,0.6,2.2,1,2.7l0,0c0.1,0.2,0.1,0.3,0.1,0.4l0,0
				c-0.1,0.5,0,1.6,0.1,1.8l0,0c0.7,0.7,1.5,1.3,2.5,1.8c0.4,0.1,1.2-0.2,1.6-0.5l0,0c0.1-0.1,0.2-0.1,0.4-0.1l0,0
				c0,0,0.6,0.1,1.4,0.1c0.7,0,1.3-0.1,1.4-0.1c0.1,0,0.2,0,0.4,0c0.4,0.3,0.9,0.5,1.5,0.6c1-0.4,1.8-1,2.5-1.7
				c0.1-0.4,0.4-1.3,0.2-1.9l0,0c0-0.1,0.1-0.2,0.1-0.4c0.4-0.7,0.6-2,0.7-2.7c0.1-0.1,0.1-0.2,0.2-0.4c0.3-0.1,0.7-0.7,0.7-1.5
				c-0.1-0.9-0.4-1.7-0.9-2.5c-0.3-0.3-0.7-0.7-1.3-0.9c-0.1-0.1-0.2-0.1-0.4-0.2c-0.4-0.6-1.3-1.6-2.3-1.8
				c-0.1-0.1-0.3-0.1-0.4-0.2c-0.1-0.3-0.4-0.4-0.6-0.6c-0.6-0.1-1.3-0.1-1.8-0.1s-1,0.1-1.6,0.1c-0.3,0.1-0.7,0.4-1,0.6
				c-0.1,0.1-0.2,0.1-0.4,0.2c-0.7,0.1-1.8,0.9-2.3,1.7c-0.1,0.1-0.3,0.2-0.4,0.3l0,0c-0.3,0.1-0.5,0.2-0.9,0.3
				c-0.7,1-1.2,2.2-1.3,3.5C10,92.8,10.3,93.2,10.6,93.4z M17.3,87.2c0.1,0.1,0.2,0.3,0.2,0.4c0,0.5,0,1.6,0,2
				c0,0.1-0.1,0.2-0.2,0.3c-0.5,0.2-1.8,1.3-2.3,1.6c-0.1,0.1-0.3,0.1-0.4,0.1s-0.1,0-0.1-0.1c-0.1-0.1-0.4-0.1-0.7-0.1
				c-0.4-0.1-1-0.2-1.2-0.3c-0.1-0.1-0.2-0.1-0.3-0.2l0,0l0,0l0,0l0,0l0,0l0,0l0,0l0,0l0,0l0,0l0,0l0,0l0,0l0,0l0,0l0,0l0,0l0,0l0,0
				l0,0l0,0l0,0l0,0l0,0l0,0l0,0l0,0l0,0l0,0l0,0l0,0l0,0l0,0l0,0l0,0l0,0l0,0l0,0l0,0l0,0l0,0c-0.2-0.7-0.1-1.7,0.1-2.2
				c0-0.1,0.1-0.1,0.1-0.2l0,0c0,0,0,0,0-0.1c0.1,0,0.1-0.1,0.1-0.1l0,0c0.6-1,1.9-1.6,2.5-1.6l0,0l0,0l0,0H15
				C15.7,86.6,16.8,86.9,17.3,87.2z M22.6,88.4L22.6,88.4c0.1,0.1,0.1,0.1,0.1,0.2l0,0l0,0c0,0.1,0,0.1,0,0.2l0,0l0,0l0,0
				c0.1,0.5,0.1,1.6-0.1,2.1c-0.1,0.1-0.1,0.1-0.2,0.1c-0.4,0.1-1.8,0.4-2.1,0.5l0,0c-0.1,0-0.3,0-0.4-0.1c-0.4-0.4-1.8-1.4-2.3-1.6
				c-0.1-0.1-0.1-0.3-0.1-0.4c0-0.5,0-1.6,0-1.9c0.1-0.1,0.1-0.2,0.1-0.4c0.5-0.3,1.4-0.5,2-0.6c0.1,0,0.4,0.1,0.7,0.1
				C21.3,86.9,22.2,87.8,22.6,88.4z M19.2,94.8c0.3-0.5,0.9-2.1,1-2.7l0,0c0.1-0.1,0.1-0.2,0.3-0.3c0.3-0.1,1.5-0.4,1.9-0.5
				c0.1,0,0.3,0,0.4,0c0.5,0.5,1.2,1.4,1.4,2.1l0,0c0.1,0.1,0.1,0.3,0,0.4c-0.1,0.5-0.2,2-0.7,2.8c-0.1,0.1-0.2,0.2-0.3,0.3
				c-0.5,0.2-1.5,0.7-2.2,0.7l0,0c-0.1-0.1-0.1-0.1-0.2-0.1c-0.2-0.4-1-1.7-1.4-2.1C19.3,95,19.2,94.8,19.2,94.8z M14.4,97.7
				c0-0.1,0-0.3,0-0.4c0.3-0.4,1.1-1.8,1.4-2.1C15.9,95,15.9,95,16,95c0.3,0,0.9,0.1,1.4,0.1s1.1,0,1.5-0.1c0,0,0,0-0.1,0
				c0.1,0,0.3,0.1,0.4,0.2c0.4,0.4,1,1.6,1.3,2c0.1,0.1,0.1,0.2,0.1,0.4c-0.2,0.7-1,1.6-1.4,2.1c-0.1,0.1-0.2,0.1-0.4,0.1
				c-0.1,0-0.7,0.1-1.4,0.1c-0.5,0-1.1-0.1-1.3-0.1c-0.1,0-0.4-0.1-0.4-0.2l0,0C15.2,99,14.6,98.2,14.4,97.7z M10.8,93.7
				c0-0.1,0.1-0.4,0.1-0.5c0.2-0.6,0.7-1.6,1.4-2l0,0l0,0l0,0l0,0l0,0l0,0l0,0l0,0l0,0l0,0l0,0c0.1-0.1,0.3-0.1,0.4-0.1
				c0.5,0.1,1.6,0.4,1.9,0.5c0.1,0.1,0.2,0.1,0.3,0.3c0.1,0.6,0.6,2.1,0.9,2.7c0,0.1,0,0.3-0.1,0.5c-0.4,0.5-1,1.6-1.3,1.9
				c-0.1,0.1-0.2,0.1-0.4,0.1c-0.7-0.1-1.5-0.3-2-0.6c-0.1-0.1-0.2-0.2-0.4-0.4C11.2,95.9,10.7,94.9,10.8,93.7z"/>
		</g>
		<path class="st8" d="M12.8,91.9c1.4-2.1,3.6-3.5,6.2-4.1c0.6-0.1,1.3-0.1,1.9-0.1c0.1,0,0.4,0,0.5,0c0.3,0,0-0.4-0.9-0.7
			c-0.4-0.2-1-0.4-1.6-0.5c-0.5-0.1-1.1-0.1-1.6-0.1c-0.4,0-1,0.1-1.4,0.1c-1.9,0.4-3.5,1.5-4.6,3c-0.7,1-1.2,2.1-1.3,3.4
			c0,0.1,0,0.1,0,0.3c0,0.1,0,0.3,0,0.4c0,0.6,0.1,1.3,0.2,1.8c0.2,1,0.7,1.6,0.7,1.4s0-0.3,0-0.3C11.4,94.8,12,93.2,12.8,91.9z"/>
	</g>
	<path class="st9" d="M20,41.2c-0.1-1.6,2.8-3.9,7-3.7s6,1.6,7.3,0c0.2,1.1-1.1,1.8-0.5,2.5c0.3,0.3,1,0.5,1.8,0.2
		C35.2,40.8,35,41.7,35,42c-0.1,1.2-0.2,4.4-0.7,5.9c-0.2,0.6-0.7,1.6-1.2,2c0.1-1.7,0.1-5.1-0.4-5.4C32.1,44,28,43,27.2,43
		c0.7,0.7,1.7,1.3,2.5,1.5c-1.5,0-6.7-1.8-7.7-1.3c-0.9,0.6-1.4,5.5-1.6,7c-0.6-0.7-1.6-4.8-1.3-7.7C19.3,41.3,20,41.2,20,41.2z"/>
	<path class="st0" d="M14.5,65.3c-1,1.2-5.8,8.1-6.4,13.8c-0.7,5.7,0.7,16,1.2,17.3c0.4,1.3,3,4.4,3.8,4.9c0.7,0.4,3,1,3.5,0.9
		c0.5-0.1,2-1,2.3-1.3c-0.3-0.4-1.5-0.4-2-0.1c-0.7-0.1-1.8-1-2.5-1c-0.1-0.4,0-0.9,0.3-0.9c0.3,0.1,1.5,0.7,2,0.7
		c0.5,0,0.9-0.6,0.1-1.2c-0.9-0.5-2.7-2.1-3.3-2.5c-0.7-0.3-1.2-0.4-1.4-0.4c0.2-1.1,1-13.8,1-14.6c0.9-1.6,2.1-5.8,2.9-6.6
		C16.1,72.4,17.4,67.5,14.5,65.3z"/>
	<path class="st4" d="M15.4,64.3c-2,1.6-7,9.5-7.5,12.2c0.7,1.6,3.5,3.8,5.8,3.8c0.4-1,2.9-3.5,3.4-5.3
		C16.8,69.8,16.8,64.8,15.4,64.3z"/>
	<path class="st4" d="M26.1,133.8c0,0.3,0.1,0.5,0.1,0.9c-1.2,0.4-3,0.7-4.7,0.7c-0.6,0-1.3,0-1.8-0.1c0-0.3-0.1-0.6-0.1-0.9
		C21.6,134.8,24.9,134.5,26.1,133.8z"/>
	<path class="st4" d="M34.3,134.5c0,0.2-0.1,0.5-0.1,0.9c-0.5,0.1-1.2,0.1-1.8,0.1c-1.7,0-3.5-0.2-4.7-0.7c0-0.3,0.1-0.5,0.1-0.9
		C29.1,134.5,32.4,134.8,34.3,134.5z"/>
	<path class="st4" d="M25.9,131.5c0,0.2,0.1,0.5,0.1,0.9c-1.2,0.4-2.9,0.6-4.4,0.6c-0.7,0-1.5-0.1-2-0.1c0-0.3,0-0.6,0-0.7V132
		C21.3,132.2,24.4,132,25.9,131.5z"/>
	<path class="st4" d="M34.5,132.8c-0.6,0.1-1.3,0.1-2.1,0.1c-1.6,0-3.3-0.2-4.4-0.6c0-0.3,0.1-0.6,0.1-0.9c1.5,0.5,4.7,0.7,6.4,0.4
		c0,0.1,0,0.1,0,0.1C34.5,132.2,34.5,132.4,34.5,132.8z"/>
	<path class="st2" d="M26.6,121.8c-3.3,1.6-7.3,1.3-9.4,0.4c-0.1,0-0.1-0.1-0.2-0.1c-0.1-0.1-0.2-0.1-0.3-0.1c0-0.1,7.6,0.7,8.5-1.3
		c0.7-1.7,1.7-11.8,1.8-12.6c0,0.4-0.3,4.4-0.4,8.1l0,0c0,0.2,0,0.4,0,0.6c0,0.1,0,0.2,0,0.3C26.5,119,26.5,120.8,26.6,121.8z"/>
</g>
</svg>
