<?xml version="1.0" encoding="utf-8"?>
<!-- Generator: Adobe Illustrator 22.1.0, SVG Export Plug-In . SVG Version: 6.00 Build 0)  -->
<svg version="1.1" id="Capa_1" xmlns="http://www.w3.org/2000/svg" xmlns:xlink="http://www.w3.org/1999/xlink" x="0px" y="0px"
	 viewBox="0 0 92.2 160" style="enable-background:new 0 0 92.2 160;" xml:space="preserve">
<style type="text/css">
	.st0{fill:#C4C3C3;}
	.st1{fill:#F7B480;}
	.st2{fill:#C75198;}
	.st3{fill:#C8388C;}
	.st4{fill:#568BC2;}
	.st5{fill:#2E79BB;}
	.st6{fill:#E6E5E5;}
	.st7{fill:#C3BC1F;}
	.st8{fill:#FCC643;}
	.st9{fill:#404040;}
	.st10{opacity:0.2;}
	.st11{fill:#803223;}
	.st12{fill:#601310;}
</style>
<g>
	<path class="st0" d="M20.1,15.9c-2,0.6-2.7,4.2-2.2,6.5c0.5,2.3,2.5,7,4.3,6.2c-1.1,1.8-1.4,3.9-1.2,4.8c0.1,1.1,1.6,3.7,5.9,3.5
		c2.2-0.1,4-0.5,5.2-1.9c0.7-0.8,0.8-1.7,0.8-2.9c0-0.7-1.1-2.7-1.4-3.1c1.4-0.8,3-2,3.9-4.4c0.4-1.2,0.9-6.7-0.9-9
		C31,11.4,21.7,11,20.1,15.9z"/>
	<path class="st1" d="M45.5,92.6c-0.9-2.4-1.6-5-1.3-8.5c0.2-3.5,1.4-15.9,0.7-20.1c-0.7-4.3-3.9-23.5-4.7-24.7
		c-0.8-1.2-4.5-3.1-5.6-3.5c-0.8-0.3-2.4-0.8-4-2c-0.3-0.3-0.5-0.7-0.5-1.3c0-0.3,0-0.6,0.1-1c-1.3,0-3.3,0-3.3,0v0l0,0
		c0,0-1.9,0-3.3,0c0.1,0.3,0.1,0.6,0.1,0.8c0,0.7-0.2,1.2-0.5,1.4c-1.6,1.2-3.3,1.7-4.1,2c-1.2,0.4-4.8,2.3-5.6,3.5
		c-0.8,1.2-8.2,20.1-8.8,24.3c-0.1,0.6-0.1,1.2-0.2,2l6.2-0.1c0-2.4,5.8-10.6,6.2-12.5c0.4,3.4-0.6,14.4-1,17.2
		c-0.4,2.8-1,16.7-0.8,18.5c0.3,1.7,1.4,14,1.8,17.2c0.4,3.2,0.8,8.8,0.6,11.4c-0.3,2.6-0.7,12.2-0.5,14.3c0.4,5,3.5,11.2,3.4,13.9
		c-0.1,2.7,0.8,6.1-0.2,7.9c-1.1,1.8-3.1,2.6-2.8,3.5c0.3,0.9,7.7,1.1,8.5,0.7c0.8-0.3,0.8-1.4,0.3-2.5c-0.4-1.1-0.6-3.8-0.6-5.8
		c0-2,0.3-7,0.5-8.7c0.3-1.6,0.2-6,0.3-8c0.1-2-0.7-6.2-0.6-7.3c0.1-1.1,1.2-5,0.8-6.5c-0.3-1.5,0-10.7,0-13.2
		c0-2.5-0.3-13.7-0.3-14.5c0.5-0.1,0.7-0.1,1.2,0c0.1,0.8-0.3,11.9-0.3,14.5c0,2.5,0.3,11.8,0,13.2c-0.3,1.5,0.8,5.3,0.8,6.5
		c0.1,1.1-0.7,5.4-0.6,7.3c0.1,2,0,6.3,0.3,8c0.3,1.6,0.5,6.6,0.5,8.7c0,2-0.2,4.7-0.6,5.8c-0.4,1.1-0.5,2.2,0.3,2.5
		c0.8,0.3,8.2,0.2,8.6-0.7c0.3-0.9-1.7-1.7-2.8-3.5c-1.1-1.8-0.2-5.2-0.2-7.9c-0.1-2.7,3-8.9,3.4-13.9c0.2-2.1-0.3-11.7-0.5-14.3
		c-0.3-2.6,0.2-8.2,0.6-11.4c0.4-3.2,1.5-15.5,1.8-17.2c0.3-1.7-0.4-15.7-0.8-18.5c-0.4-2.8-1.4-13.8-1-17.2c0.4,2,2.1,11.3,2,13.2
		c-0.1,1.9,0.9,9.7,1,11.3c0.1,1.6,0.7,11.5-0.1,12.7c-0.8,1.2-0.5,2.4-0.7,4.5c-0.2,1.8,0.8,1.8,1.2,1.4c0.3-0.4-0.1-1.8,0.6-2.2
		c0.7-0.4,1.5,1.6,1.9,3c0.4,1.4,0.2,2.7,0.5,3c1,0.8,1.2-0.4,1.9-1.4C46,97.1,46.4,95,45.5,92.6z"/>
	<path class="st2" d="M38.9,90.2c0.1-2.1,0.2-8-0.5-10.4c-3,0-20.5,0-23.5,0c-0.6,2.4-0.5,8.3-0.5,10.4c0.1,2.1,2.3,22.3,2.5,25.3
		c0.1,3-1.2,13.8-1.1,16.3c0.1,2.6,1.7,11,2.1,13.2c0.4,2.2,0.5,7.1,0.5,8.7c1-0.8,5.8-0.7,8.1,0c0-1.5,0-20,0.2-20.8
		c0.2-0.7-0.7-6.4-0.6-7.3c0.1-0.9,0.7-6.7,0.6-7.8c-0.1-1.1-0.6-26.7-0.6-26.7h1.2c0,0-0.4,25.7-0.6,26.7c-0.1,1.1,0.5,6.9,0.6,7.8
		c0.1,0.9-0.8,6.6-0.6,7.3c0.2,0.7,0.2,19.3,0.2,20.8c2.3-0.7,7.1-0.8,8.1,0c0-1.6,0.1-6.5,0.5-8.7c0.4-2.2,2-10.6,2.1-13.2
		c0.1-2.6-1.2-13.4-1.1-16.3C36.6,112.6,38.9,92.3,38.9,90.2z"/>
	<path class="st3" d="M26.7,131.3c-0.2-2-0.6-5-0.5-5.7c0.1-0.9,0.7-6.7,0.6-7.8c-0.1-1.1-0.6-26.7-0.6-26.7l1.2,0
		c0-0.5,0-0.7,0-0.7l-2,0c0,0,0.4,25.7,0.6,26.7c0.1,1.1-0.5,6.9-0.6,7.8c-0.1,0.9,0.8,6.6,0.6,7.3c-0.2,0.7,0.3,18.5-1,19.4
		c-1.7,1.2-4.9,0.6-6.6,1c0,0.4,0,0.8,0,1c1-0.8,5.8-0.7,8.1,0c0-1.5,0-20,0.2-20.8c0-0.1,0-0.4,0-0.7
		C26.7,132.1,26.7,131.8,26.7,131.3z"/>
	<path class="st4" d="M44.8,87.2c-1.2,1.5-4.7,1.1-5.1,0.9c0-1.6-1.5-21.1-1.2-22.2c-0.4-1.8-1.7-11.3-1.7-11.3s0.8,10.5,1,12.4
		c0.2,1.9,1,11.4,1.1,12.9c-1.6,1.1-10.8,0.6-12.1,0.6c-1.4,0-10.5,0.5-12.1-0.6c0-1.1,0.4-5.9,0.7-9.4c0.2-1.6,0.3-3,0.4-3.6
		c0.1-0.5,0.2-1.7,0.3-3.2c0.3-3.8,0.7-9.2,0.7-9.2s-3.2,5.3-4.9,8.6c-0.5,1-0.9,1.8-1,2.3c0,0,0,0,0,0.1l-6.8,0.1
		c0-0.8,0-1.6,0.1-2.2c0-0.2,0.1-0.5,0.3-1c1.4-4.8,8.2-23,8.8-23.7c0.7-0.7,6.3-3.5,8.2-4c0.4,1.5,2.5,3.2,5.2,3.3
		c2.7-0.1,4.8-1.7,5.2-3.3c1.9,0.5,7.6,3.3,8.2,4c0.7,0.7,4.8,23.4,4.9,25.1C45.5,69.6,44.5,85.5,44.8,87.2z"/>
	<path class="st3" d="M38.9,90.2c0.1-2.1,0.2-8-0.5-10.4c-0.2,0-0.4,0-0.6,0c0.5,2.7,0.4,7.7,0.3,9.6c-0.1,2.1-2.3,22.3-2.5,25.3
		c-0.1,3,1.2,13.8,1.1,16.3c-0.1,2.6-1.7,11-2.1,13.2c-0.4,2.2-0.4,6.8-1.9,7.4c-1.2,0.5-3.6,0.4-6,1c0,0,0,0,0-0.1c0,0.5,0,0.8,0,1
		c2.3-0.7,7.1-0.8,8.1,0c0-1.6,0.1-6.5,0.5-8.7c0.4-2.2,2-10.6,2.1-13.2c0.1-2.6-1.2-13.4-1.1-16.3C36.6,112.6,38.9,92.3,38.9,90.2z
		"/>
	<path class="st5" d="M37.5,64.7c-0.4-5.6-0.8-10.1-0.8-10.1s0.9,22.2,0.2,23.6c-0.9,1.7-10.4,1.6-11.7,1.6c-1.1,0-7.5,0.3-10.6-0.2
		c0,0.1,0,0.2,0,0.3c1.6,1.1,10.8,0.6,12.1,0.6c1.4,0,10.5,0.5,12.1-0.6C38.8,78.4,38,68.9,37.8,67C37.7,66.6,37.6,65.8,37.5,64.7z"
		/>
	<path class="st6" d="M26.8,38c2.7-0.1,4.8-1.7,5.2-3.3C33.5,40,26.8,41.4,26.8,38z"/>
	<path class="st7" d="M26.6,157.3c0-1.9-0.5-3.5-3.3-3.5c-2.8,0-6.4,1-6.4,3.5C19.6,157.3,26.6,157.3,26.6,157.3z"/>
	<path class="st8" d="M23.2,154.5c-2.5,0-5.6,0.8-6.2,2.8c0,0-0.1,0-0.1,0c0-2.5,3.5-3.5,6.4-3.5c2.8,0,3.3,1.6,3.3,3.5c0,0,0,0,0,0
		C26.4,155.7,25.7,154.5,23.2,154.5z"/>
	<path class="st9" d="M17.5,157.8h8.5c0.4,0,0.8-0.2,0.8-0.4c0-0.2-0.4-0.4-0.8-0.4h-8.5c-0.4,0-0.8,0.2-0.8,0.4
		C16.7,157.6,17.1,157.8,17.5,157.8z"/>
	<path class="st6" d="M26.7,38c-2.7-0.1-4.8-1.7-5.2-3.3C19.9,40,26.7,41.4,26.7,38z"/>
	<path class="st7" d="M26.9,157.3c0-1.9,0.5-3.5,3.3-3.5c2.8,0,6.4,1,6.4,3.5C33.9,157.3,26.9,157.3,26.9,157.3z"/>
	<path class="st8" d="M30.3,154.5c2.5,0,5.6,0.8,6.2,2.8c0,0,0.1,0,0.1,0c0-2.5-3.5-3.5-6.4-3.5c-2.8,0-3.3,1.6-3.3,3.5c0,0,0,0,0,0
		C27.1,155.7,27.8,154.5,30.3,154.5z"/>
	<path class="st9" d="M36,157.8h-8.5c-0.4,0-0.8-0.2-0.8-0.4c0-0.2,0.4-0.4,0.8-0.4H36c0.4,0,0.8,0.2,0.8,0.4
		C36.8,157.6,36.4,157.8,36,157.8z"/>
	<path class="st10" d="M30,31.6c-0.1,0.3-0.1,0.7-0.1,1c-0.9,0.6-1.9,1.1-3.1,1.1c-1.3,0-2.4-0.5-3.3-1.2c0-0.3,0-0.5-0.1-0.8
		c1.3,0,3.3,0,3.3,0l0,0v0C26.8,31.6,28.7,31.6,30,31.6z"/>
	<path class="st1" d="M33.4,18c-0.1-2.2-3.9-4.7-6.6-4.7s-6.5,2.5-6.6,4.7c-0.1,2.2-0.5,9.6,0.7,11c1.2,1.4,2.9,3.9,5.9,3.9
		c2.9,0,4.6-2.5,5.9-3.9C33.9,27.6,33.5,20.2,33.4,18z"/>
	<path class="st0" d="M19.3,19.9c0.2,1.6,1.2,4,1.4,4.7c0-2.2-0.1-4.9,0.9-6.6c1.4,1.6,6.1,3,7.9,3c1.8,0.1,3.6,0,3.9,0
		c0,0.7,0.2,3.7,0.1,4.2c0.4-0.2,0.9-3.9,0.6-5.4c-0.4-1.5-0.1-4.7-4-5.9c-3.9-1.3-6.7-0.9-8.6,1.1C19.6,17.1,19.2,18.8,19.3,19.9z"
		/>
	<path class="st5" d="M16.1,48.8c0.9,2.3,2,6.2,3.5,6.9c1.5,0.7,12.8,0.7,14.5,0c1.8-0.7,2.2-3.9,2.4-6.9c0.2,4.2,0.1,6.6,0.4,8.9
		c0.2,2.2,0.4,4,0.4,4.8c-0.5-1.7-1.4-2.5-2.6-2.9c-0.8-0.2-13.3-0.4-15.4,0.6c-2.1,1.1-2.8,6.3-3.7,8.1
		C15.9,65.2,16.7,54.6,16.1,48.8z"/>
	<path class="st10" d="M35.9,71.3c-0.2,0.9-4.6,4.2-5.2,4.6c-0.6,0.4-5.4,3.1-6.3,2.9c-0.9-0.2-3-4.1-3.4-5.2
		c-0.3-0.8-1.1-2.6-1.1-3.5c-0.7,0-2.4,0.2-4.5,0.3c0.2-1.6,0.3-3,0.4-3.6c0.1-0.5,0.2-1.7,0.3-3.2c2.7,0.4,4.9,0.7,5.3,0.7
		c0,0.1,0.1,0.2,0.1,0.4c1.9,0,3.6,0,4-0.2c0.4-0.3,2.1-1.2,2.7-0.3c0.6-0.4,1.1-0.7,1.3-0.8c0.3-0.2,1.3,0.7,2.1,1.5
		c0.4,0.4,0.8,0.8,1,1.1C33.2,67,36.2,70.4,35.9,71.3z"/>
	<g>
		<path class="st11" d="M35.5,71.2c-0.2,0.8-4.6,3.9-5.2,4.3c-0.6,0.4-5.3,2.9-6.2,2.7c-0.8-0.1-2.5-4.1-3-5.1
			c-0.4-1-1.3-3.4-0.9-3.7c0.4-0.3,3.2-1.9,4.4-2.7c1.2-0.7,3.9-2.5,4.4-2.7c0.3-0.1,1.3,0.6,2.1,1.4c0.4,0.4,0.7,0.7,1,1
			C32.8,67.2,35.7,70.4,35.5,71.2z"/>
		<path class="st12" d="M31.1,65.4c-0.8-0.8-1.7-1.5-2.1-1.4c-0.5,0.2-3.2,1.9-4.4,2.7c-1.2,0.7-4,2.4-4.4,2.7
			c-0.3,0.2,0,1.4,0.4,2.4c0.2,0.4,0.5,0.8,0.7,1.1c0.7,0.8,4.7-1.4,5.9-2.2c1.2-0.7,5-3.3,4.5-4.2C31.7,66.2,31.4,65.8,31.1,65.4z"
			/>
	</g>
	<path class="st1" d="M21.2,65.3c1.9,0,3.5,0,4-0.2c0.4-0.2,2.2-1.2,2.7-0.2c0.6,1,1.1,2.2,1,2.4c-0.1,0.2-0.3,0.5-0.5,0.4
		c0.5,0.8-0.4,1.8-1,1.4c0.2,0.5-1,1.4-1.5,0.6c-0.2,1-1.2-0.2-2.2-0.8c-0.7-0.4-2-0.1-2.8,0.5c-0.9,0.6-1.9-0.3-2.1-0.1
		C17.8,68,17.6,65.4,21.2,65.3z"/>
	<path class="st4" d="M20.4,69.9c1.1-1.2,0.9-4.6,0.7-5C20,64.9,5.5,62.8,4.3,63c0,0-1.3,6.3,0.3,7.3C7,71.7,19.3,69.7,20.4,69.9z"
		/>
</g>
</svg>
