<?xml version="1.0" encoding="utf-8"?>
<!-- Generator: Adobe Illustrator 22.1.0, SVG Export Plug-In . SVG Version: 6.00 Build 0)  -->
<svg version="1.1" id="Capa_1" xmlns="http://www.w3.org/2000/svg" xmlns:xlink="http://www.w3.org/1999/xlink" x="0px" y="0px"
	 viewBox="0 0 92.2 160" style="enable-background:new 0 0 92.2 160;" xml:space="preserve">
<style type="text/css">
	.st0{fill:#803223;}
	.st1{fill:#601310;}
	.st2{fill:#F7B480;}
	.st3{fill:#EB8841;}
	.st4{fill:#C4C3C3;}
	.st5{fill:#59190C;}
	.st6{fill:#6B2616;}
	.st7{fill:#404040;}
	.st8{fill:#2E2E2E;}
	.st9{fill:#405DA7;}
	.st10{fill:#314680;}
</style>
<g>
	<g>
		<rect x="54" y="78.9" class="st0" width="2.3" height="79.9"/>
		<rect x="53.9" y="78.9" class="st1" width="1.5" height="79.9"/>
		<path class="st0" d="M58.3,78.8c0,1.7-1.4,3-3.1,3c-1.7,0-3.1-1.4-3.1-3c0-1.7,1.4-3,3.1-3C56.9,75.8,58.3,77.1,58.3,78.8z"/>
	</g>
	<path class="st2" d="M51.3,154.4c-1-0.7-8.2-6.9-8.6-8.3c-0.4-1.4,0.8-17.5,0.9-19.2c0.1-1.7,1.3-11.8,1.8-14.8
		c0.5-3-0.3-12.2-0.6-16.1c-0.3-3.9,0.1-12.7-0.5-17.2c-0.6-4.5-0.5-25.8-0.2-29.6c0.3-3.8,1.4-10.2,2.8-12.5
		c-1.4-1.3-8.2-4.1-8.5-4.3c-0.3-0.2-3.9-2.4-3.7-4.1c-1.9,0-3.7,0-3.7,0s-1.8,0-3.7,0c0.2,1.7-3.4,3.9-3.7,4.1
		c-0.3,0.2-7.1,3-8.5,4.3c1.3,2.4,2.4,8.8,2.8,12.5c0.3,3.8,0.4,25.1-0.2,29.6c-0.6,4.5-0.3,13.3-0.5,17.2c-0.3,3.9-1.1,13-0.6,16.1
		c0.5,3,1.8,13.2,1.8,14.8c0.1,1.7,1.3,17.7,0.9,19.2c-0.4,1.4-7.6,7.6-8.6,8.3c-1,0.7,2.6,3.4,4.8,2.7c2.2-0.7,7.7-3.4,8.6-3.5
		c0.9-0.1,2.7-1.1,2.2-3.4c-0.5-2.4-0.7-5.3-0.5-7.1c0.2-1.8,3.2-13.2,3.1-15c-0.1-1.9-0.6-8.8-2.1-11.7c-0.6-1.2-0.1-5.8,0.6-7.4
		c0.7-1.6,2.8-19.1,2.8-21.1c0.5,0,1,0,1,0s0.5,0,1,0c0,2,2.1,19.5,2.8,21.1c0.7,1.6,1.2,6.2,0.6,7.4c-1.5,2.9-1.9,9.9-2.1,11.7
		c-0.1,1.9,2.9,13.2,3.1,15c0.2,1.8,0,4.8-0.5,7.1c-0.5,2.4,1.3,3.3,2.2,3.4c0.9,0.1,6.4,2.7,8.6,3.5
		C48.7,157.8,52.3,155.1,51.3,154.4z"/>
	<path class="st2" d="M37.5,14c-1.3-2.6-3.5-4-6.6-4c-3.1,0-5.3,1.4-6.6,4c-1.3,2.6-1.1,7.9-0.3,10.2c0.8,2.4,2.1,7.5,6.8,7.5
		c5.1,0,6-5.2,6.8-7.5C38.5,21.9,38.7,16.6,37.5,14z"/>
	<path class="st2" d="M46.9,36.7c1.9,2.4,11.2,18.6,12,22.1c0.9,3.4,0.6,12.5-0.3,14.7c0,2.7,0.8,4.2-0.1,5.1
		c-0.9,0.9-5.5,2-6.5,0.7c-1-1.3-2-3.5-1.4-5.2c0.6-1.7,1.4-2.2,2.3-2.5c0-1.2,0.3-7.5,0.2-8.5c-0.1-1-7.5-10.1-9-12.4
		c-1.5-2.3-1.1-7.2-0.6-10.2C43.9,37.4,46,35.6,46.9,36.7z"/>
	<path class="st2" d="M14.9,36.7c-2.4,3.2-9.7,11.8-11.2,14.4c-1.4,2.5-3.3,5.5-0.5,8.8c2.8,3.3,9.2,9.3,10,10.5
		c0.9,1.2,0.7,3.4,0.1,4.3c-0.6,0.9-2.9,1-3.5,0.9c-0.6-0.1,0.2,1.5,0.9,2.2c0.8,0.7,3.8,0.9,4.5,0.9c0.7,0,2.4-0.8,2.3-3.6
		c-0.1-2.8,0-3.3,0.2-4.5c-0.4-1.2-6.5-12.9-7.5-14.1c1-0.9,5.6-6.8,7.2-8.2c1.6-1.4,1.7-5.7,1-8.2C17.8,37.4,16.3,35.7,14.9,36.7z"
		/>
	<g>
		<g>
			<path class="st2" d="M37.7,20.5c0.2-0.8,1.1-1.4,1.6-1c0.5,0.5,0.7,1.5,0.4,2.3c-0.5,1-1.3,2.9-2.2,2.4
				C37.2,24.2,37.4,21.5,37.7,20.5z"/>
			<path class="st3" d="M39.2,21.7c0.1-0.2,0.2-0.4,0.2-0.6c0-0.2,0-0.4-0.1-0.5c-0.3-0.1-0.8,0.1-0.9,0.4c-0.1,0.3,0,0.7,0.1,1.1
				c0,0.2,0.1,0.4,0.1,0.7c-0.1,0.2-0.2,0.4-0.4,0.5c0.2-0.1,0.2-0.4,0.2-0.5c0-0.2-0.1-0.4-0.1-0.6c-0.1-0.2-0.1-0.4-0.2-0.6
				c0-0.2-0.1-0.5,0-0.7c0.1-0.2,0.3-0.4,0.6-0.5c0.2-0.1,0.5-0.2,0.7,0c0.1,0.1,0.2,0.2,0.2,0.4c0,0.1,0,0.2,0,0.3
				C39.4,21.4,39.3,21.6,39.2,21.7z"/>
		</g>
		<g>
			<path class="st2" d="M24.1,20.5c-0.2-0.8-1.1-1.4-1.6-1C22,20,21.7,21,22.1,21.9c0.5,1,1.3,2.9,2.2,2.4
				C24.6,24.2,24.4,21.5,24.1,20.5z"/>
			<path class="st3" d="M22.6,21.7c-0.2-0.1-0.3-0.3-0.3-0.6c0-0.1,0-0.2,0-0.3c0-0.1,0-0.3,0.2-0.4c0.3-0.2,0.5-0.1,0.7,0
				c0.2,0.1,0.4,0.2,0.6,0.5c0.1,0.3,0.1,0.5,0,0.7c-0.1,0.2-0.1,0.4-0.2,0.6c-0.1,0.2-0.2,0.4-0.1,0.6c0,0.2,0.1,0.4,0.2,0.5
				c-0.2-0.1-0.3-0.3-0.4-0.5c-0.1-0.2,0-0.5,0.1-0.7c0.1-0.4,0.3-0.8,0.1-1.1c-0.1-0.3-0.6-0.5-0.9-0.4c-0.1,0.1-0.1,0.3-0.1,0.5
				C22.4,21.4,22.4,21.6,22.6,21.7z"/>
		</g>
	</g>
	<path class="st4" d="M37.7,14.8c-0.2,1.6-0.7,6.5-0.4,7.4c0.2-1.3,0.4-2.2,1-2.6c0-0.2,0.1-0.8,0.1-1.1c0.2,0.2,0.4,0.2,0.6,0.5
		c0.1-0.8-0.1-1.9-0.2-2.1c0.3,0.3,0.4,0.4,0.6,0.6C39.4,16.1,38.4,15.2,37.7,14.8z"/>
	<path class="st4" d="M24,14.8c0.2,1.6,0.7,6.5,0.4,7.4c-0.2-1.3-0.4-2.2-1-2.6c0-0.2-0.1-0.8-0.1-1.1c-0.2,0.2-0.4,0.2-0.6,0.5
		c-0.1-0.8,0.1-1.9,0.2-2.1c-0.3,0.3-0.4,0.4-0.6,0.6C22.3,16.1,23.3,15.2,24,14.8z"/>
	<path class="st4" d="M37.6,25c-0.1-1-0.2-1.6-0.2-1.6c-0.2,0.3-0.3,0.8-0.3,1c0,0.4,0.1,0.8,0,1.2c-0.1,0-0.3,0-0.4,0
		c0,0,0.1,0.6,0.1,0.6c-0.2,0-0.4,0-0.5,0.1c0.1,0.1,0,0.3,0.1,0.6c-0.2,0-0.4,0-0.6,0.1c0.1,0.2,0.2,0.4,0.2,0.6
		c-0.2,0-0.3,0-0.5,0.1c0.1,0.1,0.2,0.5,0.1,0.6c-0.1,0.1-0.4,0-0.6,0c0,0.3,0,0.6-0.2,0.8c-0.1-0.1-0.4-0.1-0.6-0.1
		c0,0.3-0.1,0.5-0.3,0.7c-0.2-0.1-0.3-0.1-0.5-0.1c-0.1,0.1-0.2,0.3-0.2,0.3c-0.1,0-0.2-0.2-0.3-0.2c-0.1,0.1-0.3,0.3-0.4,0.4
		c-0.1-0.1-0.1-0.1-0.2-0.1c-0.1,0.1-0.2,0.2-0.2,0.4c-0.1-0.1-0.2-0.2-0.3-0.3c-0.1,0-0.5,0.4-0.5,0.4c0,0-0.5-0.3-0.5-0.2
		c0-0.1-0.5,0.2-0.5,0.2c0,0-0.4-0.3-0.5-0.4c-0.1,0.1-0.2,0.2-0.3,0.3c-0.1-0.1-0.2-0.2-0.2-0.4c-0.1,0-0.2,0.1-0.2,0.1
		c-0.1-0.1-0.3-0.3-0.4-0.4c-0.1,0-0.2,0.2-0.3,0.2c-0.1-0.1-0.2-0.3-0.2-0.3c-0.3,0.1-0.4,0.1-0.5,0.1c-0.1-0.2-0.2-0.5-0.3-0.7
		c-0.2,0-0.4,0-0.6,0.1c-0.2-0.2-0.2-0.5-0.2-0.8c-0.1,0-0.5,0.1-0.6,0c-0.1-0.1,0-0.5,0.1-0.6c-0.2-0.1-0.3-0.1-0.5-0.1
		c0-0.2,0.2-0.4,0.2-0.6c-0.2-0.1-0.4,0-0.6-0.1c0.1-0.3,0-0.5,0.1-0.6c-0.1-0.1-0.3,0-0.5-0.1c0,0,0.1-0.5,0.1-0.6
		c-0.1,0.1-0.2,0.1-0.4,0c-0.1-0.4,0-0.8,0-1.2c0-0.2-0.2-0.7-0.3-1c0,0-0.1,0.6-0.2,1.6c-0.1,1,0.1,3.2,0.4,4.5
		c0.2-0.4,0.4-0.7,0.4-0.7s0.3,1.8,0.5,2.4c0.2-0.3,0.5-0.8,0.7-1.1c0.7,1.4,0.2,1.9,0.5,2.6c0.3-0.5,0.8-0.6,0.8-0.9
		c0.1,0.8,0.4,2.2,1,3.2c0.2-0.6,0.6-0.8,0.7-1.2c0.5,1.7,1,1,1.7,2.8c0.8-1.8,1.2-1.1,1.7-2.8c0,0.4,0.5,0.6,0.7,1.2
		c0.6-1,0.9-2.4,1-3.2c0,0.3,0.5,0.4,0.8,0.9c0.3-0.7-0.2-1.2,0.5-2.6c0.1,0.3,0.5,0.8,0.7,1.1c0.3-0.6,0.5-2.4,0.5-2.4
		s0.2,0.3,0.4,0.7C37.5,28.2,37.7,26,37.6,25z"/>
	<g>
		<path class="st5" d="M40,155.4l-1.3,0.1c0,0-2.1-0.7-2.9-1.2c-0.1-0.6,0-1.9-0.2-2.8c1.3,0.7,2.6,1.7,3.2,2.1
			C39.5,154,40,155.4,40,155.4z"/>
		<path class="st5" d="M52.1,157.1c-0.1,0.4-0.2,0.7-0.5,0.9c-0.8,0.1-6.9,1-7.8,0.8c-0.9-0.2-3.4-1.1-3.6-1.5
			c-0.1-0.1-0.2-0.5-0.2-0.9c1.2,0.7,3.2,1.6,3.9,1.7C44.6,158.1,49.8,157.6,52.1,157.1z"/>
		<path class="st6" d="M52.1,157.1c-2.2,0.5-7.4,1-8.2,1c-0.7-0.1-2.7-1-3.9-1.7c0-0.5,0-1,0-1s-0.5-1.4-1.1-1.8
			c-0.7-0.4-1.9-1.4-3.2-2.1h0c0-0.1-0.1-0.2-0.1-0.3c-0.3-0.9-0.1-4.1,0.3-4.9c0,0,6.3-0.5,7.5-0.6c0.1,1.1,2.3,3.6,3.2,4.5
			c0.8,0.9,4.7,3.5,5.3,4.1C52.1,154.8,52.3,156.1,52.1,157.1z"/>
	</g>
	<g>
		<path class="st5" d="M21.7,155.4l1.3,0.1c0,0,2.1-0.7,2.9-1.2c0.1-0.6,0-1.9,0.2-2.8c-1.3,0.7-2.6,1.7-3.2,2.1
			C22.1,154,21.7,155.4,21.7,155.4z"/>
		<path class="st5" d="M9.6,157.1c0.1,0.4,0.2,0.7,0.5,0.9c0.8,0.1,6.9,1,7.8,0.8c0.9-0.2,3.4-1.1,3.6-1.5c0.1-0.1,0.2-0.5,0.2-0.9
			c-1.2,0.7-3.2,1.6-3.9,1.7C17,158.1,11.8,157.6,9.6,157.1z"/>
		<path class="st6" d="M9.6,157.1c2.2,0.5,7.4,1,8.2,1c0.7-0.1,2.7-1,3.9-1.7c0-0.5,0-1,0-1s0.5-1.4,1.1-1.8
			c0.7-0.4,1.9-1.4,3.2-2.1h0c0-0.1,0.1-0.2,0.1-0.3c0.3-0.9,0.1-4.1-0.3-4.9c0,0-6.3-0.5-7.5-0.6c-0.1,1.1-2.3,3.6-3.2,4.5
			c-0.8,0.9-4.7,3.5-5.3,4.1C9.5,154.8,9.3,156.1,9.6,157.1z"/>
	</g>
	<path class="st7" d="M44.5,75.9c-4.1-0.1-23.1-0.1-27.3,0c-0.5,1.9-2.4,32-1.7,35.6c0.7,3.6,1.5,30.3,1.8,34.6
		c1.4,2,6.8,4.6,9.4,2.1c0.7-6.5,4.2-21.1,1.4-32.8c-0.7-2.8-0.1-4.5,1-10.3c1.1-5.8,0.8-17.2,0.8-17.2h1h1c0,0-0.3,11.4,0.8,17.2
		c1.1,5.8,1.7,7.5,1,10.3c-2.8,11.7,0.7,26.3,1.4,32.8c2.6,2.5,8.6,1.1,10-0.8c0.3-4.2,0.5-32.2,1.2-35.8
		C46.9,107.8,45,77.7,44.5,75.9z"/>
	<path class="st8" d="M29.9,87.8l-0.4,1.7c0,0-1,7.9-2.1,13.7c-1.1,5.8-1.7,7.5-1,10.3c2.8,11.7,1.4,26.9-1.4,32.8
		c-1.2,2.4-5.4,0.9-7.6-0.5c0,0.1,0,0.1,0,0.2c1.4,2,6.8,4.6,9.4,2.1c0.7-6.5,4.2-21.1,1.4-32.8c-0.7-2.8-0.1-4.5,1-10.3
		C30.2,99.2,29.9,87.8,29.9,87.8z"/>
	<path class="st8" d="M44.5,75.9c-0.4,0,0.6,30.6-0.1,33.8c-0.7,3.6,0.2,31.8-1.2,35.8c-0.7,1.8-5.4,2.8-8.3,1.8
		c0,0.3,0.1,0.5,0.1,0.8c2.6,2.5,8.6,1.1,10-0.8c0.3-4.2,0.5-32.2,1.2-35.8C46.9,107.8,45,77.7,44.5,75.9z"/>
	<path class="st9" d="M31,35.9c2-0.1,5-1.9,6.3-4.2c2.1-0.3,9.4,4.2,10,4.7c2,1.9,10.7,16.5,11.5,18.9c0.9,2.5,1.4,15.2,0.6,17.5
		c-2.3,0.9-6.9-1.4-7.6-2.1c0.3-1.7,0.5-6.9,0.3-7.6c-0.2-0.7-7.3-11-8.1-11.8c-0.1,2.3,0.8,26.7,0.9,28.4
		c-2.6,1.4-26.6,1.2-28.2,0.6c0.3-2.8,0.7-30.2,0.7-31.6c-2,2.5-5.8,7.2-6.3,7.6c1.9,2.3,5.4,10.3,5.9,11.4C16.6,69.8,15,71,13,71.5
		c-1.3-1.1-11.9-12-12.2-15.1c-0.3-3.1,2.1-5.6,3-7C4.7,48,14.4,36.1,15.7,35.2c1.3-0.9,7.8-3.1,8.8-3.6C25.1,33.2,28.7,36,31,35.9z
		"/>
	<path class="st10" d="M41.7,76.8c-1.2,2.2-18.4,3.2-24.9,2.8c0,0.4,0,0.7-0.1,0.9c1.6,0.6,25.5,0.7,28.2-0.6
		c-0.1-1.5-0.8-21.8-0.9-28.4C42.9,61.9,42.6,75.2,41.7,76.8z"/>
</g>
</svg>
