<?xml version="1.0" encoding="utf-8"?>
<!-- Generator: Adobe Illustrator 22.1.0, SVG Export Plug-In . SVG Version: 6.00 Build 0)  -->
<svg version="1.1" id="Capa_1" xmlns="http://www.w3.org/2000/svg" xmlns:xlink="http://www.w3.org/1999/xlink" x="0px" y="0px"
	 viewBox="0 0 92.2 160" style="enable-background:new 0 0 92.2 160;" xml:space="preserve">
<style type="text/css">
	.st0{fill:#F7B480;}
	.st1{fill:#A39F9F;}
	.st2{fill:#404040;}
	.st3{fill:#2E2E2E;}
	.st4{opacity:0.2;enable-background:new    ;}
	.st5{fill:#803223;}
	.st6{fill:#6D2718;}
	.st7{fill:#82AADA;}
	.st8{fill:#568BC2;}
	.st9{fill:#BCBCBC;}
	.st10{fill:#3F403F;}
	.st11{fill:#575756;}
</style>
<g>
	<path class="st0" d="M46.1,157.8c-0.8,0.6-10.4-1.4-11.5-3.5s-0.8-5.8-0.5-8c0.3-2.3,0.5-5.4,0-8.6c-0.5-3.2-1.8-14.8-1.5-16.7
		c0.3-1.9,0.8-5.8,0-9.4s-0.2-10.5-1.5-13.5c-1.3-2.9-1.6-13-1.6-13h-2.3c0,0-0.3,10.1-1.6,13c-1.3,2.9-0.7,9.9-1.5,13.5
		s-0.3,7.5,0,9.4s-1,13.5-1.5,16.7s-0.3,6.3,0,8.6s0.7,5.9-0.5,8c-1.1,2.1-10.7,4.1-11.5,3.5s0.7-2.9,2-4.4s4.2-4.5,4.3-6.8
		c0.2-2.3-2.8-15.4-3.2-17.4c-0.5-1.9,0.6-14.8,0.8-16.7c0.2-1.9-0.3-6-0.3-8.1S13.7,83.2,14.8,78s2.4-13.9,2.4-17
		s-2.1-15.9-2.3-18.6c-0.2-2.8-1.3-12.6-1.9-14.6c3.4-3.4,9.2-5.2,10.1-5.5c0.4-0.2,0.8-1.3,1-2.6c0.2-1.1,0.2-2.2,0.2-2.8h8.1
		c-0.1,0.5,0,1.7,0.2,2.8c0.2,1.2,0.5,2.4,1,2.6c0.8,0.3,6.6,2.1,10.1,5.5c-0.7,1.9-1.8,11.8-1.9,14.6C41.6,45.2,39.5,58,39.5,61
		c0,3.1,1.3,11.8,2.4,17c1.1,5.2,0.6,24.3,0.6,26.4s-0.5,6.2-0.3,8.1s1.3,14.8,0.8,16.7s-3.4,15.1-3.2,17.4c0.2,2.3,3,5.3,4.3,6.8
		C45.4,154.9,46.9,157.2,46.1,157.8z"/>
	<path class="st0" d="M43.7,27.7c3.6,3.2,3.8,8.9,4.5,15.9c0.6,7,1.5,11.6,1.9,13.1c0.3,1.5-0.9,17.8-1.1,19.5
		c-0.2,1.7,1.1,7.8,0.4,11C48.8,90,48,90.9,47,91.4c-1.1,0.5-3.2,0-2.4-0.8c0.7-0.8,1.6-4.3,1.5-6.2c-0.1-1.9-0.7-1.9-1.1-0.8
		c-0.3,1.1-0.6,2.4-0.5,3.2c0.2,0.8-1.4,0.1-1.2-2.1s0.5-4.5,1.1-5.8c0.6-1.2,0.6-2.2,0.2-4.2c-0.4-2-1.5-11.9-1.3-13.7
		s-0.6-5.6-1.1-6.6c-0.5-1.1-1.4-7.1-1.7-10.6C40,40.3,40.3,27.8,43.7,27.7z"/>
	<path class="st0" d="M13.2,27.7c-3.6,3.2-3.8,8.9-4.5,15.9S7.2,55.2,6.8,56.7c-0.2,1.4,1,17.8,1.2,19.5s-1.1,7.8-0.4,11
		C8.2,90,9,91,10,91.5c1.1,0.5,3.2,0,2.4-0.8c-0.7-0.8-1.6-4.3-1.5-6.2c0.1-1.9,0.7-1.9,1.1-0.8c0.3,1.1,0.6,2.4,0.5,3.2
		c-0.2,0.8,1.4,0.1,1.2-2.1s-0.5-4.5-1.1-5.8c-0.6-1.2-0.6-2.2-0.2-4.2c0.4-2,1.5-11.9,1.3-13.7s0.6-5.6,1.1-6.6
		c0.5-1.1,1.4-7.1,1.7-10.6C16.9,40.3,16.6,27.8,13.2,27.7z"/>
	<path class="st1" d="M49.2,49.5c-0.1-2.2-1-15.1-2.6-19c-0.4-1.1-1.7-2.4-3.4-3.7c-2.1-1.6-4.8-3.1-7.4-4c-0.8-0.3-1.5-0.5-2.3-0.6
		c-0.6,2.1-2.4,4.1-5.2,4.8c-2.8-0.7-4.6-2.8-5.2-4.8c-0.7,0.1-1.5,0.3-2.3,0.6c-2.6,0.9-5.3,2.4-7.4,4c-1.7,1.3-2.9,2.7-3.4,3.7
		c-1.6,3.9-2.5,16.8-2.6,19c-0.1,2.2-1.6,8.2-1.6,10.9c0,2.6,1.6,15.5,1.6,17.4c1.6,1.5,4.4,1.2,5.1,0c0.3-1.9,1.1-15.4,1.5-17.5
		c0.4-2,1.5-10.1,1.7-11.6c0.1,2.5,0.5,5.8,0.7,8.1c0.5,8-0.7,12-1.8,18.3h0.1c1.8,0.8,9.7,1.3,13.5,1.3c3.7,0,11.7-0.5,13.5-1.3
		h0.1c-1-6.2-2.3-10.2-1.8-18.3c0.1-2.3,0.6-5.5,0.7-8.1c0.2,1.6,1.3,9.6,1.7,11.6s1.2,15.5,1.5,17.5c0.7,1.2,3.6,1.5,5.1,0
		c0-1.8,1.6-14.7,1.6-17.4C50.8,57.7,49.3,51.8,49.2,49.5z"/>
	<g>
		<path class="st2" d="M49.6,156c-0.3,0.7-2,1.2-3.4,1.4c-1.5,0.3-4.8,0-6-0.9s-2.5-2.1-3.4-2.1c-0.9-0.1-2.8-0.9-3.3-1.5
			c0-0.5-0.6-3.3,0.2-4.3c0.5,1,1.5,1.2,1.8,0.8c0.3-0.3,0.9-1.8,1.3-2.3c0.4-0.4,1.7-0.8,2.4-0.7s1.4,0.8,1.8,1.5
			c0.4,0.7,2.3,3,3.3,3.8s4.6,3.8,5,4.1C49.5,155.8,49.5,155.9,49.6,156z"/>
		<path class="st3" d="M49.6,157.8c-0.2,0.7-1.7,1.5-3.2,1.7s-5-0.2-5.8-0.7s-3.2-2.3-3.8-2.4c-0.6,0-3.2-0.7-3.5-1.2
			s-0.3-1.8,0.1-2.3c0.6,0.6,2.4,1.4,3.3,1.5c0.9,0.1,2.2,1.2,3.4,2.1c1.2,0.9,4.5,1.2,6,0.9s3.1-0.7,3.4-1.4
			C49.8,156.4,49.8,157.2,49.6,157.8z"/>
	</g>
	<path class="st4" d="M32.7,19.6c-1.4,1.4-3.2,2.2-4.2,2.2c-1.1,0-2.8-0.8-4.2-2.2c0.2-1.1,0.2-2.2,0.2-2.8h8.1
		C32.4,17.4,32.5,18.6,32.7,19.6z"/>
	<path class="st0" d="M34.6,5.1c-1.1-1.9-4.4-3.2-6.2-3.2c-1.7,0-5,1.3-6.2,3.2c-1.1,1.9-0.3,6.3,0,9.9s4.3,6,6.2,6
		c1.8,0,5.8-2.4,6.2-6C34.9,11.4,35.7,7.1,34.6,5.1z"/>
	<g>
		<path class="st2" d="M7.3,156c0.3,0.7,2,1.2,3.4,1.4c1.5,0.3,4.8,0,6-0.9s2.5-2.1,3.4-2.1c0.9-0.1,2.8-0.9,3.3-1.5
			c0-0.5,0.6-3.3-0.2-4.3c-0.5,1-1.5,1.2-1.8,0.8c-0.3-0.3-0.9-1.8-1.3-2.3c-0.4-0.4-1.7-0.8-2.4-0.7c-0.7,0.1-1.4,0.8-1.8,1.5
			c-0.4,0.7-2.3,3-3.3,3.8s-4.6,3.8-5,4.1C7.4,155.8,7.4,155.9,7.3,156z"/>
		<path class="st3" d="M7.3,157.8c0.2,0.7,1.7,1.5,3.2,1.7s5-0.2,5.8-0.7s3.2-2.3,3.8-2.4c0.6,0,3.2-0.7,3.5-1.2s0.3-1.8-0.1-2.3
			c-0.6,0.6-2.4,1.4-3.3,1.5s-2.2,1.2-3.4,2.1c-1.2,0.9-4.5,1.2-6,0.9s-3.1-0.7-3.4-1.4C7.1,156.4,7.1,157.2,7.3,157.8z"/>
	</g>
	<path class="st5" d="M42.9,112.1c0.7-6.4,0.6-32.3-0.9-37.1c-5,0-22.1,0-27.1,0c-1.5,4.8-1.6,30.7-0.9,37.1
		c0.4,3.8-1.1,14.4-0.7,17.9c0.4,3.5,1.3,17,1.3,19.4c1.6,0.9,7,2.3,9.4-0.2c-0.4-3.9,1-25.8,1-29.2c0-3.5,0.8-18.7,1.7-21.6
		c0.9-2.9,0.6-13.1,0.6-13.1h1.1h1.1c0,0-0.3,10.2,0.6,13.1s1.7,18.2,1.7,21.6c0,3.5,1.4,25.4,1,29.2c2.3,2.5,7.7,1.1,9.4,0.2
		c0-2.4,0.9-15.9,1.3-19.4C44,126.5,42.5,115.9,42.9,112.1z"/>
	<path class="st6" d="M29.6,85.2c0-0.5,0-0.8,0-0.8h-2.4h-1.1c0,0,0.3,10.2-0.6,13.1s-1.7,18.2-1.7,21.6s-0.8,24.8-2,28.4
		c-0.9,2.7-4.9,2.3-7.1,1.5c0,0.1,0,0.2,0,0.3c1.6,0.9,7,2.3,9.4-0.2c-0.4-3.9,1-25.8,1-29.2c0-3.5,0.8-18.7,1.7-21.6
		c0.9-2.9,0.6-13.1,0.6-13.1H29.6z"/>
	<path class="st6" d="M42.9,112.1c0.7-6.4,0.6-32.3-0.9-37.1c-0.3,0-0.6,0-1,0c1.3,6.4,1.4,30.2,0.7,36.3
		c-0.4,3.8,1.1,14.4,0.7,17.9c-0.4,3.5-0.9,17-2.2,19.1c-0.8,1.3-4.5,2.2-7.2,1c2.4,2.4,7.6,1,9.2,0.1c0-2.4,0.9-15.9,1.3-19.4
		C44,126.5,42.5,115.9,42.9,112.1z"/>
	<path class="st7" d="M40.8,57.5c-0.2-5.4,0.3-7.8,0.1-8.9c-1-2.4-0.5-17,2.3-21.8c-2.1-1.6-4.8-3.1-7.4-4
		c-0.6,1.4-5.7,8.5-7.5,10.2c-1.8-1.8-6.9-8.8-7.5-10.2c-2.6,0.9-5.3,2.4-7.4,4c2.8,4.9,3.3,19.4,2.3,21.8c-0.2,1.1,0.3,3.5,0.1,8.9
		c-0.2,5.9-0.4,11-0.7,14.7c-0.1,1.3-0.3,2.3-0.4,2.7h0.1c2.9,1.4,13.5,1.3,13.5,1.3s10.6,0.1,13.5-1.3h0.1
		c-0.2-0.4-0.3-1.4-0.4-2.7C41.2,68.5,41,63.5,40.8,57.5z"/>
	<g>
		<path class="st7" d="M26.8,32.3c0.1-0.1,0.3-0.3,0.5-0.5c-2.2-2.8-5.8-7.8-6.3-9c-0.3,0.1-0.6,0.2-1,0.3
			C21.6,25.7,25.3,30.8,26.8,32.3z"/>
		<path class="st8" d="M40.8,57.5c-0.2-5.4,0.3-7.8,0.1-8.9C38.8,56.1,40.2,71,38.8,73c-1.8,2.5-12,2.5-12,2.5S19,75.6,15,74.7
			c0,0.1-0.1,0.2-0.1,0.3H15c2.9,1.4,13.5,1.3,13.5,1.3S39.1,76.4,42,75h0.1c-0.2-0.4-0.3-1.4-0.4-2.7C41.2,68.5,41,63.5,40.8,57.5z
			"/>
	</g>
	<path class="st4" d="M28.4,27.1c1.1,1.1,2.8,3.1,3.4,4.5c2.3-2.8,4-6.4,4.5-8.6c-1.7-0.8-2.7-1.8-3.5-2.4
		C33.6,22.4,30,26.5,28.4,27.1z"/>
	<path class="st4" d="M28.4,27.1c-1.1,1.1-2.8,3.1-3.4,4.5c-2.3-2.8-4-6-4.5-8.6c1.7-0.8,2.7-1.8,3.5-2.4
		C23.3,22.4,26.9,26.5,28.4,27.1z"/>
	<path class="st9" d="M28.4,27.1c1.1,1,2.8,2.1,3.4,3.4c2.3-2.5,3.8-5.8,4.5-7.5c-1.7-0.7-2.7-1.8-3.5-2.4
		C33.6,22.2,30,26.6,28.4,27.1z"/>
	<path class="st9" d="M28.4,27.1c-1.1,1-2.8,2.1-3.4,3.4c-2.3-2.5-3.8-5.8-4.5-7.5c1.7-0.7,2.7-1.8,3.5-2.4
		C23.3,22.2,26.9,26.6,28.4,27.1z"/>
	<path class="st10" d="M35.2,6.5c0,0.2,0,0.4,0,0.6c0,1.5,0,3.8-0.4,5.7c-0.2-1.8-0.3-4.4-1.1-4.7c1-6.5-5.8-6.1-5.8-6.1
		s-6.2,0.3-4.7,6.1l0,0c-0.1,0-0.1,0.1-0.2,0.1c-0.6,0.6-0.7,2.9-0.9,4.5l0,0v-0.1c-0.3-1.8-0.3-3.9-0.4-5.4c0-0.1,0-0.1,0-0.2V6.5
		c0-1.5,1.4-2.7,2.6-3.6c0.6-0.4,1.9-1.1,3.7-1.1c1.8,0,4.5,0.8,5.1,1.2C34.2,3.8,35.2,5,35.2,6.5z"/>
	<path class="st11" d="M35.2,7.1c0,1.5,0,3.8-0.4,5.7c-0.2-1.8-0.3-4.4-1.1-4.7C34.1,7.7,34.5,7.3,35.2,7.1z"/>
	<path class="st11" d="M23.2,8.1c-0.1,0-0.1,0.1-0.2,0.1c-0.6,0.6-0.7,2.9-0.9,4.5v-0.1c-0.3-1.8-0.3-3.9-0.4-5.4V7.1l0,0
		C22.3,7.3,22.8,7.7,23.2,8.1z"/>
</g>
</svg>
