<?xml version="1.0" encoding="utf-8"?>
<!-- Generator: Adobe Illustrator 22.1.0, SVG Export Plug-In . SVG Version: 6.00 Build 0)  -->
<svg version="1.1" id="Capa_1" xmlns="http://www.w3.org/2000/svg" xmlns:xlink="http://www.w3.org/1999/xlink" x="0px" y="0px"
	 viewBox="0 0 92.2 160" style="enable-background:new 0 0 92.2 160;" xml:space="preserve">
<style type="text/css">
	.st0{fill:#494949;}
	.st1{fill:#404040;}
	.st2{fill:#F7B480;}
	.st3{fill:#E6E5E5;}
	.st4{fill:#C4C3C3;}
	.st5{opacity:0.2;}
	.st6{fill:#EB6794;}
	.st7{fill:#C75198;}
	.st8{opacity:0.3;fill:#9D2245;}
	.st9{opacity:0.2;fill:#404040;}
</style>
<g>
	<path class="st0" d="M19.8,6.4c-0.7-1.8,1.9-4.3,2.8-4.6c1.7-0.6,6.2-1,8.2,0.5c1.1,0.8,1.9,3.2,1.5,4.5
		C29.7,6.3,20.4,7.7,19.8,6.4z"/>
	<path class="st1" d="M34.2,160.2h-4c-0.7,0-1.9-1.3-2-3.4c0-0.5,0.1-1.5,0.3-2.6c0.6,1.7,2.1,2.8,3.3,2.8c1.3,0,3.5-0.2,4.4-2.8
		c0,0.3,0.1,0.5,0.1,0.7C36.9,157.1,35.9,160.2,34.2,160.2z"/>
	<path class="st0" d="M26.2,3.3c1.3-0.9,3.2-0.3,5.4,1.5c2.6,2.1,3,4.5,3.1,5.6c0.1,1.7-0.1,4.6-0.8,6.8c-0.3,1-1,2.9-1.7,3.2
		c0.6-1.1-10.4-0.2-12.1-0.1c-1.3-1.1-3-3.7-3.4-6.9c-0.3-2.1,0.2-5.2,2.8-7.6C22.3,3.3,24.7,2.6,26.2,3.3z"/>
	<path class="st2" d="M42,92.6c-0.7-0.3,1.9-4.9,1.1-5.3c-0.8-0.4-1,1.2-0.9,1.9c0.2,0.7-0.7,1-0.9-0.2c-0.2-1.2,0.5-4.9,0.8-5.8
		c0.3-0.9-1.3-9.2-2.1-10.5c-0.8-1.3-2.4-9.3-2.3-10.7c0.2-1.5,0.2-5.7-0.1-7.4c-0.3-1.6-1.6-5.8-1.6-8.8c-0.9,1.4-1.6,7.2-1.3,9.6
		c0.3,2.4,1.4,6.2,2.2,8.5c1.3,3.9,2.8,10.8,3.3,12.8c1.8,6.6-1,20.5-1.6,24.3c-0.6,3.8-0.2,6.3,0.4,9.9c0.6,3.6,0.2,16.3-0.5,20.1
		c-0.8,3.8-3.4,13.9-2.9,15.6c0.4,1.5,0.4,5.7,0.6,7.8c-0.8,2.6-3.1,2.8-4.4,2.8c-1.3,0-2.8-1.1-3.3-2.8c0.6-3.4,1.9-8.5,1.9-9.8
		c0-1.8-0.8-15.9-1-18.3c-0.2-2.4,0.6-11.3,0.5-13.3c-0.1-2-0.3-12.4-1.4-16.8c-1.1-4.3-1.3-14.7-1.3-16.2h-2.5
		c0,1.5-0.2,11.8-1.3,16.2c-1.1,4.3-1.3,14.8-1.4,16.8c-0.1,2,0.8,10.8,0.5,13.3c-0.2,2.4-1,16.5-1,18.3c0,1.4,1.3,6.5,1.9,9.8
		c-0.6,1.7-2.1,2.8-3.3,2.8c-1.3,0-3.5-0.2-4.4-2.8c0.3-2.1,0.2-6.3,0.6-7.8c0.5-1.6-2.1-11.7-2.9-15.6c-0.8-3.8-1.2-16.5-0.5-20.1
		c0.6-3.6,1-6,0.4-9.9c-0.6-3.8-3.4-17.7-1.6-24.3c0.5-2,2-8.9,3.3-12.8c0.8-2.3,1.9-6.1,2.2-8.5c0.3-2.4-0.4-8.2-1.3-9.6
		c0.1,3-1.3,7.1-1.6,8.8c-0.3,1.6-0.2,5.9-0.1,7.4c0.2,1.5-1.5,9.4-2.3,10.7c-0.8,1.3-2.4,9.6-2.1,10.5c0.3,0.9,1,4.6,0.8,5.8
		c-0.2,1.2-1.1,0.9-0.9,0.2c0.2-0.7-0.1-2.3-0.9-1.9c-0.8,0.4,1.8,4.9,1.1,5.3c-1.3,0.6-3.8-4.2-3-8.7c0.2-1.3,0.8-2.5,0.5-5.1
		c-0.3-2.6-0.1-14.9,0.5-16.9c0.6-2,1.2-8.7,1.3-10.8c0.2-2.1,0.5-13.1,0.5-14.4c0-1.3,0.6-3.7,2.7-4.8c2.1-1.1,7.8-3.3,8.9-3.8
		c0.5-0.2,0.9-1.8,1.2-3.1c0.2-0.8,0.3-1.4,0.3-1.7h5.8c0,0.2,0.2,0.9,0.3,1.7c0.3,1.3,0.8,2.9,1.2,3.1c1.1,0.5,6.8,2.7,8.9,3.8
		c2.1,1.1,2.7,3.5,2.7,4.8c0,1.3,0.3,12.2,0.5,14.4c0.2,2.1,0.7,8.8,1.3,10.8c0.6,2,0.9,14.4,0.5,16.9c-0.3,2.6,0.2,3.8,0.5,5.1
		C45.8,88.3,43.4,93.2,42,92.6z"/>
	<path class="st3" d="M39.2,104.4c-0.4,2.2,0.7,7.1,0.9,9.7c-2.8,0.6-25.2,0.6-28,0c0.2-2.6,1.2-7.5,0.9-9.7
		c-0.4-2.2-1.9-18.3-2.1-20.7c-0.2-2.3,1.2-7.9,1.5-9.3c0-0.1,0.1-0.2,0.1-0.4c1-2,6-9.1,6.7-37c1.2,0.9,2.8,1.2,4.1,1.3
		c1.6,0.1,4.1,0.1,5.6,0c1.3-0.1,2.9-0.5,4.1-1.3c0.7,27.9,5.7,35,6.7,37c0.1,0.2,0.1,0.3,0.2,0.4c0.4,1.5,1.8,7,1.5,9.3
		C41.1,86.1,39.5,102.2,39.2,104.4z"/>
	<path class="st4" d="M41.3,83.7c0.2-2.3-1.2-7.9-1.5-9.3C39.4,73,33.7,67,32.9,37c-0.5,0.4-1.1,0.6-1.6,0.8
		c0.9,28.6,6.4,34.3,6.8,35.7c0.4,1.5,1.8,7,1.5,9.3c-0.2,2.3-2,18.4-2.1,20.7c-0.2,2.9,0.2,6.2-1.4,8.3c-1.7,2.3-9.6,1.9-11.8,1.9
		c-1.8,0-8.5,0.1-12.3-0.2c0,0.2,0,0.4-0.1,0.6c2.8,0.6,25.2,0.6,28,0c-0.2-2.6-1.2-7.5-0.9-9.7C39.5,102.2,41.1,86.1,41.3,83.7z"/>
	<path class="st5" d="M39.6,74c-1-2-6-9.1-6.7-37c-1.2,0.9-2.8,1.2-4.1,1.3c0.8,4.1,1.3,10.5,1,15.4c-0.4,5.9-0.5,18.9-0.7,20.7
		c3,1.1,9.4,0.4,10.6,0.3C39.7,74.5,39.7,74.3,39.6,74z"/>
	<path class="st6" d="M45,74c0-4.6-0.3-10.9-0.7-12.3c-0.7-2.2-1.3-9.9-1.3-10.8c-0.2-2.1-0.5-13-0.5-14.3c0-1.2-0.6-3.8-2.9-5
		c-1.2-0.6-3.6-1.3-5.6-2.1c-0.7,2.5-3.9,5.6-5.4,6.3c0.9,2.5,1.5,7.6,1.7,12.4c0,1.4,0,2.8,0,4.2c0,0.4,0,0.7,0,1.1
		c-0.4,5.9-0.5,18.9-0.7,20.7c3,1.1,9.4,0.4,10.6,0.3c-0.1-0.3-0.1-0.6-0.2-0.9c-0.1-0.3-2-7.7-2-7.7c-0.2-0.7-0.3-1.5-0.5-2.1
		c-0.4-1.1-0.9-3-1.4-4.8c-0.3-1.3-0.6-2.6-0.8-3.7c-0.2-1.7,0.1-5.3,0.6-7.5c0-0.2,0.1-0.4,0.1-0.6c0.2,1.9,0.7,4.1,1.1,5.7
		c0.2,0.7,0.3,1.3,0.4,1.7c0.3,1.6-0.1,5.8,0.1,7.3c0.4,3.4,2.5,11,3.3,14.3c0.1,0.4,0.2,0.8,0.3,1.1c0,0.1,0,0.1,0,0.2
		c1,0.2,2.4,0.4,3.9,0.1c0,0,0,0,0-0.1c0-0.3,0-0.7,0-1c0-0.6,0-1.3,0-2.1C45,74.2,45,74.1,45,74z"/>
	<path class="st7" d="M39.8,73.3c-1.7,0.2-7.4,0.7-10.2-0.3c0,0.5,0,0.9-0.1,1.1c3,1.1,9.4,0.4,10.6,0.3c-0.1-0.3-0.1-0.6-0.2-0.8
		C39.8,73.5,39.8,73.4,39.8,73.3z"/>
	<path class="st7" d="M44.9,76.4c0,0.4,0,0.7,0,1c0,0,0,0,0,0.1c-1.5,0.3-2.9,0.2-3.9-0.1c0-0.1,0-0.1,0-0.2
		c-0.1-0.3-0.2-0.6-0.3-1.1c0.1,0,0.2,0.1,0.3,0.1C42,76.5,43.5,76.7,44.9,76.4z"/>
	<path class="st1" d="M17.9,160.2h4c0.7,0,1.9-1.3,2-3.4c0-0.5-0.1-1.5-0.3-2.6c-0.6,1.7-2.1,2.8-3.3,2.8c-1.3,0-3.5-0.2-4.4-2.8
		c0,0.3-0.1,0.5-0.1,0.7C15.2,157.1,16.1,160.2,17.9,160.2z"/>
	<path class="st5" d="M29.3,24.9c-0.9,0.6-2,1-3.2,1c-1.2,0-2.3-0.4-3.2-1c0.2-0.8,0.3-1.4,0.3-1.7h5.8C29,23.5,29.1,24.2,29.3,24.9
		z"/>
	<path class="st2" d="M32.8,9.6c-0.1-2.4-4.1-5-6.8-5c-2.7,0-6.7,2.6-6.8,5c-0.1,2.4-0.3,8.9,0.8,11.6c0.6,1.7,3,4.2,6,4.2
		c3,0,5.4-2.4,6-4.2C33.1,18.5,32.9,11.9,32.8,9.6z"/>
	<path class="st5" d="M23.2,38.3c-1.3-0.1-2.9-0.5-4.1-1.3c-0.7,28-5.7,35-6.7,37c-0.1,0.2-0.1,0.4-0.2,0.6
		c1.2,0.1,7.6,0.8,10.6-0.3c-0.2-1.8-0.3-14.7-0.7-20.7C21.9,48.8,22.4,42.4,23.2,38.3z"/>
	<path class="st6" d="M21.9,52.5c-0.1-1.4-0.1-2.8,0-4.3c0.2-4.8,0.8-9.9,1.7-12.4c-1.5-0.8-4.7-3.9-5.4-6.3c-2,0.8-4.4,1.5-5.6,2.1
		c-2.3,1.2-2.9,3.8-2.9,5c0,1.3-0.3,12.3-0.5,14.3C9,51.8,8.5,59.5,7.8,61.7C7.4,63.1,7.1,69.4,7.1,74c0,0.1,0,0.2,0,0.3
		c0,0.8,0,1.5,0,2.1c0,0.4,0,0.7,0,1c0,0,0,0,0,0.1c1.5,0.3,2.8,0.2,3.9-0.1c0-0.1,0-0.1,0-0.2c0.1-0.3,0.2-0.6,0.3-1.1
		c0.8-3.3,3-10.8,3.3-14.3c0.2-1.5-0.2-5.7,0.1-7.3c0.1-0.4,0.2-1,0.4-1.7c0.3-1.1,0.6-2.5,0.9-3.8c0.1-0.6,0.2-1.3,0.3-1.9
		c0.6,2.2,1,6.2,0.7,8.1c-0.1,0.4-0.1,0.9-0.2,1.3c0,0,0,0,0,0c-0.5,2.4-1.4,5.4-2,7.1c-0.2,0.6-0.3,1.4-0.5,2.1c0,0-2,7.4-2,7.7
		c-0.1,0.3-0.1,0.6-0.2,0.9c1.2,0.1,7.6,0.8,10.6-0.3c-0.2-1.8-0.3-14.7-0.7-20.7C21.9,53.1,21.9,52.8,21.9,52.5z"/>
	<path class="st7" d="M12.3,73.3c1.7,0.2,7.4,0.7,10.2-0.3c0,0.5,0,0.9,0.1,1.1c-3,1.1-9.4,0.4-10.6,0.3c0.1-0.3,0.1-0.6,0.2-0.8
		C12.2,73.5,12.2,73.4,12.3,73.3z"/>
	<path class="st7" d="M7.1,76.4c0,0.4,0,0.7,0,1c0,0,0,0,0,0.1c1.5,0.3,2.9,0.2,3.9-0.1c0-0.1,0-0.1,0-0.2c0.1-0.3,0.1-0.6,0.3-1.1
		c-0.1,0-0.2,0.1-0.3,0.1C10,76.5,8.5,76.7,7.1,76.4z"/>
	<path class="st8" d="M37.8,65.8c-0.2-0.7-0.3-1.5-0.5-2.1c-0.7-2-1.9-6-2.2-8.4c-0.2-1.2,0-3.4,0.2-5.3c-0.8,1.4-1.1,3.8-0.8,5.6
		C34.8,58.1,39,70.5,38,73c-0.4,1-8.5,1-8.5,1.1c3,1.1,9.4,0.4,10.6,0.3c-0.1-0.3-0.1-0.6-0.2-0.8C39.8,73.2,37.8,65.8,37.8,65.8z"
		/>
	<path class="st0" d="M26.6,5c-0.5,0.7-0.3,4.1,1.9,5.6c4.4,3.1,4.2,6.1,4.3,7.5C34,13.9,33.6,10.9,33,9C31.6,4.8,27.6,3.7,26.6,5z"
		/>
	<path class="st0" d="M27.5,4.5c1.1,1.2-2.3,4.9-4.3,6.4c-2,1.5-4,4-4,7.1c-0.7-1.6-1.8-8.4,1-11.1C23,4.2,25.8,2.6,27.5,4.5z"/>
	<path class="st9" d="M35.9,59c-1.1-2.6-2.5-4.7-5.7-5.9c-1-0.4-2.1-0.6-3.4-0.6c-1.9,0-3.6-0.4-4.9,0c-2.6,0.9-4.2,2.5-5.1,4.2
		c0,0,0,0,0,0c0.1-0.5,0.2-0.9,0.2-1.3c0.3-1.9-0.2-5.9-0.7-8.1c-0.2-0.9-0.3-1.8-0.6-3.3c1.4,3.2,3.3,5.3,4.8,5.3h10.7
		c2.5,0,4.6-2.9,5.2-5.1c-0.1,1-0.4,2.7-0.6,3.6c-0.5,2.3-0.8,5.8-0.6,7.5C35.2,56.4,35.5,57.7,35.9,59z"/>
</g>
</svg>
