<?xml version="1.0" encoding="utf-8"?>
<!-- Generator: Adobe Illustrator 22.1.0, SVG Export Plug-In . SVG Version: 6.00 Build 0)  -->
<svg version="1.1" id="Capa_1" xmlns="http://www.w3.org/2000/svg" xmlns:xlink="http://www.w3.org/1999/xlink" x="0px" y="0px"
	 viewBox="0 0 92.2 160" style="enable-background:new 0 0 92.2 160;" xml:space="preserve">
<style type="text/css">
	.st0{fill:#2E2E2E;}
	.st1{fill:#1D1E1C;}
	.st2{fill:#F7B480;}
	.st3{fill:#E6E5E5;}
	.st4{opacity:0.2;}
	.st5{fill:#EB8841;}
	.st6{fill:#F4F4F4;}
</style>
<g>
	<g>
		<path class="st0" d="M21.3,156.4l0.9,0.2c0,0,1.5-0.4,2.1-0.8c0.1-0.5,0.1-1.5,0.3-2.2c-1,0.5-1.9,1.2-2.4,1.5
			C21.7,155.4,21.3,156.4,21.3,156.4z"/>
		<path class="st0" d="M12.6,157.1c0,0.3,0.1,0.5,0.3,0.7c0.6,0.1,4.9,1.1,5.6,1c0.7-0.1,2.5-0.7,2.6-0.9c0.1-0.1,0.1-0.4,0.2-0.7
			c-0.9,0.5-2.4,1.1-2.9,1.1C17.9,158.3,14.2,157.6,12.6,157.1z"/>
		<path class="st1" d="M12.6,157.1c1.6,0.5,5.3,1.2,5.8,1.1c0.5,0,2-0.6,2.9-1.1c0.1-0.4,0.1-0.8,0.1-0.8s0.4-1,0.9-1.3
			c0.5-0.3,1.5-1,2.4-1.5h0c0-0.1,0.1-0.2,0.1-0.3c0.3-0.7,0.2-3.2,0-3.8c0,0-6.1-1.1-7-1.2c-0.1,0.8-1,3.2-1.7,3.9
			c-0.7,0.7-2.7,2.3-3.2,2.7C12.6,155.4,12.4,156.3,12.6,157.1z"/>
	</g>
	<g>
		<path class="st0" d="M36.6,156.4l-0.9,0.2c0,0-1.5-0.4-2.1-0.8c-0.1-0.5-0.1-1.5-0.3-2.2c1,0.5,1.9,1.2,2.4,1.5
			C36.2,155.4,36.6,156.4,36.6,156.4z"/>
		<path class="st0" d="M45.4,157.1c-0.1,0.3-0.1,0.5-0.3,0.7c-0.6,0.1-4.9,1.1-5.6,1c-0.7-0.1-2.5-0.7-2.6-0.9
			c-0.1-0.1-0.1-0.4-0.2-0.7c0.9,0.5,2.4,1.1,2.9,1.1C40.1,158.3,43.8,157.6,45.4,157.1z"/>
		<path class="st1" d="M45.4,157.1c-1.6,0.5-5.3,1.2-5.8,1.1c-0.5,0-2-0.6-2.9-1.1c-0.1-0.4-0.1-0.8-0.1-0.8s-0.4-1-0.9-1.3
			c-0.5-0.3-1.5-1-2.4-1.5h0c0-0.1-0.1-0.2-0.1-0.3c-0.3-0.7-0.2-3.2,0-3.8c0,0,6.1-1.1,7-1.2c0.1,0.8,1,3.2,1.7,3.9
			c0.7,0.7,2.7,2.3,3.2,2.7C45.3,155.4,45.5,156.3,45.4,157.1z"/>
	</g>
	<path class="st2" d="M42.1,30.7v3.6H16.8v-3.9c0.6-0.2,1-0.4,1.3-0.5c1.3-0.5,5-3,5.6-3.4c0.3-0.2,0.6-1.5,0.8-2.7
		c0-0.2,0.1-0.4,0.1-0.6c0,0,0-0.1,0-0.1c0.1-0.6,0.1-1,0.1-1h8.5c0,0,0,0.4,0.1,1c0,0,0,0.1,0,0.1c0,0.2,0.1,0.4,0.1,0.6
		c0.2,1.2,0.5,2.5,0.8,2.7c0.6,0.3,4.3,2.8,5.6,3.4C40.3,30.1,41.1,30.3,42.1,30.7z"/>
	<path class="st2" d="M45.8,83.7c-0.8,0.7-1.2,1.6-1.1,2.2c0.1,0.5-0.1,3.1-0.4,3.6c-0.3,0.5,0,1.4,0.7,0.8c0.7-0.6,1.2-2.3,1.2-3
		c0-0.7,1.1-1.1,1.1,0c-0.1,1.1-0.5,3.2-1.6,3.8c-1.1,0.6-1.8,1.5,0,1.2c1.8-0.3,3.3-1.4,3.7-1.8c0.4-0.3,2.6-2.2,2.2-5.1
		c-0.5-2.8-0.8-3.5-0.8-3.5h-4.5L45.8,83.7z"/>
	<path class="st3" d="M39.5,43.9c1.8-5.8-5-18-6-20.1c1,5-3.5,5.8-4.5,5.7c-1,0.1-5.5-0.8-4.5-5.7c-1,2.1-7.9,14.3-6,20.1
		c1.8,5.8,1.2,18.7-0.9,23.9c0.5,0.1,9.3,2.5,11.4,2.5c2.1,0,10.9-2.4,11.4-2.5C38.3,62.6,37.7,49.7,39.5,43.9z"/>
	<path class="st1" d="M42.1,67.1c-0.7,0.6-11.4,3.2-13.2,3.2c-1.7,0-12.5-2.5-13.2-3.2c-0.4,4.6-1.8,19.6-1.1,26.3
		c0.7,6.7,1.4,15.5,1.4,16.2c0,0.8-0.1,3.6,0.1,4.9c0.2,1.3,0.1,2.9,0,3.9c-0.2,0.9,0.3,22,0.3,23.6c0.1,1.6,0.2,6.4,0.2,7.7
		c1.7,0.8,6,1.5,8.4,0c0.4-2.8,1.8-8.2,2.2-19.1c0.1-1.9-0.4-13.8-0.5-15.7c0-1.8,0.8-3.3,0.8-4.3c0.4-7.2,1.3-21.1,1.3-22.3
		c0,1.2,0.9,15.1,1.3,22.3c0.1,1,0.9,2.5,0.8,4.3c0,1.8-0.6,13.7-0.5,15.7c0.5,10.9,1.8,16.3,2.2,19.1c2.4,1.5,6.7,0.8,8.4,0
		c0-1.3,0.1-6.1,0.2-7.7c0.1-1.6,0.5-22.7,0.3-23.6c-0.2-0.9-0.3-2.5,0-3.9c0.2-1.3,0.1-4.2,0.1-4.9c0-0.8,0.7-9.5,1.4-16.2
		C44,86.6,42.5,71.7,42.1,67.1z"/>
	<path class="st4" d="M29,29.5c1.1-0.5,4.9-1.7,4.5-5.7c1.1,1.8,2.1,7.2-1.3,11.1C31.3,33,30.1,31.3,29,29.5z"/>
	<path class="st2" d="M12.2,83.7c0.8,0.7,1.2,1.6,1.1,2.2c-0.1,0.5,0.1,3.1,0.4,3.6c0.3,0.5,0,1.4-0.7,0.8c-0.7-0.6-1.2-2.3-1.2-3
		c0-0.7-1.1-1.1-1.1,0c0.1,1.1,0.5,3.2,1.6,3.8c1.1,0.6,1.8,1.5,0,1.2c-1.8-0.3-3.3-1.4-3.7-1.8c-0.4-0.3-2.6-2.2-2.2-5.1
		c0.5-2.8,0.8-3.5,0.8-3.5h4.5L12.2,83.7z"/>
	<path class="st4" d="M29,29.5c-1.1-0.5-4.9-1.7-4.5-5.7c-1.1,1.8-2.1,7.2,1.3,11.1C26.7,33,27.9,31.3,29,29.5z"/>
	<path class="st4" d="M33.4,23.1c-0.8,0.9-1.6,1.7-1.9,1.9c-0.7,0.5-1.6,0.8-2.4,0.8c-0.8,0-1.8-0.3-2.4-0.8c-0.3-0.2-1.2-1-1.9-1.9
		c0.1-0.6,0.1-1,0.1-1h8.5C33.2,22.1,33.3,22.5,33.4,23.1z"/>
	<path class="st2" d="M35.2,7.4c-0.6-2.5-4.8-2.8-6.2-2.8c-1.5,0-5.6,0.3-6.2,2.8c-0.6,2.5,0.1,11.2,0.3,12.5
		c0.1,1.3,2.9,3.9,3.5,4.3c0.7,0.5,1.6,0.7,2.4,0.7c0.8,0,1.8-0.3,2.4-0.7c0.7-0.5,3.4-3,3.5-4.3C35.1,18.6,35.9,9.8,35.2,7.4z"/>
	<g>
		<path class="st2" d="M35.3,13.8c0-0.6,0.5-1.6,1-1.1c0.5,0.5,0.3,2.5,0.1,3.1c-0.2,0.7-1.1,2.2-1.4,2.2c0.1-0.7,0.1-1.9,0.2-2.6
			C35.2,14.8,35.2,14.3,35.3,13.8z"/>
		<path class="st5" d="M35.6,14.7c-0.1-0.3-0.1-0.7,0-1.1c0-0.1,0.1-0.2,0.2-0.3c0.1,0,0.1,0,0.2,0c0,0,0.1,0.1,0.1,0.1
			c0.1,0.2,0.1,0.4,0.2,0.5c0,0.2,0,0.4-0.1,0.6c-0.1,0.2-0.1,0.3-0.2,0.5c-0.2,0.3-0.3,0.6-0.4,1c0-0.2,0.1-0.4,0.1-0.5
			c0-0.2,0.1-0.3,0.2-0.5c0.1-0.2,0.1-0.3,0.2-0.5c0-0.2,0.1-0.3,0-0.5c0-0.2-0.1-0.3-0.1-0.5c0-0.1-0.1-0.1-0.1-0.1
			c0,0-0.1,0.1-0.1,0.1c-0.1,0.2-0.1,0.3-0.1,0.5C35.6,14.4,35.6,14.5,35.6,14.7z"/>
	</g>
	<g>
		<path class="st2" d="M22.7,13.7c0-0.6-0.5-1.6-1-1.1c-0.5,0.5-0.3,2.5-0.1,3.1c0.2,0.7,1.1,2.2,1.4,2.2c-0.1-0.7-0.1-1.9-0.2-2.6
			C22.7,14.7,22.7,14.2,22.7,13.7z"/>
		<path class="st5" d="M22.4,14.6c0-0.2,0-0.4,0-0.5c0-0.2,0-0.3-0.1-0.5c0-0.1-0.1-0.1-0.1-0.1c0,0-0.1,0-0.1,0.1
			c-0.1,0.1-0.1,0.3-0.1,0.5c0,0.2,0,0.3,0,0.5c0,0.2,0.1,0.3,0.2,0.5c0.1,0.2,0.2,0.3,0.2,0.5c0,0.2,0.1,0.3,0.1,0.5
			c-0.1-0.3-0.2-0.7-0.4-1c-0.1-0.2-0.2-0.3-0.2-0.5c-0.1-0.2-0.1-0.4-0.1-0.6c0-0.2,0.1-0.4,0.2-0.5c0,0,0.1-0.1,0.1-0.1
			c0,0,0.1-0.1,0.2,0c0.1,0.1,0.2,0.2,0.2,0.3C22.5,13.9,22.4,14.2,22.4,14.6z"/>
	</g>
	<path class="st1" d="M23,4.8c0.2-1.2,1.9-1.4,3.6-1.5c1.8-0.2,4.9-0.9,5.8-0.9c0.9,0,1.7-0.1,2.2-0.1c-0.4,0.4-1.5,0.6-1.3,0.8
		c0.2,0.2,2.2,1.1,2.5,1.8c0.8,1.7,0.6,5.1,0.5,5.9c-0.2,1.9-1,3-1,3.6c-0.1-1.6-1.7-6.1-1.5-6.9c-0.4,0.2-2.2,0.6-3.4,0.5
		c-1.2-0.1-5.7,0.4-7.1-0.3c0.4,1.5,0.2,2.7-0.1,3.3c-0.3,0.5-0.9,2-0.8,3.5c-0.7-1.7-1-3.2-1-4c0-0.8-0.2-3,0.1-4
		C21.9,5.3,22.6,4.7,23,4.8z"/>
	<path class="st6" d="M29,29.5c1.1-0.5,4.9-1.9,4.5-5.7c1.1,1.7,2.1,6.8-1.3,10.5C31.3,32.5,29.9,30,29,29.5z"/>
	<path class="st1" d="M6.2,83.3c2.5,0.3,5.7-0.7,6.3-0.9c0.5-3.8,2.6-20.1,2.2-22.1c-0.4-2,0.9-9.2,1-9.5c0.6,4.9-1.6,30.2-1.9,31.7
		c2.2,1.8,9.4,3.3,10.6,2.9c1.2-0.4,3.4-3.9,3.5-12.3c0-5.7-0.2-10-0.5-12.4c-0.1-1.1-0.2-1.9-0.3-2.2c-0.2-1.1-3.8-13.6-4.1-16.8
		c-0.2-3.2,0.4-14.9,0.9-16.7c-0.1,0.1-0.2,0.2-0.3,0.3c0,0,0,0,0,0c-2.5,2.1-9,3.8-10.4,4.3c-1.4,0.5-3.5,4.1-3.9,7
		C9.1,37.5,4.4,76.5,6.2,83.3z"/>
	<path class="st0" d="M17.6,33.5c0.1,1.5,1.9,12.2,5.7,20c1.5,3,3.5,6.7,4.1,7.2c-0.1-1.1-0.2-1.9-0.3-2.2
		c-0.2-1.1-3.2-9.8-3.6-16.4c-0.3-4.3,0-15.3,0.5-17.1c-0.1,0.1-0.2,0.2-0.3,0.3c0,0,0,0,0,0c-1.8,1.7-5,4.5-5.1,5.7
		c0.5,0.3,1.3,1,1.2,1.3C19.7,32.5,17.8,33.2,17.6,33.5z"/>
	<path class="st6" d="M29,29.5c-1.1-0.5-4.9-1.9-4.5-5.7c-1.1,1.7-2.1,6.8,1.3,10.5C26.7,32.5,28,30,29,29.5z"/>
	<path class="st1" d="M51.8,83.3c-2.5,0.3-5.7-0.7-6.3-0.9c-0.5-3.8-2.6-20.1-2.2-22.1c0.4-2-0.9-9.2-1-9.5
		c-0.6,4.9,1.6,30.2,1.9,31.7c-2.2,1.8-9.4,3.3-10.6,2.9c-1.2-0.4-3.4-3.9-3.5-12.3c0-5.7,0.2-10,0.5-12.4c0.1-1.1,0.2-1.9,0.3-2.2
		c0.2-1.1,3.8-13.6,4.1-16.8c0.2-3.2-0.4-14.9-0.9-16.7c0.1,0.1,0.2,0.2,0.3,0.3c0,0,0,0,0,0c2.5,2.1,9,3.8,10.4,4.3
		c1.4,0.5,3.5,4.1,3.9,7C48.8,37.5,53.5,76.5,51.8,83.3z"/>
	<path class="st0" d="M40.4,33.5c-0.1,1.5-1.9,12.2-5.7,20c-1.5,3-3.5,6.7-4.1,7.2c0.1-1.1,0.2-1.9,0.3-2.2
		c0.2-1.1,3.2-9.8,3.6-16.4c0.3-4.3,0-15.3-0.5-17.1c0.1,0.1,0.2,0.2,0.3,0.3c0,0,0,0,0,0c1.8,1.7,5,4.5,5.1,5.7
		c-0.5,0.3-1.3,1-1.2,1.3C38.3,32.5,40.1,33.2,40.4,33.5z"/>
</g>
</svg>
