<?xml version="1.0" encoding="utf-8"?>
<!-- Generator: Adobe Illustrator 22.1.0, SVG Export Plug-In . SVG Version: 6.00 Build 0)  -->
<svg version="1.1" id="Capa_1" xmlns="http://www.w3.org/2000/svg" xmlns:xlink="http://www.w3.org/1999/xlink" x="0px" y="0px"
	 viewBox="0 0 92.2 160" style="enable-background:new 0 0 92.2 160;" xml:space="preserve">
<style type="text/css">
	.st0{fill:#F7B480;}
	.st1{fill:#662C00;}
	.st2{fill:#404040;}
	.st3{fill:#2E2E2E;}
	.st4{opacity:0.2;enable-background:new    ;}
	.st5{fill:#1B0E7C;}
	.st6{fill:#0C065B;}
	.st7{fill:#F1F1F1;}
	.st8{fill:#494949;}
</style>
<g>
	<path class="st0" d="M45.2,157.8c-0.8,0.7-10.4-1.4-11.5-3.5c-1.1-2.1-0.8-5.8-0.5-8c0.3-2.3,0.5-5.4,0-8.6
		c-0.5-3.3-1.8-14.8-1.5-16.7c0.3-1.9,0.8-5.8,0-9.4s-0.2-10.6-1.5-13.5s-1.6-13-1.6-13h-2.3c0,0-0.3,10.1-1.6,13
		c-1.3,2.9-0.7,9.9-1.5,13.5s-0.3,7.5,0,9.4s-1,13.5-1.5,16.7s-0.3,6.3,0,8.6s0.7,5.9-0.5,8c-1.1,2.1-10.7,4.1-11.5,3.5
		s0.7-2.9,2-4.4s4.2-4.5,4.3-6.8c0.2-2.3-2.8-15.4-3.2-17.4c-0.5-1.9,0.7-14.8,0.8-16.7c0.2-1.9-0.3-6-0.3-8.1S12.8,83.1,14,77.9
		c1.1-5.2,2.4-14,2.4-17.1s-2.1-15.9-2.3-18.7s-1.3-12.7-1.9-14.6c3.4-3.4,9.3-5.2,10.1-5.5c0.4-0.2,0.8-1.4,1-2.6
		c0.2-1.1,0.2-2.2,0.2-2.8h8.1c-0.1,0.5,0,1.7,0.2,2.8c0.2,1.2,0.5,2.4,1,2.6c0.8,0.3,6.7,2.1,10.1,5.5c-0.7,1.9-1.8,11.9-1.9,14.6
		c-0.2,2.8-2.3,15.6-2.3,18.7s1.3,11.9,2.4,17.1c1.1,5.2,0.7,24.4,0.7,26.5s-0.5,6.2-0.3,8.1s1.3,14.8,0.8,16.7s-3.4,15.1-3.2,17.4
		c0.2,2.3,3,5.3,4.3,6.8C44.5,154.9,46,157.2,45.2,157.8z"/>
	<path class="st0" d="M42.8,27.5c3.6,3.2,3.8,8.9,4.5,15.9s1.5,11.6,1.9,13.1c0.3,1.5-0.9,17.9-1.1,19.6c-0.2,1.7,1.1,7.8,0.4,11
		c-0.6,2.8-1.4,3.7-2.4,4.2c-1.1,0.5-3.2,0-2.4-0.8c0.7-0.8,1.6-4.3,1.5-6.2c-0.1-1.9-0.7-1.9-1.1-0.8c-0.3,1.1-0.6,2.4-0.5,3.2
		c0.2,0.8-1.4,0.1-1.2-2.1s0.5-4.5,1.1-5.8c0.7-1.2,0.6-2.2,0.2-4.2c-0.4-2-1.5-12-1.3-13.7c0.2-1.8-0.6-5.6-1.1-6.6
		c-0.5-1.1-1.4-7.1-1.7-10.6C39.1,40.1,39.4,27.6,42.8,27.5z"/>
	<path class="st0" d="M12.2,27.5c-3.6,3.2-3.8,8.9-4.5,15.9S6.2,55,5.8,56.5C5.6,58,6.8,74.4,7,76.1s-1.1,7.8-0.4,11
		C7.2,89.9,8,90.8,9,91.3c1.1,0.5,3.2,0,2.4-0.8c-0.7-0.8-1.6-4.3-1.5-6.2c0.1-1.9,0.7-1.9,1.1-0.8c0.3,1.1,0.6,2.4,0.5,3.2
		c-0.2,0.8,1.4,0.1,1.2-2.1s-0.5-4.5-1.1-5.8c-0.6-1.2-0.6-2.2-0.2-4.2c0.4-2,1.5-12,1.3-13.7c-0.2-1.8,0.6-5.6,1.1-6.6
		c0.5-1.1,1.4-7.1,1.7-10.6C15.9,40.1,15.7,27.6,12.2,27.5z"/>
	<path class="st1" d="M48.3,49.3c-0.1-2.2-1-15.1-2.6-19c-0.4-1.1-1.7-2.4-3.4-3.7c-2.1-1.6-4.8-3.1-7.4-4c-0.8-0.3-1.5-0.5-2.3-0.6
		c-0.6,2.1-2.4,4.1-5.2,4.8c-2.8-0.7-4.6-2.8-5.2-4.8c-0.7,0.1-1.5,0.3-2.3,0.6c-2.6,0.9-5.3,2.4-7.4,4c-1.7,1.3-3,2.7-3.4,3.7
		c-1.6,3.9-2.5,16.8-2.6,19c-0.1,2.2-1.6,8.2-1.6,10.9c0,2.6,1.6,15.6,1.6,17.4c1.6,1.5,4.4,1.2,5.1,0c0.3-1.9,1.1-15.5,1.5-17.5
		s1.5-10.1,1.7-11.6c0.1,2.5,0.6,5.8,0.7,8.1c0.5,8.1-0.7,12.1-1.8,18.3h0.1c1.8,0.8,9.8,1.3,13.5,1.3c3.8,0,11.7-0.5,13.5-1.3h0.1
		c-1-6.2-2.3-10.2-1.8-18.3c0.1-2.3,0.6-5.6,0.7-8.1c0.2,1.6,1.3,9.6,1.7,11.6s1.2,15.6,1.5,17.5c0.7,1.2,3.6,1.5,5.1,0
		c0-1.8,1.6-14.7,1.6-17.4C49.9,57.6,48.4,51.6,48.3,49.3z"/>
	<g>
		<path class="st2" d="M48.7,155.9c-0.3,0.7-2,1.2-3.4,1.4c-1.5,0.3-4.8,0-6-0.9s-2.5-2.1-3.4-2.1c-0.9-0.1-2.8-0.9-3.3-1.5
			c0-0.5-0.6-3.3,0.2-4.3c0.5,1,1.5,1.2,1.8,0.9s0.9-1.8,1.3-2.3c0.4-0.4,1.7-0.8,2.4-0.7s1.4,0.8,1.8,1.5c0.4,0.7,2.3,3,3.3,3.8
			s4.6,3.8,5,4.1C48.6,155.8,48.6,155.9,48.7,155.9z"/>
		<path class="st3" d="M48.7,157.8c-0.2,0.7-1.7,1.5-3.2,1.7s-5-0.2-5.8-0.7s-3.2-2.4-3.8-2.4s-3.2-0.7-3.5-1.2s-0.3-1.8,0.1-2.3
			c0.6,0.6,2.4,1.4,3.3,1.5c0.9,0.1,2.2,1.2,3.4,2.1c1.2,0.9,4.5,1.2,6,0.9s3.1-0.7,3.4-1.4C48.9,156.4,48.9,157.2,48.7,157.8z"/>
	</g>
	<path class="st4" d="M31.7,19.4c-1.4,1.4-3.2,2.2-4.2,2.2c-1.1,0-2.8-0.8-4.2-2.2c0.2-1.1,0.2-2.2,0.2-2.8h8.1
		C31.5,17.2,31.6,18.3,31.7,19.4z"/>
	<path class="st0" d="M33.7,4.9c-1.1-1.9-4.4-3.2-6.2-3.2c-1.7,0-5,1.3-6.2,3.2c-1.1,1.9-0.3,6.3,0,9.9s4.3,6,6.2,6
		c1.9,0,5.8-2.4,6.2-6C34,11.2,34.8,6.8,33.7,4.9z"/>
	<g>
		<path class="st2" d="M6.4,155.9c0.3,0.7,2,1.2,3.4,1.4c1.5,0.3,4.8,0,6-0.9s2.5-2.1,3.4-2.1c0.9-0.1,2.8-0.9,3.3-1.5
			c0-0.5,0.6-3.3-0.2-4.3c-0.5,1-1.5,1.2-1.8,0.9s-0.9-1.8-1.3-2.3c-0.4-0.4-1.7-0.8-2.4-0.7c-0.7,0.1-1.4,0.8-1.8,1.5
			c-0.4,0.7-2.3,3-3.3,3.8s-4.6,3.8-5,4.1C6.5,155.8,6.4,155.9,6.4,155.9z"/>
		<path class="st3" d="M6.3,157.8c0.2,0.7,1.7,1.5,3.2,1.7s5-0.2,5.8-0.7s3.2-2.4,3.8-2.4s3.2-0.7,3.5-1.2s0.3-1.8-0.1-2.3
			c-0.6,0.6-2.4,1.4-3.3,1.5s-2.2,1.2-3.4,2.1c-1.2,0.9-4.5,1.2-6,0.9s-3.1-0.7-3.4-1.4C6.1,156.4,6.1,157.2,6.3,157.8z"/>
	</g>
	<path class="st5" d="M42,112c0.7-6.4,0.6-32.3-0.9-37.1c-5,0-22.2,0-27.2,0c-1.5,4.8-1.6,30.7-0.9,37.1c0.4,3.8-1.1,14.4-0.7,17.9
		c0.4,3.5,1.3,17,1.3,19.4c1.6,0.9,7,2.3,9.4-0.2c-0.4-3.9,1-25.8,1-29.3s0.8-18.7,1.7-21.7c0.9-2.9,0.6-13.1,0.6-13.1h1.1h1.1
		c0,0-0.3,10.2,0.6,13.1s1.7,18.2,1.7,21.7s1.4,25.4,1,29.3c2.3,2.5,7.7,1.1,9.4,0.2c0-2.4,0.9-16,1.3-19.4
		C43.1,126.4,41.6,115.8,42,112z"/>
	<path class="st6" d="M28.6,85c0-0.5,0-0.8,0-0.8h-2.4h-1.1c0,0,0.3,10.2-0.6,13.1s-1.7,18.2-1.7,21.7s-0.8,24.8-2,28.5
		c-0.9,2.7-4.9,2.3-7.1,1.5c0,0.1,0,0.2,0,0.3c1.6,0.9,7,2.3,9.4-0.2c-0.4-3.9,1-25.8,1-29.3s0.8-18.7,1.7-21.7
		c0.9-2.9,0.6-13.1,0.6-13.1S28.6,85,28.6,85z"/>
	<path class="st6" d="M42,112c0.7-6.4,0.6-32.3-0.9-37.1c-0.3,0-0.6,0-1,0c1.3,6.4,1.4,30.2,0.7,36.3c-0.4,3.8,1.1,14.4,0.7,17.9
		c-0.4,3.5-0.9,17-2.2,19.1c-0.8,1.4-4.5,2.2-7.2,1c2.4,2.4,7.6,1,9.2,0.1c0-2.4,0.9-16,1.3-19.4C43.1,126.4,41.6,115.8,42,112z"/>
	<path class="st4" d="M27.5,26.9c1.1,1.1,2.8,3.1,3.4,4.5c2.3-2.8,4-6.4,4.5-8.6c-1.7-0.8-2.7-1.8-3.5-2.4
		C32.7,22.2,29.1,26.3,27.5,26.9z"/>
	<path class="st4" d="M27.5,26.9c-1.1,1.1-2.8,3.1-3.4,4.5c-2.3-2.8-4-6-4.5-8.6c1.7-0.8,2.7-1.8,3.5-2.4
		C22.3,22.2,25.9,26.3,27.5,26.9z"/>
	<path class="st7" d="M27.5,26.9c1.1,1,2.8,2.1,3.4,3.4c2.3-2.5,3.8-5.8,4.5-7.5c-1.7-0.7-2.7-1.8-3.5-2.4
		C32.7,22,29.1,26.4,27.5,26.9z"/>
	<path class="st7" d="M27.5,26.9c-1.1,1-2.8,2.1-3.4,3.4c-2.3-2.5-3.8-5.8-4.5-7.5c1.7-0.7,2.7-1.8,3.5-2.4
		C22.3,22,25.9,26.4,27.5,26.9z"/>
	<path class="st8" d="M34.3,6.3c0,0.2,0,0.4,0,0.6c0,1.5,0,3.8-0.4,5.7c-0.2-1.8-0.3-4.4-1.1-4.7c0.6-3.6-0.6-3.7-2.3-3.9
		c-1.7-0.2-3-0.2-3-0.2s-1.2,0-3,0.2c-1.7,0.2-3.2,1.4-2.3,3.9l0,0C22.1,7.9,22.1,8,22,8c-0.6,0.6-0.7,2.9-0.9,4.5l0,0v-0.1
		c-0.3-1.8-0.4-3.9-0.4-5.4c0-0.1,0-0.1,0-0.2V6.3c0-1.5,0.8-3.9,2-4.8c0.6-0.4,3-0.9,4.8-0.9s4.2,0.5,4.8,0.9
		C33.5,2.3,34.3,4.8,34.3,6.3z"/>
</g>
</svg>
