<?xml version="1.0" encoding="utf-8"?>
<!-- Generator: Adobe Illustrator 22.1.0, SVG Export Plug-In . SVG Version: 6.00 Build 0)  -->
<svg version="1.1" id="Capa_1" xmlns="http://www.w3.org/2000/svg" xmlns:xlink="http://www.w3.org/1999/xlink" x="0px" y="0px"
	 viewBox="0 0 92.2 160" style="enable-background:new 0 0 92.2 160;" xml:space="preserve">
<style type="text/css">
	.st0{fill:#1D1E1C;}
	.st1{fill:#F7B480;}
	.st2{opacity:0.2;enable-background:new    ;}
	.st3{fill:#EB8841;}
	.st4{fill:#C8388C;}
	.st5{fill:#DC6FA7;}
	.st6{fill:#E8467D;}
	.st7{fill:#E33365;}
	.st8{fill:#848738;}
	.st9{fill:#F4CF82;}
	.st10{fill:#FDE0B2;}
	.st11{fill:#9FA14B;}
</style>
<g>
	<g>
		<path class="st0" d="M33.8,46.8c-0.8-0.7-2.9-0.9-3.5,0.2l-0.1,2.1c0,0,0.5,0.1,1.6,1.8c1.1,1.7,1.1,5.2,0.4,8.3
			c-0.7,3.1-2.4,4-3.6,4.2c0.6,0.5,1.7,0.7,2.6,0.4c0.4-0.1,0.7-0.2,1-0.4c0.4,0.4,1.1,0.7,1.3,0.5c-0.3-0.5,0.1-1.1,0.4-2.2
			c0,0-0.4,1.1,0,0c0.5-1.5,1.1-3.3,1.7-5.7C36.3,52.5,36.3,48.7,33.8,46.8z"/>
		<path class="st0" d="M33.7,59.1c0.7-3.2,0.8-6.9-0.4-8.8c-0.9-1.4-2.4-2.4-3-2.7l-0.1,1.7c0,0,0.5,0.1,1.6,1.8
			c1.1,1.7,1.1,5.2,0.4,8.3c-0.7,3.1-2.4,4-3.6,4.2c0.4,0.3,0.8,0.5,1.4,0.5C31.2,63.7,33.1,62.1,33.7,59.1z"/>
	</g>
	<g>
		<path class="st0" d="M12.6,46.8c0.8-0.7,2.9-0.9,3.5,0.2l0.1,2.1c0,0-0.5,0.1-1.6,1.8c-1.1,1.7-1.1,5.2-0.4,8.3
			c0.7,3.1,2.4,4,3.6,4.2c-0.6,0.5-1.7,0.7-2.6,0.4c-0.4-0.1-0.7-0.2-1-0.4c-0.4,0.4-1.1,0.7-1.3,0.5c0.3-0.5-0.1-1.1-0.4-2.2
			c0,0,0.4,1.1,0,0c-0.5-1.5-1.1-3.3-1.7-5.7C10.1,52.5,10.2,48.7,12.6,46.8z"/>
		<path class="st0" d="M12.8,59.1c-0.7-3.2-0.8-6.9,0.4-8.8c0.9-1.4,2.4-2.4,3-2.7l0.1,1.7c0,0-0.5,0.1-1.6,1.8
			c-1.1,1.7-1.1,5.2-0.4,8.3c0.7,3.1,2.4,4,3.6,4.2c-0.4,0.3-0.8,0.5-1.4,0.5C15.2,63.7,13.5,62.1,12.8,59.1z"/>
	</g>
	<path class="st1" d="M32.5,115.9c-0.5,1.7-0.9,3.4-1.6,4.9c-0.3,0.8-0.9,3.9-0.7,5.2c0.2,1.4-0.4,8.4-1.7,12.3
		c-1.4,3.9-2.1,9-1.7,11.4l0,0c0.2,0.3,0.4,0.8,0.5,1.1c0.2,0.3,0.2,0.5,0.2,0.5c0.1,0.3,0,2.9-0.5,3.6c-0.8,1.4-2.5,0.9-2.8,0.8
		c-0.5-0.2-0.5-3.1-0.5-4.9c0-0.3,0-0.6,0-0.8c0-0.1,0-0.2,0-0.2c0,0-0.1-3.7-0.1-4.7c-0.1-4.6-0.5-12.5-0.1-14.9
		c0.2-1.2,0.5-2.4,0.5-3.8c-0.1-1-0.2-2.5-0.4-5.2c-0.2-1.2-0.2-2.7-0.2-4.3c-0.1-6,0.4-13.5,0.5-14.4c-0.3,0-0.8-0.1-0.8-0.1
		s-0.5,0.1-0.8,0.1c0.2,0.9,0.6,8.4,0.5,14.4c0,1.6-0.1,3.1-0.2,4.3c-0.2,2.7-0.4,4.3-0.4,5.2c-0.1,1.4,0.2,2.6,0.5,3.8
		c0.5,2.4,0.1,10.3-0.1,14.9c0,1-0.1,4.7-0.1,4.7c0,0.1,0,0.2,0,0.2c0,0.2,0,0.5,0,0.8c0,1.9,0.2,5-1.2,5.2
		c-0.6,0.1-3.1,0.2-2.6-4.6c0.1-0.2,0.2-0.4,0.2-0.5c0.2-0.4,0.3-0.8,0.5-1.1l0,0c0.4-2.4-0.4-7.5-1.7-11.4
		c-1.4-3.9-1.9-10.9-1.7-12.3c0.2-1.4-0.4-4.4-0.7-5.2c-0.6-1.5-1.1-3.2-1.6-4.9c-1.5-6.1-1.7-12.8-1.3-17.1c0.2-2,0.8-4.9,1.3-7.7
		c0.5-2.6,1.1-4.9,1.2-5.9c0.5-2,0.3-5.9,0.2-8.7c-0.1-2.9-1.3-7.3-2.7-10.1c1.1-0.6,6.2-2.1,6.6-2.6c0.3-0.4,0.5-1.6,0.7-2.9
		c0.1-0.8,0.1-1.5,0.1-2.1h6.5c0,0.6,0,1.4,0.1,2.1c0.2,1.3,0.4,2.6,0.7,2.9c0.5,0.5,5.5,2,6.6,2.6c-1.4,2.9-2.6,7.3-2.7,10.1
		c-0.1,2.9-0.3,6.8,0.2,8.7c0.2,1,0.8,3.3,1.2,5.9c0.5,2.7,1.1,5.6,1.3,7.7C34.2,103,34,109.7,32.5,115.9z"/>
	<path class="st2" d="M26.5,60.9c-1.2,1.1-2.3,1.5-3.3,1.7c-1-0.2-2.1-0.6-3.3-1.7c0.1-0.8,0.1-1.5,0.1-2.1h6.5
		C26.5,59.4,26.5,60.1,26.5,60.9z"/>
	<path class="st1" d="M29.8,46.3c-0.5-2.6-4.3-4.3-6.6-4.3s-6.2,1.8-6.6,4.3c-0.5,3.3-0.5,10.3,1.5,12.5c2.1,2.3,3.6,3,5,3.3
		c1.4-0.2,3-1,5-3.3C30.3,56.5,30.3,49.5,29.8,46.3z"/>
	<g>
		<path class="st1" d="M29.9,51.6c0.2-0.5,0.9-0.8,1.1-0.7c0.2,0.2,0.9,0.5,0.8,1.4c-0.2,0.8-0.3,1.6-0.9,2.2
			c-0.6,0.5-1.4,0.9-1.4,0.6C29.3,54.6,29.8,52.1,29.9,51.6z"/>
		<path class="st3" d="M31.4,52.3c0-0.2-0.2-0.4-0.3-0.5c-0.1,0-0.2,0-0.2,0c-0.1,0-0.2,0.1-0.2,0.2c-0.2,0.2-0.4,0.6-0.5,0.9
			L30,52.7c0.2-0.1,0.2-0.2,0.5-0.2c0.1,0,0.2-0.1,0.3,0s0.2,0.2,0.2,0.2c0,0.2,0,0.3-0.1,0.5s-0.2,0.2-0.3,0.3
			c0.1-0.1,0.2-0.2,0.2-0.4c0-0.2,0-0.2,0-0.4c0-0.1-0.1-0.1-0.1-0.1s-0.1,0-0.2,0c-0.2,0.1-0.2,0.2-0.4,0.2L29.9,53l0.1-0.2
			c0.1-0.2,0.1-0.4,0.2-0.5c0.1-0.2,0.2-0.4,0.4-0.5c0.1-0.1,0.2-0.1,0.3-0.2c0.1,0,0.2,0,0.3,0.1C31.4,51.9,31.5,52.1,31.4,52.3z"
			/>
	</g>
	<g>
		<path class="st1" d="M16.5,51.6c-0.2-0.5-0.9-0.8-1.1-0.7c-0.2,0.2-0.9,0.5-0.8,1.4c0.2,0.8,0.3,1.6,0.9,2.2
			c0.6,0.5,1.4,0.9,1.4,0.6C17.1,54.6,16.7,52.1,16.5,51.6z"/>
		<path class="st3" d="M15.1,52.3c0-0.2,0-0.4,0.2-0.5c0.1-0.1,0.2-0.1,0.3-0.1c0.1,0,0.2,0.1,0.3,0.2c0.2,0.2,0.3,0.3,0.4,0.5
			s0.2,0.4,0.2,0.5l0.1,0.2L16.3,53c-0.2-0.1-0.2-0.2-0.4-0.2c-0.1,0-0.2,0-0.2,0s-0.1,0-0.1,0.1c-0.1,0.2-0.1,0.2,0,0.4
			c0,0.2,0.2,0.2,0.2,0.4c-0.2-0.1-0.2-0.2-0.3-0.3c-0.1-0.2-0.1-0.3-0.1-0.5c0-0.1,0.1-0.2,0.2-0.2c0.2,0,0.2,0,0.3,0
			c0.2,0.1,0.3,0.1,0.5,0.2L16.3,53c-0.1-0.4-0.2-0.7-0.5-0.9c-0.1-0.1-0.2-0.1-0.2-0.2c-0.1,0-0.2,0-0.2,0
			C15.2,51.9,15.1,52.1,15.1,52.3z"/>
	</g>
	<g>
		<path class="st4" d="M23,156.4c-0.2,0.4-0.5,0.9-1.1,0.9h-2.2c-0.3,0-1-0.4-1.1-1.1c-0.1-0.3-0.1-0.8-0.2-1.4
			c0.2,0.4,0.5,0.8,0.8,0.9c0.4,0.2,2.5,0.1,2.8-0.1c0.3-0.2,0.7-0.5,0.9-1.1C23.2,155.4,23.1,156.2,23,156.4z"/>
		<path class="st5" d="M23.1,154.4L23.1,154.4c-0.2,0.7-0.6,0.9-0.9,1.1c-0.3,0.2-2.4,0.2-2.8,0.1s-0.7-0.5-0.8-0.9
			c0-0.9,0.1-2.1,0.3-3.4c0.2,0.6,0.2,1.5,0.6,1.7c0.4,0.2,1.9,0.2,2.4,0s0.8-1.2,0.9-2.2C22.9,151.8,23,153.3,23.1,154.4z"/>
		<path class="st4" d="M22.7,150.7c-0.5-0.3-1.3-0.6-2.1-0.5c-0.5,0-1.1,0.3-1.5,0.6c0.2-0.4,0.3-0.8,0.5-1.1c0.3-0.2,0.6-0.2,1-0.2
			c0.8,0,1.5,0.2,2.1,0.5C22.7,150.2,22.7,150.4,22.7,150.7z"/>
	</g>
	<g>
		<path class="st4" d="M27.9,154.8c0,0.6-0.1,1.1-0.2,1.4c-0.2,0.8-0.8,1.1-1.1,1.1h-2.1c-0.5,0-0.9-0.5-1.1-0.9c-0.1-0.2-0.1-1,0-2
			c0.2,0.7,0.6,0.9,0.9,1.1c0.3,0.2,2.4,0.2,2.8,0.1C27.4,155.6,27.7,155.2,27.9,154.8z"/>
		<path class="st5" d="M27.9,154.8L27.9,154.8c-0.2,0.4-0.5,0.8-0.8,0.9c-0.4,0.2-2.5,0.1-2.8-0.1c-0.3-0.2-0.7-0.5-0.9-1.1l0,0
			c0.1-1.1,0.2-2.6,0.5-3.6c0,1,0.4,2,0.8,2.2c0.5,0.2,2,0.2,2.4,0c0.3-0.2,0.5-1.1,0.6-1.7C27.9,152.7,27.9,153.9,27.9,154.8z"/>
		<path class="st4" d="M27.4,150.8c-0.4-0.3-1-0.6-1.5-0.6c-0.7-0.1-1.5,0.2-2,0.5c0-0.3,0-0.6,0-0.8c0.5-0.3,1.4-0.5,2.1-0.5
			c0.3,0,0.7,0.1,1,0.2C26.9,150,27.1,150.5,27.4,150.8z"/>
	</g>
	<path class="st0" d="M20.6,44.8c0.8,1.2,2.5,2.7,3.7,2.9c5.6,1,5.2,3.1,5.6,3.9c1.1-3.1,1.4-8.9-1.7-10.6c-2.1-1.1-5.3-1.7-7.3-0.4
		c-1.2,0-2.4,0.2-3.1,0.8c-2.4,2.1-2.9,6.2-1.4,9.9C17.4,48,18.9,45.8,20.6,44.8z"/>
	<path class="st6" d="M32.7,90.4c-2.8,0.6-7.7,1-9.5,1c-1.7,0-6.7-0.4-9.5-1c0.3-1,0.5-2.4,0.8-4c0.2-1.5,0.4-3.1,0.5-4.6
		c0.2-2.7,0.3-5,0.3-5.9c-0.1-0.4-0.2-1-0.4-1.7c-0.6-2.6-1.6-6.8-1.9-7.8c0-0.1-0.1-0.2-0.1-0.2c0.6-0.5,4.7-2,6.3-2.3
		c0.5,1.4,2.9,2.6,4,2.6s3.5-1.1,4-2.6c1.7,0.4,5.8,1.8,6.3,2.3c-0.3,0.8-2.7,8.1-2.4,9.7C31.2,77.8,31.7,86.9,32.7,90.4z"/>
	<path class="st7" d="M31.2,75.8c-0.7,5.9,0.3,11.4-0.4,12.9c-0.6,1.4-6.9,1.9-8.7,1.9c-1.5,0-5.4-0.3-8.3-0.8
		c-0.1,0.2-0.1,0.3-0.2,0.5c2.8,0.6,7.7,1,9.5,1c1.7,0,6.7-0.4,9.5-1C31.7,86.9,31.2,77.8,31.2,75.8z"/>
	<path class="st2" d="M26.2,81.6c-0.2-0.3-0.5-0.7-0.8-1c0-0.7,0-1.4-0.1-2.1c0.2,0,0.2,0,0.3,0c0.2,0.1,0.2-0.3-0.3-0.5
		c-0.1-2.2-0.1-4.1-0.1-4.3c-0.2,0-0.5,0-0.9,0.1c-0.2-0.2-0.5-0.5-0.5-0.7l0,0v-0.5c0,0-7.7,0.6-8.3,1c0.1,1.5,0.2,4.9,0.3,8
		c-0.3,0.1-0.6,0.2-0.8,0.2c-0.2,1.5-0.3,3.2-0.5,4.6c0.5-0.2,1.1-0.4,1.5-0.6c0.1,0.8,0.1,1.3,0.1,1.5c0,0.2,0.1,0.5,0.2,0.6l0,0
		c0.2,0.2,0.5,0.3,0.9,0.3c0.8,0,7.7-0.6,8.3-0.8c0-0.5,0-2.3-0.1-4.3C26.1,83,26.7,82.5,26.2,81.6z M16.4,87.9L16.4,87.9L16.4,87.9
		z"/>
	<g>
		<path class="st8" d="M25.4,86.9c-0.7,0.2-7.4,0.8-8.1,0.8c-0.5,0-0.7-0.1-0.9-0.3c0.5,0.5,0.2-1.9-0.2-0.6L16.3,74
			c0,0,4.9-0.2,7.4-0.3c0.2,0,0.4,0,0.5,0c0.5,0,0.8,0,0.9-0.1C25.1,74.2,25.4,85.4,25.4,86.9z"/>
		<path class="st9" d="M25.2,86.8c-2.8,0.3-8.3,1.1-8.8,0.6l0,0c-0.2-0.2-0.2-0.4-0.2-0.6c0.5-1.2,4.1-1,7.8-1.1
			C24.1,86.4,24.9,86.6,25.2,86.8z"/>
		<path class="st10" d="M25.2,86.8c-0.4-0.2-1.1-0.3-1.3-1.1l-0.2-12.1v-0.7c0.2,0.2,0.3,0.5,0.5,0.6c0.2,0.2,0.5,0.3,0.6,0.2
			C24.9,74.7,25.2,86.6,25.2,86.8z"/>
		<path class="st11" d="M24.1,85.8c-3.6,0.2-7.5-0.2-8,1C16,86,15.7,76.2,15.5,73.4c0.6-0.4,8.1-1,8.1-1V73l0,0v0.7L24.1,85.8z"/>
	</g>
	<path class="st1" d="M7,84.4c0,0.9,0.3,3,2,3.2c1.6,0.2,8.8-2.9,10.4-3.6c2.1-1.1,2.5-1.2,3-1.5s2-0.1,2.6,0.2
		c0.6,0.3,1.6-0.3,1.1-1.3s-2.1-2.1-2.6-2.4c-0.3-0.2-0.4-0.5-0.1-0.5c0.4-0.2,1.8-0.2,2.1-0.1c0.3,0.1,0.2-0.5-0.7-0.6
		s-1.8-0.3-2.1-0.2c-0.4,0.2-2.5,2.4-3.3,2.8c-0.8,0.4-6,1.2-6.7,1.5c0.1-0.9,2.4-8.5,2.4-8.5l-0.8-7.3c0,0-1.6-0.3-2.7,1.3
		C10.6,68.9,7,81.2,7,84.4z"/>
	<path class="st2" d="M32.5,115.9c-3.9,0.8-7.7,0.9-9,0.9c-0.1-6,0.4-13.5,0.5-14.4c-0.3,0-0.8-0.1-0.8-0.1s-0.5,0.1-0.8,0.1
		c0.2,0.9,0.6,8.4,0.5,14.4c-1.4,0-5.2-0.1-9-0.9c-1.5-6.1-1.7-12.8-1.3-17.1c0.2-2,0.8-4.9,1.3-7.7c1.8,0.2,8.4,1,9.3,1
		s7.4-0.7,9.3-1c0.5,2.7,1.1,5.6,1.3,7.7C34.2,103,34,109.7,32.5,115.9z"/>
	<path class="st11" d="M32.7,90.4c-1.7,0.2-8.4,1-9.5,1c-1,0-7.9-0.8-9.5-1c-0.7,2.9-3.3,20.6-4.6,23.3c5.5,2.4,12.6,2.4,14.1,2.4
		s8.6,0,14.1-2.4C36.1,110.9,33.4,93.2,32.7,90.4z"/>
	<path class="st8" d="M32.7,90.4c-0.2,0-0.5,0.1-1,0.2c0.8,4,4.3,19.7,3.4,21.8c-1.2,2.7-11.5,3.3-13,3.3c-1.3,0-6.8,0-11.9-1.5
		c5.2,1.9,11.5,1.9,12.9,1.9c1.5,0,8.6,0,14.1-2.4C36.1,110.9,33.4,93.2,32.7,90.4z"/>
	<path class="st1" d="M33.8,66.3c1.1,0.8,1.7,1.7,2.1,3.8c0.2,1.3,0.4,3.7,0.5,4.5c0.2,2.1,0.2,7.2,0.4,8c0.2,0.8,2.1,13.1,2.1,14.4
		c0.2,1.7,0.3,5-0.1,6.5c-0.3,1.2-3.6,5.2-4.9,5.5c-1.3,0.3,0.8-2.1,1.1-2.7c0.2-0.8,1.4-2.8,0.7-2.8c-0.4,0-1.1,2.1-1.6,2.1
		c-0.6-0.1-0.4-2.5,0.2-3.6s1.1-1.7,1.4-2.7c0.4-0.9-0.1-2.7-0.5-4c-0.4-1.3-3-7.7-3.3-9.7c-0.2-2-0.5-8.2-0.7-10
		C31,73.7,32.2,66.4,33.8,66.3z"/>
	<path class="st6" d="M33.5,66.1c2.2,1.2,3.7,4,2.9,8.7c-0.4,1.6-4,2.7-5.2,2.3c-0.2-1.1-0.5-1.6-0.5-2.6
		C30.8,73.6,31.7,66.8,33.5,66.1z"/>
	<path class="st6" d="M12.9,66.1c-0.8,0.3-4,2.9-3.4,7.3c0.9,1.5,3.6,2.6,4.8,2.8c1.1-0.8,1.2-2.9,1.3-3.5c0-0.7,1.3-5.9,0-6.6
		C14.2,65.4,14.1,65.7,12.9,66.1z"/>
	<path class="st7" d="M15.1,75c0-0.5,0-0.8,0.1-1.3s0.2-0.8,0.2-1.3l0.2-1.2c0.1-0.5,0.2-0.8,0.2-1.3c0.1,0.5,0.1,0.8,0,1.3
		c0,0.5-0.1,0.8-0.2,1.3C15.6,73.4,15.4,74.2,15.1,75z"/>
	<path class="st7" d="M31.2,77.1c-0.3-0.4-0.6-0.8-0.8-1.3s-0.5-0.9-0.6-1.4c-0.3-0.9-0.5-2-0.3-3c0.1,1,0.3,1.9,0.7,2.9
		C30.5,75.2,30.9,76.1,31.2,77.1z"/>
</g>
</svg>
