<?xml version="1.0" encoding="utf-8"?>
<!-- Generator: Adobe Illustrator 22.1.0, SVG Export Plug-In . SVG Version: 6.00 Build 0)  -->
<svg version="1.1" id="Capa_1" xmlns="http://www.w3.org/2000/svg" xmlns:xlink="http://www.w3.org/1999/xlink" x="0px" y="0px"
	 viewBox="0 0 92.2 160" style="enable-background:new 0 0 92.2 160;" xml:space="preserve">
<style type="text/css">
	.st0{fill:#1D1E1C;}
	.st1{fill:#C4C3C3;}
	.st2{fill:#F7B480;}
	.st3{fill:#EB8841;}
	.st4{opacity:0.2;enable-background:new    ;}
	.st5{fill:#803223;}
	.st6{fill:#601310;}
	.st7{fill:#261113;}
	.st8{fill:#405DA7;}
	.st9{fill:#324781;}
	.st10{fill:#E6E5E5;}
</style>
<g>
	<path class="st0" d="M24.2,26.6C26,25.1,29,25.2,30,24c-0.6,1.1-1.3,1.6-1.9,2c2.6-0.4,3.4,1.5,5.8,1.3c-0.6,0.5-1.4,0.5-1.6,0.6
		c1.2,0.3,2.7,1.4,3.9,4.2c0.3,0.9,1.1,1.3,1.5,1.8c-1.2-0.3-1.7-0.9-2-1.1c0.1,0.8,0.3,3.7,0.9,4.9c-0.8-0.7-0.9-0.6-1.2-1.1
		c-0.1,1.5-1.3,2.6-0.8,4.6c-0.7-0.5-0.9-1-1-1.6c-0.5,0.9-1.4,5-1.4,6c-0.3-0.5-1.2-0.8-1.4-0.9c-0.2,0.9-0.3,1.7-0.6,2
		c-0.6,0.3-6.1,0.8-6.6-0.3c-0.5-1-1.3-2.2-1.5-2.6c-0.1-0.1-0.4,0.3-0.5,0.8c-0.3-1.2-0.2-1.7-0.3-2.1c-0.3-0.1-0.5-0.3-0.7,0.3
		c-0.3-1.4,0-2.6-0.3-3.3c-0.3,0.3-0.6,0.7-0.9,0.9c-0.1-0.7-0.2-1.8-0.3-2.3c-0.2,0.3-0.7,0.8-0.7,0.8c-0.2-1.9,0.2-2.8,0-3.7
		c-0.6,0.3-1,0.2-1.6,0.4c0.7-0.9,1.4-3.5,2.4-5.3c-0.9,0.1-1.3,0-1.6-0.3c2.6-1,3.7-2.9,4.5-3.1C23.1,26.4,23.8,26.3,24.2,26.6z"/>
	<path class="st1" d="M30.3,46.2c0.7,0.7,2,2.6,2,2.6l-0.9,0.9h-4.1l0.1-3.5H30.3z"/>
	<g>
		<g>
			<path class="st2" d="M20.9,36.9c-0.3-0.5-0.8-1.1-1-1.1c-0.6,0.1-0.7,1.4-0.5,2.2c0.2,0.9,0.6,1.4,0.9,1.7c0.3,0.3,0.9,0.7,1,0.5
				C21.5,40,21.2,37.4,20.9,36.9z"/>
			<path class="st3" d="M20,38c-0.2-0.1-0.3-0.3-0.3-0.4c-0.1-0.1-0.1-0.2-0.1-0.3c0-0.1,0-0.2,0.1-0.3c0-0.1,0.1-0.2,0.2-0.3
				c0.1-0.1,0.3-0.1,0.3,0c0.2,0.1,0.3,0.3,0.4,0.4s0.2,0.4,0.2,0.6s-0.1,0.3-0.2,0.5c0,0.1-0.1,0.2,0,0.3c0,0.1,0.1,0.2,0.1,0.3
				c0.1,0.2,0.3,0.3,0.3,0.4c-0.2-0.2-0.3-0.3-0.4-0.3c-0.1-0.1-0.2-0.2-0.2-0.3c0-0.1,0-0.3,0-0.3c0.1-0.2,0.1-0.3,0.2-0.5
				c0-0.2,0-0.3-0.1-0.5s-0.3-0.3-0.3-0.3c-0.1-0.1-0.3,0-0.3,0.2c0,0.1-0.1,0.2-0.1,0.3c0,0.1,0,0.2,0.1,0.3C19.9,37.8,20,38,20,38
				z"/>
		</g>
		<g>
			<path class="st2" d="M33.6,36.9c0.3-0.5,0.8-1.1,1-1.1c0.6,0.1,0.7,1.4,0.5,2.2c-0.2,0.9-0.6,1.4-0.9,1.7c-0.3,0.3-0.9,0.7-1,0.5
				C32.9,40,33.2,37.4,33.6,36.9z"/>
			<path class="st3" d="M34.3,38c0.1-0.2,0.2-0.3,0.3-0.5c0-0.1,0.1-0.2,0.1-0.3c0-0.1,0-0.2-0.1-0.3c-0.1-0.2-0.3-0.3-0.3-0.2
				c-0.2,0.1-0.3,0.2-0.3,0.3c-0.1,0.2-0.2,0.3-0.1,0.5c0,0.2,0.1,0.3,0.2,0.5c0,0.1,0,0.2,0,0.3c0,0.1-0.1,0.2-0.2,0.3
				c-0.2,0.2-0.3,0.3-0.4,0.3c0.1-0.2,0.3-0.3,0.3-0.4c0.1-0.1,0.1-0.2,0.1-0.3s0-0.2,0-0.3c-0.1-0.2-0.2-0.3-0.2-0.5s0-0.4,0.2-0.6
				c0.1-0.2,0.3-0.3,0.4-0.4c0.1-0.1,0.3-0.1,0.3,0c0.1,0.1,0.2,0.2,0.2,0.3c0,0.1,0.1,0.2,0.1,0.3c0,0.1-0.1,0.2-0.1,0.3
				C34.6,37.8,34.5,38,34.3,38z"/>
		</g>
	</g>
	<path class="st1" d="M24.1,46.2c-0.7,0.7-2,2.6-2,2.6l0.9,0.9h4.1l-0.1-3.5H24.1z"/>
	<path class="st2" d="M37.4,83.6c0.1,1.2,0.8,12.2,0.4,15.8c-0.3,3.7-1.4,11-2.2,13.6c-0.9,2.7-1.1,6-0.9,7.7
		c0.2,1.8,1.1,9.4,0.6,11.7c-0.5,2.4-3.2,13.9-3.2,15.5c0,1.6-0.2,4.6,0.3,5.5c-0.9,0-3.1,0.1-4.5,0.1V148c0-1.1-0.2-15.1-0.3-16.7
		c-0.2-1.5,0.6-4.7,0.6-6.2c0.1-1.5-0.2-15.1-0.3-16.8c-0.2-1.8-0.6-8.6-0.6-11.8c0,3.2-0.4,10-0.6,11.8c-0.2,1.8-0.4,15.3-0.3,16.8
		c0.1,1.5,0.9,4.7,0.6,6.2c-0.2,1.5-0.3,15.5-0.3,16.7v5.5c-1.4,0-3.6-0.1-4.5-0.1c0.5-0.9,0.3-3.9,0.3-5.5s-2.7-13.1-3.2-15.5
		c-0.5-2.4,0.3-10,0.6-11.7c0.2-1.8-0.1-5-0.9-7.7c-0.9-2.7-1.9-10-2.2-13.6c-0.3-3.7,0.3-14.6,0.4-15.8c0.1-1.2,1.2-7.4,1.2-9.4
		S17.2,63.4,17,62.2c-0.3-1.3-2-8.4-2.2-10.1c2.3-0.6,8.3-3,8.8-3.9c0.3-0.6,0.7-1.6,0.9-2.6c0.2-0.6,0.2-1.2,0.1-1.8h5.8
		c-0.1,0.5-0.1,1.2,0.1,1.8c0.3,1,0.7,2,0.9,2.6c0.4,1,6.5,3.4,8.8,3.9c-0.3,1.8-2,8.9-2.2,10.1c-0.3,1.3-1.4,9.9-1.4,11.9
		C36.2,76.2,37.3,82.4,37.4,83.6z"/>
	<path class="st4" d="M30.2,45.5c-1.1,0.8-2.2,1.2-3,1.2c-0.8,0-1.9-0.4-3-1.2c0.2-0.6,0.2-1.2,0.1-1.8h5.8
		C30,44.3,30,44.9,30.2,45.5z"/>
	<path class="st2" d="M33.8,32.5c-0.4-3.9-4.3-4.9-6.6-4.9s-6.2,1-6.6,4.9c-0.4,3.9,0.8,9.3,2,10.8c1.4,1.8,3.5,2.8,4.7,2.8
		c1.2,0,3.4-1,4.7-2.8C33.1,41.8,34.3,36.4,33.8,32.5z"/>
	<path class="st0" d="M24,31c-0.8,1.4-1.2,4.7-1.3,5.6c-0.5-0.3-1.1-1.3-1.3-1.7c0.1,1.2,0.3,2.6,0.4,3.3c-0.9-0.8-1.6-2-1.7-3.6
		s0.2-5.6,3.8-6.8c3.7-1.1,8.2-0.4,9.6,3c1.4,3.5,0.3,7.5-0.8,8.8c0.2-0.9,0.7-2.4,0.4-3.1c-0.2,0.8-0.4,1.4-0.8,1.7
		c0.1-2.4-0.4-3.1-0.7-3.5c-0.9-0.6-2-1.2-2.3-1.6c-0.3,1.1-0.3,1.9-0.3,2C27.7,33.1,25.2,33.3,24,31z"/>
	<polygon class="st1" points="27.2,53.5 28.7,52.1 29.7,53.5 	"/>
	<polygon class="st1" points="27.2,53.5 25.7,52.1 24.7,53.5 	"/>
	<g>
		<path class="st5" d="M38.6,157c-0.3,0.5-1.3,0.8-2.2,0.9c-0.9,0.2-3.1,0-3.9-0.6c-0.8-0.6-1.6-1.4-2.2-1.4
			c-0.6-0.1-1.8-0.6-2.1-0.9c0-0.3-0.4-2.1,0.2-2.8c0.3,0.6,1,0.8,1.2,0.5c0.2-0.2,0.6-1.2,0.9-1.4c0.3-0.3,1.1-0.5,1.6-0.4
			c0.5,0.1,0.9,0.5,1.2,0.9c0.3,0.5,1.5,2,2.1,2.5C36,154.8,38.3,156.8,38.6,157C38.6,156.9,38.6,156.9,38.6,157z"/>
		<path class="st6" d="M38.7,158.2c-0.2,0.4-1.1,1-2.1,1.1c-0.9,0.1-3.2-0.2-3.8-0.5c-0.5-0.3-2-1.5-2.5-1.5c-0.4,0-2-0.5-2.3-0.8
			c-0.2-0.3-0.2-1.2,0.1-1.5c0.3,0.4,1.5,0.9,2.1,0.9c0.6,0.1,1.4,0.8,2.2,1.4c0.8,0.6,3,0.8,3.9,0.6c0.9-0.2,2-0.4,2.2-0.9
			C38.8,157.3,38.8,157.8,38.7,158.2z"/>
	</g>
	<g>
		<path class="st5" d="M15.9,157c0.3,0.5,1.3,0.8,2.2,0.9s3.1,0,3.9-0.6s1.6-1.4,2.2-1.4c0.6-0.1,1.8-0.6,2.1-0.9
			c0-0.3,0.4-2.1-0.2-2.8c-0.3,0.6-1,0.8-1.2,0.5c-0.2-0.2-0.6-1.2-0.9-1.4c-0.3-0.3-1.1-0.5-1.6-0.4c-0.5,0.1-0.9,0.5-1.2,0.9
			c-0.3,0.5-1.5,2-2.1,2.5C18.5,154.8,16.2,156.8,15.9,157C15.9,156.9,15.9,156.9,15.9,157z"/>
		<path class="st6" d="M15.8,158.2c0.2,0.4,1.1,1,2.1,1.1c0.9,0.1,3.2-0.2,3.8-0.5c0.5-0.3,2-1.5,2.5-1.5c0.4,0,2-0.5,2.3-0.8
			c0.2-0.3,0.2-1.2-0.1-1.5c-0.3,0.4-1.5,0.9-2.1,0.9c-0.6,0.1-1.4,0.8-2.2,1.4c-0.8,0.6-3,0.8-3.9,0.6c-0.9-0.2-2-0.4-2.2-0.9
			C15.7,157.3,15.7,157.8,15.8,158.2z"/>
	</g>
	<path class="st7" d="M38.1,87.7c-4.9,0.6-10.9,0.9-10.9,0.9s-5.9-0.2-10.9-0.9c-0.6,11.9,1.5,28.2,1.7,30.6
		c0.3,4.7,1.3,28.5,1.3,34.5c1.4,0.9,7.6,0.3,7.6,0.3l0.3-50.5l0.3,50.5c0,0,6.1,0.5,7.6-0.3c0.1-6,1-29.9,1.3-34.5
		C36.6,115.8,38.7,99.6,38.1,87.7z"/>
	<path class="st8" d="M37.4,64.2c1.3-2.3,2-10.2,2.7-12.1c-1-0.5-5.8-2.6-7.7-3c-0.3,1.9-3.7,4.5-5.1,4.5c-1.4,0-4.9-2.6-5.1-4.5
		c-2,0.3-6.7,2.5-7.7,3c0.6,2,1.4,9.9,2.7,12.1c0.2,5.4-0.5,22-0.7,23.5c2.1,2,19.6,2,21.7,0C37.9,86.1,37.2,69.5,37.4,64.2z"/>
	<path class="st9" d="M37.4,64.2c-1.1,10-0.5,20.3-1,21.7c-0.9,2.4-14.6,3.3-19.5,2.1c3.6,1.7,19.2,1.5,21.2-0.3
		C37.9,86.1,37.2,69.5,37.4,64.2z"/>
	<path class="st10" d="M27.2,53.5c0,0,0.8-0.9,1.3-0.9c0.4,0,1.3,2.2,1.3,2.2s3.1-4.3,3.3-5.7c-0.8-1.1-2-2.6-2.7-3.1
		c0.9,1.2,1,1.8,0.7,2.2C30.4,49.3,28.7,51.6,27.2,53.5z"/>
	<path class="st10" d="M27.2,53.5c0,0-0.8-0.9-1.3-0.9c-0.4,0-1.3,2.2-1.3,2.2s-3.1-4.3-3.3-5.7c0.8-1.1,2-2.6,2.7-3.1
		c-0.9,1.2-1,1.8-0.7,2.2C24,49.3,25.7,51.6,27.2,53.5z"/>
	<path class="st2" d="M39.9,52.1c2,2,3,9.8,3.2,13.2s-0.1,7.4,0,9c0.1,1.5,0.9,4.9,0.6,8.1c-0.3,3.1-1.3,8.7-1.3,10.3
		s-0.5,5.3-0.1,7.2c0.4,2,0,3.6-0.2,3.7c-0.2,0.2-3.7,3-4.2,3.2c-0.5,0.3-1-0.8,0.1-2c1.2-1.4,0.5-2.6-0.5-3c-0.3-0.1-0.3,1.4-0.1,2
		c0.2,0.8-0.5,0.9-0.8,0.1c-0.3-0.8-0.6-2.2,0-3.3s1.5-2.6,1.8-3.4c0.2-0.8,0.2-7.9,0-10.9s0-8.3,0.3-10c0.3-1.5-1.3-5.1-1.4-12.4
		c-0.1-2.1-0.1-3.9,0.5-6.6C38.3,55,38.9,52.3,39.9,52.1z"/>
	<path class="st8" d="M44.1,82.4c-0.1,1.5-0.4,3.5-0.7,5.4c-0.3,2-0.6,4-0.6,4.9c0,0.5-0.1,1.2-0.1,2c-0.1,1.3-0.2,2.8-0.1,4
		c-1.4-0.1-3.5-0.9-4.5-1.8c0.1-1.7,0.1-7.7-0.1-10.3c-0.2-2.9,0-8.3,0.3-10.1c0.1-0.5-0.1-1.4-0.3-2.8c-0.4-2-1-5.1-1.1-9.5l0,0
		c-0.1-2.1-0.1-3.9,0.5-6.6v-0.2c0.7-3.2,1.2-5,2.2-5.4l0.5,0.2c2.6,2.5,3.2,12.8,3.2,13.2c0.2,2,0.1,4.3,0,6c0,1.3-0.1,2.3,0,3
		c0,0.4,0.1,1,0.2,1.6C44,77.6,44.3,80.1,44.1,82.4z"/>
	<path class="st2" d="M14.6,52.1c-2,2-3,9.8-3.2,13.2c-0.3,3.4,0.1,7.4,0,9c-0.1,1.5-0.9,4.9-0.6,8.1C11,85.5,12,91.1,12,92.7
		s0.5,5.3,0.1,7.2c-0.4,2,0,3.6,0.2,3.7c0.2,0.2,3.7,3,4.2,3.2c0.5,0.3,1-0.8-0.1-2c-1.2-1.4-0.5-2.6,0.5-3c0.3-0.1,0.3,1.4,0.1,2
		c-0.2,0.8,0.5,0.9,0.8,0.1c0.3-0.8,0.6-2.2,0-3.3c-0.6-1.1-1.5-2.6-1.8-3.4c-0.2-0.8-0.2-7.9,0-10.9s0-8.3-0.3-10
		c-0.3-1.5,1.3-5.1,1.4-12.4c0.1-2.1,0.1-3.9-0.5-6.6C16.1,55,15.5,52.3,14.6,52.1z"/>
	<path class="st8" d="M10.3,82.4c0.1,1.5,0.4,3.5,0.7,5.4c0.3,2,0.6,4,0.6,4.9c0,0.5,0.1,1.2,0.1,2c0.1,1.3,0.2,2.8,0.1,4
		c1.4-0.1,3.5-0.9,4.5-1.8c-0.1-1.7-0.1-7.7,0.1-10.3c0.2-2.9,0-8.3-0.3-10.1c-0.1-0.5,0.1-1.4,0.3-2.8c0.4-2,1-5.1,1.1-9.5l0,0
		c0.1-2.1,0.1-3.9-0.5-6.6v-0.2c-0.7-3.2-1.2-5-2.2-5.4l-0.5,0.2C11.7,54.5,11,64.8,11,65.3c-0.2,2-0.1,4.3,0,6c0,1.3,0.1,2.3,0,3
		c0,0.4-0.1,1-0.2,1.6C10.5,77.6,10.2,80.1,10.3,82.4z"/>
</g>
</svg>
