<?xml version="1.0" encoding="utf-8"?>
<!-- Generator: Adobe Illustrator 22.1.0, SVG Export Plug-In . SVG Version: 6.00 Build 0)  -->
<svg version="1.1" id="Capa_1" xmlns="http://www.w3.org/2000/svg" xmlns:xlink="http://www.w3.org/1999/xlink" x="0px" y="0px"
	 width="92.2px" height="160px" viewBox="0 0 92.2 160" style="enable-background:new 0 0 92.2 160;" xml:space="preserve">
<style type="text/css">
	.st0{fill:#663300;}
	.st1{fill:#A95401;}
	.st2{fill:#A56E44;}
	.st3{fill:#3C1E00;}
	.st4{fill:#DCA56D;}
	.st5{fill:#F3DDCF;}
	.st6{fill:#726D50;}
	.st7{fill:#A39B7E;}
	.st8{fill:#504A38;}
	.st9{fill:#2D2920;}
	.st10{fill:#999999;}
</style>
<path class="st0" d="M28.4,3.2c0.3,0.1,0.5,0.2,0.8,0.4C25,3.2,22,6,20.3,11.8c0,0,0,0.1,0,0.2c-0.7,3.8-0.9,7.6-0.7,11.3
	c-0.9,4.2-1.1,7.8-0.5,10.8l2.8-8.6l-0.4-2.1v-6.6v0c0-0.1,0-0.2,0-0.2c0-0.7,0-1.5,0-2.3c0.8-3.4,3.2-5.9,7.2-7.3l5.3,5.8
	c0.3-1.9,0-4-0.6-6.2c-1.3-1.7-2.9-2.9-4.9-3.7c-3.3-0.7-6.2,1.3-8.5,6.1c-1.4,2.9-1.9,7.6-1.5,14.2c-0.5,1.9-0.8,3.8-0.9,5.5v0
	c-0.1,2.1,0,4,0.3,5.8c0.1,0.4,0.2,0.8,0.3,1.2l0.3-0.6c-0.5-1.9-0.7-4-0.5-6.3v0c0.1-1.7,0.4-3.5,0.9-5.5c0,0,0-0.1,0-0.1
	c-0.4-6.5,0-11.1,1.4-14C22.6,4.5,25.2,2.6,28.4,3.2L28.4,3.2L28.4,3.2z"/>
<path class="st1" d="M29.2,3.5c-0.3-0.1-0.5-0.2-0.8-0.4h0c-3.1-0.6-5.8,1.3-8,5.9c-1.4,2.9-1.9,7.5-1.4,14c0,0,0,0.1,0,0.1
	c-0.5,1.9-0.7,3.8-0.9,5.5v0c-0.2,2.4,0,4.5,0.5,6.3c0.2,0.9,0.5,1.7,0.9,2.4c0-0.5,0.1-1,0.2-1.4c-0.2-0.6-0.4-1.3-0.5-2
	c-0.6-3-0.4-6.6,0.5-10.8c-0.2-3.7,0-7.5,0.7-11.3c0,0,0-0.1,0-0.2C22,6,25,3.2,29.2,3.5L29.2,3.5z"/>
<path class="st2" d="M32.8,13.2l-4.1-6.3c-4,1.4-6.4,3.8-7.2,7.3c-0.1,0.8-0.1,1.6,0,2.3c0,0,0,0.1,0,0.2v0c0,0.1,0,0.2,0,0.3
	c1-5,3.3-7.9,6.9-8.8l3.1,5.2v6.6c-2.3,3.3-4.8,4.1-7.4,2.5c1.7,1.9,3.5,2.2,5.4,1l0.8-0.7L29,28.7l1.2,4.8c1,3.5-1.2,6.2-6.7,8.2
	c0.7,0.4,1.6,0.5,2.6,0.5c4.5-0.8,7-4,7.6-9.7c-0.5-1.4-1.3-2.8-2.4-4.2l1.6-7.9V13.2L32.8,13.2z"/>
<path class="st3" d="M28.7,6.9l4.1,6.3v7.2l-1.6,7.9c1.1,1.4,1.9,2.8,2.4,4.2c0.5,1.3,0.6,2.5,0.5,3.8c2.1-1.1,3.5-2.4,4.2-3.7
	c0.2-0.4,0.4-0.9,0.4-1.3c0.1-0.7,0-1.4-0.2-2.1c-0.3-1-0.9-1.9-1.8-2.9c1.2-4.8,0.9-9.4-0.8-13.8c-0.5-2.4-1.3-4.4-2.5-6
	c0.7,2.2,0.9,4.3,0.6,6.2L28.7,6.9L28.7,6.9z"/>
<path class="st4" d="M31.5,13.5l-3.1-5.2c-3.6,0.9-5.9,3.8-6.9,8.8c0.2,2.2,1.1,4.1,2.6,5.5c2.7,1.6,5.2,0.8,7.4-2.5L31.5,13.5
	L31.5,13.5z M26.2,22.7h-0.9c-2.1-1-3.2-2.9-3.4-5.6l0.4-1.9C22.3,18.3,23.6,20.8,26.2,22.7L26.2,22.7z"/>
<path class="st5" d="M25.4,22.7h0.9c-2.6-1.9-3.9-4.4-3.8-7.5L22,17.2C22.2,19.8,23.3,21.7,25.4,22.7L25.4,22.7z"/>
<path class="st4" d="M30.3,22.9l-0.8,0.7c-1.9,1.2-3.8,0.9-5.4-1v7.1c-1.1,0.7-2,1.6-2.7,2.8c-0.7,5,0,8.1,2.1,9.2
	c5.5-1.9,7.7-4.7,6.7-8.2L29,28.7L30.3,22.9L30.3,22.9z M24.6,23.8l0.8,1v5.6c-3,1.7-3.8,5.1-2.3,10.3c-2.4-4.8-1.9-8.4,1.5-10.6
	V23.8L24.6,23.8z"/>
<path class="st5" d="M25.4,24.7l-0.8-1V30c-3.4,2.2-3.9,5.7-1.5,10.6c-1.5-5.2-0.7-8.6,2.3-10.3V24.7L25.4,24.7z"/>
<path class="st6" d="M38.5,29.2c0.2,0.7,0.3,1.4,0.2,2.1l0.8,6.7l-0.8,7.6l1.2-1.3c0.1,0.1,0.2,0.3,0.3,0.5c0,0.2,0,0.5-0.1,0.8
	l1.4-1.5l0.1,0.3l0.1,0.3c0.1,0.3,0.1,0.5,0.1,0.8c0,0.5-0.2,1-0.5,1.5c0,0-0.1,0.1-0.1,0.2c0.1,0.5-0.2,1.1-1.1,1.9
	c-0.1,0-0.2,0-0.3,0c-0.4,0-0.7,0-1.1,0.1c-0.1,0-0.3,0-0.4,0c-0.2,0-0.4,0-0.6,0c-0.1,0-0.3,0-0.5,0c0,0-0.1,0-0.1,0
	c-0.2,0-0.5,0-0.7,0.1c-0.2,0-0.5,0-0.7,0c-0.2,0-0.4,0-0.5,0c-0.6,0-1.1,0-1.7,0c-4.9,0-9.8-0.5-14.6-1.6L18,49.7l20.1,5
	c2.7-0.1,4.9-3,6.6-8.7c-0.2-6-1.6-11.2-4.2-15.7L38.5,29.2L38.5,29.2z M18.7,48.9l0.1-0.5c4.8,1.1,9.6,1.6,14.4,1.5
	c0.6,0,1.1,0,1.7,0c0.2,0,0.4,0,0.5,0h0c0.2,0,0.5,0,0.7,0c0.3,0,0.5,0,0.8,0c0,0,0.1,0,0.1,0c0.1,0,0.3,0,0.5,0c0.2,0,0.4,0,0.6,0
	c0.1,0,0.3,0,0.4,0c0.4,0,0.7,0,1.1-0.1c0.1,0,0.2,0,0.4,0c0,0,0.1,0,0.2-0.1l0,0l0.1,0.5L33.3,51C28.3,50.6,23.5,49.9,18.7,48.9
	L18.7,48.9z"/>
<path class="st7" d="M18.9,48.5l-0.1,0.5c4.8,1,9.6,1.7,14.6,2.1l7.2-1.2l-0.1-0.5l0,0c-0.1,0.1-0.2,0.1-0.2,0.1c-0.1,0-0.2,0-0.4,0
	c-0.4,0-0.7,0-1.1,0.1c-0.1,0-0.3,0-0.4,0c-0.2,0-0.4,0-0.6,0c-0.1,0-0.3,0-0.5,0c0,0-0.1,0-0.1,0c-0.2,0-0.5,0-0.8,0
	c-0.2,0-0.5,0-0.7,0h0c-0.1,0-0.3,0-0.5,0c-0.6,0-1.1,0-1.7,0C28.5,50.1,23.7,49.6,18.9,48.5L18.9,48.5z"/>
<path class="st8" d="M38.7,31.2c0,0.5-0.2,0.9-0.4,1.3c-0.7,1.4-2,2.6-4.2,3.7c0.1-1.2,0-2.4-0.5-3.8c-0.6,5.7-3.1,8.9-7.6,9.7
	c-1,0-1.9-0.1-2.6-0.5c-2-1.1-2.8-4.2-2.1-9.2c-1,1.7-1.5,3.8-1.7,6.4c-0.6-1-1.1-2.1-1.4-3.3c-0.1-0.4-0.2-0.8-0.3-1.2l1,7l1.6-1.4
	c0.8,2.5,2.4,3.8,4.6,4c3.3-0.6,5.7-1.9,7.5-4.1l1.9-3.1l3.5-2.3l-1,6.4l-2.8,6.6c-4.4,0.9-9.1,0.7-14-0.5l-2.9,0.5
	c0.5,0.1,0.9,0.2,1.4,0.3c4.8,1.1,9.7,1.7,14.6,1.6c0.6,0,1.1,0,1.7,0l3.7-4l0.8-7.6L38.7,31.2L38.7,31.2z"/>
<path class="st8" d="M43.8,32.3l-3.3-1.9c2.6,4.5,3.9,9.7,4.2,15.7c-1.7,5.7-3.9,8.6-6.6,8.7l-20.1-5l-0.9,2.2c5,2.1,10,3.8,15,5.2
	c-8,1.1-16.4,0.8-25-1c0.3,0.9,0.7,1.6,1.2,2.4c1.8,0.4,3.6,0.8,5.4,1c7,1.1,13.6,0.8,19.9-0.8l5.1,9.6c-7.4,3.6-16,4.9-25.8,3.8
	c0.5,0.2,0.9,0.4,1.4,0.5c6.7,2.4,13.4,3,20.1,1.8c3-0.5,6.1-1.4,9.1-2.7c-0.6-4.8-1.9-9.4-3.8-13.6c3.8-0.5,5.8-3.1,6.1-7.6
	c0-0.1,0-0.3,0-0.4C46.8,41.6,46.2,35.7,43.8,32.3L43.8,32.3z"/>
<path class="st3" d="M24.1,22.6c-1.5-1.4-2.4-3.3-2.6-5.5c0-0.1,0-0.2,0-0.3v6.6l0.4,2.1l-2.8,8.6c0.1,0.7,0.3,1.4,0.5,2
	c-0.1,0.5-0.2,0.9-0.2,1.4c-0.4-0.8-0.6-1.6-0.9-2.4l-0.3,0.6c0.3,1.2,0.8,2.3,1.4,3.3c0.1-2.6,0.7-4.7,1.7-6.4
	c0.7-1.2,1.6-2.1,2.7-2.8L24.1,22.6L24.1,22.6z"/>
<path class="st6" d="M17.9,34.5c-0.4-1.8-0.5-3.7-0.3-5.8v0l-5.5,1.9C9,32.8,7.3,38.2,6.9,46.6C6,50.3,6.1,53.4,7,56.1
	c8.6,1.8,17,2.1,25,1c-5-1.4-10-3.1-15-5.2c-0.9-0.4-1.8-0.8-2.7-1.2c0,0-0.1,0-0.1,0c-0.1,0-0.2-0.1-0.3-0.1l-2.3-0.9l2.9-12.5
	l-0.5,11.6l2.2-1.3c0.3,0.1,0.6,0.2,1,0.3l2.9-0.5c4.9,1.3,9.6,1.4,14,0.5l2.8-6.6l1-6.4l-3.5,2.3L32.6,40c-1.8,2.1-4.3,3.5-7.5,4.1
	c-2.2-0.1-3.8-1.4-4.6-4l-1.6,1.4L17.9,34.5L17.9,34.5z M17.1,29.3l-5.1,3c-2.6,4.5-3.9,9.6-3.9,15.3c-0.7,2.8-0.7,5.6-0.1,8.3
	c-0.2,0-0.4-0.1-0.6-0.1c-0.9-2.5-0.9-5.5-0.1-9c0,0,0,0,0-0.1c0.4-8.2,2-13.4,5-15.7L17.1,29.3L17.1,29.3z"/>
<path class="st7" d="M12,32.2l5.1-3l-4.9,1.6c-2.9,2.3-4.6,7.6-5,15.7c0,0,0,0,0,0.1c-0.8,3.5-0.7,6.5,0.1,9c0.2,0,0.4,0.1,0.6,0.1
	c-0.6-2.8-0.6-5.6,0.1-8.3C8.1,41.9,9.4,36.8,12,32.2L12,32.2z"/>
<path class="st4" d="M18.6,48c-0.5-0.1-1-0.2-1.4-0.3c-0.3-0.1-0.6-0.2-1-0.3l-2.2,1.3l0,0.7l1.8-0.3l2.2,0.5L18.6,48L18.6,48z"/>
<path class="st2" d="M14,50.5c0.1,0,0.2,0.1,0.3,0.1c0,0,0.1,0,0.1,0c0.9,0.4,1.8,0.8,2.7,1.2l0.9-2.2l-2.2-0.5L14,49.4L14,50.5
	L14,50.5z"/>
<polygon class="st8" points="14,50.5 14,49.4 14.1,48.7 14.6,37.1 11.7,49.6 14,50.5 "/>
<path class="st9" d="M12.8,72.1l-0.3,3.8c-2,11.4-3.3,22.2-3.7,32.5l0.7,7c0.1,0.9,0.2,1.7,0.3,2.6c0.1,1,0.3,2.1,0.4,3.1
	c1.8,0.3,3.4,0.4,5.1,0.3l-1.4-10.1l6.2-20.5l5.6-5.4l0.1,1.2l2.7,23.8v9.3c1.9,1,3.8,1.5,5.7,1.7l0-10.4c3.1-14.5,3.1-26.6,0-36.3
	c-6.7,1.2-13.4,0.6-20.1-1.8C13.7,72.4,13.2,72.2,12.8,72.1L12.8,72.1z M12.9,75.9L12.9,75.9l0.2-3.3c0.3,0.1,0.6,0.2,1,0.4v3.6
	c-2,10.1-3.3,20-3.6,29.7l1,14.4c-0.3,0-0.6,0-1-0.1c-0.1-1-0.3-1.9-0.4-2.8c-0.1-0.9-0.2-1.7-0.3-2.5l-0.7-7
	C9.6,98,10.9,87.2,12.9,75.9L12.9,75.9z M26.1,85.1l1.8,5.4l2.4,18.7v10.5c-0.5-0.2-0.9-0.4-1.3-0.6v-9.1L26.1,85.1L26.1,85.1z"/>
<path class="st10" d="M12.9,75.9L12.9,75.9C10.9,87.2,9.6,98,9.2,108.3l0.7,7c0,0.9,0.1,1.7,0.3,2.5c0.1,0.9,0.2,1.9,0.4,2.8
	c0.3,0,0.6,0,1,0.1l-1-14.4c0.3-9.6,1.5-19.6,3.6-29.7V73c-0.3-0.1-0.6-0.2-1-0.4L12.9,75.9L12.9,75.9z"/>
<path class="st10" d="M27.9,90.5l-1.8-5.4l2.9,25v9.1c0.4,0.2,0.9,0.4,1.3,0.6v-10.5L27.9,90.5L27.9,90.5z"/>
<path class="st6" d="M13.7,59.5l-0.9,12.6c9.9,1.1,18.5-0.1,25.8-3.8l-5.1-9.6C27.2,60.3,20.6,60.6,13.7,59.5L13.7,59.5z M14,60
	c0.3,0,0.5,0.1,0.8,0.1l-0.5,11.7c-0.4,0-0.7,0-1.1-0.1L14,60L14,60z"/>
<path class="st7" d="M14.8,60.1c-0.3,0-0.5-0.1-0.8-0.1l-0.8,11.7c0.4,0,0.8,0,1.1,0.1L14.8,60.1L14.8,60.1z"/>
<path class="st2" d="M41.6,44.7l-0.1-0.3l-4.4,5c0.1,0,0.3,0,0.5,0L41.6,44.7L41.6,44.7z"/>
<path class="st4" d="M41.5,44.4l-0.1-0.3L40,45.6l-3.8,3.9c0.2,0,0.5,0,0.7-0.1c0,0,0.1,0,0.1,0L41.5,44.4L41.5,44.4z"/>
<path class="st4" d="M40.1,44.8c0-0.2-0.1-0.4-0.3-0.5l-1.2,1.3l-3.7,4c0.2,0,0.4,0,0.5,0L40.1,44.8L40.1,44.8z"/>
<path class="st2" d="M41.2,47c0.3-0.5,0.5-1,0.5-1.5l-3.5,3.8c0.1,0,0.3,0,0.4,0l2.3-2.4c0.1,0.1,0.2,0.2,0.2,0.4
	C41.1,47.2,41.2,47.1,41.2,47L41.2,47z"/>
<path class="st4" d="M41.1,47.2c0-0.1-0.1-0.2-0.2-0.4l-2.3,2.4c0.4,0,0.7,0,1.1-0.1L41.1,47.2L41.1,47.2z"/>
<path class="st4" d="M41.7,45.5c0-0.3,0-0.5-0.1-0.8l-4.1,4.7c0.2,0,0.4,0,0.6,0L41.7,45.5L41.7,45.5z"/>
<path class="st2" d="M40,45.6c0.1-0.3,0.1-0.5,0.1-0.8l-4.6,4.8c0.2,0,0.5,0,0.7,0L40,45.6L40,45.6z"/>
<path class="st2" d="M39.7,49.2c0.1,0,0.2,0,0.3,0c0.9-0.8,1.2-1.4,1.1-1.9L39.7,49.2L39.7,49.2z"/>
<path d="M43.3,71.7c-3,1.3-6.1,2.2-9.1,2.7c3.1,9.7,3.1,21.9,0,36.3l0,10.4c1.5,0,3-0.1,4.5-0.5c0-0.8,0.1-1.5,0.2-2.3
	c0.2-3.3,0.2-6.3,0-9.3l4.4-22.3C44,81.4,44,76.4,43.3,71.7L43.3,71.7z"/>
<path d="M25.8,86.4l-0.1-1.2l-5.6,5.4l-6.2,20.5l1.4,10.1c1.9-0.1,3.8-0.5,5.5-1c-0.2-0.9-0.4-1.8-0.6-2.6c-0.4-1.4-0.8-2.8-1.3-4
	L25.8,86.4L25.8,86.4z"/>
<path class="st2" d="M38.7,120.6c-1.5,0.4-3,0.6-4.5,0.5l-2.7,21.2l-0.1,11.5c0.8-0.2,1.5-0.9,2.3-1.9l-0.4-6.3
	C36.2,136.6,38,128.2,38.7,120.6L38.7,120.6z"/>
<path class="st4" d="M34.2,121.1c-1.9-0.1-3.8-0.7-5.7-1.7v23.1l-1.4,8.9c1.4,2.1,2.9,2.9,4.3,2.4l0.1-11.5L34.2,121.1L34.2,121.1z
	 M29,120.1c0.4,0.2,0.8,0.4,1.1,0.5v21.8l-1.9,9.7c-0.2-0.2-0.4-0.5-0.6-0.8l1.4-8.7V120.1L29,120.1z"/>
<path class="st5" d="M30.1,120.6c-0.4-0.1-0.7-0.3-1.1-0.5v22.5l-1.4,8.7c0.2,0.3,0.4,0.5,0.6,0.8l1.9-9.7L30.1,120.6L30.1,120.6z"
	/>
<path class="st2" d="M20.8,120.2c-1.7,0.6-3.5,1-5.5,1l3.8,21.5c0.5,4.8-0.4,9.1-2.6,12.9c1.7-0.4,3.3-2,5-4.9
	c-0.4-2.8,0.1-5.5,1.5-8.2c-1-1.9-1.4-4.5-1.3-7.9C21.9,129.2,21.6,124.4,20.8,120.2L20.8,120.2z"/>
<path class="st4" d="M15.3,121.3c-1.6,0.1-3.3,0-5.1-0.3c1.2,7.9,3.3,15.9,6.4,23.8l-2,8.9c0,0.6-0.2,1.2-0.4,1.6
	c0.8,0.3,1.5,0.4,2.3,0.2c2.2-3.8,3.1-8,2.6-12.9L15.3,121.3L15.3,121.3z M10.7,121.5c0.4,0,0.7,0,1,0.1c1.1,7.3,3.1,15,5.9,23
	l-1.9,10.7c-0.3,0-0.7,0-1-0.1c0.1-0.4,0.2-0.8,0.3-1.3l2-8.9c0-0.1,0-0.2,0-0.3C14,136.9,11.9,129.2,10.7,121.5L10.7,121.5z"/>
<path class="st5" d="M11.8,121.6c-0.3,0-0.7,0-1-0.1c1.2,7.7,3.3,15.4,6.3,23.2c0,0.1,0,0.2,0,0.3l-2,8.9c0,0.5-0.1,0.9-0.3,1.3
	c0.4,0.1,0.7,0.1,1,0.1l1.9-10.7C14.9,136.6,12.9,128.9,11.8,121.6L11.8,121.6z"/>
<path class="st9" d="M19.5,159.3l2.4-6.1l0.8,3.8h2.4v-7.8c0.9-2,0.2-4.3-2.1-6.7c-1.4,2.8-1.9,5.5-1.5,8.2c-1.7,2.9-3.3,4.5-5,4.9
	c-0.8,0.2-1.5,0.1-2.3-0.2c-0.4,0.7-1,1.2-1.7,1.4c-3.5,0.9-4,1.9-1.4,3.2L19.5,159.3L19.5,159.3z"/>
<path class="st9" d="M33.8,153.5l-0.1-1.5c-0.8,1-1.5,1.6-2.3,1.9c-1.4,0.5-2.9-0.3-4.3-2.4l-0.1,0.8c-0.9,3.8-0.9,6.2,0,7h6.1
	C34.1,158.5,34.4,156.5,33.8,153.5L33.8,153.5z"/>
</svg>
