<?xml version="1.0" encoding="utf-8"?>
<!-- Generator: Adobe Illustrator 22.1.0, SVG Export Plug-In . SVG Version: 6.00 Build 0)  -->
<svg version="1.1" id="Capa_1" xmlns="http://www.w3.org/2000/svg" xmlns:xlink="http://www.w3.org/1999/xlink" x="0px" y="0px"
	 viewBox="0 0 92.2 160" style="enable-background:new 0 0 92.2 160;" xml:space="preserve">
<style type="text/css">
	.st0{fill:none;}
	.st1{fill:#7EB32A;}
	.st2{fill:#6A7EBD;}
	.st3{fill:#808AC3;}
	.st4{fill:#8396CC;}
	.st5{fill:#EABE02;}
	.st6{fill:#FFD556;}
	.st7{fill:#3F403F;}
	.st8{fill:#404040;}
	.st9{fill:#F7B480;}
	.st10{fill:#DFA0BD;}
	.st11{fill:#C4C3C3;}
	.st12{opacity:0.2;}
	.st13{fill:#C75198;}
	.st14{fill:#FDD656;}
	.st15{fill:#E6E5E5;}
	.st16{fill:#575756;}
	.st17{clip-path:url(#SVGID_2_);}
	.st18{fill:#73519B;}
	.st19{opacity:0.3;fill:#73519B;}
	.st20{opacity:0.2;fill:#73519B;}
</style>
<symbol  id="Áster" viewBox="-16.1 -14.4 32.3 28.8">
	<rect x="-16.1" y="-14.4" class="st0" width="32.3" height="28.8"/>
	<g>
		<g>
			<path class="st1" d="M1.2-1C1.2-1,1.2-1,1.2-1c0,0.2,0,0.3,0,0.5C1.2-0.6,1.2-0.7,1.2-1z"/>
			<path class="st2" d="M2.1,2.8C1.7,2.2,1.5,1.9,1.5,1.9s3.5,3.4,7.1,5.7c1.5,2.2,2.4,4.1,2.4,4.1c-0.9-0.4-1.7-0.9-2.5-1.4
				C7.5,8.3,5.4,4.6,2.1,2.8z"/>
			<path class="st3" d="M1.5,1.9c0,0,4,2.4,7.9,3.3c2.4,2.1,4,4.4,4,4.4c-1.3,0-3.1-0.9-4.8-2C5.1,5.3,1.5,1.9,1.5,1.9z"/>
			<path class="st4" d="M1.5,1.9c0.2-0.1,0.4-0.2,0.6-0.2c0.6,0,2.7,0.2,5.1,0.2c3.9,0.9,8.1,2.8,8.1,2.8c-1.5,1-3.6,1-5.8,0.5
				C5.5,4.3,1.5,1.9,1.5,1.9z"/>
			<path class="st2" d="M2.1,1.7c-0.1,0-0.2,0-0.2,0c0.1-0.4,0.4-0.7,0.7-1c1.1-0.1,4.4-0.4,7.5-1c3.2,0.2,6,0.8,6,0.8
				c-0.9,1.3-5.3,1.5-9,1.4C4.8,1.9,2.7,1.7,2.1,1.7z"/>
			<path class="st3" d="M2.7,0.7c-0.2,0-0.4,0-0.4,0C2.3,0.5,2.5,0.2,2.7,0c1-0.4,3.3-1.2,5.7-2.3c3.6-0.5,7.4-0.3,7.4-0.3
				c-0.6,1-3,1.8-5.6,2.3C7.1,0.3,3.8,0.6,2.7,0.7z"/>
			<path class="st2" d="M2.7,0C2.3,0.1,2.2,0.2,2.2,0.2c0-0.1,0.1-0.2,0.2-0.3c1.2-0.7,4.1-2.6,6.5-4.5c2.8-1.2,5.4-1.9,5.4-1.9
				c-0.3,1.3-3.1,2.9-5.8,4.2C6-1.3,3.7-0.4,2.7,0z"/>
			<path class="st4" d="M2.3-0.2C2,0,1.8,0.2,1.8,0.2c0-0.3,0.1-0.6,0.2-0.9c0.1-0.2,0.3-0.5,0.6-1c1.3-1.1,3.3-2.9,5-4.7
				C9.9-7.9,12-8.9,12-8.9c0.3,1-1.2,2.6-3.2,4.2C6.5-2.8,3.5-0.9,2.3-0.2z"/>
			<path class="st3" d="M1.8-1.3c0,0.1,0,0.2,0,0.2C1.8-1,1.7-1,1.7-1C1.7-1.1,1.8-1.2,1.8-1.3z"/>
			<path class="st3" d="M1.2-1C1.2-0.9,1.3-0.9,1.2-1c0.1,0.1,0.1,0,0.1-0.2C1.4-1.1,1.5-1,1.5-0.8C1.3-0.7,1.2-0.6,1.2-0.6
				C1.2-0.7,1.2-0.8,1.2-1z"/>
			<path class="st2" d="M2.6-1.8C3.4-3,4.8-5.2,5.9-7.4c2.3-2,4.5-3.4,4.5-3.4c0.2,0.8-1.1,2.6-2.8,4.3C5.9-4.7,3.9-2.9,2.6-1.8z"/>
			<path class="st3" d="M2.6-1.8C2.3-1.3,2.1-1,2-0.8C1.9-0.7,1.9-0.6,1.9-0.6c0-0.1-0.1-0.3-0.1-0.4c0-0.1,0-0.2,0-0.2
				c0.3-1,0.8-3.2,1.3-5.5c1.7-3.4,4.2-6.1,4.2-6.1c0.5,1-0.4,3.2-1.5,5.5C4.8-5.2,3.4-3,2.6-1.8z"/>
			<path class="st3" d="M1.8-1.3c0,0.1-0.1,0.2-0.1,0.3C1.7-0.8,1.6-0.7,1.6-0.7c0,0-0.1-0.1-0.1-0.1C1.5-1,1.4-1.1,1.3-1.2
				c0.1-1.1,0.5-5,0.4-8.1c0.9-2.8,2.2-5.1,2.2-5.1c0.7,0.5,0,4.2-0.7,7.7C2.6-4.5,2.1-2.3,1.8-1.3z"/>
			<path class="st2" d="M1.3-1.2c0,0.2,0,0.3,0,0.3c0,0-0.1-0.1-0.1-0.1c0,0,0,0-0.1-0.1C1.1-2.7,0.6-8.5-0.1-11.8
				c0.2-1,0.5-1.6,0.5-1.6c0.9,0.2,1.2,1.9,1.3,4.1C1.8-6.2,1.4-2.3,1.3-1.2z"/>
			<path class="st4" d="M1.2-1c0,0.3,0,0.5,0,0.5C0.9-0.8,0.6-1,0.3-1.3C0.1-2.6-0.8-6.5-1.8-9.7c0.1-2.6,0.6-4.6,0.6-4.6
				c0.4,0,0.8,1,1.2,2.5C0.6-8.5,1.1-2.7,1.2-1z"/>
			<path class="st3" d="M0.3-1.3C0.4-1,0.4-0.9,0.4-0.9s-2.1-5.8-4.3-9.3C-4.3-12.4-4.2-14-4.2-14c0.8,0,1.6,2,2.4,4.4
				C-0.8-6.5,0.1-2.6,0.3-1.3z"/>
			<path class="st3" d="M0.4-0.9C0-1-0.4-1.3-0.8-1.6c-1-2-3.4-6.6-5.5-8.9c-0.5-1.3-0.8-2.3-0.8-2.3c1-0.3,2.1,0.9,3.2,2.6
				C-1.6-6.6,0.4-0.9,0.4-0.9z"/>
			<path class="st2" d="M-0.8-1.6C-0.6-1-0.4-0.7-0.4-0.7C-0.8-0.8-1.1-1-1.5-1.2C-2.5-3-4.8-7-7.8-9.6c-0.5-1.3-0.8-2.3-0.8-2.3
				c0.6-0.2,1.4,0.4,2.3,1.3C-4.2-8.2-1.8-3.5-0.8-1.6z"/>
			<path class="st2" d="M-1.5-1.2c0.3,0.6,0.5,1,0.5,1s-3.9-4.3-7.7-7.1c-1.4-2.4-2.4-4.4-2.4-4.4c1.1,0.5,2.2,1.2,3.2,2.1
				C-4.8-7-2.5-3-1.5-1.2z"/>
			<path class="st3" d="M-1-0.2c-0.4,0.1-0.7,0.1-1.1,0.1c-1-0.7-3.8-2.5-6.7-3.8c-2.7-2.6-4.7-5.7-4.7-5.7c1.3,0,3,1,4.8,2.3
				C-4.9-4.5-1-0.2-1-0.2z"/>
			<path class="st4" d="M-2.1-0.2C-1.8,0-1.7,0.1-1.7,0.1s-3.5-0.8-7-1.2c-3.4-1.5-6.5-3.6-6.5-3.6c1.4-1,3.9-0.3,6.4,0.7
				C-6-2.7-3.1-0.9-2.1-0.2z"/>
			<path class="st3" d="M-8.7-1.1c3.6,0.4,7,1.2,7,1.2C-1.8,0.3-1.9,0.5-2,0.7c-1.4,0-5.5-0.1-8.9,0.3c-2.9-0.6-5.3-1.4-5.3-1.4
				C-15.4-1.6-12-1.5-8.7-1.1z"/>
			<path class="st2" d="M-2,0.7c0.3,0,0.5,0,0.5,0C-1.6,1-1.7,1.2-1.9,1.5c-0.2,0.1-0.4,0.2-0.7,0.3C-2.4,1.6-2.3,1.3-2.2,1
				c0,0-3.7,0.9-6.9,2.2c-3.4,0-6.6-0.5-6.6-0.5c0.6-0.9,2.5-1.4,4.9-1.7C-7.5,0.5-3.4,0.6-2,0.7z"/>
			<path class="st4" d="M-2.2,1c-0.1,0.3-0.3,0.5-0.5,0.8C-4.1,2.5-7.1,4-9.3,5.6c-2.6,0.7-4.8,1-4.8,1c0.3-1.2,2.6-2.4,5.1-3.4
				C-5.8,1.9-2.2,1-2.2,1z"/>
			<path class="st3" d="M-2.6,1.8c0.3-0.1,0.5-0.3,0.7-0.3c0.2-0.1,0.3-0.1,0.3-0.1c0,0.4-0.1,0.8-0.3,1.1C-3.1,3.3-6,5.4-8.1,7.3
				c-2.1,1-3.8,1.5-3.8,1.5C-12.3,8-11,6.8-9.3,5.6C-7.1,4-4.1,2.5-2.6,1.8z"/>
			<path class="st2" d="M-1.9,2.5C-1.5,2.2-1.3,2-1.3,2c0,0.3,0,0.6-0.1,0.9c-0.7,0.8-2.4,2.7-3.8,4.6c-2.5,1.9-5.2,3.2-5.2,3.2
				c-0.2-0.8,0.8-2.1,2.3-3.4C-6,5.4-3.1,3.3-1.9,2.5z"/>
			<path class="st4" d="M-1.4,3c0.2-0.2,0.3-0.4,0.3-0.4S-2.3,5.9-3.2,9c-1.8,2.4-4.2,3.9-4.2,3.9c-0.5-1.1,0.7-3.2,2.1-5.3
				C-3.8,5.6-2.2,3.8-1.4,3z"/>
			<path class="st3" d="M-1.1,2.6c0.2,0.2,0.3,0.5,0.4,0.7c-0.3,1.2-1,4.9-1.1,7.6c-1,2-2.1,3.5-2.1,3.5C-4.4,14-3.9,11.5-3.2,9
				C-2.3,5.9-1.1,2.6-1.1,2.6z"/>
			<path class="st2" d="M-0.7,3.3c0.1-0.3,0.1-0.4,0.1-0.4s0.1,5.9,0.8,9.2c-0.5,1.3-0.9,2.1-0.9,2.1c-0.8-0.2-1-1.6-1-3.3
				C-1.7,8.2-0.9,4.5-0.7,3.3z"/>
			<path class="st3" d="M-0.6,2.9c0.3,0.2,0.5,0.4,0.7,0.6c0.3,1.5,1,4.6,1.9,7.1c-0.2,2.1-0.8,3.7-0.8,3.7c-0.5,0-0.8-0.9-1.1-2.2
				C-0.5,8.8-0.6,2.9-0.6,2.9z"/>
			<path class="st2" d="M0.1,3.5C0,3,0,2.7,0,2.7s1.9,5,4,7.9c0.3,2,0.2,3.4,0.2,3.4c-0.7,0-1.5-1.5-2.2-3.4C1.2,8.2,0.5,5,0.1,3.5z
				"/>
			<path class="st3" d="M0,2.7c0.6,0.2,1.1,0.5,1.7,1C2.6,5.3,4.3,8.2,6,10c0.8,1.6,1.2,2.8,1.2,2.8c-1,0.3-2.1-0.7-3.1-2.2
				C1.9,7.6,0,2.7,0,2.7z"/>
			<path class="st4" d="M1.6,3.7C1.2,2.9,0.9,2.3,0.9,2.3c0.4,0.1,0.8,0.3,1.1,0.5c3.3,1.8,5.5,5.5,6.4,7.4C8.8,11,9,11.5,9,11.5
				c-0.9,0.3-2-0.4-3-1.5C4.3,8.2,2.6,5.3,1.6,3.7z"/>
		</g>
	</g>
	<g>
		<polygon class="st5" points="4.1,0.9 2.6,0.3 3.7,-0.9 2.2,-0.6 3.1,-1.9 1.7,-1.2 2.2,-2.7 0.8,-1.6 0.8,-3.2 0.1,-1.8 
			-0.1,-3.3 -0.7,-1.7 -1.9,-2.9 -1.6,-1.4 -2.9,-2.3 -2.3,-0.7 -3.8,-1.1 -2.6,0 -4.2,0 -2.8,0.7 -4.3,0.9 -2.7,1.5 -3.9,2.7 
			-2.4,2.4 -3.3,3.7 -1.7,3.1 -2.1,4.6 -1,3.5 -1,5.1 -0.3,3.6 -0.1,5.2 0.5,3.5 1.7,4.7 1.4,3.2 2.7,4.1 2,2.7 3.6,2.9 2.5,1.8 
			4.1,1.8 2.6,1.1 		"/>
	</g>
	<g>
		<polygon class="st6" points="2.8,1 1.9,0.1 2.1,-0.9 1.1,-0.9 0.7,-1.8 -0.1,-1.2 -1.2,-1.7 -1.5,-0.7 -2.7,-0.4 -2.2,0.5 -3,1 
			-2.1,1.8 -2.3,2.8 -1.1,2.9 -0.7,3.8 -0.1,3.2 1,3.6 1.3,2.6 2.5,2.3 2.1,1.4 		"/>
	</g>
</symbol>
<g>
	<path class="st7" d="M16.4,10.3c-0.7-1.7,1.8-4.1,2.7-4.4C20.7,5.4,25,5,26.9,6.4c1.1,0.8,1.8,3.1,1.4,4.3
		C25.9,10.3,16.9,11.6,16.4,10.3z"/>
	<path class="st8" d="M30.2,158.2h-3.8c-0.7,0-1.9-1.2-1.9-3.2c0-0.5,0.1-1.4,0.3-2.5c0.6,1.6,2,2.7,3.2,2.7c1.2,0,3.4-0.2,4.2-2.7
		c0,0.3,0.1,0.5,0.1,0.7C32.7,155.3,31.8,158.2,30.2,158.2z"/>
	<path class="st7" d="M22.5,7.4c1.2-0.9,3.1-0.3,5.2,1.5c2.5,2.1,2.9,4.4,3,5.4c0.1,1.6-0.1,4.4-0.8,6.5c-0.3,1-0.9,2.8-1.6,3.1
		c0.6-1.1-10-0.2-11.6-0.1c-1.3-1-2.9-3.5-3.2-6.6c-0.2-2,0.2-5,2.7-7.3C18.7,7.4,21.1,6.7,22.5,7.4z"/>
	<path class="st9" d="M37.7,93.2c-0.7-0.3,1.8-4.7,1.1-5.1c-0.8-0.4-1,1.1-0.8,1.8c0.2,0.7-0.7,1-0.9-0.2c-0.2-1.1,0.5-4.7,0.8-5.6
		c0.3-0.9-1.3-8.8-2-10.1c-0.8-1.3-2.3-8.9-2.2-10.3c0.2-1.4,0.2-5.5-0.1-7.1c-0.3-1.6-1.6-5.6-1.5-8.4c-0.8,1.4-1.5,6.9-1.2,9.2
		c0.3,2.3,1.4,6,2.1,8.1c1.2,3.7,2.6,10.4,3.2,12.3c1.7,6.3-1,19.7-1.6,23.4c-0.6,3.7-0.2,6,0.4,9.5c0.6,3.5,0.2,15.6-0.5,19.3
		c-0.8,3.7-3.2,13.4-2.8,15c0.4,1.4,0.4,5.5,0.6,7.5c-0.8,2.5-3,2.7-4.2,2.7c-1.2,0-2.7-1.1-3.2-2.7c0.6-3.2,1.8-8.2,1.8-9.5
		c0-1.7-0.8-15.3-1-17.6c-0.2-2.3,0.6-10.9,0.5-12.8c-0.1-1.9-0.3-12-1.4-16.1c-1.1-4.1-1.2-14.1-1.2-15.5h-2.4
		c0,1.4-0.1,11.4-1.2,15.5c-1.1,4.1-1.3,14.2-1.4,16.1c-0.1,1.9,0.7,10.4,0.5,12.8c-0.2,2.3-1,15.9-1,17.6c0,1.3,1.3,6.2,1.9,9.5
		c-0.6,1.6-2,2.7-3.2,2.7c-1.2,0-3.4-0.2-4.2-2.7c0.3-2,0.2-6.1,0.6-7.5c0.5-1.6-2-11.3-2.8-15c-0.8-3.7-1.1-15.9-0.5-19.3
		c0.6-3.5,1-5.8,0.4-9.5c-0.6-3.7-3.3-17-1.6-23.4c0.5-1.9,1.9-8.6,3.2-12.3c0.7-2.2,1.8-5.9,2.1-8.1c0.3-2.3-0.4-7.8-1.2-9.2
		c0.1,2.9-1.2,6.9-1.5,8.4c-0.3,1.6-0.2,5.7-0.1,7.1c0.2,1.4-1.4,9-2.2,10.3c-0.8,1.3-2.3,9.2-2,10.1c0.3,0.9,1,4.4,0.8,5.6
		c-0.2,1.1-1.1,0.8-0.9,0.2c0.2-0.7-0.1-2.2-0.8-1.8c-0.8,0.4,1.8,4.7,1.1,5.1c-1.3,0.6-3.6-4.1-2.9-8.4c0.2-1.2,0.8-2.4,0.5-4.9
		c-0.3-2.5-0.1-14.3,0.5-16.3c0.6-2,1.1-8.4,1.3-10.4c0.1-2,0.5-12.6,0.5-13.8c0-1.2,0.6-3.5,2.6-4.6c2-1.1,7.5-3.2,8.6-3.6
		c0.5-0.2,0.9-1.7,1.2-3c0.2-0.7,0.3-1.3,0.3-1.6h5.6c0,0.2,0.2,0.9,0.3,1.6c0.3,1.3,0.7,2.8,1.2,3c1.1,0.5,6.6,2.6,8.6,3.6
		c2,1.1,2.6,3.4,2.6,4.6c0,1.2,0.3,11.8,0.5,13.8c0.2,2,0.7,8.4,1.3,10.4c0.6,2,0.8,13.8,0.5,16.3c-0.3,2.5,0.2,3.7,0.5,4.9
		C41.3,89.1,39,93.8,37.7,93.2z"/>
	<path class="st10" d="M35,104.6c-0.3,2.1,0.7,17.8,0.8,20.3c-2.7,0.6-24.2,0.6-26.9,0c0.2-2.5,1.2-18.1,0.8-20.3
		c-0.3-2.1-1.8-17.6-2-19.9c-0.2-2.2,1.1-7.6,1.5-9c0-0.1,0.1-0.2,0.1-0.4c0.9-1.9,5.8-8.7,6.4-35.6c1.2,0.8,2.7,1.2,3.9,1.3
		c1.5,0.1,3.9,0.1,5.4,0c1.3-0.1,2.8-0.4,3.9-1.3c0.7,26.8,5.5,33.6,6.4,35.6c0.1,0.1,0.1,0.3,0.1,0.4c0.3,1.4,1.7,6.7,1.5,9
		C36.8,87,35.3,102.5,35,104.6z"/>
	<path class="st11" d="M37,84.7c0.2-2.2-1.1-7.6-1.5-9c-0.3-1.4-5.8-7.1-6.6-36c-0.5,0.3-1,0.6-1.6,0.8c0.9,27.5,6.2,33,6.5,34.3
		c0.3,1.4,1.7,6.7,1.5,9c-0.2,2.2-1.7,28.6-1.9,30.8c-0.2,2.8,0.2,6-1.3,8c-1.7,2.3-9.3,1.8-11.3,1.8c-1.7,0-8.2,0.1-11.8-0.2
		c0,0.2,0,0.4-0.1,0.6c2.7,0.6,24,0.5,26.8-0.1c0.3-2.2-0.6-6.8-0.7-9.2C35,113.3,36.8,87,37,84.7z"/>
	<path class="st12" d="M35.4,75.4c-1-2-5.8-8.8-6.4-35.6c-1.2,0.8-2.7,1.2-3.9,1.3c0.8,3.9,1.3,10.1,1,14.8
		c-0.3,5.7-0.5,18.2-0.7,19.9c2.9,1.1,9,0.4,10.2,0.3C35.5,75.8,35.4,75.6,35.4,75.4z"/>
	<path class="st13" d="M40.5,77.7c0,0.4,0,0.7,0,1c0,0,0,0,0,0.1c-1.4,0.3-2.7,0.2-3.7-0.1c0-0.1,0-0.1,0-0.2
		c-0.1-0.3-0.1-0.6-0.2-1c0.1,0,0.2,0.1,0.3,0.1C37.7,77.8,39.1,77.9,40.5,77.7z"/>
	<path class="st8" d="M14.5,158.2h3.8c0.7,0,1.9-1.2,1.9-3.2c0-0.5-0.1-1.4-0.3-2.5c-0.6,1.6-2,2.7-3.2,2.7c-1.2,0-3.4-0.2-4.2-2.7
		c0,0.3-0.1,0.5-0.1,0.7C11.9,155.3,12.8,158.2,14.5,158.2z"/>
	<path class="st12" d="M25.4,28.2c-0.9,0.6-2,0.9-3.1,0.9c-1.2,0-2.2-0.4-3.1-0.9c0.2-0.7,0.3-1.3,0.3-1.6h5.6
		C25.1,26.9,25.3,27.5,25.4,28.2z"/>
	<path class="st9" d="M28.8,13.4c-0.1-2.3-3.9-4.8-6.5-4.8c-2.6,0-6.4,2.5-6.5,4.8c-0.1,2.3-0.3,8.5,0.7,11.2c0.6,1.6,2.9,4,5.8,4
		c2.9,0,5.2-2.3,5.8-4C29.1,22,28.9,15.7,28.8,13.4z"/>
	<path class="st12" d="M19.6,41.1c-1.3-0.1-2.8-0.4-3.9-1.3C15,66.7,10.2,73.4,9.3,75.4c-0.1,0.2-0.1,0.4-0.1,0.6
		c1.2,0.1,7.3,0.8,10.2-0.3C19.1,74,19,61.5,18.6,55.8C18.3,51.1,18.8,45,19.6,41.1z"/>
	<path class="st14" d="M22.3,38.7c-2.1,0-5.4-4.3-5.7-7c0-0.1,0-0.1,0.1-0.2c0.1,0,0.1,0,0.2,0.1c0.4,2.7,3.6,6.8,5.4,6.8
		c1.8,0,5.1-4,5.4-6.8c0-0.1,0.1-0.1,0.2-0.1c0.1,0,0.1,0.1,0.1,0.2C27.7,34.4,24.4,38.7,22.3,38.7z"/>
	<path class="st15" d="M23,38.6c0,0.4-0.3,0.7-0.7,0.7c-0.4,0-0.7-0.3-0.7-0.7s0.3-0.7,0.7-0.7C22.7,37.9,23,38.2,23,38.6z"/>
	<path class="st7" d="M22.9,9c-0.5,0.7-0.3,3.9,1.8,5.4c4.2,3,4,5.9,4.1,7.2c1.2-4,0.8-6.9,0.2-8.7C27.7,8.9,23.8,7.8,22.9,9z"/>
	<path class="st7" d="M23.8,8.6c1.1,1.2-2.3,4.7-4.2,6.2c-1.9,1.5-3.8,3.8-3.8,6.8c-0.7-1.5-1.7-8,0.9-10.7
		C19.4,8.3,22.1,6.7,23.8,8.6z"/>
	<path class="st16" d="M23,8.3c0.1,1.4,0.3,1.6,1.1,2.6c0.6,0.7,1.3,1.4,1.8,1.7c0.6,0.4,1.1,0.8,1.6,1.3c1,1,1.9,2.2,2.3,3.5
		c0.4,1.4-0.3,3.8-0.6,5.1c0.1-1.4,0-2.8-0.5-4c-0.5-1.3-1.3-2.3-2.3-3.3c-0.5-0.5-1-0.9-1.6-1.3c-0.6-0.4-1-1-1.3-1.7
		c-0.3-0.7-0.5-1.3-0.5-2C22.9,9.7,22.9,9,23,8.3z"/>
	<path class="st16" d="M23,8.3c0,0.7-0.2,1.3-0.5,1.9c-0.3,0.6-0.7,1.2-1.1,1.7c-0.8,1.1-1.8,2-2.9,2.8c-1,0.8-1.9,1.8-2.6,2.8
		c-0.7,1.1-1.1,2.3-1.2,3.7c-0.1-1.3-0.5-2.9,0.4-4.7c0.6-1.2,1.6-2.2,2.6-3.1c0.5-0.4,1-0.8,1.5-1.2c0.5-0.4,1.6-1.2,2.1-1.7
		C21.8,10,22.9,8.9,23,8.3z"/>
	<g>
		<defs>
			<path id="SVGID_1_" d="M35.2,104c-0.3,2.1,0.7,17.8,0.8,20.3c-2.7,0.6-24.2,0.6-26.9,0c0.2-2.5,1.2-18.1,0.8-20.3
				c-0.3-2.1-1.8-17.6-2-19.9c-0.2-2.2,1.1-7.6,1.5-9c0-0.1,0.1-0.2,0.1-0.4c0.9-1.9,5.8-8.7,6.4-35.6c1.2,0.8,2.7,1.2,3.9,1.3
				c1.5,0.1,3.9,0.1,5.4,0c1.3-0.1,2.8-0.4,3.9-1.3c0.7,26.8,5.5,33.6,6.4,35.6c0.1,0.1,0.1,0.3,0.1,0.4c0.3,1.4,1.7,6.7,1.5,9
				C37.1,86.4,35.6,101.9,35.2,104z"/>
		</defs>
		<clipPath id="SVGID_2_">
			<use xlink:href="#SVGID_1_"  style="overflow:visible;"/>
		</clipPath>
		<g class="st17">
			
				<use xlink:href="#Áster"  width="32.3" height="28.8" x="-16.1" y="-14.4" transform="matrix(0.5971 0 0 -0.5971 51.8504 73.1879)" style="overflow:visible;"/>
			
				<use xlink:href="#Áster"  width="32.3" height="28.8" x="-16.1" y="-14.4" transform="matrix(0.5971 0 0 -0.5971 44.4357 62.8055)" style="overflow:visible;"/>
			
				<use xlink:href="#Áster"  width="32.3" height="28.8" x="-16.1" y="-14.4" transform="matrix(0.5971 0 0 -0.5971 39.0227 76.0639)" style="overflow:visible;"/>
			
				<use xlink:href="#Áster"  width="32.3" height="28.8" x="-16.1" y="-14.4" transform="matrix(0.5971 0 0 -0.5971 16.3637 76.6922)" style="overflow:visible;"/>
			
				<use xlink:href="#Áster"  width="32.3" height="28.8" x="-16.1" y="-14.4" transform="matrix(0.5971 0 0 -0.5971 20.1975 87.4234)" style="overflow:visible;"/>
			
				<use xlink:href="#Áster"  width="32.3" height="28.8" x="-16.1" y="-14.4" transform="matrix(0.5971 0 0 -0.5971 -0.8394 88.2917)" style="overflow:visible;"/>
			
				<use xlink:href="#Áster"  width="32.3" height="28.8" x="-16.1" y="-14.4" transform="matrix(0.5971 0 0 -0.5971 2.1815 100.4909)" style="overflow:visible;"/>
			
				<use xlink:href="#Áster"  width="32.3" height="28.8" x="-16.1" y="-14.4" transform="matrix(0.5971 0 0 -0.5971 5.1003 112.8705)" style="overflow:visible;"/>
			
				<use xlink:href="#Áster"  width="32.3" height="28.8" x="-16.1" y="-14.4" transform="matrix(0.5971 0 0 -0.5971 16.0468 115.4787)" style="overflow:visible;"/>
			
				<use xlink:href="#Áster"  width="32.3" height="28.8" x="-16.1" y="-14.4" transform="matrix(0.5971 0 0 -0.5971 33.1728 120.3249)" style="overflow:visible;"/>
			
				<use xlink:href="#Áster"  width="32.3" height="28.8" x="-16.1" y="-14.4" transform="matrix(0.5971 0 0 -0.5971 27.9159 109.7897)" style="overflow:visible;"/>
			
				<use xlink:href="#Áster"  width="32.3" height="28.8" x="-16.1" y="-14.4" transform="matrix(0.5971 0 0 -0.5971 46.227 106.1384)" style="overflow:visible;"/>
			
				<use xlink:href="#Áster"  width="32.3" height="28.8" x="-16.1" y="-14.4" transform="matrix(0.5971 0 0 -0.5971 50.4986 93.0988)" style="overflow:visible;"/>
			
				<use xlink:href="#Áster"  width="32.3" height="28.8" x="-16.1" y="-14.4" transform="matrix(0.5971 0 0 -0.5971 36.5908 94.4086)" style="overflow:visible;"/>
			
				<use xlink:href="#Áster"  width="32.3" height="28.8" x="-16.1" y="-14.4" transform="matrix(0.5971 0 0 -0.5971 27.1504 68.6043)" style="overflow:visible;"/>
			
				<use xlink:href="#Áster"  width="32.3" height="28.8" x="-16.1" y="-14.4" transform="matrix(0.5971 0 0 -0.5971 9.0178 65.5995)" style="overflow:visible;"/>
			
				<use xlink:href="#Áster"  width="32.3" height="28.8" x="-16.1" y="-14.4" transform="matrix(0.5971 0 0 -0.5971 31.8181 52.6189)" style="overflow:visible;"/>
			
				<use xlink:href="#Áster"  width="32.3" height="28.8" x="-16.1" y="-14.4" transform="matrix(0.5971 0 0 -0.5971 21.7107 45.5828)" style="overflow:visible;"/>
			
				<use xlink:href="#Áster"  width="32.3" height="28.8" x="-16.1" y="-14.4" transform="matrix(0.5971 0 0 -0.5971 11.4794 52.3251)" style="overflow:visible;"/>
		</g>
	</g>
	<g>
		<path class="st18" d="M40.5,75.4c0-4.5-0.2-10.5-0.7-11.8c-0.6-2.1-1.2-9.5-1.3-10.3c-0.1-2-0.5-12.5-0.5-13.8
			c0-1.2-0.6-3.7-2.8-4.8c-1.1-0.6-3.5-1.3-5.4-2c-0.7,2.4-3.7,5.4-5.2,6.1c0.8,2.4,1.5,7.3,1.6,11.9c0,1.4,0,2.7,0,4
			c0,0.3,0,0.7,0,1c-0.3,5.7-0.5,18.2-0.7,19.9c2.9,1.1,9,0.4,10.2,0.3c-0.1-0.3-0.1-0.5-0.2-0.8c-0.1-0.3-1.9-7.4-1.9-7.4
			c-0.2-0.7-0.3-1.4-0.5-2c-0.4-1.1-0.9-2.8-1.3-4.6c-0.3-1.3-0.6-2.5-0.7-3.5c-0.2-1.7,0.1-5.1,0.6-7.2c0-0.2,0.1-0.4,0.1-0.5
			c0.2,1.9,0.7,3.9,1.1,5.5c0.2,0.7,0.3,1.2,0.4,1.6c0.3,1.6-0.1,5.6,0.1,7c0.3,3.3,2.4,10.5,3.2,13.7c0.1,0.4,0.2,0.8,0.3,1
			c0,0.1,0,0.1,0,0.2c1,0.2,2.3,0.4,3.7,0.1c0,0,0,0,0-0.1c0-0.3,0-0.6,0-1c0-0.6,0-1.3,0-2C40.5,75.6,40.5,75.5,40.5,75.4z"/>
		<path class="st18" d="M35.5,74.7c-1.6,0.2-7.1,0.7-9.8-0.3c0,0.5,0,0.9-0.1,1.1c2.9,1.1,9,0.4,10.2,0.3c-0.1-0.3-0.1-0.5-0.2-0.8
			C35.6,74.8,35.6,74.7,35.5,74.7z"/>
		<path class="st18" d="M18.3,54.7c-0.1-1.3-0.1-2.7,0-4.1c0.1-4.7,0.8-9.5,1.6-11.9c-1.5-0.7-4.5-3.7-5.2-6.1
			c-1.9,0.8-4.3,1.4-5.4,2c-2.2,1.1-2.8,3.7-2.8,4.8c0,1.3-0.3,11.8-0.5,13.8C6,54,5.4,61.5,4.8,63.6c-0.4,1.4-0.7,7.4-0.7,11.8
			c0,0.1,0,0.2,0,0.3c0,0.7,0,1.4,0,2c0,0.4,0,0.7,0,1c0,0,0,0,0,0.1c1.4,0.3,2.7,0.2,3.7-0.1c0-0.1,0-0.1,0-0.2
			c0.1-0.3,0.1-0.6,0.3-1C9,74.3,11,67.1,11.4,63.8c0.1-1.4-0.2-5.4,0.1-7c0.1-0.4,0.2-1,0.4-1.6c0.3-1.1,0.6-2.4,0.8-3.7
			c0.1-0.6,0.2-1.2,0.3-1.8c0.6,2.1,1,6,0.7,7.8c-0.1,0.4-0.1,0.8-0.2,1.3c0,0,0,0,0,0c-0.5,2.3-1.4,5.2-1.9,6.8
			c-0.2,0.6-0.3,1.3-0.5,2c0,0-1.9,7.1-1.9,7.4c-0.1,0.3-0.1,0.6-0.2,0.8c1.2,0.1,7.3,0.8,10.2-0.3c-0.2-1.7-0.3-14.1-0.7-19.9
			C18.3,55.3,18.3,55,18.3,54.7z"/>
		<path class="st18" d="M9.1,74.7c1.6,0.2,7.1,0.7,9.8-0.3c0,0.5,0,0.9,0.1,1.1c-2.9,1.1-9,0.4-10.2,0.3C8.9,75.5,9,75.2,9,74.9
			C9.1,74.8,9.1,74.7,9.1,74.7z"/>
		<path class="st18" d="M4.1,77.7c0,0.4,0,0.7,0,1c0,0,0,0,0,0.1c1.4,0.3,2.7,0.2,3.7-0.1c0-0.1,0-0.1,0-0.2c0.1-0.3,0.1-0.6,0.2-1
			c-0.1,0-0.2,0.1-0.3,0.1C7,77.8,5.5,77.9,4.1,77.7z"/>
		<path class="st19" d="M33.6,67.5c-0.2-0.7-0.3-1.4-0.5-2c-0.6-1.9-1.8-5.8-2.1-8.1c-0.2-1.2,0-3.3,0.2-5.1c-0.8,1.3-1,3.6-0.8,5.4
			c0.3,2.3,4.3,14.3,3.4,16.6c-0.4,1-8.2,0.9-8.2,1.1c2.9,1.1,9,0.4,10.2,0.3c-0.1-0.3-0.1-0.5-0.2-0.8
			C35.5,74.6,33.6,67.5,33.6,67.5z"/>
		<path class="st20" d="M31.8,60.9c-1-2.5-2.4-4.5-5.5-5.7c-0.9-0.4-2-0.6-3.3-0.6c-1.9,0-3.4-0.4-4.7,0c-2.5,0.9-4.1,2.4-4.9,4
			c0,0,0,0,0,0c0.1-0.5,0.2-0.9,0.2-1.3c0.2-1.8-0.2-5.7-0.7-7.8c-0.2-0.9-0.3-1.7-0.6-3.2c1.4,3,3.2,5.1,4.6,5.1h10.3
			c2.4,0,4.4-2.8,5-4.9c-0.1,1-0.4,2.6-0.6,3.5c-0.5,2.2-0.8,5.6-0.6,7.2C31.2,58.4,31.4,59.7,31.8,60.9z"/>
	</g>
</g>
</svg>
