<?xml version="1.0" encoding="utf-8"?>
<!-- Generator: Adobe Illustrator 22.1.0, SVG Export Plug-In . SVG Version: 6.00 Build 0)  -->
<svg version="1.1" id="Capa_1" xmlns="http://www.w3.org/2000/svg" xmlns:xlink="http://www.w3.org/1999/xlink" x="0px" y="0px"
	 viewBox="0 0 100 100" style="enable-background:new 0 0 100 100;" xml:space="preserve">
<style type="text/css">
	.st0{fill:#327A43;}
</style>
<path id="uso_internet" class="st0" d="M94,37.2l-9.2,9.5c-37.5-32.3-69.5,0-69.5,0L6,36.6C52.2-4.1,94,37.2,94,37.2z M22.7,53.3
	l8.1,8.7c0,0,17.6-18.5,38.7,0l8.7-8.7C78.1,53.3,51.6,27.4,22.7,53.3z M51,63.5c-4.9,0-8.9,4-8.9,8.9c0,4.9,4,8.9,8.9,8.9
	c4.9,0,8.9-4,8.9-8.9C60,67.5,56,63.5,51,63.5z"/>
</svg>
