<?xml version="1.0" encoding="utf-8"?>
<!-- Generator: Adobe Illustrator 22.1.0, SVG Export Plug-In . SVG Version: 6.00 Build 0)  -->
<svg version="1.1" id="Capa_1" xmlns="http://www.w3.org/2000/svg" xmlns:xlink="http://www.w3.org/1999/xlink" x="0px" y="0px"
	 viewBox="0 0 100 100" style="enable-background:new 0 0 100 100;" xml:space="preserve">
<style type="text/css">
	.st0{fill:#327A43;}
</style>
<path id="uso_computadora" class="st0" d="M93.1,76.7l-5.6-8.8l-4.9-7.7c0.3-0.4,0.5-0.9,0.5-1.5V22.5c0-1.4-1.1-2.5-2.5-2.5H19.4
	c-1.4,0-2.5,1.1-2.5,2.5v36.2c0,0.5,0.2,1,0.5,1.4l-4.8,7.6l-5.8,9.1c-0.1,0.2-0.2,0.4-0.2,0.7v1.2c0,0.7,0.6,1.2,1.2,1.2h84.4
	c0.7,0,1.2-0.6,1.2-1.2v-1.2C93.5,77.2,93.3,76.9,93.1,76.7z M51.2,69.6h2.3c0.4,0,0.8,0.2,0.8,0.4l0,1.1c0,0.2-0.4,0.4-0.8,0.4
	h-2.3c-0.5,0-0.8-0.2-0.8-0.4l0-1.1C50.4,69.7,50.8,69.6,51.2,69.6z M50.7,63.5l0-1.1c0-0.2,0.3-0.4,0.7-0.4h2
	c0.4,0,0.7,0.2,0.7,0.4l0,1.1c0,0.2-0.3,0.4-0.7,0.4h-2.1C51,63.9,50.6,63.7,50.7,63.5z M65,64.5h2.1c0.4,0,0.8,0.2,0.8,0.4l0.3,1.1
	c0.1,0.2-0.2,0.4-0.7,0.4h-2.1c-0.4,0-0.8-0.2-0.8-0.4l-0.2-1.1C64.3,64.7,64.6,64.5,65,64.5z M64.1,63.5l-0.2-1.1
	c0-0.2,0.2-0.4,0.6-0.4h2c0.4,0,0.8,0.2,0.8,0.4l0.3,1.1c0.1,0.2-0.2,0.4-0.6,0.4h-2.1C64.5,64,64.1,63.8,64.1,63.5z M68.8,62h2
	c0.4,0,0.8,0.2,0.8,0.4l0.4,1.1c0.1,0.2-0.2,0.4-0.6,0.4h-2.1c-0.4,0-0.8-0.2-0.8-0.4l-0.3-1.1C68.1,62.2,68.4,62,68.8,62z M65.5,67
	h2.2c0.4,0,0.8,0.2,0.9,0.4l0.3,1.1c0.1,0.2-0.3,0.4-0.7,0.4h-2.2c-0.4,0-0.8-0.2-0.9-0.4l-0.2-1.1C64.8,67.2,65.1,67,65.5,67z
	 M66,69.6h2.2c0.4,0,0.8,0.2,0.9,0.4l0.3,1.1c0.1,0.2-0.3,0.4-0.7,0.4h-2.3c-0.5,0-0.9-0.2-0.9-0.4L65.3,70
	C65.3,69.7,65.6,69.6,66,69.6z M69.1,66.1l-0.3-1.1c-0.1-0.2,0.2-0.4,0.6-0.4h2.1c0.4,0,0.8,0.2,0.9,0.4l0.4,1.1
	c0.1,0.2-0.2,0.4-0.6,0.4H70C69.6,66.5,69.2,66.3,69.1,66.1z M76.9,64.9l0.4,1.1c0.1,0.2-0.2,0.4-0.6,0.4h-2.1
	c-0.4,0-0.8-0.2-0.9-0.4l-0.4-1.1c-0.1-0.2,0.2-0.4,0.6-0.4H76C76.4,64.5,76.8,64.7,76.9,64.9z M77.3,62h2c0.4,0,0.8,0.2,0.9,0.4
	l0.5,1.1c0.1,0.2-0.1,0.4-0.5,0.4h-2.1c-0.4,0-0.8-0.2-0.9-0.4l-0.5-1.1C76.6,62.2,76.9,62,77.3,62z M75.8,64h-2.1
	c-0.4,0-0.8-0.2-0.9-0.4l-0.4-1.1C72.4,62.2,72.6,62,73,62h2c0.4,0,0.8,0.2,0.9,0.4l0.4,1.1C76.4,63.8,76.2,64,75.8,64z M70.1,67
	h2.2c0.4,0,0.8,0.2,0.9,0.4l0.4,1.1c0.1,0.2-0.2,0.4-0.7,0.4h-2.2c-0.4,0-0.8-0.2-0.9-0.4l-0.3-1.1C69.4,67.2,69.7,67,70.1,67z
	 M70.8,69.6h2.2c0.4,0,0.9,0.2,0.9,0.4l0.4,1.1c0.1,0.2-0.2,0.4-0.7,0.4h-2.3c-0.5,0-0.9-0.2-0.9-0.4L70.1,70
	C70.1,69.7,70.4,69.6,70.8,69.6z M74.1,67.4C74,67.2,74.3,67,74.7,67h2.2c0.4,0,0.8,0.2,0.9,0.4l0.4,1.1c0.1,0.2-0.2,0.4-0.6,0.4
	h-2.2c-0.4,0-0.9-0.2-0.9-0.4L74.1,67.4z M75.6,69.6h2.2c0.4,0,0.9,0.2,1,0.4l0.4,1.1c0.1,0.2-0.2,0.4-0.7,0.4h-2.3
	c-0.5,0-0.9-0.2-1-0.4L74.9,70C74.9,69.7,75.2,69.6,75.6,69.6z M79.2,68.6l-1.5-3.7c-0.1-0.2,0.2-0.4,0.6-0.4h2.1
	c0.4,0,0.8,0.2,0.9,0.4l1.7,3.7c0.1,0.2-0.2,0.4-0.6,0.4h-2.2C79.7,69,79.3,68.8,79.2,68.6z M80.6,58.1H19.4V22.5h61.2V58.1z
	 M38.1,64.5h2.1c0.4,0,0.7,0.2,0.7,0.4l-0.2,1.1c0,0.2-0.4,0.4-0.8,0.4h-2.1c-0.4,0-0.7-0.2-0.7-0.4l0.3-1.1
	C37.3,64.7,37.7,64.5,38.1,64.5z M37.6,63.5l0.3-1.1c0.1-0.2,0.4-0.4,0.8-0.4h2c0.4,0,0.7,0.2,0.6,0.4l-0.2,1.1
	c0,0.2-0.4,0.4-0.8,0.4h-2.1C37.8,64,37.5,63.8,37.6,63.5z M40.3,67.4l-0.2,1.1c0,0.2-0.4,0.4-0.9,0.4H37c-0.4,0-0.7-0.2-0.7-0.4
	l0.3-1.1c0.1-0.2,0.4-0.4,0.9-0.4h2.2C40.1,67,40.4,67.2,40.3,67.4z M37,62.4l-0.3,1.1c-0.1,0.2-0.4,0.4-0.8,0.4h-2.1
	c-0.4,0-0.7-0.2-0.6-0.4l0.4-1.1c0.1-0.2,0.4-0.4,0.8-0.4h2C36.8,62,37.1,62.2,37,62.4z M33.7,64.5h2.1c0.4,0,0.7,0.2,0.6,0.4
	l-0.3,1.1c-0.1,0.2-0.4,0.4-0.9,0.4h-2.1c-0.4,0-0.7-0.2-0.6-0.4l0.4-1.1C32.9,64.7,33.2,64.5,33.7,64.5z M35.7,67.4l-0.3,1.1
	C35.4,68.8,35,69,34.5,69h-2.2c-0.4,0-0.7-0.2-0.7-0.4l0.4-1.1c0.1-0.2,0.5-0.4,0.9-0.4H35C35.5,67,35.8,67.2,35.7,67.4z M32.8,62.4
	l-0.4,1.1c-0.1,0.2-0.5,0.4-0.9,0.4h-2.1c-0.4,0-0.7-0.2-0.6-0.4l0.4-1.1c0.1-0.2,0.5-0.4,0.9-0.4h2C32.6,62,32.8,62.2,32.8,62.4z
	 M29.2,64.5h2.1c0.4,0,0.7,0.2,0.6,0.4l-0.4,1.1c-0.1,0.2-0.5,0.4-0.9,0.4h-2.1c-0.4,0-0.7-0.2-0.6-0.4l0.4-1.1
	C28.4,64.7,28.8,64.5,29.2,64.5z M31.1,67.4l-0.4,1.1c-0.1,0.2-0.5,0.4-0.9,0.4h-2.2c-0.4,0-0.7-0.2-0.6-0.4l0.4-1.1
	c0.1-0.2,0.5-0.4,0.9-0.4h2.2C30.9,67,31.1,67.2,31.1,67.4z M28.5,62.4L28,63.5c-0.1,0.2-0.5,0.4-0.9,0.4h-2.1
	c-0.4,0-0.7-0.2-0.6-0.4l0.5-1.1c0.1-0.2,0.5-0.4,0.9-0.4h2C28.3,62,28.6,62.2,28.5,62.4z M24.8,64.5h2.1c0.4,0,0.7,0.2,0.6,0.4
	L27,66.1c-0.1,0.2-0.5,0.4-0.9,0.4h-2.1c-0.4,0-0.7-0.2-0.6-0.4l0.5-1.1C24,64.7,24.4,64.5,24.8,64.5z M26.4,67.4L26,68.6
	c-0.1,0.2-0.5,0.4-1,0.4h-2.2c-0.4,0-0.7-0.2-0.6-0.4l0.5-1.1c0.1-0.2,0.5-0.4,1-0.4h2.2C26.3,67,26.5,67.2,26.4,67.4z M24.2,62.4
	l-0.5,1.1c-0.1,0.2-0.5,0.4-0.9,0.4h-2.1c-0.4,0-0.6-0.2-0.5-0.4l0.6-1.1c0.1-0.2,0.5-0.4,0.9-0.4h2C24.1,62,24.3,62.2,24.2,62.4z
	 M20.4,64.5h2.1c0.4,0,0.7,0.2,0.5,0.4l-0.5,1.1c-0.1,0.2-0.5,0.4-1,0.4h-2.1c-0.4,0-0.7-0.2-0.5-0.4l0.6-1.1
	C19.5,64.7,20,64.5,20.4,64.5z M21.8,67.4l-0.5,1.1c-0.1,0.2-0.5,0.4-1,0.4H18c-0.4,0-0.7-0.2-0.6-0.4l0.6-1.1
	c0.1-0.2,0.6-0.4,1-0.4h2.2C21.6,67,21.9,67.2,21.8,67.4z M16.1,71.1l0.6-1.1c0.1-0.2,0.6-0.4,1-0.4H20c0.4,0,0.7,0.2,0.6,0.4
	l-0.5,1.1c-0.1,0.2-0.6,0.4-1,0.4h-2.3C16.3,71.5,16,71.3,16.1,71.1z M21,71.1l0.5-1.1c0.1-0.2,0.5-0.4,1-0.4h21.4
	c0.4,0,0.8,0.2,0.8,0.4l-0.1,1.1c0,0.2-0.4,0.4-0.9,0.4h-22C21.2,71.5,20.9,71.3,21,71.1z M44,69h-2.2c-0.4,0-0.8-0.2-0.7-0.4
	l0.2-1.1c0-0.2,0.4-0.4,0.8-0.4h2.2c0.4,0,0.8,0.2,0.7,0.4l-0.1,1.1C44.8,68.8,44.4,69,44,69z M44.3,66.5h-2.1
	c-0.4,0-0.7-0.2-0.7-0.4l0.2-1.1c0-0.2,0.4-0.4,0.8-0.4h2.1c0.4,0,0.7,0.2,0.7,0.4l-0.1,1.1C45.1,66.3,44.7,66.5,44.3,66.5z
	 M44.7,64h-2.1c-0.4,0-0.7-0.2-0.7-0.4l0.2-1.1c0-0.2,0.4-0.4,0.8-0.4h2c0.4,0,0.7,0.2,0.7,0.4l-0.1,1.1C45.4,63.8,45.1,64,44.7,64z
	 M45.6,70c0-0.2,0.4-0.4,0.8-0.4h2.3c0.4,0,0.8,0.2,0.8,0.4l-0.1,1.1c0,0.2-0.4,0.4-0.8,0.4h-2.3c-0.5,0-0.8-0.2-0.8-0.4L45.6,70z
	 M48.7,69h-2.2c-0.4,0-0.8-0.2-0.8-0.4l0.1-1.1c0-0.2,0.4-0.4,0.8-0.4h2.2c0.4,0,0.8,0.2,0.8,0.4l-0.1,1.1
	C49.5,68.8,49.2,69,48.7,69z M48.9,66.5h-2.1c-0.4,0-0.7-0.2-0.7-0.4l0.1-1.1c0-0.2,0.4-0.4,0.8-0.4H49c0.4,0,0.7,0.2,0.7,0.4
	l-0.1,1.1C49.7,66.3,49.3,66.5,48.9,66.5z M49,64H47c-0.4,0-0.7-0.2-0.7-0.4l0.1-1.1c0-0.2,0.4-0.4,0.8-0.4h2c0.4,0,0.7,0.2,0.7,0.4
	l-0.1,1.1C49.8,63.8,49.4,64,49,64z M55.8,62h2c0.4,0,0.7,0.2,0.8,0.4l0.1,1.1c0,0.2-0.3,0.4-0.7,0.4h-2.1c-0.4,0-0.7-0.2-0.7-0.4
	l0-1.1C55.1,62.2,55.4,62,55.8,62z M55.9,67h2.2c0.4,0,0.8,0.2,0.8,0.4l0.1,1.1c0,0.2-0.3,0.4-0.8,0.4H56c-0.4,0-0.8-0.2-0.8-0.4
	l0-1.1C55.2,67.2,55.5,67,55.9,67z M56.2,69.6h2.3c0.4,0,0.8,0.2,0.8,0.4l0.1,1.1c0,0.2-0.3,0.4-0.8,0.4h-2.3
	c-0.5,0-0.8-0.2-0.8-0.4l0-1.1C55.4,69.7,55.7,69.6,56.2,69.6z M59.4,62.4c0-0.2,0.3-0.4,0.7-0.4h2c0.4,0,0.7,0.2,0.8,0.4l0.2,1.1
	c0,0.2-0.3,0.4-0.7,0.4h-2.1c-0.4,0-0.8-0.2-0.8-0.4L59.4,62.4z M61,69.6h2.2c0.4,0,0.8,0.2,0.9,0.4l0.2,1.1c0,0.2-0.3,0.4-0.8,0.4
	h-2.3c-0.5,0-0.8-0.2-0.9-0.4L60.2,70C60.2,69.7,60.5,69.6,61,69.6z M83.5,71.5h-2.3c-0.5,0-0.9-0.2-1-0.4L79.8,70
	c-0.1-0.2,0.2-0.4,0.6-0.4h2.2c0.4,0,0.9,0.2,1,0.4l0.5,1.1C84.3,71.3,84,71.5,83.5,71.5z M39.1,77l1.4-3.8h19l1.4,3.8H39.1z"/>
</svg>
