<?xml version="1.0" encoding="utf-8"?>
<!-- Generator: Adobe Illustrator 22.1.0, SVG Export Plug-In . SVG Version: 6.00 Build 0)  -->
<svg version="1.1" id="Capa_1" xmlns="http://www.w3.org/2000/svg" xmlns:xlink="http://www.w3.org/1999/xlink" x="0px" y="0px"
	 viewBox="0 0 100 100" style="enable-background:new 0 0 100 100;" xml:space="preserve">
<style type="text/css">
	.st0{fill:#327A43;}
</style>
<path id="uso_celular" class="st0" d="M31.2,5c-4.1,0-7.5,3.4-7.5,7.5v75c0,4.1,3.4,7.5,7.5,7.5h37.5c4.1,0,7.5-3.4,7.5-7.5v-75
	c0-4.1-3.4-7.5-7.5-7.5H31.2z M37.1,87.7h-4.2c-1.2,0-2.1-0.9-2.1-2.1s0.9-2.1,2.1-2.1h4.2c1.2,0,2.1,0.9,2.1,2.1
	S38.3,87.7,37.1,87.7z M37.1,78.4h-4.2c-1.2,0-2.1-0.9-2.1-2.1s0.9-2.1,2.1-2.1h4.2c1.2,0,2.1,0.9,2.1,2.1S38.3,78.4,37.1,78.4z
	 M37.1,69h-4.2c-1.2,0-2.1-0.9-2.1-2.1s0.9-2.1,2.1-2.1h4.2c1.2,0,2.1,0.9,2.1,2.1S38.3,69,37.1,69z M52.1,87.7h-4.2
	c-1.2,0-2.1-0.9-2.1-2.1s0.9-2.1,2.1-2.1h4.2c1.2,0,2.1,0.9,2.1,2.1S53.3,87.7,52.1,87.7z M52.1,78.4h-4.2c-1.2,0-2.1-0.9-2.1-2.1
	s0.9-2.1,2.1-2.1h4.2c1.2,0,2.1,0.9,2.1,2.1S53.3,78.4,52.1,78.4z M52.1,69h-4.2c-1.2,0-2.1-0.9-2.1-2.1s0.9-2.1,2.1-2.1h4.2
	c1.2,0,2.1,0.9,2.1,2.1S53.3,69,52.1,69z M67.1,87.7h-4.2c-1.2,0-2.1-0.9-2.1-2.1s0.9-2.1,2.1-2.1h4.2c1.2,0,2.1,0.9,2.1,2.1
	S68.3,87.7,67.1,87.7z M67.1,78.4h-4.2c-1.2,0-2.1-0.9-2.1-2.1s0.9-2.1,2.1-2.1h4.2c1.2,0,2.1,0.9,2.1,2.1S68.3,78.4,67.1,78.4z
	 M67.1,69h-4.2c-1.2,0-2.1-0.9-2.1-2.1s0.9-2.1,2.1-2.1h4.2c1.2,0,2.1,0.9,2.1,2.1S68.3,69,67.1,69z M70.6,55.6c0,1-0.8,1.9-1.9,1.9
	H31.2c-1,0-1.9-0.8-1.9-1.9V18.1c0-1,0.8-1.9,1.9-1.9h37.5c1,0,1.9,0.8,1.9,1.9V55.6z"/>
</svg>
