<svg version="1" xmlns="http://www.w3.org/2000/svg" width="346.667" height="346.667" viewBox="0 0 260.000000 260.000000"><path d="M44 13.7c-3.6 1.9-6.5 4.3-8.5 7.1l-3 4.4-.3 102.6c-.2 72.1 0 103.8.8 106.5 1.4 4.7 6.2 10.2 11.1 12.8 3.7 1.8 6.6 1.9 85.4 1.9 79.2 0 81.7-.1 85.4-2 4.8-2.4 9.8-8.3 11.1-13 .6-2.2 1-42.1 1-104.6V28.2l-2.8-5.3c-2-3.9-4.1-6.2-7.7-8.4l-4.8-3-81.2-.3-81.1-.2-5.4 2.7zm157.1 23.2l2.9 2.9V80l-2.9 3.2-2.9 3.3-67.1.3c-75 .3-72.8.5-75.7-6.4-1.2-2.9-1.5-7.3-1.2-22.1l.3-18.5 3.3-2.9L61 34h137.2l2.9 2.9zM73.2 110.7c1.4 1.3 1.8 3.1 1.8 8.9 0 9.1-1.4 10.4-10.7 10.4-8.6 0-10.3-1.7-10.3-10.5 0-8.9 1.6-10.5 10.7-10.5 4.8 0 7.2.5 8.5 1.7zm31.9-.7c1.6.9 1.9 2.2 1.9 9 0 10.1-.8 11-10 11-9.1 0-10-.9-10-10.5 0-9.5.9-10.5 9.6-10.5 3.6 0 7.4.5 8.5 1zm49.1.7c1.4 1.3 1.8 3.1 1.8 8.9 0 10.2-.4 10.4-18.5 10.4-18 0-18.5-.3-18.5-10.2 0-10.8.1-10.8 18.3-10.8 12.6 0 15.3.3 16.9 1.7zm47.9-.7c1.6.9 1.9 2.2 1.9 9.5s-.3 8.6-1.9 9.5c-1.1.5-8.4 1-16.5 1-17.8 0-17.6.1-17.6-11 0-6.5.3-8.1 1.8-8.9 2.3-1.4 29.8-1.4 32.3-.1zM74 143.9c.5 1.1 1 4.9 1 8.5 0 8.7-1 9.6-10.5 9.6-9.1 0-10.5-1.4-10.5-10.3 0-9.2.6-9.7 10.5-9.7 7.3 0 8.6.3 9.5 1.9zm31.8-.7c.7.7 1.2 4.2 1.2 8.8 0 4.6-.5 8.1-1.2 8.8-.7.7-4.2 1.2-8.8 1.2-4.6 0-8.1-.5-8.8-1.2-1.6-1.6-1.6-16 0-17.6.7-.7 4.2-1.2 8.8-1.2 4.6 0 8.1.5 8.8 1.2zm33.2.7c1.6 3 1.2 13.3-.6 15.9-1.3 1.9-2.4 2.2-8.9 2.2-9.5 0-10.5-.9-10.5-9.6 0-9.9.5-10.4 10.5-10.4 7.3 0 8.6.3 9.5 1.9zm31.8-.7c1.9 1.9 1.6 15.3-.4 17.2-2.2 2.3-15.6 2.3-17.5 0-2.1-2.5-2.4-12.9-.5-15.9 1.5-2.3 2.2-2.5 9.4-2.5 4.7 0 8.3.5 9 1.2zm32 0c.8.8 1.2 6.7 1.2 20 0 21.7.4 20.8-10.1 20.8-9.9 0-9.9.1-9.9-21.5 0-12.7.4-18.5 1.2-19.3.7-.7 4.2-1.2 8.8-1.2 4.6 0 8.1.5 8.8 1.2zM73.4 175.6c2.1 2 2.2 14.2.2 17-1.2 1.6-2.7 1.9-9.1 1.9-9.4 0-10.5-1-10.5-10 0-9.1 1.3-10.5 10.5-10.5 5.4 0 7.8.4 8.9 1.6zm32.4-.4c.7.7 1.2 4.3 1.2 8.9 0 9.5-1.3 10.9-10 10.9s-10-1.4-10-10.9c0-4.6.5-8.2 1.2-8.9.7-.7 4.2-1.2 8.8-1.2 4.6 0 8.1.5 8.8 1.2zm32.6 1c2.1 2.9 2.1 13.7.2 16.4-1.2 1.6-2.7 1.9-9.1 1.9-9.5 0-10.5-1-10.5-10.6 0-9 1-9.9 10.5-9.9 6.5 0 7.6.3 8.9 2.2zm32-.6c1.2 1.1 1.6 3.5 1.6 8.9 0 6.8-.2 7.6-2.5 9.1-3 1.9-14.7 1.6-16.7-.4-1.8-1.8-1.7-15.4.1-17.5 1.9-2.4 15.2-2.4 17.5-.1zm32.4 21.6c.8.8 1.2 5.5 1.2 14.5 0 15.5.1 15.3-10.4 15.3-9.4 0-9.6-.4-9.6-15.9 0-8.5.4-13.1 1.2-13.9.7-.7 4.2-1.2 8.8-1.2 4.6 0 8.1.5 8.8 1.2zm-130 10.4c1.9 1.3 2.2 2.4 2.2 8.6 0 9.7-1.1 10.8-10.6 10.8-9.1 0-10.4-1.4-10.4-10.7 0-8.6 1.7-10.3 10.3-10.3 4 0 7 .5 8.5 1.6zm32.6 0c1.2 1.1 1.6 3.6 1.6 9.4 0 9.4-.6 10-10 10s-10-.6-10-10c0-10.1.8-11 10-11 4.9 0 7.3.4 8.4 1.6zm32.6.4c1.6 1.6 2 3.3 2 8.3 0 9.3-1.3 10.7-10.2 10.7-9.7 0-10.8-1.1-10.8-10.6 0-9.1 1.4-10.4 10.7-10.4 5 0 6.7.4 8.3 2zm31.8-.4c1.9 1.3 2.2 2.4 2.2 8.9 0 9.5-.9 10.5-9.9 10.5-9.6 0-10.6-1-10.6-10.5 0-6.4.3-7.9 1.9-9.1 2.7-1.9 13.5-1.9 16.4.2z"/></svg>